<?xml version="1.0" standalone="no"?>
<!DOCTYPE svg PUBLIC "-//W3C//DTD SVG 1.1//EN" "http://www.w3.org/Graphics/SVG/1.1/DTD/svg11.dtd" >
<svg xmlns="http://www.w3.org/2000/svg" xmlns:xlink="http://www.w3.org/1999/xlink" version="1.1">
<metadata>
Created by FontForge 20170731 at Sat Dec  3 12:15:21 2016
 By Aleksey,,,
Copyright 2016 The Saira Project Authors (omnibus.type@gmail.com), with reserved font name "Saira".
</metadata>
<defs>
<font id="SairaCondensed-Light" horiz-adv-x="0" >
  <font-face 
    font-family="Saira Condensed Light"
    font-weight="300"
    font-stretch="condensed"
    units-per-em="1000"
    panose-1="0 0 4 6 0 0 0 0 0 0"
    ascent="800"
    descent="-200"
    x-height="510"
    cap-height="688"
    bbox="-455 -341 890 1086"
    underline-thickness="50"
    underline-position="-150"
    unicode-range="U+000D-FB02"
  />
<missing-glyph horiz-adv-x="500" 
d="M0 0v700h500v-700h-500zM450 650h-400v-600h400v600zM229 278q0 29 13.5 48t40.5 41q28 23 42 43.5t14 54.5q0 31 -19 59t-70 28q-58 0 -78 -33.5t-20 -66.5v-28h-49q-4 12 -4 31q0 23 10.5 56t44 62t96.5 29t94.5 -28t40 -58t8.5 -49q0 -45 -18.5 -74t-48.5 -55
q-22 -18 -33 -33t-11 -37v-53h-53v63zM225 99v70h60v-70h-60z" />
    <glyph glyph-name="fi" unicode="fi" horiz-adv-x="463" 
d="M98 461h-76v49h76v98q0 60 15 89t46 37.5t91 8.5v-45q-41 0 -60.5 -6t-27.5 -23t-8 -51v-108h96v-49h-96v-461h-56v461zM338 668v75h60v-75h-60zM340 0v510h56v-510h-56z" />
    <glyph glyph-name="fl" unicode="fl" horiz-adv-x="463" 
d="M98 461h-76v49h76v98q0 60 15 89t46 37.5t91 8.5v-45q-41 0 -60.5 -6t-27.5 -23t-8 -51v-108h96v-49h-96v-461h-56v461zM340 0v743h56v-743h-56z" />
    <glyph glyph-name="f_f" unicode="ff" horiz-adv-x="546" 
d="M98 461h-76v49h76v98q0 60 15 89t46 37.5t91 8.5v-45q-41 0 -60.5 -6t-27.5 -23t-8 -51v-108h96v-49h-96v-461h-56v461zM371 461h-76v49h76v98q0 60 15 89t46 37.5t91 8.5v-45q-41 0 -60.5 -6t-27.5 -23t-8 -51v-108h96v-49h-96v-461h-56v461z" />
    <glyph glyph-name=".notdef" horiz-adv-x="500" 
d="M0 0v700h500v-700h-500zM450 650h-400v-600h400v600zM229 278q0 29 13.5 48t40.5 41q28 23 42 43.5t14 54.5q0 31 -19 59t-70 28q-58 0 -78 -33.5t-20 -66.5v-28h-49q-4 12 -4 31q0 23 10.5 56t44 62t96.5 29t94.5 -28t40 -58t8.5 -49q0 -45 -18.5 -74t-48.5 -55
q-22 -18 -33 -33t-11 -37v-53h-53v63zM225 99v70h60v-70h-60z" />
    <glyph glyph-name=".null" 
 />
    <glyph glyph-name="nonmarkingreturn" unicode="&#xd;" horiz-adv-x="190" 
 />
    <glyph glyph-name="NULL" 
 />
    <glyph glyph-name="NULL" 
 />
    <glyph glyph-name="space" unicode=" " horiz-adv-x="190" 
 />
    <glyph glyph-name="exclam" unicode="!" horiz-adv-x="194" 
d="M73 309q-7 222 -7 255v124h64v-124q0 -45 -6 -207l-5 -173h-42zM64 0v80h67v-80h-67z" />
    <glyph glyph-name="quotedbl" unicode="&#x22;" horiz-adv-x="271" 
d="M57 449l-9 157v82h57v-82l-9 -157h-39zM175 449l-10 157v82h57v-82l-9 -157h-38z" />
    <glyph glyph-name="numbersign" unicode="#" horiz-adv-x="533" 
d="M257 0l33 197h-130l-32 -197h-48l33 197h-67v47h75l31 192h-80v46h88l34 206h48l-34 -206h129l34 206h48l-34 -206h71v-46h-79l-32 -192h85v-47h-93l-32 -197h-48zM330 436h-130l-32 -192h130z" />
    <glyph glyph-name="dollar" unicode="$" horiz-adv-x="419" 
d="M333.5 107q-29.5 -34 -96.5 -39v-76h-48v76q-79 2 -122 12v50q48 -10 122 -11v204l-41 6q-54 8 -73.5 38t-19.5 99q0 79 32 113.5t102 39.5v77h48v-77q63 -2 105 -13v-50q-43 9 -105 11v-196l36 -5q36 -5 54.5 -18t27 -42.5t8.5 -85.5q0 -79 -29.5 -113zM189 378v189
q-39 -3 -58 -24t-19 -71q0 -38 4.5 -56t15.5 -25t34 -10zM290.5 147q15.5 23 15.5 72q0 41 -4.5 60t-14.5 25t-33 9l-17 3v-196q38 4 53.5 27z" />
    <glyph glyph-name="percent" unicode="%" horiz-adv-x="623" 
d="M86.5 326q-21.5 15 -28.5 53.5t-7 123.5t7 124t28.5 54t69.5 15t69.5 -15t28.5 -54t7 -124t-7 -123.5t-28.5 -53.5t-69.5 -15t-69.5 15zM123 0l332 688h45l-332 -688h-45zM197 359.5q12 8.5 16 38.5t4 105t-4 105.5t-16 39t-41 8.5t-41 -8.5t-16 -39t-4 -105.5t4 -105
t16 -38.5t41 -8.5t41 8.5zM397.5 7q-21.5 15 -28.5 53.5t-7 123.5t7 124t28.5 54t69.5 15t69.5 -15t28.5 -54t7 -124t-7 -123.5t-28.5 -53.5t-69.5 -15t-69.5 15zM508 40.5q12 8.5 16 38.5t4 105q0 76 -4 106t-15.5 38.5t-41.5 8.5q-29 0 -40.5 -8.5t-15.5 -39t-4 -105.5
t4 -105t15.5 -38.5t40.5 -8.5t41 8.5z" />
    <glyph glyph-name="ampersand" unicode="&#x26;" horiz-adv-x="527" 
d="M508 374v-51h-87v-314q-29 -7 -73.5 -12t-82.5 -5q-89 0 -135 21.5t-62 62t-16 108.5q0 79 23 114.5t72 50.5v4q-47 15 -68.5 52t-21.5 110q0 61 17 100t62 60t128 21q35 0 78.5 -5t75.5 -12v-48q-32 7 -70 11t-65 4q-74 0 -110 -13.5t-48 -42t-12 -82.5q0 -61 20 -97.5
t87 -36.5h70v-51h-70q-49 0 -72.5 -16t-31 -45.5t-7.5 -80.5q0 -58 16.5 -88.5t50 -41t91.5 -10.5q59 0 98 10v323h143z" />
    <glyph glyph-name="quotesingle" unicode="'" horiz-adv-x="153" 
d="M57 449l-9 157v82h57v-82l-9 -157h-39z" />
    <glyph glyph-name="parenleft" unicode="(" horiz-adv-x="236" 
d="M106.5 -28q-21.5 49 -31.5 122t-10 203q0 129 10.5 202.5t32 122.5t67.5 121h47q-42 -71 -61 -114.5t-29.5 -120t-10.5 -211.5t10.5 -212t29.5 -120.5t61 -114.5h-47q-47 73 -68.5 122z" />
    <glyph glyph-name="parenright" unicode=")" horiz-adv-x="236" 
d="M75 -35q19 44 30 120.5t11 211.5t-11 211t-30 120t-61 115h47q46 -72 67.5 -121t32 -122.5t10.5 -202.5q0 -130 -10 -203.5t-31.5 -122.5t-68.5 -121h-47q42 71 61 115z" />
    <glyph glyph-name="asterisk" unicode="*" horiz-adv-x="404" 
d="M218 495l7 -137h-46l7 137l-115 -75l-23 41l122 61l-122 64l23 40l115 -75l-7 137h46l-7 -137l116 75l22 -40l-122 -63l123 -62l-23 -40z" />
    <glyph glyph-name="plus" unicode="+" horiz-adv-x="485" 
d="M218 73v156h-155v48h155v156h48v-156h156v-48h-156v-156h-48z" />
    <glyph glyph-name="comma" unicode="," horiz-adv-x="180" 
d="M66.5 -75.5q10.5 5.5 13.5 18t3 40.5v17h-28v80h68v-78q0 -47 -7 -70.5t-25.5 -33t-56.5 -9.5v30q22 0 32.5 5.5z" />
    <glyph glyph-name="hyphen" unicode="-" horiz-adv-x="308" 
d="M59 259v54h191v-54h-191z" />
    <glyph glyph-name="period" unicode="." horiz-adv-x="180" 
d="M57 0v80h66v-80h-66z" />
    <glyph glyph-name="slash" unicode="/" horiz-adv-x="281" 
d="M18 -55l190 798h54l-191 -798h-53z" />
    <glyph glyph-name="zero" unicode="0" horiz-adv-x="486" 
d="M115.5 18q-37.5 26 -48 94t-10.5 232t10.5 232t48 94t127.5 26q92 0 129.5 -26t47 -92t9.5 -234q0 -164 -10.5 -232t-48 -94t-127.5 -26t-127.5 26zM331 61q24 16 31.5 73t7.5 210t-7.5 210t-31.5 73t-88 16t-88 -16t-31.5 -73t-7.5 -210t7.5 -210t31.5 -73t88 -16t88 16
z" />
    <glyph glyph-name="one" unicode="1" horiz-adv-x="269" 
d="M129 0v614l-97 -52v57l113 69h43v-688h-59z" />
    <glyph glyph-name="two" unicode="2" horiz-adv-x="435" 
d="M106 53h280v-53h-337v75q0 86 4 123t21 60.5t58 47.5l137 82q36 21 47.5 47.5t11.5 81.5q0 54 -10.5 80.5t-35.5 36t-75 9.5q-60 0 -148 -11v49q30 7 75.5 11t86.5 4q55 0 89.5 -11t55 -48t20.5 -111q0 -56 -8.5 -90t-27 -55t-52.5 -41l-150 -88q-25 -15 -33 -35
q-6 -15 -7.5 -38t-1.5 -69v-57z" />
    <glyph glyph-name="three" unicode="3" horiz-adv-x="422" 
d="M106 -3.5q-41 4.5 -74 10.5v50q84 -12 143 -12q48 0 76 10t43 39t15 87q0 77 -22.5 109t-76.5 32h-92v53h92q42 0 68 29t26 104q0 58 -13.5 86.5t-42 38.5t-80.5 10q-64 0 -133 -12v50q32 6 72.5 10.5t72.5 4.5q69 0 108.5 -18.5t56.5 -57.5t17 -105q0 -73 -22 -111
t-66 -50v-4q46 -10 70 -48t24 -118q0 -66 -15 -107t-56 -63t-118 -22q-32 0 -73 4.5z" />
    <glyph glyph-name="four" unicode="4" horiz-adv-x="467" 
d="M296 0v168h-262v48l189 472h62l-188 -467h200l8 273h50v-273h75v-53h-75v-168h-59z" />
    <glyph glyph-name="five" unicode="5" horiz-adv-x="438" 
d="M199 45q56 0 85 14.5t39.5 47t10.5 93.5q0 67 -11.5 97.5t-41.5 41t-94 10.5q-49 0 -125 -14v353h294v-53h-238v-243q42 10 106 10q72 0 108 -21t48 -61.5t12 -111.5q0 -83 -15.5 -128.5t-55.5 -66.5t-117 -21q-33 0 -75 4t-73 11v50q86 -12 143 -12z" />
    <glyph glyph-name="six" unicode="6" horiz-adv-x="475" 
d="M161.5 1q-34.5 9 -56.5 33t-35 69q-8 27 -10.5 81.5t-2.5 151.5q0 92 3 148t13 89q19 68 62.5 95.5t128.5 27.5q28 0 66.5 -4.5t72.5 -11.5v-49q-69 12 -129 12q-73 0 -105 -22t-42.5 -79.5t-10.5 -188.5h4q15 24 45 37.5t93 13.5q69 0 104 -13t51 -53t16 -124
q0 -90 -13.5 -136t-51 -66t-113.5 -20q-55 0 -89.5 9zM325.5 55.5q25.5 10.5 36 41.5t10.5 98q0 75 -9.5 106.5t-34.5 40.5t-83 9q-57 0 -84 -11.5t-35 -36.5t-8 -76q0 -80 11 -118t37 -51t79 -13q55 0 80.5 10.5z" />
    <glyph glyph-name="seven" unicode="7" horiz-adv-x="400" 
d="M95 0l211 635h-280v53h342v-47l-210 -641h-63z" />
    <glyph glyph-name="eight" unicode="8" horiz-adv-x="491" 
d="M124.5 12.5q-41.5 20.5 -56.5 61.5t-15 110q0 58 10 91t29.5 49t52.5 25v4q-45 11 -66 49.5t-21 112.5q0 67 16.5 105.5t57 57t113.5 18.5t113.5 -18.5t57 -57t16.5 -105.5q0 -74 -21 -112.5t-66 -49.5v-4q33 -9 52.5 -25t29.5 -49t10 -91q0 -70 -15 -110.5t-56.5 -61
t-120.5 -20.5t-120.5 20.5zM325.5 385.5q27.5 11.5 38 39.5t10.5 83q0 56 -10 84t-37 39.5t-82 11.5q-54 0 -81 -11.5t-37 -39.5t-10 -84q0 -55 10.5 -83t37.5 -39.5t80 -11.5t80.5 11.5zM326.5 55.5q27.5 10.5 39.5 39.5t12 87q0 62 -11 91t-38 39t-84 10t-84 -10t-38 -39
t-11 -91q0 -58 12 -87t39.5 -39.5t81.5 -10.5t81.5 10.5z" />
    <glyph glyph-name="nine" unicode="9" horiz-adv-x="475" 
d="M143.5 -3.5q-39.5 4.5 -71.5 11.5v49q69 -12 129 -12q73 0 105.5 22t43 80t10.5 188h-5q-13 -23 -44 -37t-94 -14q-68 0 -103 13t-51.5 53t-16.5 124q0 90 13.5 136t51 66t113.5 20q56 0 91 -9t56.5 -32t32.5 -66q8 -32 11 -87.5t3 -149.5q0 -103 -4 -161t-16 -92
q-21 -59 -64 -83t-122 -24q-29 0 -68.5 4.5zM314 348.5q27 11.5 35 36.5t8 76q0 80 -11 118t-37 51t-79 13q-55 0 -80.5 -10.5t-36 -41.5t-10.5 -98q0 -75 9.5 -106.5t34.5 -40.5t83 -9q57 0 84 11.5z" />
    <glyph glyph-name="colon" unicode=":" horiz-adv-x="180" 
d="M57 430v80h66v-80h-66zM57 0v80h66v-80h-66z" />
    <glyph glyph-name="semicolon" unicode=";" horiz-adv-x="180" 
d="M57 430v80h66v-80h-66zM66.5 -75.5q10.5 5.5 13.5 18t3 40.5v17h-28v80h68v-78q0 -47 -7 -70.5t-25.5 -33t-56.5 -9.5v30q22 0 32.5 5.5z" />
    <glyph glyph-name="less" unicode="&#x3c;" horiz-adv-x="485" 
d="M423 66l-360 157v60l360 157v-53l-308 -134l308 -134v-53z" />
    <glyph glyph-name="equal" unicode="=" horiz-adv-x="485" 
d="M63 319v48h359v-48h-359zM63 139v48h359v-48h-359z" />
    <glyph glyph-name="greater" unicode="&#x3e;" horiz-adv-x="485" 
d="M63 66v53l307 134l-307 134v53l359 -157v-60z" />
    <glyph glyph-name="question" unicode="?" horiz-adv-x="357" 
d="M102 269q0 36 6.5 56t18 30t35.5 22l20 10q27 14 39.5 26t18.5 36.5t6 72.5q0 49 -8 74t-30 36t-68 11q-48 0 -120 -11v49q34 7 71.5 11t64.5 4q58 0 90.5 -18t45.5 -53.5t13 -93.5q0 -69 -12.5 -111t-52.5 -63l-19 -9q-31 -15 -44 -26t-16.5 -24t-3.5 -39v-76h-55v86z
M96 0v80h67v-80h-67z" />
    <glyph glyph-name="at" unicode="@" horiz-adv-x="680" 
d="M145.5 -80.5q-54.5 27.5 -68 102t-13.5 272.5t13.5 272.5t68 102t194.5 27.5t195 -27.5t68.5 -102t13.5 -272.5q0 -104 -9 -150t-27 -57.5t-58 -11.5h-96l-4 60h-5q-11 -40 -37.5 -53.5t-63.5 -13.5q-40 0 -63.5 11t-35 38t-11.5 77q0 49 9 76.5t30.5 39.5t61.5 12
q39 0 111 -4v33q0 57 -6.5 81t-24 32t-59.5 8q-21 0 -52.5 -3t-47.5 -7v45q47 11 115 11q55 0 82 -14.5t36.5 -48.5t9.5 -101v-243h59q19 0 28 9t13.5 48t4.5 126q0 157 -6 223t-30 97t-82 39q-45 7 -120 7q-64 0 -109 -4q-62 -7 -88 -37t-32.5 -97t-6.5 -228
q0 -163 7.5 -229.5t37 -96t101.5 -36.5q31 -3 91 -3q102 0 132 3v-38q-28 -2 -132 -2q-140 0 -194.5 27.5zM383.5 125q19.5 12 27.5 41t8 84v31h-99q-27 0 -39 -6t-17 -23t-5 -55q0 -36 5.5 -53.5t19.5 -24t44 -6.5q36 0 55.5 12z" />
    <glyph glyph-name="A" unicode="A" horiz-adv-x="493" 
d="M411 0l-54 203h-223l-53 -203h-60l189 688h73l189 -688h-61zM248 608h-5l-94 -353h193z" />
    <glyph glyph-name="B" unicode="B" horiz-adv-x="493" 
d="M74 688h205q85 0 120.5 -44.5t35.5 -127.5q0 -70 -24 -110t-78 -52v-4q63 -12 85.5 -55.5t22.5 -113.5q0 -83 -35.5 -132t-132.5 -49h-199v688zM376 505q0 71 -23.5 100.5t-88.5 29.5h-131v-260h131q112 0 112 130zM356.5 83.5q25.5 31.5 25.5 103.5q0 73 -26.5 104
t-88.5 31h-134v-270h134q64 0 89.5 31.5z" />
    <glyph glyph-name="C" unicode="C" horiz-adv-x="401" 
d="M313 -5q-31 -3 -57 -3q-89 0 -129.5 25.5t-55 97t-14.5 229.5q0 156 14.5 227.5t55 98t129.5 26.5q27 0 57.5 -4t50.5 -9v-49q-54 9 -96 9q-74 0 -103.5 -19t-39 -77.5t-9.5 -202.5t9.5 -202.5t39 -77.5t103.5 -19q51 0 98 9v-51q-22 -5 -53 -8z" />
    <glyph glyph-name="D" unicode="D" horiz-adv-x="498" 
d="M74 688h160q98 0 140 -25t54.5 -92.5t12.5 -226.5t-12.5 -226.5t-54.5 -92.5t-140 -25h-160v688zM230 53q76 0 104.5 15t38 72t9.5 204t-10 204t-38.5 72t-103.5 15h-97v-582h97z" />
    <glyph glyph-name="E" unicode="E" horiz-adv-x="432" 
d="M74 0v688h320v-53h-260v-261h226v-52h-226v-269h260v-53h-320z" />
    <glyph glyph-name="F" unicode="F" horiz-adv-x="408" 
d="M74 0v688h305v-53h-245v-276h219v-52h-219v-307h-60z" />
    <glyph glyph-name="G" unicode="G" horiz-adv-x="484" 
d="M253 307v52h172v-349q-36 -8 -79.5 -13t-78.5 -5q-90 0 -133 26t-60 98.5t-17 227.5q0 153 16.5 225.5t60 99.5t134.5 27q39 0 82.5 -5.5t72.5 -13.5v-49q-30 6 -67 10.5t-61 4.5q-84 0 -118 -15.5t-47.5 -75.5t-13.5 -208q0 -136 10 -196t40.5 -82t100.5 -22
q25 0 53.5 3t46.5 7v253h-114z" />
    <glyph glyph-name="H" unicode="H" horiz-adv-x="530" 
d="M397 0v320h-264v-320h-58v688h58v-313h264v313h58v-688h-58z" />
    <glyph glyph-name="I" unicode="I" horiz-adv-x="214" 
d="M78 0v688h58v-688h-58z" />
    <glyph glyph-name="J" unicode="J" horiz-adv-x="240" 
d="M85.5 63q17.5 10 22 42.5t4.5 129.5v453h59v-440q0 -127 -8 -173.5t-37 -60t-109 -14.5v51q51 2 68.5 12z" />
    <glyph glyph-name="K" unicode="K" horiz-adv-x="479" 
d="M396 0l-171 323h-92v-323h-59v688h59v-313h92l171 313h63l-185 -337l187 -351h-65z" />
    <glyph glyph-name="L" unicode="L" horiz-adv-x="378" 
d="M74 0v688h60v-634h231v-54h-291z" />
    <glyph glyph-name="M" unicode="M" horiz-adv-x="664" 
d="M532 0v575h-4l-169 -575h-56l-168 575h-4v-575h-56v688h84l171 -585h5l172 585h83v-688h-58z" />
    <glyph glyph-name="N" unicode="N" horiz-adv-x="530" 
d="M395 0l-260 559h-4v-559h-56v688h63l257 -554h4v554h57v-688h-61z" />
    <glyph glyph-name="O" unicode="O" horiz-adv-x="521" 
d="M123 18q-41 26 -53.5 95t-12.5 231t12.5 231t53.5 95t137 26q97 0 138 -26t53 -94.5t12 -231.5t-12 -231.5t-53 -94.5t-138 -26q-96 0 -137 26zM358 60.5q27 15.5 36.5 74.5t9.5 209t-9.5 209t-36.5 74.5t-98 15.5t-98 -15.5t-36.5 -74.5t-9.5 -209t9.5 -209t36.5 -74.5
t98 -15.5t98 15.5z" />
    <glyph glyph-name="P" unicode="P" horiz-adv-x="465" 
d="M74 688h201q69 0 103.5 -27t44 -71t9.5 -114q0 -68 -10 -112t-44.5 -72t-103.5 -28h-141v-264h-59v688zM262 316q50 0 73.5 18t30.5 50.5t7 91.5q0 60 -6.5 92t-30 49.5t-73.5 17.5h-130v-319h129z" />
    <glyph glyph-name="Q" unicode="Q" horiz-adv-x="521" 
d="M476 -113v-2h-63l-63 114q-35 -7 -90 -7q-96 0 -137 26t-53.5 95t-12.5 231t12.5 231t53.5 95t137 26q97 0 138 -26t53 -94.5t12 -231.5q0 -106 -4.5 -167t-17.5 -99t-40 -58zM323 48l-95 170h62l82 -146q19 23 25.5 82t6.5 190q0 150 -9.5 209t-36.5 74.5t-98 15.5
t-98 -15.5t-36.5 -74.5t-9.5 -209t9.5 -209t36.5 -74.5t98 -15.5q46 0 63 3z" />
    <glyph glyph-name="R" unicode="R" horiz-adv-x="494" 
d="M386 0l-90 284h-19h-144v-284h-59v688h208q69 0 103 -26t43.5 -68t9.5 -108q0 -77 -15.5 -124.5t-68.5 -66.5l95 -295h-63zM341.5 353q23.5 17 30.5 47.5t7 85.5q0 56 -6.5 86t-29.5 46.5t-73 16.5h-137v-299h135q50 0 73.5 17z" />
    <glyph glyph-name="S" unicode="S" horiz-adv-x="444" 
d="M138.5 -4.5q-46.5 3.5 -80.5 9.5v52q35 -5 77.5 -8.5t72.5 -3.5q40 0 64.5 5.5t42.5 20.5q16 13 21 41t5 74q0 61 -4 84.5t-20 33t-57 16.5l-123 19q-42 6 -62 27t-25.5 53.5t-5.5 89.5q0 101 42.5 144t139.5 43q41 0 82.5 -4t65.5 -10v-51q-28 5 -66 8.5t-70 3.5
q-45 0 -71.5 -7.5t-40.5 -24.5t-18.5 -40.5t-4.5 -61.5q0 -49 4.5 -71t17 -31t42.5 -14l116 -18q45 -8 69.5 -22t37.5 -48q10 -26 10 -112q0 -75 -16 -118t-53.5 -63t-104.5 -20q-41 0 -87.5 3.5z" />
    <glyph glyph-name="T" unicode="T" horiz-adv-x="413" 
d="M177 0v634h-158v54h375v-54h-158v-634h-59z" />
    <glyph glyph-name="U" unicode="U" horiz-adv-x="517" 
d="M448 688v-391q0 -133 -12 -193.5t-51 -86t-126 -25.5q-88 0 -127 25.5t-51 86t-12 193.5v391h58v-424q0 -99 7.5 -141.5t34.5 -60t90 -17.5q62 0 88.5 17.5t34 60t7.5 141.5v424h59z" />
    <glyph glyph-name="V" unicode="V" horiz-adv-x="460" 
d="M193 0l-180 688h61l155 -603h5l155 603h58l-180 -688h-74z" />
    <glyph glyph-name="W" unicode="W" horiz-adv-x="688" 
d="M468 0l-122 582h-4l-121 -582h-70l-134 688h60l109 -593h5l121 593h66l122 -593h6l107 593h59l-133 -688h-71z" />
    <glyph glyph-name="X" unicode="X" horiz-adv-x="482" 
d="M397 0l-154 293h-6l-154 -293h-64l185 346l-182 342h66l152 -289h5l151 289h64l-181 -341l184 -347h-66z" />
    <glyph glyph-name="Y" unicode="Y" horiz-adv-x="428" 
d="M184 0v271l-180 417h62l146 -344h6l146 344h60l-181 -417v-271h-59z" />
    <glyph glyph-name="Z" unicode="Z" horiz-adv-x="422" 
d="M31 0v50l288 585h-280v53h348v-49l-287 -587h292v-52h-361z" />
    <glyph glyph-name="bracketleft" unicode="[" horiz-adv-x="242" 
d="M75 -150v893h139v-45l-85 -4v-795l85 -4v-45h-139z" />
    <glyph glyph-name="backslash" unicode="\" horiz-adv-x="281" 
d="M209 -55l-191 798h54l190 -798h-53z" />
    <glyph glyph-name="bracketright" unicode="]" horiz-adv-x="241" 
d="M28 -150v45l85 4v795l-85 4v45h139v-893h-139z" />
    <glyph glyph-name="asciicircum" unicode="^" horiz-adv-x="416" 
d="M311 476l-103 230l-103 -230h-52l125 274h60l125 -274h-52z" />
    <glyph glyph-name="underscore" unicode="_" horiz-adv-x="310" 
d="M0 -165v48h310v-48h-310z" />
    <glyph glyph-name="grave" unicode="`" horiz-adv-x="129" 
d="M82 603l-76 135v5h62l55 -135v-5h-41z" />
    <glyph glyph-name="a" unicode="a" horiz-adv-x="427" 
d="M95 4.5q-29 12.5 -43.5 44.5t-14.5 90t11.5 89.5t38.5 45.5t77 14q30 0 142 -5v40q0 68 -9 97.5t-33 39t-79 9.5q-25 0 -62 -3.5t-60 -8.5v48q65 13 138 13q68 0 101.5 -16.5t46.5 -56.5t13 -119v-326h-48l-4 73h-4q-15 -49 -50 -65t-83 -16q-49 0 -78 12.5zM252.5 51
q25.5 10 37.5 41q9 25 12.5 51.5t3.5 64.5v35h-129q-35 0 -52.5 -7.5t-24.5 -28.5t-7 -65q0 -42 7.5 -63.5t27 -29.5t59.5 -8t65.5 10z" />
    <glyph glyph-name="b" unicode="b" horiz-adv-x="452" 
d="M170.5 8.5q-32.5 16.5 -46.5 64.5h-5l-4 -73h-48v743h56v-297h5q13 39 43.5 55.5t80.5 16.5q62 0 93.5 -22t43.5 -77t12 -164t-12 -164t-43.5 -77t-94.5 -22q-48 0 -80.5 16.5zM307.5 57.5q22.5 14.5 30 57t7.5 140.5t-7.5 140.5t-30 57t-74.5 14.5q-41 0 -64.5 -15.5
t-32.5 -49.5q-8 -28 -10.5 -62t-2.5 -85q0 -52 2 -84.5t10 -59.5q9 -35 33 -51.5t65 -16.5q52 0 74.5 14.5z" />
    <glyph glyph-name="c" unicode="c" horiz-adv-x="352" 
d="M269 -4.5q-29 -3.5 -57 -3.5q-73 0 -107.5 26t-44.5 78.5t-10 157.5q0 107 12.5 162t46 78.5t100.5 23.5q26 0 55.5 -3.5t48.5 -8.5v-48q-50 11 -93 11q-51 0 -74.5 -17t-31.5 -60t-8 -136q0 -95 8.5 -139t32 -60t75.5 -16q22 0 48.5 3.5t45.5 8.5v-48q-18 -6 -47 -9.5z
" />
    <glyph glyph-name="d" unicode="d" horiz-adv-x="452" 
d="M106.5 14q-31.5 22 -44 77t-12.5 164t12 164t43.5 77t94.5 22q50 0 80.5 -16.5t43.5 -55.5h5v297h56v-743h-48l-4 73h-5q-14 -48 -47 -64.5t-81 -16.5q-62 0 -93.5 22zM284 59q24 16 33 50q7 30 9.5 65t2.5 91q0 84 -10 125q-10 42 -34 59.5t-70 17.5q-50 0 -72 -14.5
t-29.5 -57t-7.5 -140.5t7.5 -140.5t30 -57t74.5 -14.5q42 0 66 16z" />
    <glyph glyph-name="e" unicode="e" horiz-adv-x="429" 
d="M378 236h-272q0 -87 8 -125.5t34.5 -54t86.5 -15.5q30 0 66 3.5t63 9.5v-48q-23 -6 -62 -10t-76 -4q-79 0 -115.5 22.5t-48.5 76t-12 163.5q0 111 10 163t46 76.5t117 24.5q73 0 105 -23.5t41 -75t9 -163.5v-20zM144.5 455.5q-23.5 -13.5 -30.5 -50.5t-8 -124h217v15
q0 78 -8.5 114t-29.5 47.5t-64 11.5q-53 0 -76.5 -13.5z" />
    <glyph glyph-name="f" unicode="f" horiz-adv-x="273" 
d="M98 461h-76v49h76v98q0 60 15 89t46 37.5t91 8.5v-45q-41 0 -60.5 -6t-27.5 -23t-8 -51v-108h96v-49h-96v-461h-56v461z" />
    <glyph glyph-name="g" unicode="g" horiz-adv-x="451" 
d="M66 -193v48q62 -5 125 -5q62 0 90.5 17t37.5 58t9 130v11h-4q-13 -39 -43 -55.5t-81 -16.5q-63 0 -94.5 21.5t-43.5 76.5t-12 163q0 109 12.5 164t44 77t94.5 22q48 0 80.5 -16.5t46.5 -64.5h5l3 73h48v-434q0 -111 -12.5 -167.5t-51.5 -82t-120 -25.5q-77 0 -134 6z
M283.5 60.5q23.5 16.5 33.5 53.5q7 25 9 57t2 84q0 50 -1.5 81t-7.5 54q-10 42 -34 59.5t-67 17.5q-52 0 -74.5 -14t-30 -56.5t-7.5 -141.5q0 -98 7.5 -140t30 -56.5t74.5 -14.5q42 0 65.5 16.5z" />
    <glyph glyph-name="h" unicode="h" horiz-adv-x="455" 
d="M334 304q0 75 -7 108t-27.5 44t-65.5 11q-52 0 -75.5 -24.5t-29.5 -64.5t-6 -114v-264h-56v743h56v-296h5q12 31 40 51t86 20t87 -19.5t39 -60t10 -116.5v-322h-56v304z" />
    <glyph glyph-name="i" unicode="i" horiz-adv-x="190" 
d="M65 668v75h60v-75h-60zM67 0v510h56v-510h-56z" />
    <glyph glyph-name="j" unicode="j" horiz-adv-x="190" 
d="M65 668v75h60v-75h-60zM-4 -147q33 0 47.5 5t19 16t4.5 35v601h56v-585q0 -55 -12 -79.5t-37.5 -31.5t-77.5 -7v46z" />
    <glyph glyph-name="k" unicode="k" horiz-adv-x="402" 
d="M317 0l-134 233h-60v-233h-56v743h56v-459h60l132 226h62l-149 -247l153 -263h-64z" />
    <glyph glyph-name="l" unicode="l" horiz-adv-x="190" 
d="M67 0v743h56v-743h-56z" />
    <glyph glyph-name="m" unicode="m" horiz-adv-x="694" 
d="M573 304q0 75 -6.5 108t-25 44t-59.5 11q-50 0 -72.5 -23t-28 -62.5t-5.5 -117.5v-264h-56v304q0 75 -6.5 108t-24.5 44t-60 11q-49 0 -72 -24.5t-28.5 -64.5t-5.5 -114v-264h-56v510h48l4 -73h5q11 38 39 59.5t84 21.5q57 0 84 -18.5t37 -62.5h5q24 81 126 81
q55 0 82.5 -19.5t37.5 -60.5t10 -116v-322h-56v304z" />
    <glyph glyph-name="n" unicode="n" horiz-adv-x="455" 
d="M334 304q0 75 -7 108t-27.5 44t-65.5 11q-52 0 -75.5 -24.5t-29.5 -64.5t-6 -114v-264h-56v510h48l4 -73h5q12 38 41 59.5t89 21.5q58 0 87 -19.5t39 -60.5t10 -117v-321h-56v304z" />
    <glyph glyph-name="o" unicode="o" horiz-adv-x="441" 
d="M105.5 13q-34.5 21 -45 72.5t-10.5 168.5q0 118 10.5 170t45 73t114.5 21t115 -21t45 -73t10 -170q0 -117 -10 -168.5t-45 -72.5t-115 -21t-114.5 21zM299.5 56q22.5 15 28.5 55.5t6 142.5t-6 143t-29 56.5t-79 15.5t-79 -15.5t-29 -56.5t-6 -143t6 -142.5t28.5 -55.5
t79.5 -15t79.5 15z" />
    <glyph glyph-name="p" unicode="p" horiz-adv-x="452" 
d="M67 510h48l4 -73h5q14 48 46.5 64.5t80.5 16.5q63 0 94.5 -22t43.5 -77t12 -164t-12 -164t-43.5 -77t-93.5 -22q-50 0 -80.5 17t-43.5 56h-5v-258h-56v703zM307.5 57.5q22.5 14.5 30 57t7.5 140.5t-7.5 140.5t-30 57t-74.5 14.5q-42 0 -66 -17t-34 -55q-6 -25 -8 -57
t-2 -83q0 -94 9 -131q10 -44 34 -62.5t67 -18.5q52 0 74.5 14.5z" />
    <glyph glyph-name="q" unicode="q" horiz-adv-x="452" 
d="M329 65h-5q-13 -39 -43.5 -56t-80.5 -17q-63 0 -94.5 22t-43.5 77t-12 164t12.5 164t44 77t93.5 22q48 0 81 -16.5t47 -64.5h5l4 73h48v-703h-56v258zM285 60.5q24 17.5 34 57.5q10 43 10 137q0 52 -2 84.5t-10 61.5q-9 34 -33 50t-66 16q-52 0 -74.5 -14.5t-30 -57
t-7.5 -140.5t7.5 -140.5t30 -57t74.5 -14.5q43 0 67 17.5z" />
    <glyph glyph-name="r" unicode="r" horiz-adv-x="277" 
d="M67 510h48l4 -98h5q13 61 46.5 83.5t87.5 22.5v-57q-53 0 -82.5 -23.5t-41 -69t-11.5 -119.5v-249h-56v510z" />
    <glyph glyph-name="s" unicode="s" horiz-adv-x="378" 
d="M115 -4.5q-38 3.5 -62 8.5v48q60 -11 135 -11q57 0 75.5 22.5t18.5 72.5q0 40 -4.5 58t-15 24t-34.5 9l-103 14q-48 7 -66 36t-18 94q0 60 18.5 92t51.5 43.5t86 11.5q29 0 63 -4t56 -9v-48q-53 12 -124 12q-50 0 -73 -19t-23 -74q0 -36 4.5 -53t15 -23t33.5 -9l101 -14
q34 -5 52 -17t26.5 -40t8.5 -82q0 -82 -35 -114t-115 -32q-34 0 -72 3.5z" />
    <glyph glyph-name="t" unicode="t" horiz-adv-x="265" 
d="M98 0v461h-77v49h77v148h56v-148h89v-49h-89v-461h-56z" />
    <glyph glyph-name="u" unicode="u" horiz-adv-x="455" 
d="M336 73h-5q-12 -38 -41.5 -59.5t-88.5 -21.5q-58 0 -87.5 19.5t-39.5 60.5t-10 117v321h56v-304q0 -75 7.5 -108t27.5 -44t66 -11q51 0 75 24.5t29.5 64.5t5.5 114v264h56v-510h-47z" />
    <glyph glyph-name="v" unicode="v" horiz-adv-x="402" 
d="M169 0l-148 510h59l119 -431h6l118 431h58l-148 -510h-64z" />
    <glyph glyph-name="w" unicode="w" horiz-adv-x="607" 
d="M396 0l-90 411h-5l-90 -411h-66l-122 510h58l96 -429h5l92 429h61l93 -429h5l95 429h56l-122 -510h-66z" />
    <glyph glyph-name="x" unicode="x" horiz-adv-x="408" 
d="M323 0l-118 210h-4l-119 -210h-61l149 258l-144 252h64l112 -200h5l113 200h61l-143 -249l149 -261h-64z" />
    <glyph glyph-name="y" unicode="y" horiz-adv-x="455" 
d="M77 -194v48q70 -4 120 -4q61 0 89.5 19t36.5 59.5t8 121.5v17h-4q-12 -34 -40 -54t-88 -20q-58 0 -86.5 20t-38.5 62t-10 120v315h56v-304q0 -74 7.5 -107t27.5 -44t66 -11q52 0 75.5 24t29 63.5t5.5 114.5v264h56v-438q0 -107 -13 -163t-51.5 -82t-116.5 -26
q-69 0 -129 5z" />
    <glyph glyph-name="z" unicode="z" horiz-adv-x="369" 
d="M35 0v45l230 416h-222v49h290v-44l-231 -417h232v-49h-299z" />
    <glyph glyph-name="braceleft" unicode="{" horiz-adv-x="249" 
d="M126.5 -75q-26.5 52 -26.5 110v116q0 53 -18 89.5t-60 37.5v36q42 1 60 37.5t18 90.5v116q0 58 26.5 110t60.5 75h48q-34 -32 -57.5 -80t-23.5 -96v-120q0 -124 -72 -148v-5q72 -24 72 -148v-120q0 -48 23.5 -96t57.5 -80h-48q-34 23 -60.5 75z" />
    <glyph glyph-name="bar" unicode="|" horiz-adv-x="223" 
d="M85 -161v904h53v-904h-53z" />
    <glyph glyph-name="braceright" unicode="}" horiz-adv-x="249" 
d="M71.5 -70.5q23.5 48.5 23.5 96.5v120q0 124 72 148v5q-72 24 -72 148v120q0 48 -23 95.5t-58 80.5h48q34 -23 60.5 -75t26.5 -110v-116q0 -54 18 -90.5t60 -37.5v-36q-42 -1 -60 -37.5t-18 -89.5v-116q0 -58 -26.5 -110t-60.5 -75h-48q34 31 57.5 79.5z" />
    <glyph glyph-name="asciitilde" unicode="~" horiz-adv-x="436" 
d="M369.5 298q-4.5 -21 -19 -31.5t-43.5 -10.5q-22 0 -44 6t-55 19q-30 12 -45 17t-31 5q-21 0 -27 -12t-6 -46h-37q0 40 4.5 61t19 31.5t43.5 10.5q20 0 39.5 -5.5t37 -12t23.5 -8.5q4 -2 20.5 -8t30 -9t24.5 -3q21 0 27 12t6 45h37q0 -40 -4.5 -61z" />
    <glyph glyph-name="uni00A0" unicode="&#xa0;" horiz-adv-x="190" 
 />
    <glyph glyph-name="exclamdown" unicode="&#xa1;" horiz-adv-x="192" 
d="M62 430v80h67v-80h-67zM64 -54q0 33 7 255l4 125h42l5 -173q6 -162 6 -207v-124h-64v124z" />
    <glyph glyph-name="cent" unicode="&#xa2;" horiz-adv-x="375" 
d="M329 80q-36 -11 -85 -12v-76h-48v76q-61 3 -91 31t-40.5 84t-10.5 159q0 107 13 165t43 83t86 28v78h48v-78q52 -3 82 -12v-50q-37 9 -82 11v-449q48 3 85 13v-51zM118.5 212q6.5 -45 24 -66t53.5 -26v445q-36 -5 -53.5 -25t-24 -64.5t-6.5 -131.5t6.5 -132z" />
    <glyph glyph-name="sterling" unicode="&#xa3;" horiz-adv-x="439" 
d="M395 53v-53h-352v53h55v278h-55v52h55v50q0 101 17 157.5t57 81t112 24.5q27 0 55.5 -3.5t46.5 -9.5v-50q-45 10 -92 10q-33 0 -56 -5t-38 -17q-25 -20 -34 -63.5t-9 -119.5v-55h175v-52h-175v-278h238z" />
    <glyph glyph-name="currency" unicode="&#xa4;" horiz-adv-x="573" 
d="M51 30l92 92q-17 28 -22 77.5t-5 146.5q0 94 5 143t22 77l-93 92l35 35l95 -95q33 19 106 19q38 0 64 -4.5t43 -15.5l95 95l34 -34l-93 -93q16 -28 21.5 -77.5t5.5 -141.5q0 -93 -5.5 -144t-21.5 -79l93 -93l-34 -34l-95 95q-33 -19 -107 -19q-73 0 -106 19l-95 -95z
M365.5 137q22.5 16 28.5 58.5t6 150.5q0 105 -6 147t-29 58t-79 16t-79 -16t-29 -58t-6 -147q0 -108 6 -150.5t28.5 -58.5t79.5 -16t79.5 16z" />
    <glyph glyph-name="yen" unicode="&#xa5;" horiz-adv-x="473" 
d="M442 688l-102 -240h80v-44h-99l-46 -109h145v-43h-155v-252h-58v252h-155v43h144l-46 109h-98v44h80l-101 240h62l96 -240h97l96 240h60zM240 334l28 70h-61l28 -70h5z" />
    <glyph glyph-name="brokenbar" unicode="&#xa6;" horiz-adv-x="223" 
d="M85 390v353h53v-353h-53zM85 -161v353h53v-353h-53z" />
    <glyph glyph-name="section" unicode="&#xa7;" horiz-adv-x="510" 
d="M161 -167q-36 4 -55 9v52q19 -5 54.5 -8.5t71.5 -3.5q62 0 89.5 20t27.5 79q0 34 -5 52t-16 26.5t-33 16.5l-128 42q-48 16 -70.5 30.5t-34 44t-11.5 86.5q0 66 19.5 104t66.5 48q-19 17 -26.5 42t-7.5 67q0 62 20 96t57 47t94 13q39 0 75 -4t55 -9v-52q-19 5 -55 8.5
t-71 3.5q-62 0 -89.5 -20t-27.5 -79q0 -35 5 -52.5t17 -26.5t36 -17l125 -41q47 -16 69.5 -30.5t34 -44t11.5 -87.5q0 -66 -19.5 -104t-66.5 -48q19 -16 26.5 -41t7.5 -67q0 -62 -20 -96t-57 -47t-94 -13q-39 0 -75 4zM384.5 151q17.5 27 17.5 82q0 41 -4.5 63t-13.5 30.5
t-24 13.5l-153 50q-29 10 -37 10q-26 0 -44 -27.5t-18 -82.5q0 -42 5 -63t15 -30.5t29 -15.5l149 -49q27 -8 34 -8q27 0 44.5 27z" />
    <glyph glyph-name="dieresis" unicode="&#xa8;" horiz-adv-x="277" 
d="M22 660v70h57v-70h-57zM198 660v70h57v-70h-57z" />
    <glyph glyph-name="copyright" unicode="&#xa9;" horiz-adv-x="570" 
d="M138 16q-42 24 -53.5 91t-11.5 237t11.5 237t53.5 91t147 24t147 -24t53.5 -91t11.5 -237t-11.5 -237t-53.5 -91t-147 -24t-147 24zM409 42.5q34 18.5 43.5 79t9.5 222.5t-9.5 222.5t-43.5 79t-124 18.5q-91 0 -125 -18.5t-43.5 -79t-9.5 -222.5t9.5 -222.5t43.5 -79
t125 -18.5q90 0 124 18.5zM233 168q-22 14 -30 52.5t-8 123.5q0 83 8 121.5t30 53t70 14.5q41 0 59 -6v-36q-25 5 -52 5q-36 0 -50.5 -9.5t-19 -39.5t-4.5 -103q0 -74 4.5 -104t19 -39.5t50.5 -9.5q28 0 53 5v-36q-22 -6 -60 -6q-48 0 -70 14z" />
    <glyph glyph-name="ordfeminine" unicode="&#xaa;" horiz-adv-x="327" 
d="M56.5 336q-22.5 23 -22.5 86q0 43 8 66t27.5 33t56.5 10l73 -2l26 -1v25q0 47 -6 67.5t-22.5 27t-55.5 6.5q-38 0 -90 -9v41q45 10 103 10q50 0 74.5 -12t34 -41.5t9.5 -87.5v-236h-41l-4 43h-4q-26 -49 -90 -49q-54 0 -76.5 23zM188 364q18 9 28 30q9 19 9 76v23h-89
q-24 0 -35.5 -5t-16.5 -19.5t-5 -44.5q0 -42 13 -55.5t51 -13.5q27 0 45 9z" />
    <glyph glyph-name="guillemotleft" unicode="&#xab;" horiz-adv-x="354" 
d="M130 101l-97 204l97 205h43l-84 -205l84 -204h-43zM256 101l-97 204l97 205h43l-83 -205l83 -204h-43z" />
    <glyph glyph-name="logicalnot" unicode="&#xac;" horiz-adv-x="484" 
d="M371 73v156h-308v50h358v-206h-50z" />
    <glyph glyph-name="uni00AD" unicode="&#xad;" horiz-adv-x="308" 
d="M59 259v54h191v-54h-191z" />
    <glyph glyph-name="registered" unicode="&#xae;" horiz-adv-x="570" 
d="M432 672q42 -24 53.5 -91t11.5 -237t-11.5 -237t-53.5 -91t-147 -24q-106 0 -148 24t-53 90.5t-11 237.5q0 170 11 237t53 91t148 24q105 0 147 -24zM409 42.5q34 18.5 43.5 79t9.5 222.5t-9.5 222.5t-43.5 79t-124 18.5q-91 0 -125 -18.5t-43.5 -79t-9.5 -222.5
t9.5 -222.5t43.5 -79t125 -18.5q90 0 124 18.5zM378.5 351.5q-8.5 -26.5 -35.5 -37.5l50 -157h-43l-47 149h-4h-68v-149h-41v372h111q39 0 57.5 -14.5t23.5 -37t5 -58.5q0 -41 -8.5 -67.5zM328 351.5q12 8.5 15 23.5t3 44q0 28 -3 42.5t-14.5 22t-35.5 7.5h-62v-148h60
q25 0 37 8.5z" />
    <glyph glyph-name="macron" unicode="&#xaf;" horiz-adv-x="309" 
d="M59 689v54h191v-54h-191z" />
    <glyph glyph-name="degree" unicode="&#xb0;" horiz-adv-x="313" 
d="M86.5 410q-21.5 13 -27.5 42t-6 94t6 94.5t27.5 42.5t70.5 13q48 0 69.5 -13t27.5 -42.5t6 -94.5t-6 -94t-27.5 -42t-69.5 -13q-49 0 -70.5 13zM198 444q12 9 14.5 29.5t2.5 72.5t-2.5 72.5t-14.5 29.5t-41 9q-30 0 -42 -9t-15 -29.5t-3 -72.5t3 -72.5t15 -29.5t42 -9
q29 0 41 9z" />
    <glyph glyph-name="plusminus" unicode="&#xb1;" horiz-adv-x="485" 
d="M218 195v155h-155v49h155v155h48v-155h156v-49h-156v-155h-48zM63 30v49h359v-49h-359z" />
    <glyph glyph-name="uni00B2" unicode="&#xb2;" horiz-adv-x="291" 
d="M92 359h150v-41h-193v44q0 44 2 64t10 32.5t26 24.5q51 31 80 47q18 11 24 24.5t6 39.5q0 36 -12 48.5t-46 12.5q-31 0 -85 -8v40q44 9 93 9q31 0 51 -6.5t32 -27.5t12 -63q0 -44 -11.5 -66t-39.5 -38l-76 -45q-14 -9 -18.5 -20t-4.5 -41v-30z" />
    <glyph glyph-name="uni00B3" unicode="&#xb3;" horiz-adv-x="288" 
d="M46 318v39q58 -7 83 -7q34 0 49.5 13.5t15.5 52.5q0 37 -11.5 53t-35.5 16h-56v40h56q43 0 43 64q0 39 -14.5 52.5t-50.5 13.5q-27 0 -77 -8v39q42 10 84 10q58 0 80.5 -23.5t22.5 -79.5q0 -34 -10.5 -53t-33.5 -31v-4q47 -18 47 -87q0 -57 -21.5 -83t-84.5 -26
q-34 0 -86 9z" />
    <glyph glyph-name="acute" unicode="&#xb4;" horiz-adv-x="129" 
d="M6 603v5l56 135h61v-5l-76 -135h-41z" />
    <glyph glyph-name="uni00B5" unicode="&#xb5;" horiz-adv-x="457" 
d="M390 510v-510h-48l-4 73h-4q-12 -38 -41 -59.5t-87 -21.5q-53 0 -83 24v-206h-56v700h56v-304q0 -75 7.5 -108t27.5 -44t66 -11q51 0 75 24.5t29.5 64.5t5.5 114v264h56z" />
    <glyph glyph-name="paragraph" unicode="&#xb6;" horiz-adv-x="422" 
d="M206 222q-81 0 -114 16t-42 60t-9 156t9 156.5t42 61t114 16.5h49v-832h-49v366zM304 -144v832h49v-832h-49z" />
    <glyph glyph-name="periodcentered" unicode="&#xb7;" horiz-adv-x="180" 
d="M57 259v80h66v-80h-66z" />
    <glyph glyph-name="cedilla" unicode="&#xb8;" horiz-adv-x="137" 
d="M19 -190v5l60 193h40v-5l-43 -193h-57z" />
    <glyph glyph-name="uni00B9" unicode="&#xb9;" horiz-adv-x="206" 
d="M98 318v314l-54 -26v42l65 40h33v-370h-44z" />
    <glyph glyph-name="ordmasculine" unicode="&#xba;" horiz-adv-x="339" 
d="M85.5 328.5q-25.5 15.5 -33 53t-7.5 122.5t7.5 123t33 53.5t84.5 15.5t84.5 -15.5t33 -53.5t7.5 -123t-7.5 -122.5t-33 -53t-84.5 -15.5t-84.5 15.5zM224.5 365.5q15.5 10.5 19.5 39t4 99.5t-4 99.5t-20 39.5t-54 11q-39 0 -54.5 -11t-19.5 -39t-4 -100t4 -100
t19.5 -38.5t54.5 -10.5t54.5 10.5z" />
    <glyph glyph-name="guillemotright" unicode="&#xbb;" horiz-adv-x="354" 
d="M55 101l84 204l-84 205h43l98 -205l-98 -204h-43zM181 101l84 204l-84 205h43l98 -205l-98 -204h-43z" />
    <glyph glyph-name="onequarter" unicode="&#xbc;" horiz-adv-x="533" 
d="M98 318v314l-53 -26v42l65 40h32v-370h-44zM58 0l331 688h45l-331 -688h-45zM403 0v82h-143v34l97 256h47l-97 -249h96l6 146h38v-146h39v-41h-39v-82h-44z" />
    <glyph glyph-name="onehalf" unicode="&#xbd;" horiz-adv-x="586" 
d="M98 318v314l-53 -26v42l65 40h32v-370h-44zM389 688h45l-331 -688h-45zM382 42h149v-42h-192v45q0 43 2 63.5t10 33t26 23.5q51 31 80 47q18 11 24 24.5t6 40.5q0 36 -12 48t-46 12q-25 0 -85 -7v40q46 8 93 8q32 0 51.5 -6t31 -27t11.5 -63q0 -44 -11 -66.5t-39 -38.5
l-29 -17q-32 -18 -47 -28q-15 -8 -19 -21t-4 -40v-29z" />
    <glyph glyph-name="threequarters" unicode="&#xbe;" horiz-adv-x="600" 
d="M132 350q34 0 49.5 13.5t15.5 52.5q0 37 -11.5 53t-35.5 16h-55v40h55q44 0 44 64q0 39 -15 52.5t-51 13.5q-27 0 -77 -8v39q42 10 84 10q58 0 80.5 -23.5t22.5 -79.5q0 -34 -10.5 -53t-33.5 -31v-4q48 -18 48 -87q0 -56 -22 -82.5t-85 -26.5q-34 0 -86 9v39q59 -7 83 -7
zM126 0l331 688h45l-331 -688h-45zM469 0v82h-143v34l98 256h46l-96 -249h96l6 146h38v-146h39v-41h-39v-82h-45z" />
    <glyph glyph-name="questiondown" unicode="&#xbf;" horiz-adv-x="317" 
d="M191 430v80h67v-80h-67zM108.5 -169q-32.5 17 -46 52.5t-13.5 95.5q0 69 13.5 111.5t52.5 63.5l36 18q31 15 38.5 29t7.5 50v76h55v-86q0 -36 -6.5 -56t-18 -30.5t-34.5 -22.5l-19 -8q-28 -14 -41 -26.5t-19 -37t-6 -72.5q0 -49 8 -74t30 -36t68 -11q41 0 120 11v-49
q-31 -7 -69 -11t-66 -4q-58 0 -90.5 17z" />
    <glyph glyph-name="Agrave" unicode="&#xc0;" horiz-adv-x="493" 
d="M411 0l-54 203h-223l-53 -203h-60l189 688h73l189 -688h-61zM248 608h-5l-94 -353h193zM236 750l-76 135v5h62l55 -135v-5h-41z" />
    <glyph glyph-name="Aacute" unicode="&#xc1;" horiz-adv-x="493" 
d="M411 0l-54 203h-223l-53 -203h-60l189 688h73l189 -688h-61zM248 608h-5l-94 -353h193zM216 750v5l56 135h61v-5l-76 -135h-41z" />
    <glyph glyph-name="Acircumflex" unicode="&#xc2;" horiz-adv-x="493" 
d="M411 0l-54 203h-223l-53 -203h-60l189 688h73l189 -688h-61zM248 608h-5l-94 -353h193zM135 750v5l78 133h65l78 -133v-5h-40l-70 101l-70 -101h-41z" />
    <glyph glyph-name="Atilde" unicode="&#xc3;" horiz-adv-x="493" 
d="M411 0l-54 203h-223l-53 -203h-60l189 688h73l189 -688h-61zM248 608h-5l-94 -353h193zM372.5 783q-10.5 -22 -46.5 -22q-19 0 -37.5 6t-48.5 18q-24 11 -39.5 16.5t-30.5 5.5t-19.5 -12t-4.5 -45h-37q0 58 11 80.5t47 22.5q20 0 39.5 -6.5t48.5 -19.5q25 -10 39.5 -15
t28.5 -5q15 0 19 11.5t4 45.5h37q0 -59 -10.5 -81z" />
    <glyph glyph-name="Adieresis" unicode="&#xc4;" horiz-adv-x="493" 
d="M411 0l-54 203h-223l-53 -203h-60l189 688h73l189 -688h-61zM248 608h-5l-94 -353h193zM130 773v70h57v-70h-57zM306 773v70h57v-70h-57z" />
    <glyph glyph-name="Aring" unicode="&#xc5;" horiz-adv-x="493" 
d="M472 0h-61l-54 203h-223l-53 -203h-60l187 682q-27 4 -39.5 14t-16 27.5t-3.5 49.5q0 38 6 56.5t26.5 27.5t64.5 9t65 -9t27 -27.5t6 -56.5q0 -32 -4 -49.5t-16.5 -27.5t-38.5 -13zM194 736.5q3 -11.5 14.5 -16.5t37.5 -5t37.5 5t15 16.5t3.5 36.5t-3.5 36.5t-15 16.5
t-37.5 5t-37.5 -5t-14.5 -16.5t-3 -36.5t3 -36.5zM149 255h193l-94 353h-5z" />
    <glyph glyph-name="AE" unicode="&#xc6;" horiz-adv-x="678" 
d="M386 0l-36 203h-222l-72 -203h-59l250 688h393v-53h-309l47 -261h228v-53h-218l49 -268h203v-53h-254zM278 608h-5l-126 -353h194z" />
    <glyph glyph-name="Ccedilla" unicode="&#xc7;" horiz-adv-x="401" 
d="M366 54v-51q-22 -5 -53 -8t-57 -3t-37 1l-41 -183h-57v5l57 183q-51 10 -76.5 44t-35 102.5t-9.5 199.5q0 156 14.5 227.5t55 98t129.5 26.5q27 0 57.5 -4t50.5 -9v-49q-54 9 -96 9q-74 0 -103.5 -19t-39 -77.5t-9.5 -202.5t9.5 -202.5t39 -77.5t103.5 -19q51 0 98 9z
" />
    <glyph glyph-name="Egrave" unicode="&#xc8;" horiz-adv-x="432" 
d="M74 0v688h320v-53h-260v-261h226v-52h-226v-269h260v-53h-320zM227 750l-76 135v5h62l55 -135v-5h-41z" />
    <glyph glyph-name="Eacute" unicode="&#xc9;" horiz-adv-x="432" 
d="M74 0v688h320v-53h-260v-261h226v-52h-226v-269h260v-53h-320zM215 750v5l56 135h61v-5l-76 -135h-41z" />
    <glyph glyph-name="Ecircumflex" unicode="&#xca;" horiz-adv-x="432" 
d="M74 0v688h320v-53h-260v-261h226v-52h-226v-269h260v-53h-320zM123 750v5l78 133h65l78 -133v-5h-40l-70 101l-70 -101h-41z" />
    <glyph glyph-name="Edieresis" unicode="&#xcb;" horiz-adv-x="432" 
d="M74 0v688h320v-53h-260v-261h226v-52h-226v-269h260v-53h-320zM119 773v70h57v-70h-57zM295 773v70h57v-70h-57z" />
    <glyph glyph-name="Igrave" unicode="&#xcc;" horiz-adv-x="214" 
d="M78 0v688h58v-688h-58zM97 750l-76 135v5h62l55 -135v-5h-41z" />
    <glyph glyph-name="Iacute" unicode="&#xcd;" horiz-adv-x="214" 
d="M78 0v688h58v-688h-58zM77 750v5l56 135h61v-5l-76 -135h-41z" />
    <glyph glyph-name="Icircumflex" unicode="&#xce;" horiz-adv-x="214" 
d="M78 0v688h58v-688h-58zM-4 750v5l78 133h65l78 -133v-5h-40l-70 101l-70 -101h-41z" />
    <glyph glyph-name="Idieresis" unicode="&#xcf;" horiz-adv-x="214" 
d="M78 0v688h58v-688h-58zM-9 773v70h57v-70h-57zM167 773v70h57v-70h-57z" />
    <glyph glyph-name="Eth" unicode="&#xd0;" horiz-adv-x="498" 
d="M74 323h-58v52h58v313h160q98 0 140 -25t54.5 -92.5t12.5 -226.5t-12.5 -226.5t-54.5 -92.5t-140 -25h-160v323zM334.5 68q28.5 15 38 72t9.5 204t-10 204t-38.5 72t-103.5 15h-97v-260h110v-52h-110v-270h97q76 0 104.5 15z" />
    <glyph glyph-name="Ntilde" unicode="&#xd1;" horiz-adv-x="530" 
d="M395 0l-260 559h-4v-559h-56v688h63l257 -554h4v554h57v-688h-61zM392.5 784q-10.5 -22 -46.5 -22q-19 0 -37.5 6t-48.5 18q-24 11 -39.5 16.5t-30.5 5.5t-19.5 -12t-4.5 -45h-37q0 58 11 80.5t47 22.5q20 0 39.5 -6.5t48.5 -19.5q25 -10 39.5 -15t28.5 -5q15 0 19 11.5
t4 45.5h37q0 -59 -10.5 -81z" />
    <glyph glyph-name="Ograve" unicode="&#xd2;" horiz-adv-x="521" 
d="M123 18q-41 26 -53.5 95t-12.5 231t12.5 231t53.5 95t137 26q97 0 138 -26t53 -94.5t12 -231.5t-12 -231.5t-53 -94.5t-138 -26q-96 0 -137 26zM358 60.5q27 15.5 36.5 74.5t9.5 209t-9.5 209t-36.5 74.5t-98 15.5t-98 -15.5t-36.5 -74.5t-9.5 -209t9.5 -209t36.5 -74.5
t98 -15.5t98 15.5zM245 750l-76 135v5h62l55 -135v-5h-41z" />
    <glyph glyph-name="Oacute" unicode="&#xd3;" horiz-adv-x="521" 
d="M123 18q-41 26 -53.5 95t-12.5 231t12.5 231t53.5 95t137 26q97 0 138 -26t53 -94.5t12 -231.5t-12 -231.5t-53 -94.5t-138 -26q-96 0 -137 26zM358 60.5q27 15.5 36.5 74.5t9.5 209t-9.5 209t-36.5 74.5t-98 15.5t-98 -15.5t-36.5 -74.5t-9.5 -209t9.5 -209t36.5 -74.5
t98 -15.5t98 15.5zM233 750v5l56 135h61v-5l-76 -135h-41z" />
    <glyph glyph-name="Ocircumflex" unicode="&#xd4;" horiz-adv-x="521" 
d="M123 18q-41 26 -53.5 95t-12.5 231t12.5 231t53.5 95t137 26q97 0 138 -26t53 -94.5t12 -231.5t-12 -231.5t-53 -94.5t-138 -26q-96 0 -137 26zM358 60.5q27 15.5 36.5 74.5t9.5 209t-9.5 209t-36.5 74.5t-98 15.5t-98 -15.5t-36.5 -74.5t-9.5 -209t9.5 -209t36.5 -74.5
t98 -15.5t98 15.5zM149 750v5l78 133h65l78 -133v-5h-40l-70 101l-70 -101h-41z" />
    <glyph glyph-name="Otilde" unicode="&#xd5;" horiz-adv-x="521" 
d="M123 18q-41 26 -53.5 95t-12.5 231t12.5 231t53.5 95t137 26q97 0 138 -26t53 -94.5t12 -231.5t-12 -231.5t-53 -94.5t-138 -26q-96 0 -137 26zM358 60.5q27 15.5 36.5 74.5t9.5 209t-9.5 209t-36.5 74.5t-98 15.5t-98 -15.5t-36.5 -74.5t-9.5 -209t9.5 -209t36.5 -74.5
t98 -15.5t98 15.5zM386.5 784q-10.5 -22 -46.5 -22q-19 0 -37.5 6t-48.5 18q-24 11 -39.5 16.5t-30.5 5.5t-19.5 -12t-4.5 -45h-37q0 58 11 80.5t47 22.5q20 0 39.5 -6.5t48.5 -19.5q25 -10 39.5 -15t28.5 -5q15 0 19 11.5t4 45.5h37q0 -59 -10.5 -81z" />
    <glyph glyph-name="Odieresis" unicode="&#xd6;" horiz-adv-x="521" 
d="M123 18q-41 26 -53.5 95t-12.5 231t12.5 231t53.5 95t137 26q97 0 138 -26t53 -94.5t12 -231.5t-12 -231.5t-53 -94.5t-138 -26q-96 0 -137 26zM358 60.5q27 15.5 36.5 74.5t9.5 209t-9.5 209t-36.5 74.5t-98 15.5t-98 -15.5t-36.5 -74.5t-9.5 -209t9.5 -209t36.5 -74.5
t98 -15.5t98 15.5zM144 773v70h57v-70h-57zM320 773v70h57v-70h-57z" />
    <glyph glyph-name="multiply" unicode="&#xd7;" horiz-adv-x="429" 
d="M215 218l-118 -118l-34 34l117 118l-118 119l35 34l118 -118l118 118l34 -35l-118 -118l118 -118l-34 -34z" />
    <glyph glyph-name="Oslash" unicode="&#xd8;" horiz-adv-x="520" 
d="M421 649q26 -33 34 -100.5t8 -204.5q0 -163 -12 -231.5t-53 -94.5t-138 -26q-83 0 -122 17l-28 -64h-53l42 95q-26 33 -34 100t-8 204q0 162 12.5 231t53.5 95t137 26q84 0 122 -17l28 64h53zM118.5 192q2.5 -54 10.5 -84l231 521q-15 9 -37 11.5t-63 2.5
q-71 0 -98 -15.5t-36.5 -74.5t-9.5 -209q0 -98 2.5 -152zM401.5 496q-2.5 54 -10.5 84l-231 -521q15 -9 37 -11.5t63 -2.5q71 0 98 15.5t36.5 74.5t9.5 209q0 98 -2.5 152z" />
    <glyph glyph-name="Ugrave" unicode="&#xd9;" horiz-adv-x="517" 
d="M448 688v-391q0 -133 -12 -193.5t-51 -86t-126 -25.5q-88 0 -127 25.5t-51 86t-12 193.5v391h58v-424q0 -99 7.5 -141.5t34.5 -60t90 -17.5q62 0 88.5 17.5t34 60t7.5 141.5v424h59zM251 750l-76 135v5h62l55 -135v-5h-41z" />
    <glyph glyph-name="Uacute" unicode="&#xda;" horiz-adv-x="517" 
d="M448 688v-391q0 -133 -12 -193.5t-51 -86t-126 -25.5q-88 0 -127 25.5t-51 86t-12 193.5v391h58v-424q0 -99 7.5 -141.5t34.5 -60t90 -17.5q62 0 88.5 17.5t34 60t7.5 141.5v424h59zM235 750v5l56 135h61v-5l-76 -135h-41z" />
    <glyph glyph-name="Ucircumflex" unicode="&#xdb;" horiz-adv-x="517" 
d="M448 688v-391q0 -133 -12 -193.5t-51 -86t-126 -25.5q-88 0 -127 25.5t-51 86t-12 193.5v391h58v-424q0 -99 7.5 -141.5t34.5 -60t90 -17.5q62 0 88.5 17.5t34 60t7.5 141.5v424h59zM148 750v5l78 133h65l78 -133v-5h-40l-70 101l-70 -101h-41z" />
    <glyph glyph-name="Udieresis" unicode="&#xdc;" horiz-adv-x="517" 
d="M448 688v-391q0 -133 -12 -193.5t-51 -86t-126 -25.5q-88 0 -127 25.5t-51 86t-12 193.5v391h58v-424q0 -99 7.5 -141.5t34.5 -60t90 -17.5q62 0 88.5 17.5t34 60t7.5 141.5v424h59zM142 773v70h57v-70h-57zM318 773v70h57v-70h-57z" />
    <glyph glyph-name="Yacute" unicode="&#xdd;" horiz-adv-x="428" 
d="M184 0v271l-180 417h62l146 -344h6l146 344h60l-181 -417v-271h-59zM194 750v5l56 135h61v-5l-76 -135h-41z" />
    <glyph glyph-name="Thorn" unicode="&#xde;" horiz-adv-x="465" 
d="M74 688h59v-126h142q69 0 103.5 -27t44 -71t9.5 -114q0 -68 -10 -112t-44.5 -72t-103.5 -28h-141v-138h-59v688zM262 191q50 0 73.5 17.5t30.5 50t7 91.5q0 61 -6.5 93t-30 49.5t-73.5 17.5h-130v-319h129z" />
    <glyph glyph-name="germandbls" unicode="&#xdf;" horiz-adv-x="465" 
d="M199 0v49h39q57 0 80 12t31 49t8 128q0 72 -9.5 109.5t-32.5 52t-66 14.5h-26v49h26q56 0 79 27t23 91q0 47 -11 72.5t-35.5 36.5t-68.5 11q-42 0 -66.5 -13t-36 -44.5t-11.5 -88.5v-555h-55v554q0 73 17.5 115.5t54.5 61.5t99 19q92 0 130.5 -37.5t38.5 -128.5
q0 -66 -22 -98t-70 -42v-4q51 -11 74.5 -55.5t23.5 -140.5q0 -97 -12 -147.5t-46 -73.5t-103 -23h-53z" />
    <glyph glyph-name="agrave" unicode="&#xe0;" horiz-adv-x="427" 
d="M95 4.5q-29 12.5 -43.5 44.5t-14.5 90t11.5 89.5t38.5 45.5t77 14q30 0 142 -5v40q0 68 -9 97.5t-33 39t-79 9.5q-25 0 -62 -3.5t-60 -8.5v48q65 13 138 13q68 0 101.5 -16.5t46.5 -56.5t13 -119v-326h-48l-4 73h-4q-15 -49 -50 -65t-83 -16q-49 0 -78 12.5zM252.5 51
q25.5 10 37.5 41q9 25 12.5 51.5t3.5 64.5v35h-129q-35 0 -52.5 -7.5t-24.5 -28.5t-7 -65q0 -42 7.5 -63.5t27 -29.5t59.5 -8t65.5 10zM201 603l-76 135v5h62l55 -135v-5h-41z" />
    <glyph glyph-name="aacute" unicode="&#xe1;" horiz-adv-x="427" 
d="M95 4.5q-29 12.5 -43.5 44.5t-14.5 90t11.5 89.5t38.5 45.5t77 14q30 0 142 -5v40q0 68 -9 97.5t-33 39t-79 9.5q-25 0 -62 -3.5t-60 -8.5v48q65 13 138 13q68 0 101.5 -16.5t46.5 -56.5t13 -119v-326h-48l-4 73h-4q-15 -49 -50 -65t-83 -16q-49 0 -78 12.5zM252.5 51
q25.5 10 37.5 41q9 25 12.5 51.5t3.5 64.5v35h-129q-35 0 -52.5 -7.5t-24.5 -28.5t-7 -65q0 -42 7.5 -63.5t27 -29.5t59.5 -8t65.5 10zM184 603v5l56 135h61v-5l-76 -135h-41z" />
    <glyph glyph-name="acircumflex" unicode="&#xe2;" horiz-adv-x="427" 
d="M95 4.5q-29 12.5 -43.5 44.5t-14.5 90t11.5 89.5t38.5 45.5t77 14q30 0 142 -5v40q0 68 -9 97.5t-33 39t-79 9.5q-25 0 -62 -3.5t-60 -8.5v48q65 13 138 13q68 0 101.5 -16.5t46.5 -56.5t13 -119v-326h-48l-4 73h-4q-15 -49 -50 -65t-83 -16q-49 0 -78 12.5zM252.5 51
q25.5 10 37.5 41q9 25 12.5 51.5t3.5 64.5v35h-129q-35 0 -52.5 -7.5t-24.5 -28.5t-7 -65q0 -42 7.5 -63.5t27 -29.5t59.5 -8t65.5 10zM103 605v5l78 133h65l78 -133v-5h-40l-70 101l-70 -101h-41z" />
    <glyph glyph-name="atilde" unicode="&#xe3;" horiz-adv-x="427" 
d="M95 4.5q-29 12.5 -43.5 44.5t-14.5 90t11.5 89.5t38.5 45.5t77 14q30 0 142 -5v40q0 68 -9 97.5t-33 39t-79 9.5q-25 0 -62 -3.5t-60 -8.5v48q65 13 138 13q68 0 101.5 -16.5t46.5 -56.5t13 -119v-326h-48l-4 73h-4q-15 -49 -50 -65t-83 -16q-49 0 -78 12.5zM252.5 51
q25.5 10 37.5 41q9 25 12.5 51.5t3.5 64.5v35h-129q-35 0 -52.5 -7.5t-24.5 -28.5t-7 -65q0 -42 7.5 -63.5t27 -29.5t59.5 -8t65.5 10zM339.5 662q-10.5 -22 -46.5 -22q-19 0 -37.5 6t-48.5 18q-24 11 -39.5 16.5t-30.5 5.5t-19.5 -12t-4.5 -45h-37q0 58 11 80.5t47 22.5
q20 0 39.5 -6.5t48.5 -19.5q25 -10 39.5 -15t28.5 -5q15 0 19 11.5t4 45.5h37q0 -59 -10.5 -81z" />
    <glyph glyph-name="adieresis" unicode="&#xe4;" horiz-adv-x="427" 
d="M95 4.5q-29 12.5 -43.5 44.5t-14.5 90t11.5 89.5t38.5 45.5t77 14q30 0 142 -5v40q0 68 -9 97.5t-33 39t-79 9.5q-25 0 -62 -3.5t-60 -8.5v48q65 13 138 13q68 0 101.5 -16.5t46.5 -56.5t13 -119v-326h-48l-4 73h-4q-15 -49 -50 -65t-83 -16q-49 0 -78 12.5zM252.5 51
q25.5 10 37.5 41q9 25 12.5 51.5t3.5 64.5v35h-129q-35 0 -52.5 -7.5t-24.5 -28.5t-7 -65q0 -42 7.5 -63.5t27 -29.5t59.5 -8t65.5 10zM98 659v70h57v-70h-57zM274 659v70h57v-70h-57z" />
    <glyph glyph-name="aring" unicode="&#xe5;" horiz-adv-x="427" 
d="M95 4.5q-29 12.5 -43.5 44.5t-14.5 90t11.5 89.5t38.5 45.5t77 14q30 0 142 -5v40q0 68 -9 97.5t-33 39t-79 9.5q-25 0 -62 -3.5t-60 -8.5v48q65 13 138 13q68 0 101.5 -16.5t46.5 -56.5t13 -119v-326h-48l-4 73h-4q-15 -49 -50 -65t-83 -16q-49 0 -78 12.5zM252.5 51
q25.5 10 37.5 41q9 25 12.5 51.5t3.5 64.5v35h-129q-35 0 -52.5 -7.5t-24.5 -28.5t-7 -65q0 -42 7.5 -63.5t27 -29.5t59.5 -8t65.5 10zM147.5 617q-20.5 9 -26.5 27.5t-6 56.5t6 57t26.5 28t65.5 9t65.5 -9t26.5 -28t6 -57t-6 -56.5t-26.5 -27.5t-65.5 -9t-65.5 9z
M250.5 648q11.5 5 15 16.5t3.5 36.5t-3.5 36.5t-15 16.5t-37.5 5t-37.5 -5t-14.5 -16t-3 -37t3 -37t14.5 -16t37.5 -5t37.5 5z" />
    <glyph glyph-name="ae" unicode="&#xe6;" horiz-adv-x="685" 
d="M634 239h-272q0 -88 8 -127.5t34.5 -55t86.5 -15.5q30 0 66 3.5t63 9.5v-48q-23 -6 -62 -10t-76 -4q-67 0 -102.5 18.5t-51.5 64.5q-19 -51 -57.5 -67t-91.5 -16q-52 0 -82 12.5t-45 44.5t-15 90q0 57 11.5 88t38.5 44.5t77 13.5l142 -1v39q0 68 -9 97.5t-33 39t-79 9.5
q-25 0 -62.5 -3.5t-60.5 -8.5v48q67 13 139 13q57 0 88.5 -13.5t47.5 -46.5q17 32 50.5 46t91.5 14q73 0 105 -23.5t41 -74.5t9 -162v-19zM400 456q-23 -13 -30 -49.5t-8 -122.5h217v12q0 78 -8.5 114t-29.5 47.5t-64 11.5q-54 0 -77 -13zM306 239h-130q-36 0 -53 -7
t-24 -27t-7 -63t7.5 -64t27.5 -29t60 -8q41 0 67 10.5t38 45.5q14 41 14 110v32z" />
    <glyph glyph-name="ccedilla" unicode="&#xe7;" horiz-adv-x="352" 
d="M270.5 44.5q26.5 3.5 45.5 8.5v-48q-18 -6 -47 -9.5t-57 -3.5h-17l-41 -182h-57v5l57 182q-46 10 -68.5 39.5t-29 78.5t-6.5 139q0 107 12.5 162t46 78.5t100.5 23.5q26 0 55.5 -3.5t48.5 -8.5v-48q-50 11 -93 11q-51 0 -74.5 -17t-31.5 -60t-8 -136q0 -95 8.5 -139
t32 -60t75.5 -16q22 0 48.5 3.5z" />
    <glyph glyph-name="egrave" unicode="&#xe8;" horiz-adv-x="429" 
d="M378 236h-272q0 -87 8 -125.5t34.5 -54t86.5 -15.5q30 0 66 3.5t63 9.5v-48q-23 -6 -62 -10t-76 -4q-79 0 -115.5 22.5t-48.5 76t-12 163.5q0 111 10 163t46 76.5t117 24.5q73 0 105 -23.5t41 -75t9 -163.5v-20zM144.5 455.5q-23.5 -13.5 -30.5 -50.5t-8 -124h217v15
q0 78 -8.5 114t-29.5 47.5t-64 11.5q-53 0 -76.5 -13.5zM206 603l-76 135v5h62l55 -135v-5h-41z" />
    <glyph glyph-name="eacute" unicode="&#xe9;" horiz-adv-x="429" 
d="M378 236h-272q0 -87 8 -125.5t34.5 -54t86.5 -15.5q30 0 66 3.5t63 9.5v-48q-23 -6 -62 -10t-76 -4q-79 0 -115.5 22.5t-48.5 76t-12 163.5q0 111 10 163t46 76.5t117 24.5q73 0 105 -23.5t41 -75t9 -163.5v-20zM144.5 455.5q-23.5 -13.5 -30.5 -50.5t-8 -124h217v15
q0 78 -8.5 114t-29.5 47.5t-64 11.5q-53 0 -76.5 -13.5zM196 603v5l56 135h61v-5l-76 -135h-41z" />
    <glyph glyph-name="ecircumflex" unicode="&#xea;" horiz-adv-x="429" 
d="M378 236h-272q0 -87 8 -125.5t34.5 -54t86.5 -15.5q30 0 66 3.5t63 9.5v-48q-23 -6 -62 -10t-76 -4q-79 0 -115.5 22.5t-48.5 76t-12 163.5q0 111 10 163t46 76.5t117 24.5q73 0 105 -23.5t41 -75t9 -163.5v-20zM144.5 455.5q-23.5 -13.5 -30.5 -50.5t-8 -124h217v15
q0 78 -8.5 114t-29.5 47.5t-64 11.5q-53 0 -76.5 -13.5zM106 605v5l78 133h65l78 -133v-5h-40l-70 101l-70 -101h-41z" />
    <glyph glyph-name="edieresis" unicode="&#xeb;" horiz-adv-x="429" 
d="M378 236h-272q0 -87 8 -125.5t34.5 -54t86.5 -15.5q30 0 66 3.5t63 9.5v-48q-23 -6 -62 -10t-76 -4q-79 0 -115.5 22.5t-48.5 76t-12 163.5q0 111 10 163t46 76.5t117 24.5q73 0 105 -23.5t41 -75t9 -163.5v-20zM144.5 455.5q-23.5 -13.5 -30.5 -50.5t-8 -124h217v15
q0 78 -8.5 114t-29.5 47.5t-64 11.5q-53 0 -76.5 -13.5zM102 659v70h57v-70h-57zM278 659v70h57v-70h-57z" />
    <glyph glyph-name="igrave" unicode="&#xec;" horiz-adv-x="190" 
d="M67 0v510h56v-510h-56zM83 603l-76 135v5h62l55 -135v-5h-41z" />
    <glyph glyph-name="iacute" unicode="&#xed;" horiz-adv-x="190" 
d="M67 0v510h56v-510h-56zM67 603v5l56 135h61v-5l-76 -135h-41z" />
    <glyph glyph-name="icircumflex" unicode="&#xee;" horiz-adv-x="190" 
d="M67 0v510h56v-510h-56zM-15 605v5l78 133h65l78 -133v-5h-40l-70 101l-70 -101h-41z" />
    <glyph glyph-name="idieresis" unicode="&#xef;" horiz-adv-x="190" 
d="M67 0v510h56v-510h-56zM-21 659v70h57v-70h-57zM155 659v70h57v-70h-57z" />
    <glyph glyph-name="eth" unicode="&#xf0;" horiz-adv-x="442" 
d="M105 13.5q-35 21.5 -45 73t-10 167.5q0 115 9.5 167t42.5 74.5t109 22.5q66 0 100 -31l4 2q-22 87 -54 147l-100 -16v43l77 12q-15 22 -50 64v4h62q28 -32 45 -59l81 13v-42l-58 -10q23 -48 39.5 -107t23.5 -117q9 -64 9 -146q0 -129 -8.5 -182.5t-43.5 -77t-118 -23.5
q-80 0 -115 21.5zM301 57.5q23 16.5 28 55.5t5 141q0 91 -5.5 131.5t-29.5 62t-79 21.5q-58 0 -81 -15.5t-28 -55t-5 -144.5q0 -102 5 -141t28 -55.5t81 -16.5t81 16.5z" />
    <glyph glyph-name="ntilde" unicode="&#xf1;" horiz-adv-x="455" 
d="M334 304q0 75 -7 108t-27.5 44t-65.5 11q-52 0 -75.5 -24.5t-29.5 -64.5t-6 -114v-264h-56v510h48l4 -73h5q12 38 41 59.5t89 21.5q58 0 87 -19.5t39 -60.5t10 -117v-321h-56v304zM357.5 662q-10.5 -22 -46.5 -22q-19 0 -37.5 6t-48.5 18q-24 11 -39.5 16.5t-30.5 5.5
t-19.5 -12t-4.5 -45h-37q0 58 11 80.5t47 22.5q20 0 39.5 -6.5t48.5 -19.5q25 -10 39.5 -15t28.5 -5q15 0 19 11.5t4 45.5h37q0 -59 -10.5 -81z" />
    <glyph glyph-name="ograve" unicode="&#xf2;" horiz-adv-x="441" 
d="M105.5 13q-34.5 21 -45 72.5t-10.5 168.5q0 118 10.5 170t45 73t114.5 21t115 -21t45 -73t10 -170q0 -117 -10 -168.5t-45 -72.5t-115 -21t-114.5 21zM299.5 56q22.5 15 28.5 55.5t6 142.5t-6 143t-29 56.5t-79 15.5t-79 -15.5t-29 -56.5t-6 -143t6 -142.5t28.5 -55.5
t79.5 -15t79.5 15zM208 603l-76 135v5h62l55 -135v-5h-41z" />
    <glyph glyph-name="oacute" unicode="&#xf3;" horiz-adv-x="441" 
d="M105.5 13q-34.5 21 -45 72.5t-10.5 168.5q0 118 10.5 170t45 73t114.5 21t115 -21t45 -73t10 -170q0 -117 -10 -168.5t-45 -72.5t-115 -21t-114.5 21zM299.5 56q22.5 15 28.5 55.5t6 142.5t-6 143t-29 56.5t-79 15.5t-79 -15.5t-29 -56.5t-6 -143t6 -142.5t28.5 -55.5
t79.5 -15t79.5 15zM189 603v5l56 135h61v-5l-76 -135h-41z" />
    <glyph glyph-name="ocircumflex" unicode="&#xf4;" horiz-adv-x="441" 
d="M105.5 13q-34.5 21 -45 72.5t-10.5 168.5q0 118 10.5 170t45 73t114.5 21t115 -21t45 -73t10 -170q0 -117 -10 -168.5t-45 -72.5t-115 -21t-114.5 21zM299.5 56q22.5 15 28.5 55.5t6 142.5t-6 143t-29 56.5t-79 15.5t-79 -15.5t-29 -56.5t-6 -143t6 -142.5t28.5 -55.5
t79.5 -15t79.5 15zM111 605v5l78 133h65l78 -133v-5h-40l-70 101l-70 -101h-41z" />
    <glyph glyph-name="otilde" unicode="&#xf5;" horiz-adv-x="441" 
d="M105.5 13q-34.5 21 -45 72.5t-10.5 168.5q0 118 10.5 170t45 73t114.5 21t115 -21t45 -73t10 -170q0 -117 -10 -168.5t-45 -72.5t-115 -21t-114.5 21zM299.5 56q22.5 15 28.5 55.5t6 142.5t-6 143t-29 56.5t-79 15.5t-79 -15.5t-29 -56.5t-6 -143t6 -142.5t28.5 -55.5
t79.5 -15t79.5 15zM346.5 662q-10.5 -22 -46.5 -22q-19 0 -37.5 6t-48.5 18q-24 11 -39.5 16.5t-30.5 5.5t-19.5 -12t-4.5 -45h-37q0 58 11 80.5t47 22.5q20 0 39.5 -6.5t48.5 -19.5q25 -10 39.5 -15t28.5 -5q15 0 19 11.5t4 45.5h37q0 -59 -10.5 -81z" />
    <glyph glyph-name="odieresis" unicode="&#xf6;" horiz-adv-x="441" 
d="M105.5 13q-34.5 21 -45 72.5t-10.5 168.5q0 118 10.5 170t45 73t114.5 21t115 -21t45 -73t10 -170q0 -117 -10 -168.5t-45 -72.5t-115 -21t-114.5 21zM299.5 56q22.5 15 28.5 55.5t6 142.5t-6 143t-29 56.5t-79 15.5t-79 -15.5t-29 -56.5t-6 -143t6 -142.5t28.5 -55.5
t79.5 -15t79.5 15zM105 659v70h57v-70h-57zM281 659v70h57v-70h-57z" />
    <glyph glyph-name="divide" unicode="&#xf7;" horiz-adv-x="485" 
d="M214 391v63h56v-63h-56zM63 229v48h359v-48h-359zM214 51v64h56v-64h-56z" />
    <glyph glyph-name="oslash" unicode="&#xf8;" horiz-adv-x="441" 
d="M352 483q24 -25 31 -75t7 -154q0 -117 -10 -168.5t-45 -72.5t-115 -21q-60 0 -92 11l-27 -58h-51l38 82q-24 25 -31 75t-7 152q0 118 10.5 170t45 73t114.5 21q60 0 92 -11l27 58h51zM107.5 143.5q1.5 -34.5 8.5 -56.5l174 373q-21 9 -70 9q-56 0 -79 -15.5t-29 -56.5
t-6 -143q0 -76 1.5 -110.5zM332 365.5q-2 35.5 -9 56.5l-173 -373q21 -8 70 -8q57 0 79.5 15t28.5 55.5t6 142.5q0 76 -2 111.5z" />
    <glyph glyph-name="ugrave" unicode="&#xf9;" horiz-adv-x="455" 
d="M336 73h-5q-12 -38 -41.5 -59.5t-88.5 -21.5q-58 0 -87.5 19.5t-39.5 60.5t-10 117v321h56v-304q0 -75 7.5 -108t27.5 -44t66 -11q51 0 75 24.5t29.5 64.5t5.5 114v264h56v-510h-47zM215 603l-76 135v5h62l55 -135v-5h-41z" />
    <glyph glyph-name="uacute" unicode="&#xfa;" horiz-adv-x="455" 
d="M336 73h-5q-12 -38 -41.5 -59.5t-88.5 -21.5q-58 0 -87.5 19.5t-39.5 60.5t-10 117v321h56v-304q0 -75 7.5 -108t27.5 -44t66 -11q51 0 75 24.5t29.5 64.5t5.5 114v264h56v-510h-47zM204 603v5l56 135h61v-5l-76 -135h-41z" />
    <glyph glyph-name="ucircumflex" unicode="&#xfb;" horiz-adv-x="455" 
d="M336 73h-5q-12 -38 -41.5 -59.5t-88.5 -21.5q-58 0 -87.5 19.5t-39.5 60.5t-10 117v321h56v-304q0 -75 7.5 -108t27.5 -44t66 -11q51 0 75 24.5t29.5 64.5t5.5 114v264h56v-510h-47zM116 605v5l78 133h65l78 -133v-5h-40l-70 101l-70 -101h-41z" />
    <glyph glyph-name="udieresis" unicode="&#xfc;" horiz-adv-x="455" 
d="M336 73h-5q-12 -38 -41.5 -59.5t-88.5 -21.5q-58 0 -87.5 19.5t-39.5 60.5t-10 117v321h56v-304q0 -75 7.5 -108t27.5 -44t66 -11q51 0 75 24.5t29.5 64.5t5.5 114v264h56v-510h-47zM109 659v70h57v-70h-57zM285 659v70h57v-70h-57z" />
    <glyph glyph-name="yacute" unicode="&#xfd;" horiz-adv-x="455" 
d="M77 -194v48q70 -4 120 -4q61 0 89.5 19t36.5 59.5t8 121.5v17h-4q-12 -34 -40 -54t-88 -20q-58 0 -86.5 20t-38.5 62t-10 120v315h56v-304q0 -74 7.5 -107t27.5 -44t66 -11q52 0 75.5 24t29 63.5t5.5 114.5v264h56v-438q0 -107 -13 -163t-51.5 -82t-116.5 -26
q-69 0 -129 5zM205 603v5l56 135h61v-5l-76 -135h-41z" />
    <glyph glyph-name="thorn" unicode="&#xfe;" horiz-adv-x="452" 
d="M67 743h56v-299h5q13 40 43.5 57t79.5 17q63 0 94.5 -22t43.5 -77t12 -164t-12 -164t-43.5 -77t-93.5 -22q-50 0 -80.5 17t-43.5 56h-5v-255h-56v933zM307.5 57.5q22.5 14.5 30 57t7.5 140.5t-7.5 140.5t-30 57t-74.5 14.5q-42 0 -66.5 -17.5t-34.5 -58.5
q-6 -23 -7.5 -55t-1.5 -81q0 -91 8 -126q10 -47 34 -66.5t68 -19.5q52 0 74.5 14.5z" />
    <glyph glyph-name="ydieresis" unicode="&#xff;" horiz-adv-x="455" 
d="M77 -194v48q70 -4 120 -4q61 0 89.5 19t36.5 59.5t8 121.5v17h-4q-12 -34 -40 -54t-88 -20q-58 0 -86.5 20t-38.5 62t-10 120v315h56v-304q0 -74 7.5 -107t27.5 -44t66 -11q52 0 75.5 24t29 63.5t5.5 114.5v264h56v-438q0 -107 -13 -163t-51.5 -82t-116.5 -26
q-69 0 -129 5zM109 659v70h57v-70h-57zM285 659v70h57v-70h-57z" />
    <glyph glyph-name="Amacron" unicode="&#x100;" horiz-adv-x="493" 
d="M411 0l-54 203h-223l-53 -203h-60l189 688h73l189 -688h-61zM248 608h-5l-94 -353h193zM151 834v54h191v-54h-191z" />
    <glyph glyph-name="amacron" unicode="&#x101;" horiz-adv-x="427" 
d="M95 4.5q-29 12.5 -43.5 44.5t-14.5 90t11.5 89.5t38.5 45.5t77 14q30 0 142 -5v40q0 68 -9 97.5t-33 39t-79 9.5q-25 0 -62 -3.5t-60 -8.5v48q65 13 138 13q68 0 101.5 -16.5t46.5 -56.5t13 -119v-326h-48l-4 73h-4q-15 -49 -50 -65t-83 -16q-49 0 -78 12.5zM252.5 51
q25.5 10 37.5 41q9 25 12.5 51.5t3.5 64.5v35h-129q-35 0 -52.5 -7.5t-24.5 -28.5t-7 -65q0 -42 7.5 -63.5t27 -29.5t59.5 -8t65.5 10zM118 689v54h191v-54h-191z" />
    <glyph glyph-name="Abreve" unicode="&#x102;" horiz-adv-x="493" 
d="M411 0l-54 203h-223l-53 -203h-60l189 688h73l189 -688h-61zM248 608h-5l-94 -353h193zM348.5 809.5q-6.5 -28.5 -30 -45.5t-73.5 -17t-73 17t-29 45t-6 79h43q0 -41 3.5 -61t17 -31t44.5 -11q32 0 46 11t17.5 31t3.5 61h43q0 -50 -6.5 -78.5z" />
    <glyph glyph-name="abreve" unicode="&#x103;" horiz-adv-x="427" 
d="M95 4.5q-29 12.5 -43.5 44.5t-14.5 90t11.5 89.5t38.5 45.5t77 14q30 0 142 -5v40q0 68 -9 97.5t-33 39t-79 9.5q-25 0 -62 -3.5t-60 -8.5v48q65 13 138 13q68 0 101.5 -16.5t46.5 -56.5t13 -119v-326h-48l-4 73h-4q-15 -49 -50 -65t-83 -16q-49 0 -78 12.5zM252.5 51
q25.5 10 37.5 41q9 25 12.5 51.5t3.5 64.5v35h-129q-35 0 -52.5 -7.5t-24.5 -28.5t-7 -65q0 -42 7.5 -63.5t27 -29.5t59.5 -8t65.5 10zM315.5 664.5q-6.5 -28.5 -30 -45.5t-73.5 -17t-73 17t-29 45t-6 79h43q0 -41 3.5 -61t17 -31t44.5 -11q32 0 46 11t17.5 31t3.5 61h43
q0 -50 -6.5 -78.5z" />
    <glyph glyph-name="Aogonek" unicode="&#x104;" horiz-adv-x="493" 
d="M447 -154q9 0 17 1v-41q-12 -2 -30 -2q-44 0 -63.5 20.5t-19.5 54.5q0 29 16.5 62.5t43.5 60.5l-54 200h-223l-53 -202h-59l188 688h74l188 -688h-13q-22 -21 -40 -53t-18 -58q0 -43 46 -43zM149 255h193l-94 353h-5z" />
    <glyph glyph-name="aogonek" unicode="&#x105;" horiz-adv-x="427" 
d="M366 -153v-41q-13 -2 -30 -2q-43 0 -63 20.5t-20 52.5q0 31 16.5 63t44.5 61l-4 72h-4q-15 -49 -50 -65t-83 -16q-49 0 -78 12.5t-43.5 44.5t-14.5 90t11.5 89.5t38.5 45.5t77 14q30 0 142 -5v40q0 68 -9 97.5t-33 39t-79 9.5q-25 0 -62 -3.5t-60 -8.5v48q65 13 138 13
q68 0 101.5 -16.5t46.5 -56.5t13 -119v-326q-21 -17 -40 -50.5t-19 -61.5q0 -42 46 -42q9 0 17 1zM306 243h-129q-35 0 -52.5 -7.5t-24.5 -28.5t-7 -65q0 -42 7.5 -63.5t27 -29.5t59.5 -8t65.5 10t37.5 41q9 25 12.5 51.5t3.5 64.5v35z" />
    <glyph glyph-name="Cacute" unicode="&#x106;" horiz-adv-x="401" 
d="M313 -5q-31 -3 -57 -3q-89 0 -129.5 25.5t-55 97t-14.5 229.5q0 156 14.5 227.5t55 98t129.5 26.5q27 0 57.5 -4t50.5 -9v-49q-54 9 -96 9q-74 0 -103.5 -19t-39 -77.5t-9.5 -202.5t9.5 -202.5t39 -77.5t103.5 -19q51 0 98 9v-51q-22 -5 -53 -8zM174 748v5l56 135h61v-5
l-76 -135h-41z" />
    <glyph glyph-name="cacute" unicode="&#x107;" horiz-adv-x="352" 
d="M269 -4.5q-29 -3.5 -57 -3.5q-73 0 -107.5 26t-44.5 78.5t-10 157.5q0 107 12.5 162t46 78.5t100.5 23.5q26 0 55.5 -3.5t48.5 -8.5v-48q-50 11 -93 11q-51 0 -74.5 -17t-31.5 -60t-8 -136q0 -95 8.5 -139t32 -60t75.5 -16q22 0 48.5 3.5t45.5 8.5v-48q-18 -6 -47 -9.5z
M150 603v5l56 135h61v-5l-76 -135h-41z" />
    <glyph glyph-name="Ccircumflex" unicode="&#x108;" horiz-adv-x="401" 
d="M313 -5q-31 -3 -57 -3q-89 0 -129.5 25.5t-55 97t-14.5 229.5q0 156 14.5 227.5t55 98t129.5 26.5q27 0 57.5 -4t50.5 -9v-49q-54 9 -96 9q-74 0 -103.5 -19t-39 -77.5t-9.5 -202.5t9.5 -202.5t39 -77.5t103.5 -19q51 0 98 9v-51q-22 -5 -53 -8zM89 750v5l78 133h65
l78 -133v-5h-40l-70 101l-70 -101h-41z" />
    <glyph glyph-name="ccircumflex" unicode="&#x109;" horiz-adv-x="352" 
d="M269 -4.5q-29 -3.5 -57 -3.5q-73 0 -107.5 26t-44.5 78.5t-10 157.5q0 107 12.5 162t46 78.5t100.5 23.5q26 0 55.5 -3.5t48.5 -8.5v-48q-50 11 -93 11q-51 0 -74.5 -17t-31.5 -60t-8 -136q0 -95 8.5 -139t32 -60t75.5 -16q22 0 48.5 3.5t45.5 8.5v-48q-18 -6 -47 -9.5z
M65 605v5l78 133h65l78 -133v-5h-40l-70 101l-70 -101h-41z" />
    <glyph glyph-name="Cdotaccent" unicode="&#x10a;" horiz-adv-x="401" 
d="M313 -5q-31 -3 -57 -3q-89 0 -129.5 25.5t-55 97t-14.5 229.5q0 156 14.5 227.5t55 98t129.5 26.5q27 0 57.5 -4t50.5 -9v-49q-54 9 -96 9q-74 0 -103.5 -19t-39 -77.5t-9.5 -202.5t9.5 -202.5t39 -77.5t103.5 -19q51 0 98 9v-51q-22 -5 -53 -8zM171 805v70h57v-70h-57z
" />
    <glyph glyph-name="cdotaccent" unicode="&#x10b;" horiz-adv-x="352" 
d="M269 -4.5q-29 -3.5 -57 -3.5q-73 0 -107.5 26t-44.5 78.5t-10 157.5q0 107 12.5 162t46 78.5t100.5 23.5q26 0 55.5 -3.5t48.5 -8.5v-48q-50 11 -93 11q-51 0 -74.5 -17t-31.5 -60t-8 -136q0 -95 8.5 -139t32 -60t75.5 -16q22 0 48.5 3.5t45.5 8.5v-48q-18 -6 -47 -9.5z
M147 660v70h57v-70h-57z" />
    <glyph glyph-name="Ccaron" unicode="&#x10c;" horiz-adv-x="401" 
d="M313 -5q-31 -3 -57 -3q-89 0 -129.5 25.5t-55 97t-14.5 229.5q0 156 14.5 227.5t55 98t129.5 26.5q27 0 57.5 -4t50.5 -9v-49q-54 9 -96 9q-74 0 -103.5 -19t-39 -77.5t-9.5 -202.5t9.5 -202.5t39 -77.5t103.5 -19q51 0 98 9v-51q-22 -5 -53 -8zM167 750l-78 132v6h41
l70 -102l70 102h40v-6l-78 -132h-65z" />
    <glyph glyph-name="ccaron" unicode="&#x10d;" horiz-adv-x="352" 
d="M269 -4.5q-29 -3.5 -57 -3.5q-73 0 -107.5 26t-44.5 78.5t-10 157.5q0 107 12.5 162t46 78.5t100.5 23.5q26 0 55.5 -3.5t48.5 -8.5v-48q-50 11 -93 11q-51 0 -74.5 -17t-31.5 -60t-8 -136q0 -95 8.5 -139t32 -60t75.5 -16q22 0 48.5 3.5t45.5 8.5v-48q-18 -6 -47 -9.5z
M143 605l-78 132v6h41l70 -102l70 102h40v-6l-78 -132h-65z" />
    <glyph glyph-name="Dcaron" unicode="&#x10e;" horiz-adv-x="498" 
d="M74 688h160q98 0 140 -25t54.5 -92.5t12.5 -226.5t-12.5 -226.5t-54.5 -92.5t-140 -25h-160v688zM230 53q76 0 104.5 15t38 72t9.5 204t-10 204t-38.5 72t-103.5 15h-97v-582h97zM216 750l-78 132v6h41l70 -102l70 102h40v-6l-78 -132h-65z" />
    <glyph glyph-name="dcaron" unicode="&#x10f;" horiz-adv-x="457" 
d="M106.5 14q-31.5 22 -44 77t-12.5 164t12 164t43.5 77t94.5 22q50 0 80.5 -16.5t43.5 -55.5h5v297h56v-743h-48l-4 73h-5q-14 -48 -47 -64.5t-81 -16.5q-62 0 -93.5 22zM284 59q24 16 33 50q7 30 9.5 65t2.5 91q0 84 -10 125q-10 42 -34 59.5t-70 17.5q-50 0 -72 -14.5
t-29.5 -57t-7.5 -140.5t7.5 -140.5t30 -57t74.5 -14.5q42 0 66 16zM419 449l13 157v82h57v-82l-32 -157h-38z" />
    <glyph glyph-name="Dcroat" unicode="&#x110;" horiz-adv-x="498" 
d="M74 323h-58v52h58v313h160q98 0 140 -25t54.5 -92.5t12.5 -226.5t-12.5 -226.5t-54.5 -92.5t-140 -25h-160v323zM334.5 68q28.5 15 38 72t9.5 204t-10 204t-38.5 72t-103.5 15h-97v-260h110v-52h-110v-270h97q76 0 104.5 15z" />
    <glyph glyph-name="dcroat" unicode="&#x111;" horiz-adv-x="452" 
d="M441 639h-56v-639h-48l-4 73h-5q-14 -48 -47 -64.5t-81 -16.5q-62 0 -93.5 22t-44 77t-12.5 164t12 164t43.5 77t94.5 22q50 0 80.5 -16.5t43.5 -55.5h5v193h-120v49h120v55h56v-55h56v-49zM326.5 174q2.5 35 2.5 91q0 84 -10 125q-10 42 -34 59.5t-70 17.5
q-50 0 -72 -14.5t-29.5 -57t-7.5 -140.5t7.5 -140.5t30 -57t74.5 -14.5q42 0 66 16t33 50q7 30 9.5 65z" />
    <glyph glyph-name="Emacron" unicode="&#x112;" horiz-adv-x="432" 
d="M74 0v688h320v-53h-260v-261h226v-52h-226v-269h260v-53h-320zM138 834v54h191v-54h-191z" />
    <glyph glyph-name="emacron" unicode="&#x113;" horiz-adv-x="429" 
d="M378 236h-272q0 -87 8 -125.5t34.5 -54t86.5 -15.5q30 0 66 3.5t63 9.5v-48q-23 -6 -62 -10t-76 -4q-79 0 -115.5 22.5t-48.5 76t-12 163.5q0 111 10 163t46 76.5t117 24.5q73 0 105 -23.5t41 -75t9 -163.5v-20zM144.5 455.5q-23.5 -13.5 -30.5 -50.5t-8 -124h217v15
q0 78 -8.5 114t-29.5 47.5t-64 11.5q-53 0 -76.5 -13.5zM118 689v54h191v-54h-191z" />
    <glyph glyph-name="Ebreve" unicode="&#x114;" horiz-adv-x="432" 
d="M74 0v688h320v-53h-260v-261h226v-52h-226v-269h260v-53h-320zM335.5 809.5q-6.5 -28.5 -30 -45.5t-73.5 -17t-73 17t-29 45t-6 79h43q0 -41 3.5 -61t17 -31t44.5 -11q32 0 46 11t17.5 31t3.5 61h43q0 -50 -6.5 -78.5z" />
    <glyph glyph-name="ebreve" unicode="&#x115;" horiz-adv-x="429" 
d="M378 236h-272q0 -87 8 -125.5t34.5 -54t86.5 -15.5q30 0 66 3.5t63 9.5v-48q-23 -6 -62 -10t-76 -4q-79 0 -115.5 22.5t-48.5 76t-12 163.5q0 111 10 163t46 76.5t117 24.5q73 0 105 -23.5t41 -75t9 -163.5v-20zM144.5 455.5q-23.5 -13.5 -30.5 -50.5t-8 -124h217v15
q0 78 -8.5 114t-29.5 47.5t-64 11.5q-53 0 -76.5 -13.5zM315.5 664.5q-6.5 -28.5 -30 -45.5t-73.5 -17t-73 17t-29 45t-6 79h43q0 -41 3.5 -61t17 -31t44.5 -11q32 0 46 11t17.5 31t3.5 61h43q0 -50 -6.5 -78.5z" />
    <glyph glyph-name="Edotaccent" unicode="&#x116;" horiz-adv-x="432" 
d="M74 0v688h320v-53h-260v-261h226v-52h-226v-269h260v-53h-320zM205 805v70h57v-70h-57z" />
    <glyph glyph-name="edotaccent" unicode="&#x117;" horiz-adv-x="429" 
d="M378 236h-272q0 -87 8 -125.5t34.5 -54t86.5 -15.5q30 0 66 3.5t63 9.5v-48q-23 -6 -62 -10t-76 -4q-79 0 -115.5 22.5t-48.5 76t-12 163.5q0 111 10 163t46 76.5t117 24.5q73 0 105 -23.5t41 -75t9 -163.5v-20zM144.5 455.5q-23.5 -13.5 -30.5 -50.5t-8 -124h217v15
q0 78 -8.5 114t-29.5 47.5t-64 11.5q-53 0 -76.5 -13.5zM185 660v70h57v-70h-57z" />
    <glyph glyph-name="Eogonek" unicode="&#x118;" horiz-adv-x="432" 
d="M296 -176q-20 20 -20 52t18 64.5t49 59.5h-268v688h318v-53h-259v-261h226v-53h-226v-268h259v-53q-25 -19 -46 -51.5t-21 -60.5q0 -18 11 -30t35 -12q9 0 17 1v-41q-20 -2 -30 -2q-43 0 -63 20z" />
    <glyph glyph-name="eogonek" unicode="&#x119;" horiz-adv-x="429" 
d="M378 236h-272q0 -87 8 -125.5t34.5 -54t86.5 -15.5q30 0 66 3.5t63 9.5v-48q-26 -20 -49.5 -54.5t-23.5 -63.5q0 -18 11 -30t35 -12q10 0 17 1v-41q-18 -2 -29 -2q-43 0 -63.5 20t-20.5 52q0 30 16.5 61.5t45.5 58.5q-48 -4 -77 -4q-79 0 -115.5 22.5t-48.5 76t-12 163.5
q0 111 10 163t46 76.5t117 24.5q73 0 105 -23.5t41 -75t9 -163.5v-20zM144.5 455.5q-23.5 -13.5 -30.5 -50.5t-8 -124h217v15q0 78 -8.5 114t-29.5 47.5t-64 11.5q-53 0 -76.5 -13.5z" />
    <glyph glyph-name="Ecaron" unicode="&#x11a;" horiz-adv-x="432" 
d="M74 0v688h320v-53h-260v-261h226v-52h-226v-269h260v-53h-320zM201 750l-78 132v6h41l70 -102l70 102h40v-6l-78 -132h-65z" />
    <glyph glyph-name="ecaron" unicode="&#x11b;" horiz-adv-x="429" 
d="M378 236h-272q0 -87 8 -125.5t34.5 -54t86.5 -15.5q30 0 66 3.5t63 9.5v-48q-23 -6 -62 -10t-76 -4q-79 0 -115.5 22.5t-48.5 76t-12 163.5q0 111 10 163t46 76.5t117 24.5q73 0 105 -23.5t41 -75t9 -163.5v-20zM144.5 455.5q-23.5 -13.5 -30.5 -50.5t-8 -124h217v15
q0 78 -8.5 114t-29.5 47.5t-64 11.5q-53 0 -76.5 -13.5zM181 605l-78 132v6h41l70 -102l70 102h40v-6l-78 -132h-65z" />
    <glyph glyph-name="Gcircumflex" unicode="&#x11c;" horiz-adv-x="484" 
d="M253 307v52h172v-349q-36 -8 -79.5 -13t-78.5 -5q-90 0 -133 26t-60 98.5t-17 227.5q0 153 16.5 225.5t60 99.5t134.5 27q39 0 82.5 -5.5t72.5 -13.5v-49q-30 6 -67 10.5t-61 4.5q-84 0 -118 -15.5t-47.5 -75.5t-13.5 -208q0 -136 10 -196t40.5 -82t100.5 -22
q25 0 53.5 3t46.5 7v253h-114zM131 750v5l78 133h65l78 -133v-5h-40l-70 101l-70 -101h-41z" />
    <glyph glyph-name="gcircumflex" unicode="&#x11d;" horiz-adv-x="451" 
d="M66 -193v48q62 -5 125 -5q62 0 90.5 17t37.5 58t9 130v11h-4q-13 -39 -43 -55.5t-81 -16.5q-63 0 -94.5 21.5t-43.5 76.5t-12 163q0 109 12.5 164t44 77t94.5 22q48 0 80.5 -16.5t46.5 -64.5h5l3 73h48v-434q0 -111 -12.5 -167.5t-51.5 -82t-120 -25.5q-77 0 -134 6z
M283.5 60.5q23.5 16.5 33.5 53.5q7 25 9 57t2 84q0 50 -1.5 81t-7.5 54q-10 42 -34 59.5t-67 17.5q-52 0 -74.5 -14t-30 -56.5t-7.5 -141.5q0 -98 7.5 -140t30 -56.5t74.5 -14.5q42 0 65.5 16.5zM115 605v5l78 133h65l78 -133v-5h-40l-70 101l-70 -101h-41z" />
    <glyph glyph-name="Gbreve" unicode="&#x11e;" horiz-adv-x="484" 
d="M253 307v52h172v-349q-36 -8 -79.5 -13t-78.5 -5q-90 0 -133 26t-60 98.5t-17 227.5q0 153 16.5 225.5t60 99.5t134.5 27q39 0 82.5 -5.5t72.5 -13.5v-49q-30 6 -67 10.5t-61 4.5q-84 0 -118 -15.5t-47.5 -75.5t-13.5 -208q0 -136 10 -196t40.5 -82t100.5 -22
q25 0 53.5 3t46.5 7v253h-114zM343.5 809.5q-6.5 -28.5 -30 -45.5t-73.5 -17t-73 17t-29 45t-6 79h43q0 -41 3.5 -61t17 -31t44.5 -11q32 0 46 11t17.5 31t3.5 61h43q0 -50 -6.5 -78.5z" />
    <glyph glyph-name="gbreve" unicode="&#x11f;" horiz-adv-x="451" 
d="M66 -193v48q62 -5 125 -5q62 0 90.5 17t37.5 58t9 130v11h-4q-13 -39 -43 -55.5t-81 -16.5q-63 0 -94.5 21.5t-43.5 76.5t-12 163q0 109 12.5 164t44 77t94.5 22q48 0 80.5 -16.5t46.5 -64.5h5l3 73h48v-434q0 -111 -12.5 -167.5t-51.5 -82t-120 -25.5q-77 0 -134 6z
M283.5 60.5q23.5 16.5 33.5 53.5q7 25 9 57t2 84q0 50 -1.5 81t-7.5 54q-10 42 -34 59.5t-67 17.5q-52 0 -74.5 -14t-30 -56.5t-7.5 -141.5q0 -98 7.5 -140t30 -56.5t74.5 -14.5q42 0 65.5 16.5zM327.5 664.5q-6.5 -28.5 -30 -45.5t-73.5 -17t-73 17t-29 45t-6 79h43
q0 -41 3.5 -61t17 -31t44.5 -11q32 0 46 11t17.5 31t3.5 61h43q0 -50 -6.5 -78.5z" />
    <glyph glyph-name="Gdotaccent" unicode="&#x120;" horiz-adv-x="484" 
d="M253 307v52h172v-349q-36 -8 -79.5 -13t-78.5 -5q-90 0 -133 26t-60 98.5t-17 227.5q0 153 16.5 225.5t60 99.5t134.5 27q39 0 82.5 -5.5t72.5 -13.5v-49q-30 6 -67 10.5t-61 4.5q-84 0 -118 -15.5t-47.5 -75.5t-13.5 -208q0 -136 10 -196t40.5 -82t100.5 -22
q25 0 53.5 3t46.5 7v253h-114zM213 805v70h57v-70h-57z" />
    <glyph glyph-name="gdotaccent" unicode="&#x121;" horiz-adv-x="451" 
d="M66 -193v48q62 -5 125 -5q62 0 90.5 17t37.5 58t9 130v11h-4q-13 -39 -43 -55.5t-81 -16.5q-63 0 -94.5 21.5t-43.5 76.5t-12 163q0 109 12.5 164t44 77t94.5 22q48 0 80.5 -16.5t46.5 -64.5h5l3 73h48v-434q0 -111 -12.5 -167.5t-51.5 -82t-120 -25.5q-77 0 -134 6z
M283.5 60.5q23.5 16.5 33.5 53.5q7 25 9 57t2 84q0 50 -1.5 81t-7.5 54q-10 42 -34 59.5t-67 17.5q-52 0 -74.5 -14t-30 -56.5t-7.5 -141.5q0 -98 7.5 -140t30 -56.5t74.5 -14.5q42 0 65.5 16.5zM197 660v70h57v-70h-57z" />
    <glyph glyph-name="Gcommaaccent" unicode="&#x122;" horiz-adv-x="484" 
d="M253 307v52h172v-349q-36 -8 -79.5 -13t-78.5 -5q-90 0 -133 26t-60 98.5t-17 227.5q0 153 16.5 225.5t60 99.5t134.5 27q39 0 82.5 -5.5t72.5 -13.5v-49q-30 6 -67 10.5t-61 4.5q-84 0 -118 -15.5t-47.5 -75.5t-13.5 -208q0 -136 10 -196t40.5 -82t100.5 -22
q25 0 53.5 3t46.5 7v253h-114zM238.5 -204.5q8.5 11.5 8.5 47.5v17h-28v78h67v-77q0 -44 -6.5 -66t-25 -31t-56.5 -9v29q32 0 40.5 11.5z" />
    <glyph glyph-name="gcommaaccent" unicode="&#x123;" horiz-adv-x="451" 
d="M66 -193v48q62 -5 125 -5q62 0 90.5 17t37.5 58t9 130v11h-4q-13 -39 -43 -55.5t-81 -16.5q-63 0 -94.5 21.5t-43.5 76.5t-12 163q0 109 12.5 164t44 77t94.5 22q48 0 80.5 -16.5t46.5 -64.5h5l3 73h48v-434q0 -111 -12.5 -167.5t-51.5 -82t-120 -25.5q-77 0 -134 6z
M283.5 60.5q23.5 16.5 33.5 53.5q7 25 9 57t2 84q0 50 -1.5 81t-7.5 54q-10 42 -34 59.5t-67 17.5q-52 0 -74.5 -14t-30 -56.5t-7.5 -141.5q0 -98 7.5 -140t30 -56.5t74.5 -14.5q42 0 65.5 16.5zM240.5 747q-8.5 -11 -8.5 -47v-17h28v-78h-67v77q0 44 6.5 65.5t25 30.5
t56.5 9v-29q-32 0 -40.5 -11z" />
    <glyph glyph-name="Hcircumflex" unicode="&#x124;" horiz-adv-x="530" 
d="M397 0v320h-264v-320h-58v688h58v-313h264v313h58v-688h-58zM154 750v5l78 133h65l78 -133v-5h-40l-70 101l-70 -101h-41z" />
    <glyph glyph-name="hcircumflex" unicode="&#x125;" horiz-adv-x="455" 
d="M334 304q0 75 -7 108t-27.5 44t-65.5 11q-52 0 -75.5 -24.5t-29.5 -64.5t-6 -114v-264h-56v743h56v-296h5q12 31 40 51t86 20t87 -19.5t39 -60t10 -116.5v-322h-56v304zM-16 783v5l78 133h65l78 -133v-5h-40l-70 101l-70 -101h-41z" />
    <glyph glyph-name="Hbar" unicode="&#x126;" horiz-adv-x="530" 
d="M397 688h58v-688h-58v295h-264v-295h-58v688h58v-147h264v147zM133 349h264v139h-264v-139z" />
    <glyph glyph-name="hbar" unicode="&#x127;" horiz-adv-x="455" 
d="M341 498.5q29 -19.5 39 -60t10 -116.5v-322h-56v304q0 75 -7 108t-27.5 44t-65.5 11q-52 0 -75.5 -24.5t-29.5 -64.5t-6 -114v-264h-56v639h-56v49h56v55h56v-55h120v-49h-120v-192h5q12 31 40 51t86 20t87 -19.5z" />
    <glyph glyph-name="Itilde" unicode="&#x128;" horiz-adv-x="214" 
d="M78 0v688h58v-688h-58zM232.5 807q-10.5 -22 -46.5 -22q-19 0 -37.5 6t-48.5 18q-24 11 -39.5 16.5t-30.5 5.5t-19.5 -12t-4.5 -45h-37q0 58 11 80.5t47 22.5q20 0 39.5 -6.5t48.5 -19.5q25 -10 39.5 -15t28.5 -5q15 0 19 11.5t4 45.5h37q0 -59 -10.5 -81z" />
    <glyph glyph-name="itilde" unicode="&#x129;" horiz-adv-x="190" 
d="M67 0v510h56v-510h-56zM220.5 662q-10.5 -22 -46.5 -22q-19 0 -37.5 6t-48.5 18q-24 11 -39.5 16.5t-30.5 5.5t-19.5 -12t-4.5 -45h-37q0 58 11 80.5t47 22.5q20 0 39.5 -6.5t48.5 -19.5q25 -10 39.5 -15t28.5 -5q15 0 19 11.5t4 45.5h37q0 -59 -10.5 -81z" />
    <glyph glyph-name="Imacron" unicode="&#x12a;" horiz-adv-x="214" 
d="M78 0v688h58v-688h-58zM11 834v54h191v-54h-191z" />
    <glyph glyph-name="imacron" unicode="&#x12b;" horiz-adv-x="190" 
d="M67 0v510h56v-510h-56zM-1 689v54h191v-54h-191z" />
    <glyph glyph-name="Ibreve" unicode="&#x12c;" horiz-adv-x="214" 
d="M78 0v688h58v-688h-58zM208.5 809.5q-6.5 -28.5 -30 -45.5t-73.5 -17t-73 17t-29 45t-6 79h43q0 -41 3.5 -61t17 -31t44.5 -11q32 0 46 11t17.5 31t3.5 61h43q0 -50 -6.5 -78.5z" />
    <glyph glyph-name="ibreve" unicode="&#x12d;" horiz-adv-x="190" 
d="M67 0v510h56v-510h-56zM196.5 664.5q-6.5 -28.5 -30 -45.5t-73.5 -17t-73 17t-29 45t-6 79h43q0 -41 3.5 -61t17 -31t44.5 -11q32 0 46 11t17.5 31t3.5 61h43q0 -50 -6.5 -78.5z" />
    <glyph glyph-name="Iogonek" unicode="&#x12e;" horiz-adv-x="214" 
d="M44 -175.5q-20 20.5 -20 54.5q0 29 17 61.5t45 59.5h-8v688h58v-688q-22 -19 -41.5 -52t-19.5 -59q0 -43 46 -43q9 0 16 1v-41q-18 -2 -29 -2q-44 0 -64 20.5z" />
    <glyph glyph-name="iogonek" unicode="&#x12f;" horiz-adv-x="190" 
d="M66 730h58v-70h-58v70zM107 -154q9 0 17 1v-41q-12 -2 -29 -2q-44 0 -64 20.5t-20 53.5q0 30 17 62.5t45 59.5h-6v510h56v-510q-22 -19 -42 -51.5t-20 -59.5q0 -43 46 -43z" />
    <glyph glyph-name="Idotaccent" unicode="&#x130;" horiz-adv-x="214" 
d="M78 0v688h58v-688h-58zM78 805v70h57v-70h-57z" />
    <glyph glyph-name="dotlessi" unicode="&#x131;" horiz-adv-x="190" 
d="M67 0v510h56v-510h-56z" />
    <glyph glyph-name="IJ" unicode="&#x132;" horiz-adv-x="454" 
d="M78 0v688h58v-688h-58zM299.5 63q17.5 10 22 42.5t4.5 129.5v453h59v-440q0 -127 -8 -173.5t-37 -60t-109 -14.5v51q51 2 68.5 12z" />
    <glyph glyph-name="ij" unicode="&#x133;" horiz-adv-x="380" 
d="M65 668v75h60v-75h-60zM67 0v510h56v-510h-56zM255 668v75h60v-75h-60zM186 -147q33 0 47.5 5t19 16t4.5 35v601h56v-585q0 -55 -12 -79.5t-37.5 -31.5t-77.5 -7v46z" />
    <glyph glyph-name="Jcircumflex" unicode="&#x134;" horiz-adv-x="240" 
d="M85.5 63q17.5 10 22 42.5t4.5 129.5v453h59v-440q0 -127 -8 -173.5t-37 -60t-109 -14.5v51q51 2 68.5 12zM31 750v5l78 133h65l78 -133v-5h-40l-70 101l-70 -101h-41z" />
    <glyph glyph-name="jcircumflex" unicode="&#x135;" horiz-adv-x="190" 
d="M-4 -147q33 0 47.5 5t19 16t4.5 35v601h56v-585q0 -55 -12 -79.5t-37.5 -31.5t-77.5 -7v46zM-16 605v5l78 133h65l78 -133v-5h-40l-70 101l-70 -101h-41z" />
    <glyph glyph-name="Kcommaaccent" unicode="&#x136;" horiz-adv-x="479" 
d="M396 0l-171 323h-92v-323h-59v688h59v-313h92l171 313h63l-185 -337l187 -351h-65zM236.5 -204.5q8.5 11.5 8.5 47.5v17h-28v78h67v-77q0 -44 -6.5 -66t-25 -31t-56.5 -9v29q32 0 40.5 11.5z" />
    <glyph glyph-name="kcommaaccent" unicode="&#x137;" horiz-adv-x="402" 
d="M317 0l-134 233h-60v-233h-56v743h56v-459h60l132 226h62l-149 -247l153 -263h-64zM197.5 -204.5q8.5 11.5 8.5 47.5v17h-28v78h67v-77q0 -44 -6.5 -66t-25 -31t-56.5 -9v29q32 0 40.5 11.5z" />
    <glyph glyph-name="kgreenlandic" unicode="&#x138;" horiz-adv-x="402" 
d="M317 0l-134 233h-60v-233h-56v510h56v-226h60l132 226h62l-149 -247l153 -263h-64z" />
    <glyph glyph-name="Lacute" unicode="&#x139;" horiz-adv-x="378" 
d="M74 0v688h60v-634h231v-54h-291zM85 748v5l56 135h61v-5l-76 -135h-41z" />
    <glyph glyph-name="lacute" unicode="&#x13a;" horiz-adv-x="190" 
d="M67 0v743h56v-743h-56zM69 781v5l56 135h61v-5l-76 -135h-41z" />
    <glyph glyph-name="Lcommaaccent" unicode="&#x13b;" horiz-adv-x="378" 
d="M74 0v688h60v-634h231v-54h-291zM197.5 -204.5q8.5 11.5 8.5 47.5v17h-28v78h67v-77q0 -44 -6.5 -66t-25 -31t-56.5 -9v29q32 0 40.5 11.5z" />
    <glyph glyph-name="lcommaaccent" unicode="&#x13c;" horiz-adv-x="190" 
d="M67 0v743h56v-743h-56zM91.5 -204.5q8.5 11.5 8.5 47.5v17h-28v78h67v-77q0 -44 -6.5 -66t-25 -31t-56.5 -9v29q32 0 40.5 11.5z" />
    <glyph glyph-name="Lcaron" unicode="&#x13d;" horiz-adv-x="378" 
d="M74 0v688h60v-634h231v-54h-291zM243 460l13 157v82h57v-82l-32 -157h-38z" />
    <glyph glyph-name="lcaron" unicode="&#x13e;" horiz-adv-x="197" 
d="M67 0v743h56v-743h-56zM157 449l13 157v82h57v-82l-32 -157h-38z" />
    <glyph glyph-name="Ldot" unicode="&#x13f;" horiz-adv-x="379" 
d="M74 0v688h60v-634h231v-54h-291zM272 319v80h66v-80h-66z" />
    <glyph glyph-name="ldot" unicode="&#x140;" horiz-adv-x="231" 
d="M67 0v743h56v-743h-56zM176 259v80h66v-80h-66z" />
    <glyph glyph-name="Lslash" unicode="&#x141;" horiz-adv-x="379" 
d="M134 54h231v-54h-291v288l-50 -19v50l50 19v350h60v-328l146 54v-50l-146 -54v-256z" />
    <glyph glyph-name="lslash" unicode="&#x142;" horiz-adv-x="195" 
d="M68 0v323l-51 -18v51l51 18v369h56v-349l54 19v-51l-54 -19v-343h-56z" />
    <glyph glyph-name="Nacute" unicode="&#x143;" horiz-adv-x="530" 
d="M395 0l-260 559h-4v-559h-56v688h63l257 -554h4v554h57v-688h-61zM239 748v5l56 135h61v-5l-76 -135h-41z" />
    <glyph glyph-name="nacute" unicode="&#x144;" horiz-adv-x="455" 
d="M334 304q0 75 -7 108t-27.5 44t-65.5 11q-52 0 -75.5 -24.5t-29.5 -64.5t-6 -114v-264h-56v510h48l4 -73h5q12 38 41 59.5t89 21.5q58 0 87 -19.5t39 -60.5t10 -117v-321h-56v304zM201 603v5l56 135h61v-5l-76 -135h-41z" />
    <glyph glyph-name="Ncommaaccent" unicode="&#x145;" horiz-adv-x="530" 
d="M395 0l-260 559h-4v-559h-56v688h63l257 -554h4v554h57v-688h-61zM261.5 -204.5q8.5 11.5 8.5 47.5v17h-28v78h67v-77q0 -44 -6.5 -66t-25 -31t-56.5 -9v29q32 0 40.5 11.5z" />
    <glyph glyph-name="ncommaaccent" unicode="&#x146;" horiz-adv-x="455" 
d="M334 304q0 75 -7 108t-27.5 44t-65.5 11q-52 0 -75.5 -24.5t-29.5 -64.5t-6 -114v-264h-56v510h48l4 -73h5q12 38 41 59.5t89 21.5q58 0 87 -19.5t39 -60.5t10 -117v-321h-56v304zM223.5 -204.5q8.5 11.5 8.5 47.5v17h-28v78h67v-77q0 -44 -6.5 -66t-25 -31t-56.5 -9v29
q32 0 40.5 11.5z" />
    <glyph glyph-name="Ncaron" unicode="&#x147;" horiz-adv-x="530" 
d="M395 0l-260 559h-4v-559h-56v688h63l257 -554h4v554h57v-688h-61zM232 750l-78 132v6h41l70 -102l70 102h40v-6l-78 -132h-65z" />
    <glyph glyph-name="ncaron" unicode="&#x148;" horiz-adv-x="455" 
d="M334 304q0 75 -7 108t-27.5 44t-65.5 11q-52 0 -75.5 -24.5t-29.5 -64.5t-6 -114v-264h-56v510h48l4 -73h5q12 38 41 59.5t89 21.5q58 0 87 -19.5t39 -60.5t10 -117v-321h-56v304zM194 605l-78 132v6h41l70 -102l70 102h40v-6l-78 -132h-65z" />
    <glyph glyph-name="napostrophe" unicode="&#x149;" horiz-adv-x="478" 
d="M37.5 596.5q10.5 5.5 13.5 18t3 39.5v17h-27v72h66v-71q0 -46 -6.5 -69t-25 -32t-56.5 -9v29q22 0 32.5 5.5zM357 304q0 75 -7 108t-27.5 44t-65.5 11q-52 0 -75.5 -24.5t-29.5 -64.5t-6 -114v-264h-56v510h48l4 -73h5q12 38 41 59.5t89 21.5q58 0 87 -19.5t39 -60.5
t10 -117v-321h-56v304z" />
    <glyph glyph-name="Eng" unicode="&#x14a;" horiz-adv-x="530" 
d="M456 688v-763q0 -55 -12.5 -79.5t-37.5 -31.5t-78 -7v46q33 0 47.5 5t19 16t4.5 35v92l-264 558h-4v-559h-56v688h63l257 -549h4v549h57z" />
    <glyph glyph-name="eng" unicode="&#x14b;" horiz-adv-x="455" 
d="M341 498.5q29 -19.5 39 -60.5t10 -117v-396q0 -55 -12 -79.5t-37.5 -31.5t-77.5 -7v46q33 0 47.5 5t19 16t4.5 35v395q0 75 -7 108t-27.5 44t-65.5 11q-52 0 -75.5 -24.5t-29.5 -64.5t-6 -114v-264h-56v510h48l4 -73h5q12 38 41 59.5t89 21.5q58 0 87 -19.5z" />
    <glyph glyph-name="Omacron" unicode="&#x14c;" horiz-adv-x="521" 
d="M123 18q-41 26 -53.5 95t-12.5 231t12.5 231t53.5 95t137 26q97 0 138 -26t53 -94.5t12 -231.5t-12 -231.5t-53 -94.5t-138 -26q-96 0 -137 26zM358 60.5q27 15.5 36.5 74.5t9.5 209t-9.5 209t-36.5 74.5t-98 15.5t-98 -15.5t-36.5 -74.5t-9.5 -209t9.5 -209t36.5 -74.5
t98 -15.5t98 15.5zM164 834v54h191v-54h-191z" />
    <glyph glyph-name="omacron" unicode="&#x14d;" horiz-adv-x="441" 
d="M105.5 13q-34.5 21 -45 72.5t-10.5 168.5q0 118 10.5 170t45 73t114.5 21t115 -21t45 -73t10 -170q0 -117 -10 -168.5t-45 -72.5t-115 -21t-114.5 21zM299.5 56q22.5 15 28.5 55.5t6 142.5t-6 143t-29 56.5t-79 15.5t-79 -15.5t-29 -56.5t-6 -143t6 -142.5t28.5 -55.5
t79.5 -15t79.5 15zM124 689v54h191v-54h-191z" />
    <glyph glyph-name="Obreve" unicode="&#x14e;" horiz-adv-x="521" 
d="M123 18q-41 26 -53.5 95t-12.5 231t12.5 231t53.5 95t137 26q97 0 138 -26t53 -94.5t12 -231.5t-12 -231.5t-53 -94.5t-138 -26q-96 0 -137 26zM358 60.5q27 15.5 36.5 74.5t9.5 209t-9.5 209t-36.5 74.5t-98 15.5t-98 -15.5t-36.5 -74.5t-9.5 -209t9.5 -209t36.5 -74.5
t98 -15.5t98 15.5zM361.5 809.5q-6.5 -28.5 -30 -45.5t-73.5 -17t-73 17t-29 45t-6 79h43q0 -41 3.5 -61t17 -31t44.5 -11q32 0 46 11t17.5 31t3.5 61h43q0 -50 -6.5 -78.5z" />
    <glyph glyph-name="obreve" unicode="&#x14f;" horiz-adv-x="441" 
d="M105.5 13q-34.5 21 -45 72.5t-10.5 168.5q0 118 10.5 170t45 73t114.5 21t115 -21t45 -73t10 -170q0 -117 -10 -168.5t-45 -72.5t-115 -21t-114.5 21zM299.5 56q22.5 15 28.5 55.5t6 142.5t-6 143t-29 56.5t-79 15.5t-79 -15.5t-29 -56.5t-6 -143t6 -142.5t28.5 -55.5
t79.5 -15t79.5 15zM321.5 664.5q-6.5 -28.5 -30 -45.5t-73.5 -17t-73 17t-29 45t-6 79h43q0 -41 3.5 -61t17 -31t44.5 -11q32 0 46 11t17.5 31t3.5 61h43q0 -50 -6.5 -78.5z" />
    <glyph glyph-name="Ohungarumlaut" unicode="&#x150;" horiz-adv-x="521" 
d="M123 18q-41 26 -53.5 95t-12.5 231t12.5 231t53.5 95t137 26q97 0 138 -26t53 -94.5t12 -231.5t-12 -231.5t-53 -94.5t-138 -26q-96 0 -137 26zM358 60.5q27 15.5 36.5 74.5t9.5 209t-9.5 209t-36.5 74.5t-98 15.5t-98 -15.5t-36.5 -74.5t-9.5 -209t9.5 -209t36.5 -74.5
t98 -15.5t98 15.5zM176 754v5l52 119h57v-5l-72 -119h-37zM308 754v5l52 119h56v-5l-71 -119h-37z" />
    <glyph glyph-name="ohungarumlaut" unicode="&#x151;" horiz-adv-x="441" 
d="M105.5 13q-34.5 21 -45 72.5t-10.5 168.5q0 118 10.5 170t45 73t114.5 21t115 -21t45 -73t10 -170q0 -117 -10 -168.5t-45 -72.5t-115 -21t-114.5 21zM299.5 56q22.5 15 28.5 55.5t6 142.5t-6 143t-29 56.5t-79 15.5t-79 -15.5t-29 -56.5t-6 -143t6 -142.5t28.5 -55.5
t79.5 -15t79.5 15zM143 609v5l52 119h57v-5l-72 -119h-37zM275 609v5l52 119h56v-5l-71 -119h-37z" />
    <glyph glyph-name="OE" unicode="&#x152;" horiz-adv-x="747" 
d="M123 25.5q-41 25.5 -53.5 93t-12.5 225.5t12.5 225.5t53.5 93t137 25.5h449v-53h-237q-23 0 -58 5q28 -27 38 -87t11 -179h212v-53h-212q-1 -123 -11 -184.5t-39 -88.5q35 5 59 5h237v-53h-449q-96 0 -137 25.5zM358 68.5q27 15.5 36.5 72.5t9.5 203t-9.5 203t-36.5 72.5
t-98 15.5t-98 -15.5t-36.5 -72.5t-9.5 -203t9.5 -203t36.5 -72.5t98 -15.5t98 15.5z" />
    <glyph glyph-name="oe" unicode="&#x153;" horiz-adv-x="713" 
d="M662 236h-271q0 -87 8 -125.5t34 -54t86 -15.5q30 0 66 3.5t63 9.5v-48q-23 -6 -62 -10t-76 -4q-60 0 -94.5 15t-52.5 51q-15 -37 -48 -51.5t-95 -14.5q-80 0 -114.5 21t-45 72.5t-10.5 168.5q0 118 10.5 170t45 73t114.5 21q61 0 94 -14t48 -49q17 33 51 48t94 15
q73 0 105.5 -23.5t41 -75t8.5 -164.5v-19zM299.5 56q22.5 15 28.5 55.5t6 142.5t-6 143t-29 56.5t-79 15.5t-79 -15.5t-29 -56.5t-6 -143t6 -142.5t28.5 -55.5t79.5 -15t79.5 15zM429 455.5q-23 -13.5 -30.5 -51t-7.5 -123.5h217v15q0 78 -9 114t-29.5 47.5t-64.5 11.5
q-53 0 -76 -13.5z" />
    <glyph glyph-name="Racute" unicode="&#x154;" horiz-adv-x="494" 
d="M386 0l-90 284h-19h-144v-284h-59v688h208q69 0 103 -26t43.5 -68t9.5 -108q0 -77 -15.5 -124.5t-68.5 -66.5l95 -295h-63zM341.5 353q23.5 17 30.5 47.5t7 85.5q0 56 -6.5 86t-29.5 46.5t-73 16.5h-137v-299h135q50 0 73.5 17zM221 748v5l56 135h61v-5l-76 -135h-41z
" />
    <glyph glyph-name="racute" unicode="&#x155;" horiz-adv-x="277" 
d="M67 510h48l4 -98h5q13 61 46.5 83.5t87.5 22.5v-57q-53 0 -82.5 -23.5t-41 -69t-11.5 -119.5v-249h-56v510zM113 603v5l56 135h61v-5l-76 -135h-41z" />
    <glyph glyph-name="Rcommaaccent" unicode="&#x156;" horiz-adv-x="494" 
d="M386 0l-90 284h-19h-144v-284h-59v688h208q69 0 103 -26t43.5 -68t9.5 -108q0 -77 -15.5 -124.5t-68.5 -66.5l95 -295h-63zM341.5 353q23.5 17 30.5 47.5t7 85.5q0 56 -6.5 86t-29.5 46.5t-73 16.5h-137v-299h135q50 0 73.5 17zM243.5 -204.5q8.5 11.5 8.5 47.5v17h-28
v78h67v-77q0 -44 -6.5 -66t-25 -31t-56.5 -9v29q32 0 40.5 11.5z" />
    <glyph glyph-name="rcommaaccent" unicode="&#x157;" horiz-adv-x="277" 
d="M67 510h48l4 -98h5q13 61 46.5 83.5t87.5 22.5v-57q-53 0 -82.5 -23.5t-41 -69t-11.5 -119.5v-249h-56v510zM91.5 -204.5q8.5 11.5 8.5 47.5v17h-28v78h67v-77q0 -44 -6.5 -66t-25 -31t-56.5 -9v29q32 0 40.5 11.5z" />
    <glyph glyph-name="Rcaron" unicode="&#x158;" horiz-adv-x="494" 
d="M386 0l-90 284h-19h-144v-284h-59v688h208q69 0 103 -26t43.5 -68t9.5 -108q0 -77 -15.5 -124.5t-68.5 -66.5l95 -295h-63zM341.5 353q23.5 17 30.5 47.5t7 85.5q0 56 -6.5 86t-29.5 46.5t-73 16.5h-137v-299h135q50 0 73.5 17zM214 750l-78 132v6h41l70 -102l70 102h40
v-6l-78 -132h-65z" />
    <glyph glyph-name="rcaron" unicode="&#x159;" horiz-adv-x="277" 
d="M67 510h48l4 -98h5q13 61 46.5 83.5t87.5 22.5v-57q-53 0 -82.5 -23.5t-41 -69t-11.5 -119.5v-249h-56v510zM106 605l-78 132v6h41l70 -102l70 102h40v-6l-78 -132h-65z" />
    <glyph glyph-name="Sacute" unicode="&#x15a;" horiz-adv-x="444" 
d="M138.5 -4.5q-46.5 3.5 -80.5 9.5v52q35 -5 77.5 -8.5t72.5 -3.5q40 0 64.5 5.5t42.5 20.5q16 13 21 41t5 74q0 61 -4 84.5t-20 33t-57 16.5l-123 19q-42 6 -62 27t-25.5 53.5t-5.5 89.5q0 101 42.5 144t139.5 43q41 0 82.5 -4t65.5 -10v-51q-28 5 -66 8.5t-70 3.5
q-45 0 -71.5 -7.5t-40.5 -24.5t-18.5 -40.5t-4.5 -61.5q0 -49 4.5 -71t17 -31t42.5 -14l116 -18q45 -8 69.5 -22t37.5 -48q10 -26 10 -112q0 -75 -16 -118t-53.5 -63t-104.5 -20q-41 0 -87.5 3.5zM196 748v5l56 135h61v-5l-76 -135h-41z" />
    <glyph glyph-name="sacute" unicode="&#x15b;" horiz-adv-x="378" 
d="M115 -4.5q-38 3.5 -62 8.5v48q60 -11 135 -11q57 0 75.5 22.5t18.5 72.5q0 40 -4.5 58t-15 24t-34.5 9l-103 14q-48 7 -66 36t-18 94q0 60 18.5 92t51.5 43.5t86 11.5q29 0 63 -4t56 -9v-48q-53 12 -124 12q-50 0 -73 -19t-23 -74q0 -36 4.5 -53t15 -23t33.5 -9l101 -14
q34 -5 52 -17t26.5 -40t8.5 -82q0 -82 -35 -114t-115 -32q-34 0 -72 3.5zM163 603v5l56 135h61v-5l-76 -135h-41z" />
    <glyph glyph-name="Scircumflex" unicode="&#x15c;" horiz-adv-x="444" 
d="M138.5 -4.5q-46.5 3.5 -80.5 9.5v52q35 -5 77.5 -8.5t72.5 -3.5q40 0 64.5 5.5t42.5 20.5q16 13 21 41t5 74q0 61 -4 84.5t-20 33t-57 16.5l-123 19q-42 6 -62 27t-25.5 53.5t-5.5 89.5q0 101 42.5 144t139.5 43q41 0 82.5 -4t65.5 -10v-51q-28 5 -66 8.5t-70 3.5
q-45 0 -71.5 -7.5t-40.5 -24.5t-18.5 -40.5t-4.5 -61.5q0 -49 4.5 -71t17 -31t42.5 -14l116 -18q45 -8 69.5 -22t37.5 -48q10 -26 10 -112q0 -75 -16 -118t-53.5 -63t-104.5 -20q-41 0 -87.5 3.5zM111 750v5l78 133h65l78 -133v-5h-40l-70 101l-70 -101h-41z" />
    <glyph glyph-name="scircumflex" unicode="&#x15d;" horiz-adv-x="378" 
d="M115 -4.5q-38 3.5 -62 8.5v48q60 -11 135 -11q57 0 75.5 22.5t18.5 72.5q0 40 -4.5 58t-15 24t-34.5 9l-103 14q-48 7 -66 36t-18 94q0 60 18.5 92t51.5 43.5t86 11.5q29 0 63 -4t56 -9v-48q-53 12 -124 12q-50 0 -73 -19t-23 -74q0 -36 4.5 -53t15 -23t33.5 -9l101 -14
q34 -5 52 -17t26.5 -40t8.5 -82q0 -82 -35 -114t-115 -32q-34 0 -72 3.5zM78 605v5l78 133h65l78 -133v-5h-40l-70 101l-70 -101h-41z" />
    <glyph glyph-name="Scedilla" unicode="&#x15e;" horiz-adv-x="444" 
d="M385.5 78q-14.5 -43 -49 -63.5t-95.5 -22.5l-41 -182h-57v5l55 177q-90 4 -140 13v52q35 -5 77.5 -8.5t72.5 -3.5q40 0 64.5 5.5t42.5 20.5q16 13 21 41t5 74q0 61 -4 84.5t-20 33t-57 16.5l-123 19q-42 6 -62 27t-25.5 53.5t-5.5 89.5q0 101 42.5 144t139.5 43
q41 0 82.5 -4t65.5 -10v-51q-28 5 -66 8.5t-70 3.5q-45 0 -71.5 -7.5t-40.5 -24.5t-18.5 -40.5t-4.5 -61.5q0 -49 4.5 -71t17 -31t42.5 -14l116 -18q45 -8 69.5 -22t37.5 -48q10 -26 10 -112q0 -72 -14.5 -115z" />
    <glyph glyph-name="scedilla" unicode="&#x15f;" horiz-adv-x="378" 
d="M306.5 29q-30.5 -33 -98.5 -37l-41 -182h-57v5l55 177q-75 4 -112 12v48q60 -11 135 -11q57 0 75.5 22.5t18.5 72.5q0 40 -4.5 58t-15 24t-34.5 9l-103 14q-48 7 -66 36t-18 94q0 60 18.5 92t51.5 43.5t86 11.5q29 0 63 -4t56 -9v-48q-53 12 -124 12q-50 0 -73 -19
t-23 -74q0 -36 4.5 -53t15 -23t33.5 -9l101 -14q34 -5 52 -17t26.5 -40t8.5 -82q0 -76 -30.5 -109z" />
    <glyph glyph-name="Scaron" unicode="&#x160;" horiz-adv-x="445" 
d="M138.5 -4.5q-46.5 3.5 -80.5 9.5v52q35 -5 77.5 -8.5t72.5 -3.5q40 0 64.5 5.5t42.5 20.5q16 13 21 41t5 74q0 61 -4 84.5t-20 33t-57 16.5l-123 19q-42 6 -62 27t-25.5 53.5t-5.5 89.5q0 101 42.5 144t139.5 43q41 0 82.5 -4t65.5 -10v-51q-28 5 -66 8.5t-70 3.5
q-45 0 -71.5 -7.5t-40.5 -24.5t-18.5 -40.5t-4.5 -61.5q0 -49 4.5 -71t17 -31t42.5 -14l116 -18q45 -8 69.5 -22t37.5 -48q10 -26 10 -112q0 -75 -16 -118t-53.5 -63t-104.5 -20q-41 0 -87.5 3.5zM194 750l-78 132v6h41l70 -102l70 102h40v-6l-78 -132h-65z" />
    <glyph glyph-name="scaron" unicode="&#x161;" horiz-adv-x="378" 
d="M115 -4.5q-38 3.5 -62 8.5v48q60 -11 135 -11q57 0 75.5 22.5t18.5 72.5q0 40 -4.5 58t-15 24t-34.5 9l-103 14q-48 7 -66 36t-18 94q0 60 18.5 92t51.5 43.5t86 11.5q29 0 63 -4t56 -9v-48q-53 12 -124 12q-50 0 -73 -19t-23 -74q0 -36 4.5 -53t15 -23t33.5 -9l101 -14
q34 -5 52 -17t26.5 -40t8.5 -82q0 -82 -35 -114t-115 -32q-34 0 -72 3.5zM159 605l-78 132v6h41l70 -102l70 102h40v-6l-78 -132h-65z" />
    <glyph glyph-name="uni0162" unicode="&#x162;" horiz-adv-x="413" 
d="M19 688h375v-54h-158v-634h-10l-42 -190h-57v5l58 185h-8v634h-158v54z" />
    <glyph glyph-name="uni0163" unicode="&#x163;" horiz-adv-x="265" 
d="M154 510h89v-49h-89v-461h-8l-42 -190h-57v5l58 185h-7v461h-77v49h77v148h56v-148z" />
    <glyph glyph-name="Tcaron" unicode="&#x164;" horiz-adv-x="413" 
d="M177 0v634h-158v54h375v-54h-158v-634h-59zM173 750l-78 132v6h41l70 -102l70 102h40v-6l-78 -132h-65z" />
    <glyph glyph-name="tcaron" unicode="&#x165;" horiz-adv-x="282" 
d="M98 0v461h-77v49h77v148h56v-148h89v-49h-89v-461h-56zM273 449l13 157v82h57v-82l-32 -157h-38z" />
    <glyph glyph-name="Tbar" unicode="&#x166;" horiz-adv-x="413" 
d="M394 634h-158v-264h130v-49h-130v-321h-59v321h-130v49h130v264h-158v54h375v-54z" />
    <glyph glyph-name="tbar" unicode="&#x167;" horiz-adv-x="265" 
d="M243 461h-89v-181h85v-49h-85v-231h-56v231h-69v49h69v181h-77v49h77v148h56v-148h89v-49z" />
    <glyph glyph-name="Utilde" unicode="&#x168;" horiz-adv-x="517" 
d="M448 688v-391q0 -133 -12 -193.5t-51 -86t-126 -25.5q-88 0 -127 25.5t-51 86t-12 193.5v391h58v-424q0 -99 7.5 -141.5t34.5 -60t90 -17.5q62 0 88.5 17.5t34 60t7.5 141.5v424h59zM384.5 807q-10.5 -22 -46.5 -22q-19 0 -37.5 6t-48.5 18q-24 11 -39.5 16.5t-30.5 5.5
t-19.5 -12t-4.5 -45h-37q0 58 11 80.5t47 22.5q20 0 39.5 -6.5t48.5 -19.5q25 -10 39.5 -15t28.5 -5q15 0 19 11.5t4 45.5h37q0 -59 -10.5 -81z" />
    <glyph glyph-name="utilde" unicode="&#x169;" horiz-adv-x="455" 
d="M336 73h-5q-12 -38 -41.5 -59.5t-88.5 -21.5q-58 0 -87.5 19.5t-39.5 60.5t-10 117v321h56v-304q0 -75 7.5 -108t27.5 -44t66 -11q51 0 75 24.5t29.5 64.5t5.5 114v264h56v-510h-47zM352.5 662q-10.5 -22 -46.5 -22q-19 0 -37.5 6t-48.5 18q-24 11 -39.5 16.5t-30.5 5.5
t-19.5 -12t-4.5 -45h-37q0 58 11 80.5t47 22.5q20 0 39.5 -6.5t48.5 -19.5q25 -10 39.5 -15t28.5 -5q15 0 19 11.5t4 45.5h37q0 -59 -10.5 -81z" />
    <glyph glyph-name="Umacron" unicode="&#x16a;" horiz-adv-x="517" 
d="M448 688v-391q0 -133 -12 -193.5t-51 -86t-126 -25.5q-88 0 -127 25.5t-51 86t-12 193.5v391h58v-424q0 -99 7.5 -141.5t34.5 -60t90 -17.5q62 0 88.5 17.5t34 60t7.5 141.5v424h59zM163 834v54h191v-54h-191z" />
    <glyph glyph-name="umacron" unicode="&#x16b;" horiz-adv-x="455" 
d="M336 73h-5q-12 -38 -41.5 -59.5t-88.5 -21.5q-58 0 -87.5 19.5t-39.5 60.5t-10 117v321h56v-304q0 -75 7.5 -108t27.5 -44t66 -11q51 0 75 24.5t29.5 64.5t5.5 114v264h56v-510h-47zM131 689v54h191v-54h-191z" />
    <glyph glyph-name="Ubreve" unicode="&#x16c;" horiz-adv-x="517" 
d="M448 688v-391q0 -133 -12 -193.5t-51 -86t-126 -25.5q-88 0 -127 25.5t-51 86t-12 193.5v391h58v-424q0 -99 7.5 -141.5t34.5 -60t90 -17.5q62 0 88.5 17.5t34 60t7.5 141.5v424h59zM360.5 809.5q-6.5 -28.5 -30 -45.5t-73.5 -17t-73 17t-29 45t-6 79h43q0 -41 3.5 -61
t17 -31t44.5 -11q32 0 46 11t17.5 31t3.5 61h43q0 -50 -6.5 -78.5z" />
    <glyph glyph-name="ubreve" unicode="&#x16d;" horiz-adv-x="455" 
d="M336 73h-5q-12 -38 -41.5 -59.5t-88.5 -21.5q-58 0 -87.5 19.5t-39.5 60.5t-10 117v321h56v-304q0 -75 7.5 -108t27.5 -44t66 -11q51 0 75 24.5t29.5 64.5t5.5 114v264h56v-510h-47zM328.5 664.5q-6.5 -28.5 -30 -45.5t-73.5 -17t-73 17t-29 45t-6 79h43q0 -41 3.5 -61
t17 -31t44.5 -11q32 0 46 11t17.5 31t3.5 61h43q0 -50 -6.5 -78.5z" />
    <glyph glyph-name="Uring" unicode="&#x16e;" horiz-adv-x="517" 
d="M448 688v-391q0 -133 -12 -193.5t-51 -86t-126 -25.5q-88 0 -127 25.5t-51 86t-12 193.5v391h58v-424q0 -99 7.5 -141.5t34.5 -60t90 -17.5q62 0 88.5 17.5t34 60t7.5 141.5v424h59zM192.5 738q-20.5 9 -26.5 27.5t-6 56.5t6 57t26.5 28t65.5 9t65.5 -9t26.5 -28t6 -57
t-6 -56.5t-26.5 -27.5t-65.5 -9t-65.5 9zM295.5 769q11.5 5 15 16.5t3.5 36.5t-3.5 36.5t-15 16.5t-37.5 5t-37.5 -5t-14.5 -16t-3 -37t3 -37t14.5 -16t37.5 -5t37.5 5z" />
    <glyph glyph-name="uring" unicode="&#x16f;" horiz-adv-x="455" 
d="M336 73h-5q-12 -38 -41.5 -59.5t-88.5 -21.5q-58 0 -87.5 19.5t-39.5 60.5t-10 117v321h56v-304q0 -75 7.5 -108t27.5 -44t66 -11q51 0 75 24.5t29.5 64.5t5.5 114v264h56v-510h-47zM160.5 623q-20.5 9 -26.5 27.5t-6 56.5t6 57t26.5 28t65.5 9t65.5 -9t26.5 -28t6 -57
t-6 -56.5t-26.5 -27.5t-65.5 -9t-65.5 9zM263.5 654q11.5 5 15 16.5t3.5 36.5t-3.5 36.5t-15 16.5t-37.5 5t-37.5 -5t-14.5 -16t-3 -37t3 -37t14.5 -16t37.5 -5t37.5 5z" />
    <glyph glyph-name="Uhungarumlaut" unicode="&#x170;" horiz-adv-x="517" 
d="M448 688v-391q0 -133 -12 -193.5t-51 -86t-126 -25.5q-88 0 -127 25.5t-51 86t-12 193.5v391h58v-424q0 -99 7.5 -141.5t34.5 -60t90 -17.5q62 0 88.5 17.5t34 60t7.5 141.5v424h59zM175 754v5l52 119h57v-5l-72 -119h-37zM307 754v5l52 119h56v-5l-71 -119h-37z" />
    <glyph glyph-name="uhungarumlaut" unicode="&#x171;" horiz-adv-x="455" 
d="M336 73h-5q-12 -38 -41.5 -59.5t-88.5 -21.5q-58 0 -87.5 19.5t-39.5 60.5t-10 117v321h56v-304q0 -75 7.5 -108t27.5 -44t66 -11q51 0 75 24.5t29.5 64.5t5.5 114v264h56v-510h-47zM150 609v5l52 119h57v-5l-72 -119h-37zM282 609v5l52 119h56v-5l-71 -119h-37z" />
    <glyph glyph-name="Uogonek" unicode="&#x172;" horiz-adv-x="517" 
d="M448 688v-391q0 -90 -4.5 -142.5t-18 -86t-40.5 -51.5q-33 -22 -55.5 -57t-22.5 -71q0 -43 46 -43q9 0 17 1v-41q-13 -2 -30 -2q-44 0 -63.5 20.5t-19.5 54.5q0 27 15 58t41 59q-21 -4 -54 -4q-88 0 -127 25.5t-51 86t-12 193.5v391h58v-424q0 -99 7.5 -141.5t34.5 -60
t90 -17.5q62 0 88.5 17.5t34 60t7.5 141.5v424h59z" />
    <glyph glyph-name="uogonek" unicode="&#x173;" horiz-adv-x="455" 
d="M389 -153v-41q-12 -2 -30 -2q-44 0 -63.5 20t-19.5 54q0 31 17.5 64.5t46.5 60.5l-4 70h-5q-12 -38 -41.5 -59.5t-88.5 -21.5q-58 0 -87.5 19.5t-39.5 60.5t-10 117v321h56v-304q0 -75 7.5 -108t27.5 -44t66 -11q51 0 75 24.5t29.5 64.5t5.5 114v264h56v-510
q-22 -19 -41.5 -51.5t-19.5 -59.5q0 -43 46 -43q9 0 17 1z" />
    <glyph glyph-name="Wcircumflex" unicode="&#x174;" horiz-adv-x="688" 
d="M468 0l-122 582h-4l-121 -582h-70l-134 688h60l109 -593h5l121 593h66l122 -593h6l107 593h59l-133 -688h-71zM233 750v5l78 133h65l78 -133v-5h-40l-70 101l-70 -101h-41z" />
    <glyph glyph-name="wcircumflex" unicode="&#x175;" horiz-adv-x="607" 
d="M396 0l-90 411h-5l-90 -411h-66l-122 510h58l96 -429h5l92 429h61l93 -429h5l95 429h56l-122 -510h-66zM193 605v5l78 133h65l78 -133v-5h-40l-70 101l-70 -101h-41z" />
    <glyph glyph-name="Ycircumflex" unicode="&#x176;" horiz-adv-x="428" 
d="M184 0v271l-180 417h62l146 -344h6l146 344h60l-181 -417v-271h-59zM103 750v5l78 133h65l78 -133v-5h-40l-70 101l-70 -101h-41z" />
    <glyph glyph-name="ycircumflex" unicode="&#x177;" horiz-adv-x="455" 
d="M77 -194v48q70 -4 120 -4q61 0 89.5 19t36.5 59.5t8 121.5v17h-4q-12 -34 -40 -54t-88 -20q-58 0 -86.5 20t-38.5 62t-10 120v315h56v-304q0 -74 7.5 -107t27.5 -44t66 -11q52 0 75.5 24t29 63.5t5.5 114.5v264h56v-438q0 -107 -13 -163t-51.5 -82t-116.5 -26
q-69 0 -129 5zM116 605v5l78 133h65l78 -133v-5h-40l-70 101l-70 -101h-41z" />
    <glyph glyph-name="Ydieresis" unicode="&#x178;" horiz-adv-x="428" 
d="M184 0v271l-180 417h62l146 -344h6l146 344h60l-181 -417v-271h-59zM99 773v70h57v-70h-57zM275 773v70h57v-70h-57z" />
    <glyph glyph-name="Zacute" unicode="&#x179;" horiz-adv-x="422" 
d="M31 0v50l288 585h-280v53h348v-49l-287 -587h292v-52h-361zM185 748v5l56 135h61v-5l-76 -135h-41z" />
    <glyph glyph-name="zacute" unicode="&#x17a;" horiz-adv-x="369" 
d="M35 0v45l230 416h-222v49h290v-44l-231 -417h232v-49h-299zM158 603v5l56 135h61v-5l-76 -135h-41z" />
    <glyph glyph-name="Zdotaccent" unicode="&#x17b;" horiz-adv-x="422" 
d="M31 0v50l288 585h-280v53h348v-49l-287 -587h292v-52h-361zM182 805v70h57v-70h-57z" />
    <glyph glyph-name="zdotaccent" unicode="&#x17c;" horiz-adv-x="369" 
d="M35 0v45l230 416h-222v49h290v-44l-231 -417h232v-49h-299zM155 660v70h57v-70h-57z" />
    <glyph glyph-name="Zcaron" unicode="&#x17d;" horiz-adv-x="423" 
d="M31 0v50l288 585h-280v53h348v-49l-287 -587h292v-52h-361zM185 750l-78 132v6h41l70 -102l70 102h40v-6l-78 -132h-65z" />
    <glyph glyph-name="zcaron" unicode="&#x17e;" horiz-adv-x="369" 
d="M35 0v45l230 416h-222v49h290v-44l-231 -417h232v-49h-299zM156 605l-78 132v6h41l70 -102l70 102h40v-6l-78 -132h-65z" />
    <glyph glyph-name="longs" unicode="&#x17f;" horiz-adv-x="257" 
d="M98 461h-76v49h76v98q0 60 15 89t46 37.5t91 8.5v-45q-41 0 -60.5 -6t-27.5 -23t-8 -51v-618h-56v461z" />
    <glyph glyph-name="uni018F" unicode="&#x18f;" horiz-adv-x="514" 
d="M383.5 670.5q42.5 -25.5 58 -97t15.5 -229.5q0 -162 -12 -231t-52.5 -95t-135.5 -26t-135.5 26t-52.5 95t-12 231v30h341q-1 127 -12.5 180.5t-44.5 71t-112 17.5q-27 0 -60 -3.5t-56 -8.5v51q25 6 62 10t72 4q94 0 136.5 -25.5zM351.5 59q26.5 15 36 70t10.5 193h-282
q1 -138 11 -193t36.5 -70t93.5 -15q68 0 94.5 15z" />
    <glyph glyph-name="florin" unicode="&#x192;" horiz-adv-x="312" 
d="M256 687q-21 -10 -35 -44t-31 -115l-3 -18h96l-11 -49h-96l-95 -449q-20 -94 -43.5 -136.5t-56 -54.5t-95.5 -12l11 46q40 0 61 6.5t32.5 25t20.5 58.5l109 516h-76l10 49h77l2 11q22 103 45.5 149.5t56.5 59.5t98 13l-10 -46q-46 0 -67 -10z" />
    <glyph glyph-name="uni019D" unicode="&#x19d;" horiz-adv-x="530" 
d="M456 688v-688h-61l-260 559h-4v-634q0 -55 -12.5 -79.5t-37.5 -31.5t-78 -7v46q33 0 48 5t19.5 16t4.5 35v779h63l257 -554h4v554h57z" />
    <glyph glyph-name="Ohorn" unicode="&#x1a0;" horiz-adv-x="521" 
d="M493 785v-33q0 -37 -6 -57t-22.5 -29.5t-48.5 -11.5q30 -32 38.5 -99t8.5 -211q0 -163 -12 -231.5t-53 -94.5t-138 -26q-96 0 -137 26t-53.5 95t-12.5 231t12.5 231t53.5 95t137 26q61 0 94 -8h44q33 0 42.5 11.5t9.5 43.5v42h43zM358 60.5q27 15.5 36.5 74.5t9.5 209
t-9.5 209t-36.5 74.5t-98 15.5t-98 -15.5t-36.5 -74.5t-9.5 -209t9.5 -209t36.5 -74.5t98 -15.5t98 15.5z" />
    <glyph glyph-name="ohorn" unicode="&#x1a1;" horiz-adv-x="441" 
d="M441 607v-33q0 -39 -6.5 -59t-24 -29t-52.5 -10q20 -26 26 -75.5t6 -146.5q0 -117 -10 -168.5t-45 -72.5t-115 -21t-114.5 21t-45 72.5t-10.5 168.5q0 118 10.5 170t45 73t114.5 21q54 0 83 -8h43q33 0 42.5 11.5t9.5 43.5v42h43zM299.5 56q22.5 15 28.5 55.5t6 142.5
t-6 143t-29 56.5t-79 15.5t-79 -15.5t-29 -56.5t-6 -143t6 -142.5t28.5 -55.5t79.5 -15t79.5 15z" />
    <glyph glyph-name="Uhorn" unicode="&#x1af;" horiz-adv-x="517" 
d="M538 785v-33q0 -40 -7 -60t-26 -28.5t-57 -9.5v-357q0 -133 -12 -193.5t-51 -86t-126 -25.5q-88 0 -127 25.5t-51 86t-12 193.5v391h58v-424q0 -99 7.5 -141.5t34.5 -60t90 -17.5q62 0 88.5 17.5t34 60t7.5 141.5v424h54q33 0 42.5 11.5t9.5 43.5v42h43z" />
    <glyph glyph-name="uhorn" unicode="&#x1b0;" horiz-adv-x="455" 
d="M476 607v-33q0 -39 -7 -59.5t-25.5 -29t-56.5 -9.5v-476h-47l-4 73h-5q-12 -38 -41.5 -59.5t-88.5 -21.5q-58 0 -87.5 19.5t-39.5 60.5t-10 117v321h56v-304q0 -75 7.5 -108t27.5 -44t66 -11q51 0 75 24.5t29.5 64.5t5.5 114v264h50q33 0 42.5 11.5t9.5 43.5v42h43z" />
    <glyph glyph-name="uni01C4" unicode="&#x1c4;" horiz-adv-x="920" 
d="M74 688h160q98 0 140 -25t54.5 -92.5t12.5 -226.5t-12.5 -226.5t-54.5 -92.5t-140 -25h-160v688zM230 53q76 0 104.5 15t38 72t9.5 204t-10 204t-38.5 72t-103.5 15h-97v-582h97zM529 0v50l288 585h-280v53h348v-49l-287 -587h292v-52h-361zM677 750l-78 132v6h41
l70 -102l70 102h40v-6l-78 -132h-65z" />
    <glyph glyph-name="uni01C5" unicode="&#x1c5;" horiz-adv-x="867" 
d="M74 688h160q98 0 140 -25t54.5 -92.5t12.5 -226.5t-12.5 -226.5t-54.5 -92.5t-140 -25h-160v688zM230 53q76 0 104.5 15t38 72t9.5 204t-10 204t-38.5 72t-103.5 15h-97v-582h97zM533 0v45l230 416h-222v49h290v-44l-231 -417h232v-49h-299zM658 605l-78 132v6h41
l70 -102l70 102h40v-6l-78 -132h-65z" />
    <glyph glyph-name="uni01C6" unicode="&#x1c6;" horiz-adv-x="821" 
d="M106.5 14q-31.5 22 -44 77t-12.5 164t12 164t43.5 77t94.5 22q50 0 80.5 -16.5t43.5 -55.5h5v297h56v-743h-48l-4 73h-5q-14 -48 -47 -64.5t-81 -16.5q-62 0 -93.5 22zM284 59q24 16 33 50q7 30 9.5 65t2.5 91q0 84 -10 125q-10 42 -34 59.5t-70 17.5q-50 0 -72 -14.5
t-29.5 -57t-7.5 -140.5t7.5 -140.5t30 -57t74.5 -14.5q42 0 66 16zM487 0v45l230 416h-222v49h290v-44l-231 -417h232v-49h-299zM600 605l-78 132v6h41l70 -102l70 102h40v-6l-78 -132h-65z" />
    <glyph glyph-name="uni01C7" unicode="&#x1c7;" horiz-adv-x="618" 
d="M74 0v688h60v-634h231v-54h-291zM463.5 63q17.5 10 22 42.5t4.5 129.5v453h59v-440q0 -127 -8 -173.5t-37 -60t-109 -14.5v51q51 2 68.5 12z" />
    <glyph glyph-name="uni01C8" unicode="&#x1c8;" horiz-adv-x="568" 
d="M74 0v688h60v-634h231v-54h-291zM443 668v75h60v-75h-60zM374 -147q33 0 47.5 5t19 16t4.5 35v601h56v-585q0 -55 -12 -79.5t-37.5 -31.5t-77.5 -7v46z" />
    <glyph glyph-name="uni01C9" unicode="&#x1c9;" horiz-adv-x="380" 
d="M67 0v743h56v-743h-56zM255 668v75h60v-75h-60zM186 -147q33 0 47.5 5t19 16t4.5 35v601h56v-585q0 -55 -12 -79.5t-37.5 -31.5t-77.5 -7v46z" />
    <glyph glyph-name="uni01CA" unicode="&#x1ca;" horiz-adv-x="770" 
d="M395 0l-260 559h-4v-559h-56v688h63l257 -554h4v554h57v-688h-61zM615.5 63q17.5 10 22 42.5t4.5 129.5v453h59v-440q0 -127 -8 -173.5t-37 -60t-109 -14.5v51q51 2 68.5 12z" />
    <glyph glyph-name="uni01CB" unicode="&#x1cb;" horiz-adv-x="720" 
d="M395 0l-260 559h-4v-559h-56v688h63l257 -554h4v554h57v-688h-61zM595 668v75h60v-75h-60zM526 -147q33 0 47.5 5t19 16t4.5 35v601h56v-585q0 -55 -12 -79.5t-37.5 -31.5t-77.5 -7v46z" />
    <glyph glyph-name="uni01CC" unicode="&#x1cc;" horiz-adv-x="645" 
d="M334 304q0 75 -7 108t-27.5 44t-65.5 11q-52 0 -75.5 -24.5t-29.5 -64.5t-6 -114v-264h-56v510h48l4 -73h5q12 38 41 59.5t89 21.5q58 0 87 -19.5t39 -60.5t10 -117v-321h-56v304zM520 668v75h60v-75h-60zM451 -147q33 0 47.5 5t19 16t4.5 35v601h56v-585
q0 -55 -12 -79.5t-37.5 -31.5t-77.5 -7v46z" />
    <glyph glyph-name="uni01CD" unicode="&#x1cd;" horiz-adv-x="493" 
d="M411 0l-54 203h-223l-53 -203h-60l189 688h73l189 -688h-61zM248 608h-5l-94 -353h193zM214 750l-78 132v6h41l70 -102l70 102h40v-6l-78 -132h-65z" />
    <glyph glyph-name="uni01CE" unicode="&#x1ce;" horiz-adv-x="427" 
d="M95 4.5q-29 12.5 -43.5 44.5t-14.5 90t11.5 89.5t38.5 45.5t77 14q30 0 142 -5v40q0 68 -9 97.5t-33 39t-79 9.5q-25 0 -62 -3.5t-60 -8.5v48q65 13 138 13q68 0 101.5 -16.5t46.5 -56.5t13 -119v-326h-48l-4 73h-4q-15 -49 -50 -65t-83 -16q-49 0 -78 12.5zM252.5 51
q25.5 10 37.5 41q9 25 12.5 51.5t3.5 64.5v35h-129q-35 0 -52.5 -7.5t-24.5 -28.5t-7 -65q0 -42 7.5 -63.5t27 -29.5t59.5 -8t65.5 10zM181 605l-78 132v6h41l70 -102l70 102h40v-6l-78 -132h-65z" />
    <glyph glyph-name="uni01CF" unicode="&#x1cf;" horiz-adv-x="214" 
d="M78 0v688h58v-688h-58zM74 750l-78 132v6h41l70 -102l70 102h40v-6l-78 -132h-65z" />
    <glyph glyph-name="uni01D0" unicode="&#x1d0;" horiz-adv-x="190" 
d="M67 0v510h56v-510h-56zM62 605l-78 132v6h41l70 -102l70 102h40v-6l-78 -132h-65z" />
    <glyph glyph-name="uni01D1" unicode="&#x1d1;" horiz-adv-x="521" 
d="M123 18q-41 26 -53.5 95t-12.5 231t12.5 231t53.5 95t137 26q97 0 138 -26t53 -94.5t12 -231.5t-12 -231.5t-53 -94.5t-138 -26q-96 0 -137 26zM358 60.5q27 15.5 36.5 74.5t9.5 209t-9.5 209t-36.5 74.5t-98 15.5t-98 -15.5t-36.5 -74.5t-9.5 -209t9.5 -209t36.5 -74.5
t98 -15.5t98 15.5zM227 750l-78 132v6h41l70 -102l70 102h40v-6l-78 -132h-65z" />
    <glyph glyph-name="uni01D2" unicode="&#x1d2;" horiz-adv-x="441" 
d="M105.5 13q-34.5 21 -45 72.5t-10.5 168.5q0 118 10.5 170t45 73t114.5 21t115 -21t45 -73t10 -170q0 -117 -10 -168.5t-45 -72.5t-115 -21t-114.5 21zM299.5 56q22.5 15 28.5 55.5t6 142.5t-6 143t-29 56.5t-79 15.5t-79 -15.5t-29 -56.5t-6 -143t6 -142.5t28.5 -55.5
t79.5 -15t79.5 15zM187 605l-78 132v6h41l70 -102l70 102h40v-6l-78 -132h-65z" />
    <glyph glyph-name="uni01D3" unicode="&#x1d3;" horiz-adv-x="517" 
d="M448 688v-391q0 -133 -12 -193.5t-51 -86t-126 -25.5q-88 0 -127 25.5t-51 86t-12 193.5v391h58v-424q0 -99 7.5 -141.5t34.5 -60t90 -17.5q62 0 88.5 17.5t34 60t7.5 141.5v424h59zM226 750l-78 132v6h41l70 -102l70 102h40v-6l-78 -132h-65z" />
    <glyph glyph-name="uni01D4" unicode="&#x1d4;" horiz-adv-x="455" 
d="M336 73h-5q-12 -38 -41.5 -59.5t-88.5 -21.5q-58 0 -87.5 19.5t-39.5 60.5t-10 117v321h56v-304q0 -75 7.5 -108t27.5 -44t66 -11q51 0 75 24.5t29.5 64.5t5.5 114v264h56v-510h-47zM194 605l-78 132v6h41l70 -102l70 102h40v-6l-78 -132h-65z" />
    <glyph glyph-name="uni01D5" unicode="&#x1d5;" horiz-adv-x="517" 
d="M448 688v-391q0 -133 -12 -193.5t-51 -86t-126 -25.5q-88 0 -127 25.5t-51 86t-12 193.5v391h58v-424q0 -99 7.5 -141.5t34.5 -60t90 -17.5q62 0 88.5 17.5t34 60t7.5 141.5v424h59zM142 805v70h57v-70h-57zM318 805v70h57v-70h-57zM165 961v54h191v-54h-191z" />
    <glyph glyph-name="uni01D6" unicode="&#x1d6;" horiz-adv-x="455" 
d="M336 73h-5q-12 -38 -41.5 -59.5t-88.5 -21.5q-58 0 -87.5 19.5t-39.5 60.5t-10 117v321h56v-304q0 -75 7.5 -108t27.5 -44t66 -11q51 0 75 24.5t29.5 64.5t5.5 114v264h56v-510h-47zM110 660v70h57v-70h-57zM286 660v70h57v-70h-57zM133 849v54h191v-54h-191z" />
    <glyph glyph-name="uni01D7" unicode="&#x1d7;" horiz-adv-x="517" 
d="M448 688v-391q0 -133 -12 -193.5t-51 -86t-126 -25.5q-88 0 -127 25.5t-51 86t-12 193.5v391h58v-424q0 -99 7.5 -141.5t34.5 -60t90 -17.5q62 0 88.5 17.5t34 60t7.5 141.5v424h59zM142 805v70h57v-70h-57zM318 805v70h57v-70h-57zM235 875v5l56 135h61v-5l-76 -135h-41
z" />
    <glyph glyph-name="uni01D8" unicode="&#x1d8;" horiz-adv-x="455" 
d="M336 73h-5q-12 -38 -41.5 -59.5t-88.5 -21.5q-58 0 -87.5 19.5t-39.5 60.5t-10 117v321h56v-304q0 -75 7.5 -108t27.5 -44t66 -11q51 0 75 24.5t29.5 64.5t5.5 114v264h56v-510h-47zM110 660v70h57v-70h-57zM286 660v70h57v-70h-57zM203 763v5l56 135h61v-5l-76 -135h-41
z" />
    <glyph glyph-name="uni01D9" unicode="&#x1d9;" horiz-adv-x="517" 
d="M448 688v-391q0 -133 -12 -193.5t-51 -86t-126 -25.5q-88 0 -127 25.5t-51 86t-12 193.5v391h58v-424q0 -99 7.5 -141.5t34.5 -60t90 -17.5q62 0 88.5 17.5t34 60t7.5 141.5v424h59zM142 805v70h57v-70h-57zM318 805v70h57v-70h-57zM228 877l-78 132v6h41l70 -102l70 102
h40v-6l-78 -132h-65z" />
    <glyph glyph-name="uni01DA" unicode="&#x1da;" horiz-adv-x="455" 
d="M336 73h-5q-12 -38 -41.5 -59.5t-88.5 -21.5q-58 0 -87.5 19.5t-39.5 60.5t-10 117v321h56v-304q0 -75 7.5 -108t27.5 -44t66 -11q51 0 75 24.5t29.5 64.5t5.5 114v264h56v-510h-47zM110 660v70h57v-70h-57zM286 660v70h57v-70h-57zM196 765l-78 132v6h41l70 -102l70 102
h40v-6l-78 -132h-65z" />
    <glyph glyph-name="uni01DB" unicode="&#x1db;" horiz-adv-x="517" 
d="M448 688v-391q0 -133 -12 -193.5t-51 -86t-126 -25.5q-88 0 -127 25.5t-51 86t-12 193.5v391h58v-424q0 -99 7.5 -141.5t34.5 -60t90 -17.5q62 0 88.5 17.5t34 60t7.5 141.5v424h59zM142 805v70h57v-70h-57zM318 805v70h57v-70h-57zM245 875l-76 135v5h62l55 -135v-5h-41
z" />
    <glyph glyph-name="uni01DC" unicode="&#x1dc;" horiz-adv-x="455" 
d="M336 73h-5q-12 -38 -41.5 -59.5t-88.5 -21.5q-58 0 -87.5 19.5t-39.5 60.5t-10 117v321h56v-304q0 -75 7.5 -108t27.5 -44t66 -11q51 0 75 24.5t29.5 64.5t5.5 114v264h56v-510h-47zM110 660v70h57v-70h-57zM286 660v70h57v-70h-57zM211 763l-76 135v5h62l55 -135v-5h-41
z" />
    <glyph glyph-name="Gcaron" unicode="&#x1e6;" horiz-adv-x="484" 
d="M253 307v52h172v-349q-36 -8 -79.5 -13t-78.5 -5q-90 0 -133 26t-60 98.5t-17 227.5q0 153 16.5 225.5t60 99.5t134.5 27q39 0 82.5 -5.5t72.5 -13.5v-49q-30 6 -67 10.5t-61 4.5q-84 0 -118 -15.5t-47.5 -75.5t-13.5 -208q0 -136 10 -196t40.5 -82t100.5 -22
q25 0 53.5 3t46.5 7v253h-114zM209 750l-78 132v6h41l70 -102l70 102h40v-6l-78 -132h-65z" />
    <glyph glyph-name="gcaron" unicode="&#x1e7;" horiz-adv-x="451" 
d="M66 -193v48q62 -5 125 -5q62 0 90.5 17t37.5 58t9 130v11h-4q-13 -39 -43 -55.5t-81 -16.5q-63 0 -94.5 21.5t-43.5 76.5t-12 163q0 109 12.5 164t44 77t94.5 22q48 0 80.5 -16.5t46.5 -64.5h5l3 73h48v-434q0 -111 -12.5 -167.5t-51.5 -82t-120 -25.5q-77 0 -134 6z
M283.5 60.5q23.5 16.5 33.5 53.5q7 25 9 57t2 84q0 50 -1.5 81t-7.5 54q-10 42 -34 59.5t-67 17.5q-52 0 -74.5 -14t-30 -56.5t-7.5 -141.5q0 -98 7.5 -140t30 -56.5t74.5 -14.5q42 0 65.5 16.5zM193 605l-78 132v6h41l70 -102l70 102h40v-6l-78 -132h-65z" />
    <glyph glyph-name="uni01EA" unicode="&#x1ea;" horiz-adv-x="521" 
d="M290.5 -176q-20.5 20 -20.5 52q0 29 14.5 60t40.5 59q-27 -3 -65 -3q-96 0 -137 26t-53.5 95t-12.5 231t12.5 231t53.5 95t137 26q97 0 138 -26t53.5 -95t12.5 -231q0 -110 -4.5 -171.5t-18.5 -99t-43 -56.5q-31 -20 -54.5 -58t-23.5 -71q0 -19 11 -30.5t35 -11.5
q9 0 17 1v-41q-12 -2 -29 -2q-43 0 -63.5 20zM358.5 60.5q27.5 15.5 37 74.5t9.5 209t-9.5 209t-37 74.5t-98.5 15.5t-98 -15.5t-36.5 -74.5t-9.5 -209t9.5 -209t36.5 -74.5t98 -15.5t98.5 15.5z" />
    <glyph glyph-name="uni01EB" unicode="&#x1eb;" horiz-adv-x="441" 
d="M335 497q35 -21 45 -73t10 -170q0 -114 -9 -165t-41 -73q-26 -18 -48 -56.5t-22 -70.5q0 -43 46 -43q9 0 17 1v-41q-18 -2 -30 -2q-44 0 -63.5 20t-19.5 54q0 28 14 58.5t38 57.5q-30 -2 -52 -2q-80 0 -114.5 21t-45 72.5t-10.5 168.5q0 118 10.5 170t45 73t114.5 21
t115 -21zM299.5 56q22.5 15 28.5 55.5t6 142.5t-6 143t-29 56.5t-79 15.5t-79 -15.5t-29 -56.5t-6 -143t6 -142.5t28.5 -55.5t79.5 -15t79.5 15z" />
    <glyph glyph-name="uni01F1" unicode="&#x1f1;" horiz-adv-x="920" 
d="M74 688h160q98 0 140 -25t54.5 -92.5t12.5 -226.5t-12.5 -226.5t-54.5 -92.5t-140 -25h-160v688zM230 53q76 0 104.5 15t38 72t9.5 204t-10 204t-38.5 72t-103.5 15h-97v-582h97zM529 0v50l288 585h-280v53h348v-49l-287 -587h292v-52h-361z" />
    <glyph glyph-name="uni01F2" unicode="&#x1f2;" horiz-adv-x="867" 
d="M74 688h160q98 0 140 -25t54.5 -92.5t12.5 -226.5t-12.5 -226.5t-54.5 -92.5t-140 -25h-160v688zM230 53q76 0 104.5 15t38 72t9.5 204t-10 204t-38.5 72t-103.5 15h-97v-582h97zM533 0v45l230 416h-222v49h290v-44l-231 -417h232v-49h-299z" />
    <glyph glyph-name="uni01F3" unicode="&#x1f3;" horiz-adv-x="821" 
d="M106.5 14q-31.5 22 -44 77t-12.5 164t12 164t43.5 77t94.5 22q50 0 80.5 -16.5t43.5 -55.5h5v297h56v-743h-48l-4 73h-5q-14 -48 -47 -64.5t-81 -16.5q-62 0 -93.5 22zM284 59q24 16 33 50q7 30 9.5 65t2.5 91q0 84 -10 125q-10 42 -34 59.5t-70 17.5q-50 0 -72 -14.5
t-29.5 -57t-7.5 -140.5t7.5 -140.5t30 -57t74.5 -14.5q42 0 66 16zM487 0v45l230 416h-222v49h290v-44l-231 -417h232v-49h-299z" />
    <glyph glyph-name="uni01F4" unicode="&#x1f4;" horiz-adv-x="484" 
d="M253 307v52h172v-349q-36 -8 -79.5 -13t-78.5 -5q-90 0 -133 26t-60 98.5t-17 227.5q0 153 16.5 225.5t60 99.5t134.5 27q39 0 82.5 -5.5t72.5 -13.5v-49q-30 6 -67 10.5t-61 4.5q-84 0 -118 -15.5t-47.5 -75.5t-13.5 -208q0 -136 10 -196t40.5 -82t100.5 -22
q25 0 53.5 3t46.5 7v253h-114zM216 748v5l56 135h61v-5l-76 -135h-41z" />
    <glyph glyph-name="uni01F5" unicode="&#x1f5;" horiz-adv-x="451" 
d="M66 -193v48q62 -5 125 -5q62 0 90.5 17t37.5 58t9 130v11h-4q-13 -39 -43 -55.5t-81 -16.5q-63 0 -94.5 21.5t-43.5 76.5t-12 163q0 109 12.5 164t44 77t94.5 22q48 0 80.5 -16.5t46.5 -64.5h5l3 73h48v-434q0 -111 -12.5 -167.5t-51.5 -82t-120 -25.5q-77 0 -134 6z
M283.5 60.5q23.5 16.5 33.5 53.5q7 25 9 57t2 84q0 50 -1.5 81t-7.5 54q-10 42 -34 59.5t-67 17.5q-52 0 -74.5 -14t-30 -56.5t-7.5 -141.5q0 -98 7.5 -140t30 -56.5t74.5 -14.5q42 0 65.5 16.5zM200 603v5l56 135h61v-5l-76 -135h-41z" />
    <glyph glyph-name="Aringacute" unicode="&#x1fa;" horiz-adv-x="493" 
d="M472 0h-61l-54 203h-223l-53 -203h-60l187 682q-27 4 -39.5 14t-16 27.5t-3.5 49.5q0 38 6 56.5t26.5 27.5t64.5 9t65 -9t27 -27.5t6 -56.5q0 -32 -4 -49.5t-16.5 -27.5t-38.5 -13zM194 736.5q3 -11.5 14.5 -16.5t37.5 -5t37.5 5t15 16.5t3.5 36.5t-3.5 36.5t-15 16.5
t-37.5 5t-37.5 -5t-14.5 -16.5t-3 -36.5t3 -36.5zM149 255h193l-94 353h-5zM220 926v5l56 135h61v-5l-76 -135h-41z" />
    <glyph glyph-name="aringacute" unicode="&#x1fb;" horiz-adv-x="427" 
d="M95 4.5q-29 12.5 -43.5 44.5t-14.5 90t11.5 89.5t38.5 45.5t77 14q30 0 142 -5v40q0 68 -9 97.5t-33 39t-79 9.5q-25 0 -62 -3.5t-60 -8.5v48q65 13 138 13q68 0 101.5 -16.5t46.5 -56.5t13 -119v-326h-48l-4 73h-4q-15 -49 -50 -65t-83 -16q-49 0 -78 12.5zM252.5 51
q25.5 10 37.5 41q9 25 12.5 51.5t3.5 64.5v35h-129q-35 0 -52.5 -7.5t-24.5 -28.5t-7 -65q0 -42 7.5 -63.5t27 -29.5t59.5 -8t65.5 10zM147.5 623q-20.5 9 -26.5 27.5t-6 56.5t6 57t26.5 28t65.5 9t65.5 -9t26.5 -28t6 -57t-6 -56.5t-26.5 -27.5t-65.5 -9t-65.5 9z
M250.5 654q11.5 5 15 16.5t3.5 36.5t-3.5 36.5t-15 16.5t-37.5 5t-37.5 -5t-14.5 -16t-3 -37t3 -37t14.5 -16t37.5 -5t37.5 5zM190 834v5l56 135h61v-5l-76 -135h-41z" />
    <glyph glyph-name="AEacute" unicode="&#x1fc;" horiz-adv-x="678" 
d="M386 0l-36 203h-222l-72 -203h-59l250 688h393v-53h-309l47 -261h228v-53h-218l49 -268h203v-53h-254zM278 608h-5l-126 -353h194zM313 748v5l56 135h61v-5l-76 -135h-41z" />
    <glyph glyph-name="aeacute" unicode="&#x1fd;" horiz-adv-x="685" 
d="M634 239h-272q0 -88 8 -127.5t34.5 -55t86.5 -15.5q30 0 66 3.5t63 9.5v-48q-23 -6 -62 -10t-76 -4q-67 0 -102.5 18.5t-51.5 64.5q-19 -51 -57.5 -67t-91.5 -16q-52 0 -82 12.5t-45 44.5t-15 90q0 57 11.5 88t38.5 44.5t77 13.5l142 -1v39q0 68 -9 97.5t-33 39t-79 9.5
q-25 0 -62.5 -3.5t-60.5 -8.5v48q67 13 139 13q57 0 88.5 -13.5t47.5 -46.5q17 32 50.5 46t91.5 14q73 0 105 -23.5t41 -74.5t9 -162v-19zM400 456q-23 -13 -30 -49.5t-8 -122.5h217v12q0 78 -8.5 114t-29.5 47.5t-64 11.5q-54 0 -77 -13zM306 239h-130q-36 0 -53 -7
t-24 -27t-7 -63t7.5 -64t27.5 -29t60 -8q41 0 67 10.5t38 45.5q14 41 14 110v32zM317 603v5l56 135h61v-5l-76 -135h-41z" />
    <glyph glyph-name="Oslashacute" unicode="&#x1fe;" horiz-adv-x="520" 
d="M421 649q26 -33 34 -100.5t8 -204.5q0 -163 -12 -231.5t-53 -94.5t-138 -26q-83 0 -122 17l-28 -64h-53l42 95q-26 33 -34 100t-8 204q0 162 12.5 231t53.5 95t137 26q84 0 122 -17l28 64h53zM118.5 192q2.5 -54 10.5 -84l231 521q-15 9 -37 11.5t-63 2.5
q-71 0 -98 -15.5t-36.5 -74.5t-9.5 -209q0 -98 2.5 -152zM401.5 496q-2.5 54 -10.5 84l-231 -521q15 -9 37 -11.5t63 -2.5q71 0 98 15.5t36.5 74.5t9.5 209q0 98 -2.5 152zM234 748v5l56 135h61v-5l-76 -135h-41z" />
    <glyph glyph-name="oslashacute" unicode="&#x1ff;" horiz-adv-x="441" 
d="M352 483q24 -25 31 -75t7 -154q0 -117 -10 -168.5t-45 -72.5t-115 -21q-60 0 -92 11l-27 -58h-51l38 82q-24 25 -31 75t-7 152q0 118 10.5 170t45 73t114.5 21q60 0 92 -11l27 58h51zM107.5 143.5q1.5 -34.5 8.5 -56.5l174 373q-21 9 -70 9q-56 0 -79 -15.5t-29 -56.5
t-6 -143q0 -76 1.5 -110.5zM332 365.5q-2 35.5 -9 56.5l-173 -373q21 -8 70 -8q57 0 79.5 15t28.5 55.5t6 142.5q0 76 -2 111.5zM194 603v5l56 135h61v-5l-76 -135h-41z" />
    <glyph glyph-name="uni0200" unicode="&#x200;" horiz-adv-x="493" 
d="M411 0l-54 203h-223l-53 -203h-60l189 688h73l189 -688h-61zM248 608h-5l-94 -353h193zM204 754h-37l-71 119v5h56l52 -119v-5zM336 754h-37l-72 119v5h57l52 -119v-5z" />
    <glyph glyph-name="uni0201" unicode="&#x201;" horiz-adv-x="427" 
d="M95 4.5q-29 12.5 -43.5 44.5t-14.5 90t11.5 89.5t38.5 45.5t77 14q30 0 142 -5v40q0 68 -9 97.5t-33 39t-79 9.5q-25 0 -62 -3.5t-60 -8.5v48q65 13 138 13q68 0 101.5 -16.5t46.5 -56.5t13 -119v-326h-48l-4 73h-4q-15 -49 -50 -65t-83 -16q-49 0 -78 12.5zM252.5 51
q25.5 10 37.5 41q9 25 12.5 51.5t3.5 64.5v35h-129q-35 0 -52.5 -7.5t-24.5 -28.5t-7 -65q0 -42 7.5 -63.5t27 -29.5t59.5 -8t65.5 10zM171 609h-37l-71 119v5h56l52 -119v-5zM303 609h-37l-72 119v5h57l52 -119v-5z" />
    <glyph glyph-name="uni0202" unicode="&#x202;" horiz-adv-x="493" 
d="M411 0l-54 203h-223l-53 -203h-60l189 688h73l189 -688h-61zM248 608h-5l-94 -353h193zM143.5 831.5q6.5 28.5 30 45.5t73.5 17t73 -17t29 -45t6 -79h-43q0 41 -3.5 61t-17 31t-44.5 11q-32 0 -46 -11t-17.5 -31t-3.5 -61h-43q0 50 6.5 78.5z" />
    <glyph glyph-name="uni0203" unicode="&#x203;" horiz-adv-x="427" 
d="M95 4.5q-29 12.5 -43.5 44.5t-14.5 90t11.5 89.5t38.5 45.5t77 14q30 0 142 -5v40q0 68 -9 97.5t-33 39t-79 9.5q-25 0 -62 -3.5t-60 -8.5v48q65 13 138 13q68 0 101.5 -16.5t46.5 -56.5t13 -119v-326h-48l-4 73h-4q-15 -49 -50 -65t-83 -16q-49 0 -78 12.5zM252.5 51
q25.5 10 37.5 41q9 25 12.5 51.5t3.5 64.5v35h-129q-35 0 -52.5 -7.5t-24.5 -28.5t-7 -65q0 -42 7.5 -63.5t27 -29.5t59.5 -8t65.5 10zM110.5 686.5q6.5 28.5 30 45.5t73.5 17t73 -17t29 -45t6 -79h-43q0 41 -3.5 61t-17 31t-44.5 11q-32 0 -46 -11t-17.5 -31t-3.5 -61h-43
q0 50 6.5 78.5z" />
    <glyph glyph-name="uni0204" unicode="&#x204;" horiz-adv-x="432" 
d="M74 0v688h320v-53h-260v-261h226v-52h-226v-269h260v-53h-320zM191 754h-37l-71 119v5h56l52 -119v-5zM323 754h-37l-72 119v5h57l52 -119v-5z" />
    <glyph glyph-name="uni0205" unicode="&#x205;" horiz-adv-x="429" 
d="M378 236h-272q0 -87 8 -125.5t34.5 -54t86.5 -15.5q30 0 66 3.5t63 9.5v-48q-23 -6 -62 -10t-76 -4q-79 0 -115.5 22.5t-48.5 76t-12 163.5q0 111 10 163t46 76.5t117 24.5q73 0 105 -23.5t41 -75t9 -163.5v-20zM144.5 455.5q-23.5 -13.5 -30.5 -50.5t-8 -124h217v15
q0 78 -8.5 114t-29.5 47.5t-64 11.5q-53 0 -76.5 -13.5zM171 609h-37l-71 119v5h56l52 -119v-5zM303 609h-37l-72 119v5h57l52 -119v-5z" />
    <glyph glyph-name="uni0206" unicode="&#x206;" horiz-adv-x="432" 
d="M74 0v688h320v-53h-260v-261h226v-52h-226v-269h260v-53h-320zM130.5 831.5q6.5 28.5 30 45.5t73.5 17t73 -17t29 -45t6 -79h-43q0 41 -3.5 61t-17 31t-44.5 11q-32 0 -46 -11t-17.5 -31t-3.5 -61h-43q0 50 6.5 78.5z" />
    <glyph glyph-name="uni0207" unicode="&#x207;" horiz-adv-x="429" 
d="M378 236h-272q0 -87 8 -125.5t34.5 -54t86.5 -15.5q30 0 66 3.5t63 9.5v-48q-23 -6 -62 -10t-76 -4q-79 0 -115.5 22.5t-48.5 76t-12 163.5q0 111 10 163t46 76.5t117 24.5q73 0 105 -23.5t41 -75t9 -163.5v-20zM144.5 455.5q-23.5 -13.5 -30.5 -50.5t-8 -124h217v15
q0 78 -8.5 114t-29.5 47.5t-64 11.5q-53 0 -76.5 -13.5zM110.5 686.5q6.5 28.5 30 45.5t73.5 17t73 -17t29 -45t6 -79h-43q0 41 -3.5 61t-17 31t-44.5 11q-32 0 -46 -11t-17.5 -31t-3.5 -61h-43q0 50 6.5 78.5z" />
    <glyph glyph-name="uni0208" unicode="&#x208;" horiz-adv-x="214" 
d="M78 0v688h58v-688h-58zM64 754h-37l-71 119v5h56l52 -119v-5zM196 754h-37l-72 119v5h57l52 -119v-5z" />
    <glyph glyph-name="uni0209" unicode="&#x209;" horiz-adv-x="190" 
d="M67 0v510h56v-510h-56zM52 609h-37l-71 119v5h56l52 -119v-5zM184 609h-37l-72 119v5h57l52 -119v-5z" />
    <glyph glyph-name="uni020A" unicode="&#x20a;" horiz-adv-x="214" 
d="M78 0v688h58v-688h-58zM3.5 831.5q6.5 28.5 30 45.5t73.5 17t73 -17t29 -45t6 -79h-43q0 41 -3.5 61t-17 31t-44.5 11q-32 0 -46 -11t-17.5 -31t-3.5 -61h-43q0 50 6.5 78.5z" />
    <glyph glyph-name="uni020B" unicode="&#x20b;" horiz-adv-x="190" 
d="M67 0v510h56v-510h-56zM-8.5 686.5q6.5 28.5 30 45.5t73.5 17t73 -17t29 -45t6 -79h-43q0 41 -3.5 61t-17 31t-44.5 11q-32 0 -46 -11t-17.5 -31t-3.5 -61h-43q0 50 6.5 78.5z" />
    <glyph glyph-name="uni020C" unicode="&#x20c;" horiz-adv-x="521" 
d="M123 18q-41 26 -53.5 95t-12.5 231t12.5 231t53.5 95t137 26q97 0 138 -26t53 -94.5t12 -231.5t-12 -231.5t-53 -94.5t-138 -26q-96 0 -137 26zM358 60.5q27 15.5 36.5 74.5t9.5 209t-9.5 209t-36.5 74.5t-98 15.5t-98 -15.5t-36.5 -74.5t-9.5 -209t9.5 -209t36.5 -74.5
t98 -15.5t98 15.5zM217 754h-37l-71 119v5h56l52 -119v-5zM349 754h-37l-72 119v5h57l52 -119v-5z" />
    <glyph glyph-name="uni020D" unicode="&#x20d;" horiz-adv-x="441" 
d="M105.5 13q-34.5 21 -45 72.5t-10.5 168.5q0 118 10.5 170t45 73t114.5 21t115 -21t45 -73t10 -170q0 -117 -10 -168.5t-45 -72.5t-115 -21t-114.5 21zM299.5 56q22.5 15 28.5 55.5t6 142.5t-6 143t-29 56.5t-79 15.5t-79 -15.5t-29 -56.5t-6 -143t6 -142.5t28.5 -55.5
t79.5 -15t79.5 15zM177 609h-37l-71 119v5h56l52 -119v-5zM309 609h-37l-72 119v5h57l52 -119v-5z" />
    <glyph glyph-name="uni020E" unicode="&#x20e;" horiz-adv-x="521" 
d="M123 18q-41 26 -53.5 95t-12.5 231t12.5 231t53.5 95t137 26q97 0 138 -26t53 -94.5t12 -231.5t-12 -231.5t-53 -94.5t-138 -26q-96 0 -137 26zM358 60.5q27 15.5 36.5 74.5t9.5 209t-9.5 209t-36.5 74.5t-98 15.5t-98 -15.5t-36.5 -74.5t-9.5 -209t9.5 -209t36.5 -74.5
t98 -15.5t98 15.5zM156.5 831.5q6.5 28.5 30 45.5t73.5 17t73 -17t29 -45t6 -79h-43q0 41 -3.5 61t-17 31t-44.5 11q-32 0 -46 -11t-17.5 -31t-3.5 -61h-43q0 50 6.5 78.5z" />
    <glyph glyph-name="uni020F" unicode="&#x20f;" horiz-adv-x="441" 
d="M105.5 13q-34.5 21 -45 72.5t-10.5 168.5q0 118 10.5 170t45 73t114.5 21t115 -21t45 -73t10 -170q0 -117 -10 -168.5t-45 -72.5t-115 -21t-114.5 21zM299.5 56q22.5 15 28.5 55.5t6 142.5t-6 143t-29 56.5t-79 15.5t-79 -15.5t-29 -56.5t-6 -143t6 -142.5t28.5 -55.5
t79.5 -15t79.5 15zM116.5 686.5q6.5 28.5 30 45.5t73.5 17t73 -17t29 -45t6 -79h-43q0 41 -3.5 61t-17 31t-44.5 11q-32 0 -46 -11t-17.5 -31t-3.5 -61h-43q0 50 6.5 78.5z" />
    <glyph glyph-name="uni0210" unicode="&#x210;" horiz-adv-x="494" 
d="M386 0l-90 284h-19h-144v-284h-59v688h208q69 0 103 -26t43.5 -68t9.5 -108q0 -77 -15.5 -124.5t-68.5 -66.5l95 -295h-63zM341.5 353q23.5 17 30.5 47.5t7 85.5q0 56 -6.5 86t-29.5 46.5t-73 16.5h-137v-299h135q50 0 73.5 17zM204 754h-37l-71 119v5h56l52 -119v-5z
M336 754h-37l-72 119v5h57l52 -119v-5z" />
    <glyph glyph-name="uni0211" unicode="&#x211;" horiz-adv-x="277" 
d="M67 510h48l4 -98h5q13 61 46.5 83.5t87.5 22.5v-57q-53 0 -82.5 -23.5t-41 -69t-11.5 -119.5v-249h-56v510zM96 609h-37l-71 119v5h56l52 -119v-5zM228 609h-37l-72 119v5h57l52 -119v-5z" />
    <glyph glyph-name="uni0212" unicode="&#x212;" horiz-adv-x="494" 
d="M386 0l-90 284h-19h-144v-284h-59v688h208q69 0 103 -26t43.5 -68t9.5 -108q0 -77 -15.5 -124.5t-68.5 -66.5l95 -295h-63zM341.5 353q23.5 17 30.5 47.5t7 85.5q0 56 -6.5 86t-29.5 46.5t-73 16.5h-137v-299h135q50 0 73.5 17zM143.5 831.5q6.5 28.5 30 45.5t73.5 17
t73 -17t29 -45t6 -79h-43q0 41 -3.5 61t-17 31t-44.5 11q-32 0 -46 -11t-17.5 -31t-3.5 -61h-43q0 50 6.5 78.5z" />
    <glyph glyph-name="uni0213" unicode="&#x213;" horiz-adv-x="277" 
d="M67 510h48l4 -98h5q13 61 46.5 83.5t87.5 22.5v-57q-53 0 -82.5 -23.5t-41 -69t-11.5 -119.5v-249h-56v510zM35.5 686.5q6.5 28.5 30 45.5t73.5 17t73 -17t29 -45t6 -79h-43q0 41 -3.5 61t-17 31t-44.5 11q-32 0 -46 -11t-17.5 -31t-3.5 -61h-43q0 50 6.5 78.5z" />
    <glyph glyph-name="uni0214" unicode="&#x214;" horiz-adv-x="517" 
d="M448 688v-391q0 -133 -12 -193.5t-51 -86t-126 -25.5q-88 0 -127 25.5t-51 86t-12 193.5v391h58v-424q0 -99 7.5 -141.5t34.5 -60t90 -17.5q62 0 88.5 17.5t34 60t7.5 141.5v424h59zM216 754h-37l-71 119v5h56l52 -119v-5zM348 754h-37l-72 119v5h57l52 -119v-5z" />
    <glyph glyph-name="uni0215" unicode="&#x215;" horiz-adv-x="455" 
d="M336 73h-5q-12 -38 -41.5 -59.5t-88.5 -21.5q-58 0 -87.5 19.5t-39.5 60.5t-10 117v321h56v-304q0 -75 7.5 -108t27.5 -44t66 -11q51 0 75 24.5t29.5 64.5t5.5 114v264h56v-510h-47zM184 609h-37l-71 119v5h56l52 -119v-5zM316 609h-37l-72 119v5h57l52 -119v-5z" />
    <glyph glyph-name="uni0216" unicode="&#x216;" horiz-adv-x="517" 
d="M448 688v-391q0 -133 -12 -193.5t-51 -86t-126 -25.5q-88 0 -127 25.5t-51 86t-12 193.5v391h58v-424q0 -99 7.5 -141.5t34.5 -60t90 -17.5q62 0 88.5 17.5t34 60t7.5 141.5v424h59zM155.5 831.5q6.5 28.5 30 45.5t73.5 17t73 -17t29 -45t6 -79h-43q0 41 -3.5 61t-17 31
t-44.5 11q-32 0 -46 -11t-17.5 -31t-3.5 -61h-43q0 50 6.5 78.5z" />
    <glyph glyph-name="uni0217" unicode="&#x217;" horiz-adv-x="455" 
d="M336 73h-5q-12 -38 -41.5 -59.5t-88.5 -21.5q-58 0 -87.5 19.5t-39.5 60.5t-10 117v321h56v-304q0 -75 7.5 -108t27.5 -44t66 -11q51 0 75 24.5t29.5 64.5t5.5 114v264h56v-510h-47zM123.5 686.5q6.5 28.5 30 45.5t73.5 17t73 -17t29 -45t6 -79h-43q0 41 -3.5 61t-17 31
t-44.5 11q-32 0 -46 -11t-17.5 -31t-3.5 -61h-43q0 50 6.5 78.5z" />
    <glyph glyph-name="Scommaaccent" unicode="&#x218;" horiz-adv-x="444" 
d="M138.5 -4.5q-46.5 3.5 -80.5 9.5v52q35 -5 77.5 -8.5t72.5 -3.5q40 0 64.5 5.5t42.5 20.5q16 13 21 41t5 74q0 61 -4 84.5t-20 33t-57 16.5l-123 19q-42 6 -62 27t-25.5 53.5t-5.5 89.5q0 101 42.5 144t139.5 43q41 0 82.5 -4t65.5 -10v-51q-28 5 -66 8.5t-70 3.5
q-45 0 -71.5 -7.5t-40.5 -24.5t-18.5 -40.5t-4.5 -61.5q0 -49 4.5 -71t17 -31t42.5 -14l116 -18q45 -8 69.5 -22t37.5 -48q10 -26 10 -112q0 -75 -16 -118t-53.5 -63t-104.5 -20q-41 0 -87.5 3.5zM218.5 -204.5q8.5 11.5 8.5 47.5v17h-28v78h67v-77q0 -44 -6.5 -66t-25 -31
t-56.5 -9v29q32 0 40.5 11.5z" />
    <glyph glyph-name="scommaaccent" unicode="&#x219;" horiz-adv-x="378" 
d="M115 -4.5q-38 3.5 -62 8.5v48q60 -11 135 -11q57 0 75.5 22.5t18.5 72.5q0 40 -4.5 58t-15 24t-34.5 9l-103 14q-48 7 -66 36t-18 94q0 60 18.5 92t51.5 43.5t86 11.5q29 0 63 -4t56 -9v-48q-53 12 -124 12q-50 0 -73 -19t-23 -74q0 -36 4.5 -53t15 -23t33.5 -9l101 -14
q34 -5 52 -17t26.5 -40t8.5 -82q0 -82 -35 -114t-115 -32q-34 0 -72 3.5zM185.5 -204.5q8.5 11.5 8.5 47.5v17h-28v78h67v-77q0 -44 -6.5 -66t-25 -31t-56.5 -9v29q32 0 40.5 11.5z" />
    <glyph glyph-name="uni021A" unicode="&#x21a;" horiz-adv-x="413" 
d="M177 0v634h-158v54h375v-54h-158v-634h-59zM202.5 -204.5q8.5 11.5 8.5 47.5v17h-28v78h67v-77q0 -44 -6.5 -66t-25 -31t-56.5 -9v29q32 0 40.5 11.5z" />
    <glyph glyph-name="uni021B" unicode="&#x21b;" horiz-adv-x="265" 
d="M98 0v461h-77v49h77v148h56v-148h89v-49h-89v-461h-56zM122.5 -204.5q8.5 11.5 8.5 47.5v17h-28v78h67v-77q0 -44 -6.5 -66t-25 -31t-56.5 -9v29q32 0 40.5 11.5z" />
    <glyph glyph-name="uni0232" unicode="&#x232;" horiz-adv-x="428" 
d="M184 0v271l-180 417h62l146 -344h6l146 344h60l-181 -417v-271h-59zM118 834v54h191v-54h-191z" />
    <glyph glyph-name="uni0233" unicode="&#x233;" horiz-adv-x="455" 
d="M77 -194v48q70 -4 120 -4q61 0 89.5 19t36.5 59.5t8 121.5v17h-4q-12 -34 -40 -54t-88 -20q-58 0 -86.5 20t-38.5 62t-10 120v315h56v-304q0 -74 7.5 -107t27.5 -44t66 -11q52 0 75.5 24t29 63.5t5.5 114.5v264h56v-438q0 -107 -13 -163t-51.5 -82t-116.5 -26
q-69 0 -129 5zM131 689v54h191v-54h-191z" />
    <glyph glyph-name="uni0237" unicode="&#x237;" horiz-adv-x="190" 
d="M-4 -147q33 0 47.5 5t19 16t4.5 35v601h56v-585q0 -55 -12 -79.5t-37.5 -31.5t-77.5 -7v46z" />
    <glyph glyph-name="uni0259" unicode="&#x259;" horiz-adv-x="429" 
d="M318.5 495.5q36.5 -22.5 48.5 -76t12 -163.5q0 -111 -10 -163t-46 -76.5t-117 -24.5q-73 0 -105 23.5t-41 75t-9 163.5v20h272q0 87 -8 125.5t-34.5 54t-86.5 15.5q-30 0 -66 -3.5t-63 -9.5v48q23 6 62 10t76 4q79 0 115.5 -22.5zM284.5 54.5q23.5 13.5 30.5 50.5t8 124
h-217v-15q0 -78 8.5 -114t29.5 -47.5t64 -11.5q53 0 76.5 13.5z" />
    <glyph glyph-name="uni0272" unicode="&#x272;" horiz-adv-x="455" 
d="M-4 -147q33 0 47.5 5t19 16t4.5 35v601h48l4 -73h5q12 38 41 59.5t89 21.5q58 0 87 -19.5t39 -60.5t10 -117v-321h-56v304q0 75 -7 108t-27.5 44t-65.5 11q-52 0 -75.5 -24.5t-29.5 -64t-6 -113.5v-340q0 -55 -12 -79.5t-37.5 -31.5t-77.5 -7v46z" />
    <glyph glyph-name="uni02BC" unicode="&#x2bc;" horiz-adv-x="104" 
d="M37.5 596.5q10.5 5.5 13.5 18t3 39.5v17h-27v72h66v-71q0 -46 -6.5 -69t-25 -32t-56.5 -9v29q22 0 32.5 5.5z" />
    <glyph glyph-name="circumflex" unicode="&#x2c6;" horiz-adv-x="234" 
d="M6 605v5l78 133h65l78 -133v-5h-40l-70 101l-70 -101h-41z" />
    <glyph glyph-name="caron" unicode="&#x2c7;" horiz-adv-x="234" 
d="M84 605l-78 132v6h41l70 -102l70 102h40v-6l-78 -132h-65z" />
    <glyph glyph-name="uni02C9" unicode="&#x2c9;" horiz-adv-x="309" 
d="M59 689v54h191v-54h-191z" />
    <glyph glyph-name="breve" unicode="&#x2d8;" horiz-adv-x="230" 
d="M217.5 664.5q-6.5 -28.5 -30 -45.5t-73.5 -17t-73 17t-29 45t-6 79h43q0 -41 3.5 -61t17 -31t44.5 -11q32 0 46 11t17.5 31t3.5 61h43q0 -50 -6.5 -78.5z" />
    <glyph glyph-name="dotaccent" unicode="&#x2d9;" horiz-adv-x="96" 
d="M19 660v70h57v-70h-57z" />
    <glyph glyph-name="ring" unicode="&#x2da;" horiz-adv-x="212" 
d="M40.5 623q-20.5 9 -26.5 27.5t-6 56.5t6 57t26.5 28t65.5 9t65.5 -9t26.5 -28t6 -57t-6 -56.5t-26.5 -27.5t-65.5 -9t-65.5 9zM143.5 654q11.5 5 15 16.5t3.5 36.5t-3.5 36.5t-15 16.5t-37.5 5t-37.5 -5t-14.5 -16t-3 -37t3 -37t14.5 -16t37.5 -5t37.5 5z" />
    <glyph glyph-name="ogonek" unicode="&#x2db;" horiz-adv-x="113" 
d="M83 -196q-44 0 -63.5 20.5t-19.5 54.5q0 29 17 63t44 62h51q-22 -19 -42 -53.5t-20 -61.5q0 -43 46 -43q9 0 17 1v-41q-11 -2 -30 -2z" />
    <glyph glyph-name="tilde" unicode="&#x2dc;" horiz-adv-x="287" 
d="M269.5 662q-10.5 -22 -46.5 -22q-19 0 -37.5 6t-48.5 18q-24 11 -39.5 16.5t-30.5 5.5t-19.5 -12t-4.5 -45h-37q0 58 11 80.5t47 22.5q20 0 39.5 -6.5t48.5 -19.5q25 -10 39.5 -15t28.5 -5q15 0 19 11.5t4 45.5h37q0 -59 -10.5 -81z" />
    <glyph glyph-name="hungarumlaut" unicode="&#x2dd;" horiz-adv-x="281" 
d="M20 609v5l52 119h57v-5l-72 -119h-37zM152 609v5l52 119h56v-5l-71 -119h-37z" />
    <glyph glyph-name="gravecomb" unicode="&#x300;" 
d="M-47 603l-76 135v5h62l55 -135v-5h-41z" />
    <glyph glyph-name="acutecomb" unicode="&#x301;" 
d="M-123 603v5l56 135h61v-5l-76 -135h-41z" />
    <glyph glyph-name="uni0302" unicode="&#x302;" 
d="M-228 605v5l78 133h65l78 -133v-5h-40l-70 101l-70 -101h-41z" />
    <glyph glyph-name="tildecomb" unicode="&#x303;" 
d="M-17.5 662q-10.5 -22 -46.5 -22q-19 0 -37.5 6t-48.5 18q-24 11 -39.5 16.5t-30.5 5.5t-19.5 -12t-4.5 -45h-37q0 58 11 80.5t47 22.5q20 0 39.5 -6.5t48.5 -19.5q25 -10 39.5 -15t28.5 -5q15 0 19 11.5t4 45.5h37q0 -59 -10.5 -81z" />
    <glyph glyph-name="uni0304" unicode="&#x304;" 
d="M-250 689v54h191v-54h-191z" />
    <glyph glyph-name="uni0306" unicode="&#x306;" 
d="M-12.5 664.5q-6.5 -28.5 -30 -45.5t-73.5 -17t-73 17t-29 45t-6 79h43q0 -41 3.5 -61t17 -31t44.5 -11q32 0 46 11t17.5 31t3.5 61h43q0 -50 -6.5 -78.5z" />
    <glyph glyph-name="uni0307" unicode="&#x307;" 
d="M-77 660v70h57v-70h-57z" />
    <glyph glyph-name="uni0308" unicode="&#x308;" 
d="M-255 660v70h57v-70h-57zM-79 660v70h57v-70h-57z" />
    <glyph glyph-name="hookabovecomb" unicode="&#x309;" 
d="M-153 620q0 22 8 31t30 16l15 4q25 8 33.5 15.5t8.5 26.5q0 15 -4.5 22.5t-18.5 10t-43 2.5q-20 0 -84 -4v36q51 7 90 7q59 0 81 -15t22 -54q0 -29 -8 -44t-37 -25l-15 -5q-27 -9 -33 -14t-6 -20h-39v10z" />
    <glyph glyph-name="uni030A" unicode="&#x30a;" 
d="M-171.5 623q-20.5 9 -26.5 27.5t-6 56.5t6 57t26.5 28t65.5 9t65.5 -9t26.5 -28t6 -57t-6 -56.5t-26.5 -27.5t-65.5 -9t-65.5 9zM-68.5 654q11.5 5 15 16.5t3.5 36.5t-3.5 36.5t-15 16.5t-37.5 5t-37.5 -5t-14.5 -16t-3 -37t3 -37t14.5 -16t37.5 -5t37.5 5z" />
    <glyph glyph-name="uni030B" unicode="&#x30b;" 
d="M-261 609v5l52 119h57v-5l-72 -119h-37zM-129 609v5l52 119h56v-5l-71 -119h-37z" />
    <glyph glyph-name="uni030C" unicode="&#x30c;" 
d="M-150 605l-78 132v6h41l70 -102l70 102h40v-6l-78 -132h-65z" />
    <glyph glyph-name="uni030F" unicode="&#x30f;" 
d="M-152 609h-37l-71 119v5h56l52 -119v-5zM-20 609h-37l-72 119v5h57l52 -119v-5z" />
    <glyph glyph-name="uni0311" unicode="&#x311;" 
d="M-217.5 686.5q6.5 28.5 30 45.5t73.5 17t73 -17t29 -45t6 -79h-43q0 41 -3.5 61t-17 31t-44.5 11q-32 0 -46 -11t-17.5 -31t-3.5 -61h-43q0 50 6.5 78.5z" />
    <glyph glyph-name="uni0312" unicode="&#x312;" 
d="M-334.5 747q-8.5 -11 -8.5 -47v-17h28v-78h-67v77q0 44 6.5 65.5t25 30.5t56.5 9v-29q-32 0 -40.5 -11z" />
    <glyph glyph-name="uni031B" unicode="&#x31b;" 
d="M-117.5 521.5q9.5 11.5 9.5 43.5v42h43v-33q0 -40 -7.5 -60.5t-27 -29t-60.5 -8.5h-48v34h48q33 0 42.5 11.5z" />
    <glyph glyph-name="dotbelowcomb" unicode="&#x323;" 
d="M-123 -142v80h66v-80h-66z" />
    <glyph glyph-name="uni0326" unicode="&#x326;" 
d="M-92.5 -204.5q8.5 11.5 8.5 47.5v17h-28v78h67v-77q0 -44 -6.5 -66t-25 -31t-56.5 -9v29q32 0 40.5 11.5z" />
    <glyph glyph-name="uni0327" unicode="&#x327;" 
d="M-118 -190v5l60 193h40v-5l-43 -193h-57z" />
    <glyph glyph-name="uni0328" unicode="&#x328;" 
d="M-30 -196q-44 0 -63.5 20.5t-19.5 54.5q0 29 17 63t44 62h51q-22 -19 -42 -53.5t-20 -61.5q0 -43 46 -43q9 0 17 1v-41q-11 -2 -30 -2z" />
    <glyph glyph-name="uni0335" unicode="&#x335;" 
d="M-242 322v53h225v-53h-225z" />
    <glyph glyph-name="uni0336" unicode="&#x336;" 
d="M-75 488h-380v53h380v-53z" />
    <glyph glyph-name="uni0394" unicode="&#x394;" horiz-adv-x="494" 
d="M22 0l188 688h74l188 -688h-450zM249 610h-5l-150 -558h304z" />
    <glyph glyph-name="uni03A9" unicode="&#x3a9;" horiz-adv-x="528" 
d="M62 52h5q16 -2 56 -8l30 -4v6q-39 17 -59 56.5t-26.5 100t-6.5 159.5q0 146 12 211.5t54 94t137 28.5t137 -28.5t54 -94t12 -211.5q0 -98 -6.5 -159t-26.5 -100.5t-59 -56.5v-6l30 4q40 6 56 8h4v-52h-168v48q51 11 74 40t30 88t7 183q0 137 -8.5 192t-37 73.5
t-98.5 18.5t-98.5 -18.5t-37 -73.5t-8.5 -192q0 -124 7 -183t30 -88t73 -40v-48h-168v52z" />
    <glyph glyph-name="uni03BC" unicode="&#x3bc;" horiz-adv-x="457" 
d="M390 510v-510h-48l-4 73h-4q-12 -38 -41 -59.5t-87 -21.5q-53 0 -83 24v-206h-56v700h56v-304q0 -75 7.5 -108t27.5 -44t66 -11q51 0 75 24.5t29.5 64.5t5.5 114v264h56z" />
    <glyph glyph-name="pi" unicode="&#x3c0;" horiz-adv-x="451" 
d="M328 0v461h-205v-461h-56v510h317v-510h-56z" />
    <glyph glyph-name="uni1E0C" unicode="&#x1e0c;" horiz-adv-x="498" 
d="M74 688h160q98 0 140 -25t54.5 -92.5t12.5 -226.5t-12.5 -226.5t-54.5 -92.5t-140 -25h-160v688zM230 53q76 0 104.5 15t38 72t9.5 204t-10 204t-38.5 72t-103.5 15h-97v-582h97zM216 -142v80h66v-80h-66z" />
    <glyph glyph-name="uni1E0D" unicode="&#x1e0d;" horiz-adv-x="452" 
d="M106.5 14q-31.5 22 -44 77t-12.5 164t12 164t43.5 77t94.5 22q50 0 80.5 -16.5t43.5 -55.5h5v297h56v-743h-48l-4 73h-5q-14 -48 -47 -64.5t-81 -16.5q-62 0 -93.5 22zM284 59q24 16 33 50q7 30 9.5 65t2.5 91q0 84 -10 125q-10 42 -34 59.5t-70 17.5q-50 0 -72 -14.5
t-29.5 -57t-7.5 -140.5t7.5 -140.5t30 -57t74.5 -14.5q42 0 66 16zM193 -142v80h66v-80h-66z" />
    <glyph glyph-name="uni1E24" unicode="&#x1e24;" horiz-adv-x="530" 
d="M397 0v320h-264v-320h-58v688h58v-313h264v313h58v-688h-58zM232 -142v80h66v-80h-66z" />
    <glyph glyph-name="uni1E25" unicode="&#x1e25;" horiz-adv-x="455" 
d="M334 304q0 75 -7 108t-27.5 44t-65.5 11q-52 0 -75.5 -24.5t-29.5 -64.5t-6 -114v-264h-56v743h56v-296h5q12 31 40 51t86 20t87 -19.5t39 -60t10 -116.5v-322h-56v304zM194 -142v80h66v-80h-66z" />
    <glyph glyph-name="uni1E44" unicode="&#x1e44;" horiz-adv-x="530" 
d="M395 0l-260 559h-4v-559h-56v688h63l257 -554h4v554h57v-688h-61zM236 805v70h57v-70h-57z" />
    <glyph glyph-name="uni1E45" unicode="&#x1e45;" horiz-adv-x="455" 
d="M334 304q0 75 -7 108t-27.5 44t-65.5 11q-52 0 -75.5 -24.5t-29.5 -64.5t-6 -114v-264h-56v510h48l4 -73h5q12 38 41 59.5t89 21.5q58 0 87 -19.5t39 -60.5t10 -117v-321h-56v304zM198 660v70h57v-70h-57z" />
    <glyph glyph-name="uni1E5A" unicode="&#x1e5a;" horiz-adv-x="494" 
d="M386 0l-90 284h-19h-144v-284h-59v688h208q69 0 103 -26t43.5 -68t9.5 -108q0 -77 -15.5 -124.5t-68.5 -66.5l95 -295h-63zM341.5 353q23.5 17 30.5 47.5t7 85.5q0 56 -6.5 86t-29.5 46.5t-73 16.5h-137v-299h135q50 0 73.5 17zM214 -142v80h66v-80h-66z" />
    <glyph glyph-name="uni1E5B" unicode="&#x1e5b;" horiz-adv-x="277" 
d="M67 510h48l4 -98h5q13 61 46.5 83.5t87.5 22.5v-57q-53 0 -82.5 -23.5t-41 -69t-11.5 -119.5v-249h-56v510zM62 -142v80h66v-80h-66z" />
    <glyph glyph-name="uni1E62" unicode="&#x1e62;" horiz-adv-x="444" 
d="M138.5 -4.5q-46.5 3.5 -80.5 9.5v52q35 -5 77.5 -8.5t72.5 -3.5q40 0 64.5 5.5t42.5 20.5q16 13 21 41t5 74q0 61 -4 84.5t-20 33t-57 16.5l-123 19q-42 6 -62 27t-25.5 53.5t-5.5 89.5q0 101 42.5 144t139.5 43q41 0 82.5 -4t65.5 -10v-51q-28 5 -66 8.5t-70 3.5
q-45 0 -71.5 -7.5t-40.5 -24.5t-18.5 -40.5t-4.5 -61.5q0 -49 4.5 -71t17 -31t42.5 -14l116 -18q45 -8 69.5 -22t37.5 -48q10 -26 10 -112q0 -75 -16 -118t-53.5 -63t-104.5 -20q-41 0 -87.5 3.5zM189 -142v80h66v-80h-66z" />
    <glyph glyph-name="uni1E63" unicode="&#x1e63;" horiz-adv-x="378" 
d="M115 -4.5q-38 3.5 -62 8.5v48q60 -11 135 -11q57 0 75.5 22.5t18.5 72.5q0 40 -4.5 58t-15 24t-34.5 9l-103 14q-48 7 -66 36t-18 94q0 60 18.5 92t51.5 43.5t86 11.5q29 0 63 -4t56 -9v-48q-53 12 -124 12q-50 0 -73 -19t-23 -74q0 -36 4.5 -53t15 -23t33.5 -9l101 -14
q34 -5 52 -17t26.5 -40t8.5 -82q0 -82 -35 -114t-115 -32q-34 0 -72 3.5zM156 -142v80h66v-80h-66z" />
    <glyph glyph-name="uni1E6C" unicode="&#x1e6c;" horiz-adv-x="413" 
d="M177 0v634h-158v54h375v-54h-158v-634h-59zM173 -142v80h66v-80h-66z" />
    <glyph glyph-name="uni1E6D" unicode="&#x1e6d;" horiz-adv-x="265" 
d="M98 0v461h-77v49h77v148h56v-148h89v-49h-89v-461h-56zM93 -142v80h66v-80h-66z" />
    <glyph glyph-name="Wgrave" unicode="&#x1e80;" horiz-adv-x="688" 
d="M468 0l-122 582h-4l-121 -582h-70l-134 688h60l109 -593h5l121 593h66l122 -593h6l107 593h59l-133 -688h-71zM328 748l-76 135v5h62l55 -135v-5h-41z" />
    <glyph glyph-name="wgrave" unicode="&#x1e81;" horiz-adv-x="607" 
d="M396 0l-90 411h-5l-90 -411h-66l-122 510h58l96 -429h5l92 429h61l93 -429h5l95 429h56l-122 -510h-66zM286 603l-76 135v5h62l55 -135v-5h-41z" />
    <glyph glyph-name="Wacute" unicode="&#x1e82;" horiz-adv-x="688" 
d="M468 0l-122 582h-4l-121 -582h-70l-134 688h60l109 -593h5l121 593h66l122 -593h6l107 593h59l-133 -688h-71zM318 748v5l56 135h61v-5l-76 -135h-41z" />
    <glyph glyph-name="wacute" unicode="&#x1e83;" horiz-adv-x="607" 
d="M396 0l-90 411h-5l-90 -411h-66l-122 510h58l96 -429h5l92 429h61l93 -429h5l95 429h56l-122 -510h-66zM278 603v5l56 135h61v-5l-76 -135h-41z" />
    <glyph glyph-name="Wdieresis" unicode="&#x1e84;" horiz-adv-x="688" 
d="M468 0l-122 582h-4l-121 -582h-70l-134 688h60l109 -593h5l121 593h66l122 -593h6l107 593h59l-133 -688h-71zM227 805v70h57v-70h-57zM403 805v70h57v-70h-57z" />
    <glyph glyph-name="wdieresis" unicode="&#x1e85;" horiz-adv-x="607" 
d="M396 0l-90 411h-5l-90 -411h-66l-122 510h58l96 -429h5l92 429h61l93 -429h5l95 429h56l-122 -510h-66zM187 660v70h57v-70h-57zM363 660v70h57v-70h-57z" />
    <glyph glyph-name="uni1E92" unicode="&#x1e92;" horiz-adv-x="422" 
d="M31 0v50l288 585h-280v53h348v-49l-287 -587h292v-52h-361zM178 -142v80h66v-80h-66z" />
    <glyph glyph-name="uni1E93" unicode="&#x1e93;" horiz-adv-x="369" 
d="M35 0v45l230 416h-222v49h290v-44l-231 -417h232v-49h-299zM151 -142v80h66v-80h-66z" />
    <glyph glyph-name="uni1E9E" unicode="&#x1e9e;" horiz-adv-x="551" 
d="M462.5 326q36.5 -45 36.5 -143q0 -65 -15.5 -106.5t-54.5 -63t-108 -21.5q-27 0 -61 4.5t-61 10.5v50q69 -12 118 -12q45 0 71 10.5t39 40.5t13 86q0 76 -21.5 108t-72.5 32h-88v44l146 257q-64 20 -141 20q-64 0 -91 -18t-36 -70.5t-9 -178.5v-376h-58v376
q0 136 13.5 202t52 92t119.5 26q61 0 116 -10.5t94 -26.5v-44l-139 -244h22q79 0 115.5 -45z" />
    <glyph glyph-name="uni1EA0" unicode="&#x1ea0;" horiz-adv-x="493" 
d="M411 0l-54 203h-223l-53 -203h-60l189 688h73l189 -688h-61zM248 608h-5l-94 -353h193zM214 -142v80h66v-80h-66z" />
    <glyph glyph-name="uni1EA1" unicode="&#x1ea1;" horiz-adv-x="427" 
d="M95 4.5q-29 12.5 -43.5 44.5t-14.5 90t11.5 89.5t38.5 45.5t77 14q30 0 142 -5v40q0 68 -9 97.5t-33 39t-79 9.5q-25 0 -62 -3.5t-60 -8.5v48q65 13 138 13q68 0 101.5 -16.5t46.5 -56.5t13 -119v-326h-48l-4 73h-4q-15 -49 -50 -65t-83 -16q-49 0 -78 12.5zM252.5 51
q25.5 10 37.5 41q9 25 12.5 51.5t3.5 64.5v35h-129q-35 0 -52.5 -7.5t-24.5 -28.5t-7 -65q0 -42 7.5 -63.5t27 -29.5t59.5 -8t65.5 10zM181 -142v80h66v-80h-66z" />
    <glyph glyph-name="uni1EA2" unicode="&#x1ea2;" horiz-adv-x="493" 
d="M411 0l-54 203h-223l-53 -203h-60l189 688h73l189 -688h-61zM248 608h-5l-94 -353h193zM205 746q0 23 8 32t30 15l15 5q25 8 33.5 15.5t8.5 25.5q0 16 -4.5 23t-18.5 10t-43 3q-31 0 -84 -5v37q51 7 90 7q59 0 81 -15t22 -54q0 -29 -8 -44.5t-37 -25.5l-15 -5
q-20 -6 -27.5 -10t-9.5 -8.5t-2 -15.5h-39v10z" />
    <glyph glyph-name="uni1EA3" unicode="&#x1ea3;" horiz-adv-x="427" 
d="M95 4.5q-29 12.5 -43.5 44.5t-14.5 90t11.5 89.5t38.5 45.5t77 14q30 0 142 -5v40q0 68 -9 97.5t-33 39t-79 9.5q-25 0 -62 -3.5t-60 -8.5v48q65 13 138 13q68 0 101.5 -16.5t46.5 -56.5t13 -119v-326h-48l-4 73h-4q-15 -49 -50 -65t-83 -16q-49 0 -78 12.5zM252.5 51
q25.5 10 37.5 41q9 25 12.5 51.5t3.5 64.5v35h-129q-35 0 -52.5 -7.5t-24.5 -28.5t-7 -65q0 -42 7.5 -63.5t27 -29.5t59.5 -8t65.5 10zM172 620q0 22 8 31t30 16l15 4q25 8 33.5 15.5t8.5 26.5q0 15 -4.5 22.5t-18.5 10t-43 2.5q-20 0 -84 -4v36q51 7 90 7q59 0 81 -15
t22 -54q0 -29 -8 -44t-37 -25l-15 -5q-27 -9 -33 -14t-6 -20h-39v10z" />
    <glyph glyph-name="uni1EA4" unicode="&#x1ea4;" horiz-adv-x="493" 
d="M411 0l-54 203h-223l-53 -203h-60l189 688h73l189 -688h-61zM248 608h-5l-94 -353h193zM135 744v5l78 133h65l78 -133v-5h-40l-70 101l-70 -101h-41zM298 889v5l56 135h61v-5l-76 -135h-41z" />
    <glyph glyph-name="uni1EA5" unicode="&#x1ea5;" horiz-adv-x="427" 
d="M95 4.5q-29 12.5 -43.5 44.5t-14.5 90t11.5 89.5t38.5 45.5t77 14q30 0 142 -5v40q0 68 -9 97.5t-33 39t-79 9.5q-25 0 -62 -3.5t-60 -8.5v48q65 13 138 13q68 0 101.5 -16.5t46.5 -56.5t13 -119v-326h-48l-4 73h-4q-15 -49 -50 -65t-83 -16q-49 0 -78 12.5zM252.5 51
q25.5 10 37.5 41q9 25 12.5 51.5t3.5 64.5v35h-129q-35 0 -52.5 -7.5t-24.5 -28.5t-7 -65q0 -42 7.5 -63.5t27 -29.5t59.5 -8t65.5 10zM102 605v5l78 133h65l78 -133v-5h-40l-70 101l-70 -101h-41zM265 750v5l56 135h61v-5l-76 -135h-41z" />
    <glyph glyph-name="uni1EA6" unicode="&#x1ea6;" horiz-adv-x="493" 
d="M411 0l-54 203h-223l-53 -203h-60l189 688h73l189 -688h-61zM248 608h-5l-94 -353h193zM135 741v5l78 133h65l78 -133v-5h-40l-70 101l-70 -101h-41zM313 886l-76 135v5h62l55 -135v-5h-41z" />
    <glyph glyph-name="uni1EA7" unicode="&#x1ea7;" horiz-adv-x="427" 
d="M95 4.5q-29 12.5 -43.5 44.5t-14.5 90t11.5 89.5t38.5 45.5t77 14q30 0 142 -5v40q0 68 -9 97.5t-33 39t-79 9.5q-25 0 -62 -3.5t-60 -8.5v48q65 13 138 13q68 0 101.5 -16.5t46.5 -56.5t13 -119v-326h-48l-4 73h-4q-15 -49 -50 -65t-83 -16q-49 0 -78 12.5zM252.5 51
q25.5 10 37.5 41q9 25 12.5 51.5t3.5 64.5v35h-129q-35 0 -52.5 -7.5t-24.5 -28.5t-7 -65q0 -42 7.5 -63.5t27 -29.5t59.5 -8t65.5 10zM102 605v5l78 133h65l78 -133v-5h-40l-70 101l-70 -101h-41zM280 750l-76 135v5h62l55 -135v-5h-41z" />
    <glyph glyph-name="uni1EA8" unicode="&#x1ea8;" horiz-adv-x="493" 
d="M411 0l-54 203h-223l-53 -203h-60l189 688h73l189 -688h-61zM248 608h-5l-94 -353h193zM136 741v5l78 133h65l78 -133v-5h-40l-70 101l-70 -101h-41zM284 894q0 22 8 31t30 16l15 4q25 8 33.5 15.5t8.5 26.5q0 15 -4.5 22.5t-18.5 10t-43 2.5q-20 0 -84 -4v36q51 7 90 7
q59 0 81 -15t22 -54q0 -29 -8 -44t-37 -25l-15 -5q-27 -9 -33 -14t-6 -20h-39v10z" />
    <glyph glyph-name="uni1EA9" unicode="&#x1ea9;" horiz-adv-x="427" 
d="M95 4.5q-29 12.5 -43.5 44.5t-14.5 90t11.5 89.5t38.5 45.5t77 14q30 0 142 -5v40q0 68 -9 97.5t-33 39t-79 9.5q-25 0 -62 -3.5t-60 -8.5v48q65 13 138 13q68 0 101.5 -16.5t46.5 -56.5t13 -119v-326h-48l-4 73h-4q-15 -49 -50 -65t-83 -16q-49 0 -78 12.5zM252.5 51
q25.5 10 37.5 41q9 25 12.5 51.5t3.5 64.5v35h-129q-35 0 -52.5 -7.5t-24.5 -28.5t-7 -65q0 -42 7.5 -63.5t27 -29.5t59.5 -8t65.5 10zM103 605v5l78 133h65l78 -133v-5h-40l-70 101l-70 -101h-41zM251 758q0 22 8 31t30 16l15 4q25 8 33.5 15.5t8.5 26.5q0 15 -4.5 22.5
t-18.5 10t-43 2.5q-20 0 -84 -4v36q51 7 90 7q59 0 81 -15t22 -54q0 -29 -8 -44t-37 -25l-15 -5q-27 -9 -33 -14t-6 -20h-39v10z" />
    <glyph glyph-name="uni1EAA" unicode="&#x1eaa;" horiz-adv-x="493" 
d="M411 0l-54 203h-223l-53 -203h-60l189 688h73l189 -688h-61zM248 608h-5l-94 -353h193zM134 742v5l78 133h65l78 -133v-5h-40l-70 101l-70 -101h-41zM372.5 972q-10.5 -22 -46.5 -22q-19 0 -37.5 6t-48.5 18q-24 11 -39.5 16.5t-30.5 5.5t-19.5 -12t-4.5 -45h-37
q0 58 11 80.5t47 22.5q20 0 39.5 -6.5t48.5 -19.5q25 -10 39.5 -15t28.5 -5q15 0 19 11.5t4 45.5h37q0 -59 -10.5 -81z" />
    <glyph glyph-name="uni1EAB" unicode="&#x1eab;" horiz-adv-x="427" 
d="M95 4.5q-29 12.5 -43.5 44.5t-14.5 90t11.5 89.5t38.5 45.5t77 14q30 0 142 -5v40q0 68 -9 97.5t-33 39t-79 9.5q-25 0 -62 -3.5t-60 -8.5v48q65 13 138 13q68 0 101.5 -16.5t46.5 -56.5t13 -119v-326h-48l-4 73h-4q-15 -49 -50 -65t-83 -16q-49 0 -78 12.5zM252.5 51
q25.5 10 37.5 41q9 25 12.5 51.5t3.5 64.5v35h-129q-35 0 -52.5 -7.5t-24.5 -28.5t-7 -65q0 -42 7.5 -63.5t27 -29.5t59.5 -8t65.5 10zM101 605v5l78 133h65l78 -133v-5h-40l-70 101l-70 -101h-41zM339.5 835q-10.5 -22 -46.5 -22q-19 0 -37.5 6t-48.5 18q-24 11 -39.5 16.5
t-30.5 5.5t-19.5 -12t-4.5 -45h-37q0 58 11 80.5t47 22.5q20 0 39.5 -6.5t48.5 -19.5q25 -10 39.5 -15t28.5 -5q15 0 19 11.5t4 45.5h37q0 -59 -10.5 -81z" />
    <glyph glyph-name="uni1EAC" unicode="&#x1eac;" horiz-adv-x="493" 
d="M411 0l-54 203h-223l-53 -203h-60l189 688h73l189 -688h-61zM248 608h-5l-94 -353h193zM214 -142v80h66v-80h-66zM136 750v5l78 133h65l78 -133v-5h-40l-70 101l-70 -101h-41z" />
    <glyph glyph-name="uni1EAD" unicode="&#x1ead;" horiz-adv-x="427" 
d="M95 4.5q-29 12.5 -43.5 44.5t-14.5 90t11.5 89.5t38.5 45.5t77 14q30 0 142 -5v40q0 68 -9 97.5t-33 39t-79 9.5q-25 0 -62 -3.5t-60 -8.5v48q65 13 138 13q68 0 101.5 -16.5t46.5 -56.5t13 -119v-326h-48l-4 73h-4q-15 -49 -50 -65t-83 -16q-49 0 -78 12.5zM252.5 51
q25.5 10 37.5 41q9 25 12.5 51.5t3.5 64.5v35h-129q-35 0 -52.5 -7.5t-24.5 -28.5t-7 -65q0 -42 7.5 -63.5t27 -29.5t59.5 -8t65.5 10zM181 -142v80h66v-80h-66zM103 605v5l78 133h65l78 -133v-5h-40l-70 101l-70 -101h-41z" />
    <glyph glyph-name="uni1EAE" unicode="&#x1eae;" horiz-adv-x="493" 
d="M411 0l-54 203h-223l-53 -203h-60l189 688h73l189 -688h-61zM248 608h-5l-94 -353h193zM348.5 809.5q-6.5 -28.5 -30 -45.5t-73.5 -17t-73 17t-29 45t-6 79h43q0 -41 3.5 -61t17 -31t44.5 -11q32 0 46 11t17.5 31t3.5 61h43q0 -50 -6.5 -78.5zM224 921v5l56 135h61v-5
l-76 -135h-41z" />
    <glyph glyph-name="uni1EAF" unicode="&#x1eaf;" horiz-adv-x="427" 
d="M95 4.5q-29 12.5 -43.5 44.5t-14.5 90t11.5 89.5t38.5 45.5t77 14q30 0 142 -5v40q0 68 -9 97.5t-33 39t-79 9.5q-25 0 -62 -3.5t-60 -8.5v48q65 13 138 13q68 0 101.5 -16.5t46.5 -56.5t13 -119v-326h-48l-4 73h-4q-15 -49 -50 -65t-83 -16q-49 0 -78 12.5zM252.5 51
q25.5 10 37.5 41q9 25 12.5 51.5t3.5 64.5v35h-129q-35 0 -52.5 -7.5t-24.5 -28.5t-7 -65q0 -42 7.5 -63.5t27 -29.5t59.5 -8t65.5 10zM314.5 664.5q-6.5 -28.5 -30 -45.5t-73.5 -17t-73 17t-29 45t-6 79h43q0 -41 3.5 -61t17 -31t44.5 -11q32 0 46 11t17.5 31t3.5 61h43
q0 -50 -6.5 -78.5zM190 776v5l56 135h61v-5l-76 -135h-41z" />
    <glyph glyph-name="uni1EB0" unicode="&#x1eb0;" horiz-adv-x="493" 
d="M411 0l-54 203h-223l-53 -203h-60l189 688h73l189 -688h-61zM248 608h-5l-94 -353h193zM350.5 809.5q-6.5 -28.5 -30 -45.5t-73.5 -17t-73 17t-29 45t-6 79h43q0 -41 3.5 -61t17 -31t44.5 -11q32 0 46 11t17.5 31t3.5 61h43q0 -50 -6.5 -78.5zM233 921l-76 135v5h62
l55 -135v-5h-41z" />
    <glyph glyph-name="uni1EB1" unicode="&#x1eb1;" horiz-adv-x="427" 
d="M95 4.5q-29 12.5 -43.5 44.5t-14.5 90t11.5 89.5t38.5 45.5t77 14q30 0 142 -5v40q0 68 -9 97.5t-33 39t-79 9.5q-25 0 -62 -3.5t-60 -8.5v48q65 13 138 13q68 0 101.5 -16.5t46.5 -56.5t13 -119v-326h-48l-4 73h-4q-15 -49 -50 -65t-83 -16q-49 0 -78 12.5zM252.5 51
q25.5 10 37.5 41q9 25 12.5 51.5t3.5 64.5v35h-129q-35 0 -52.5 -7.5t-24.5 -28.5t-7 -65q0 -42 7.5 -63.5t27 -29.5t59.5 -8t65.5 10zM317.5 664.5q-6.5 -28.5 -30 -45.5t-73.5 -17t-73 17t-29 45t-6 79h43q0 -41 3.5 -61t17 -31t44.5 -11q32 0 46 11t17.5 31t3.5 61h43
q0 -50 -6.5 -78.5zM200 776l-76 135v5h62l55 -135v-5h-41z" />
    <glyph glyph-name="uni1EB2" unicode="&#x1eb2;" horiz-adv-x="493" 
d="M411 0l-54 203h-223l-53 -203h-60l189 688h73l189 -688h-61zM248 608h-5l-94 -353h193zM348.5 809.5q-6.5 -28.5 -30 -45.5t-73.5 -17t-73 17t-29 45t-6 79h43q0 -41 3.5 -61t17 -31t44.5 -11q32 0 46 11t17.5 31t3.5 61h43q0 -50 -6.5 -78.5zM209 898q0 22 8 31t30 16
l15 4q25 8 33.5 15.5t8.5 26.5q0 15 -4.5 22.5t-18.5 10t-43 2.5q-20 0 -84 -4v36q51 7 90 7q59 0 81 -15t22 -54q0 -29 -8 -44t-37 -25l-15 -5q-27 -9 -33 -14t-6 -20h-39v10z" />
    <glyph glyph-name="uni1EB3" unicode="&#x1eb3;" horiz-adv-x="427" 
d="M95 4.5q-29 12.5 -43.5 44.5t-14.5 90t11.5 89.5t38.5 45.5t77 14q30 0 142 -5v40q0 68 -9 97.5t-33 39t-79 9.5q-25 0 -62 -3.5t-60 -8.5v48q65 13 138 13q68 0 101.5 -16.5t46.5 -56.5t13 -119v-326h-48l-4 73h-4q-15 -49 -50 -65t-83 -16q-49 0 -78 12.5zM252.5 51
q25.5 10 37.5 41q9 25 12.5 51.5t3.5 64.5v35h-129q-35 0 -52.5 -7.5t-24.5 -28.5t-7 -65q0 -42 7.5 -63.5t27 -29.5t59.5 -8t65.5 10zM315.5 664.5q-6.5 -28.5 -30 -45.5t-73.5 -17t-73 17t-29 45t-6 79h43q0 -41 3.5 -61t17 -31t44.5 -11q32 0 46 11t17.5 31t3.5 61h43
q0 -50 -6.5 -78.5zM176 753q0 22 8 31t30 16l15 4q25 8 33.5 15.5t8.5 26.5q0 15 -4.5 22.5t-18.5 10t-43 2.5q-20 0 -84 -4v36q51 7 90 7q59 0 81 -15t22 -54q0 -29 -8 -44t-37 -25l-15 -5q-27 -9 -33 -14t-6 -20h-39v10z" />
    <glyph glyph-name="uni1EB4" unicode="&#x1eb4;" horiz-adv-x="493" 
d="M411 0l-54 203h-223l-53 -203h-60l189 688h73l189 -688h-61zM248 608h-5l-94 -353h193zM346.5 809.5q-6.5 -28.5 -30 -45.5t-73.5 -17t-73 17t-29 45t-6 79h43q0 -41 3.5 -61t17 -31t44.5 -11q32 0 46 11t17.5 31t3.5 61h43q0 -50 -6.5 -78.5zM372.5 982
q-10.5 -22 -46.5 -22q-19 0 -37.5 6t-48.5 18q-24 11 -39.5 16.5t-30.5 5.5t-19.5 -12t-4.5 -45h-37q0 58 11 80.5t47 22.5q20 0 39.5 -6.5t48.5 -19.5q25 -10 39.5 -15t28.5 -5q15 0 19 11.5t4 45.5h37q0 -59 -10.5 -81z" />
    <glyph glyph-name="uni1EB5" unicode="&#x1eb5;" horiz-adv-x="427" 
d="M95 4.5q-29 12.5 -43.5 44.5t-14.5 90t11.5 89.5t38.5 45.5t77 14q30 0 142 -5v40q0 68 -9 97.5t-33 39t-79 9.5q-25 0 -62 -3.5t-60 -8.5v48q65 13 138 13q68 0 101.5 -16.5t46.5 -56.5t13 -119v-326h-48l-4 73h-4q-15 -49 -50 -65t-83 -16q-49 0 -78 12.5zM252.5 51
q25.5 10 37.5 41q9 25 12.5 51.5t3.5 64.5v35h-129q-35 0 -52.5 -7.5t-24.5 -28.5t-7 -65q0 -42 7.5 -63.5t27 -29.5t59.5 -8t65.5 10zM313.5 664.5q-6.5 -28.5 -30 -45.5t-73.5 -17t-73 17t-29 45t-6 79h43q0 -41 3.5 -61t17 -31t44.5 -11q32 0 46 11t17.5 31t3.5 61h43
q0 -50 -6.5 -78.5zM339.5 837q-10.5 -22 -46.5 -22q-19 0 -37.5 6t-48.5 18q-24 11 -39.5 16.5t-30.5 5.5t-19.5 -12t-4.5 -45h-37q0 58 11 80.5t47 22.5q20 0 39.5 -6.5t48.5 -19.5q25 -10 39.5 -15t28.5 -5q15 0 19 11.5t4 45.5h37q0 -59 -10.5 -81z" />
    <glyph glyph-name="uni1EB6" unicode="&#x1eb6;" horiz-adv-x="493" 
d="M411 0l-54 203h-223l-53 -203h-60l189 688h73l189 -688h-61zM248 608h-5l-94 -353h193zM214 -142v80h66v-80h-66zM348.5 809.5q-6.5 -28.5 -30 -45.5t-73.5 -17t-73 17t-29 45t-6 79h43q0 -41 3.5 -61t17 -31t44.5 -11q32 0 46 11t17.5 31t3.5 61h43q0 -50 -6.5 -78.5z
" />
    <glyph glyph-name="uni1EB7" unicode="&#x1eb7;" horiz-adv-x="427" 
d="M95 4.5q-29 12.5 -43.5 44.5t-14.5 90t11.5 89.5t38.5 45.5t77 14q30 0 142 -5v40q0 68 -9 97.5t-33 39t-79 9.5q-25 0 -62 -3.5t-60 -8.5v48q65 13 138 13q68 0 101.5 -16.5t46.5 -56.5t13 -119v-326h-48l-4 73h-4q-15 -49 -50 -65t-83 -16q-49 0 -78 12.5zM252.5 51
q25.5 10 37.5 41q9 25 12.5 51.5t3.5 64.5v35h-129q-35 0 -52.5 -7.5t-24.5 -28.5t-7 -65q0 -42 7.5 -63.5t27 -29.5t59.5 -8t65.5 10zM181 -142v80h66v-80h-66zM315.5 664.5q-6.5 -28.5 -30 -45.5t-73.5 -17t-73 17t-29 45t-6 79h43q0 -41 3.5 -61t17 -31t44.5 -11
q32 0 46 11t17.5 31t3.5 61h43q0 -50 -6.5 -78.5z" />
    <glyph glyph-name="uni1EB8" unicode="&#x1eb8;" horiz-adv-x="432" 
d="M74 0v688h320v-53h-260v-261h226v-52h-226v-269h260v-53h-320zM201 -142v80h66v-80h-66z" />
    <glyph glyph-name="uni1EB9" unicode="&#x1eb9;" horiz-adv-x="429" 
d="M378 236h-272q0 -87 8 -125.5t34.5 -54t86.5 -15.5q30 0 66 3.5t63 9.5v-48q-23 -6 -62 -10t-76 -4q-79 0 -115.5 22.5t-48.5 76t-12 163.5q0 111 10 163t46 76.5t117 24.5q73 0 105 -23.5t41 -75t9 -163.5v-20zM144.5 455.5q-23.5 -13.5 -30.5 -50.5t-8 -124h217v15
q0 78 -8.5 114t-29.5 47.5t-64 11.5q-53 0 -76.5 -13.5zM181 -142v80h66v-80h-66z" />
    <glyph glyph-name="uni1EBA" unicode="&#x1eba;" horiz-adv-x="432" 
d="M74 0v688h320v-53h-260v-261h226v-52h-226v-269h260v-53h-320zM192 746q0 23 8 32t30 15l15 5q25 8 33.5 15.5t8.5 25.5q0 16 -4.5 23t-18.5 10t-43 3q-31 0 -84 -5v37q51 7 90 7q59 0 81 -15t22 -54q0 -29 -8 -44.5t-37 -25.5l-15 -5q-20 -6 -27.5 -10t-9.5 -8.5
t-2 -15.5h-39v10z" />
    <glyph glyph-name="uni1EBB" unicode="&#x1ebb;" horiz-adv-x="429" 
d="M378 236h-272q0 -87 8 -125.5t34.5 -54t86.5 -15.5q30 0 66 3.5t63 9.5v-48q-23 -6 -62 -10t-76 -4q-79 0 -115.5 22.5t-48.5 76t-12 163.5q0 111 10 163t46 76.5t117 24.5q73 0 105 -23.5t41 -75t9 -163.5v-20zM144.5 455.5q-23.5 -13.5 -30.5 -50.5t-8 -124h217v15
q0 78 -8.5 114t-29.5 47.5t-64 11.5q-53 0 -76.5 -13.5zM172 620q0 22 8 31t30 16l15 4q25 8 33.5 15.5t8.5 26.5q0 15 -4.5 22.5t-18.5 10t-43 2.5q-20 0 -84 -4v36q51 7 90 7q59 0 81 -15t22 -54q0 -29 -8 -44t-37 -25l-15 -5q-27 -9 -33 -14t-6 -20h-39v10z" />
    <glyph glyph-name="uni1EBC" unicode="&#x1ebc;" horiz-adv-x="432" 
d="M74 0v688h320v-53h-260v-261h226v-52h-226v-269h260v-53h-320zM359.5 807q-10.5 -22 -46.5 -22q-19 0 -37.5 6t-48.5 18q-24 11 -39.5 16.5t-30.5 5.5t-19.5 -12t-4.5 -45h-37q0 58 11 80.5t47 22.5q20 0 39.5 -6.5t48.5 -19.5q25 -10 39.5 -15t28.5 -5q15 0 19 11.5
t4 45.5h37q0 -59 -10.5 -81z" />
    <glyph glyph-name="uni1EBD" unicode="&#x1ebd;" horiz-adv-x="429" 
d="M378 236h-272q0 -87 8 -125.5t34.5 -54t86.5 -15.5q30 0 66 3.5t63 9.5v-48q-23 -6 -62 -10t-76 -4q-79 0 -115.5 22.5t-48.5 76t-12 163.5q0 111 10 163t46 76.5t117 24.5q73 0 105 -23.5t41 -75t9 -163.5v-20zM144.5 455.5q-23.5 -13.5 -30.5 -50.5t-8 -124h217v15
q0 78 -8.5 114t-29.5 47.5t-64 11.5q-53 0 -76.5 -13.5zM339.5 662q-10.5 -22 -46.5 -22q-19 0 -37.5 6t-48.5 18q-24 11 -39.5 16.5t-30.5 5.5t-19.5 -12t-4.5 -45h-37q0 58 11 80.5t47 22.5q20 0 39.5 -6.5t48.5 -19.5q25 -10 39.5 -15t28.5 -5q15 0 19 11.5t4 45.5h37
q0 -59 -10.5 -81z" />
    <glyph glyph-name="uni1EBE" unicode="&#x1ebe;" horiz-adv-x="432" 
d="M74 0v688h320v-53h-260v-261h226v-52h-226v-269h260v-53h-320zM122 744v5l78 133h65l78 -133v-5h-40l-70 101l-70 -101h-41zM285 889v5l56 135h61v-5l-76 -135h-41z" />
    <glyph glyph-name="uni1EBF" unicode="&#x1ebf;" horiz-adv-x="429" 
d="M378 236h-272q0 -87 8 -125.5t34.5 -54t86.5 -15.5q30 0 66 3.5t63 9.5v-48q-23 -6 -62 -10t-76 -4q-79 0 -115.5 22.5t-48.5 76t-12 163.5q0 111 10 163t46 76.5t117 24.5q73 0 105 -23.5t41 -75t9 -163.5v-20zM144.5 455.5q-23.5 -13.5 -30.5 -50.5t-8 -124h217v15
q0 78 -8.5 114t-29.5 47.5t-64 11.5q-53 0 -76.5 -13.5zM102 605v5l78 133h65l78 -133v-5h-40l-70 101l-70 -101h-41zM265 750v5l56 135h61v-5l-76 -135h-41z" />
    <glyph glyph-name="uni1EC0" unicode="&#x1ec0;" horiz-adv-x="432" 
d="M74 0v688h320v-53h-260v-261h226v-52h-226v-269h260v-53h-320zM122 741v5l78 133h65l78 -133v-5h-40l-70 101l-70 -101h-41zM300 886l-76 135v5h62l55 -135v-5h-41z" />
    <glyph glyph-name="uni1EC1" unicode="&#x1ec1;" horiz-adv-x="429" 
d="M378 236h-272q0 -87 8 -125.5t34.5 -54t86.5 -15.5q30 0 66 3.5t63 9.5v-48q-23 -6 -62 -10t-76 -4q-79 0 -115.5 22.5t-48.5 76t-12 163.5q0 111 10 163t46 76.5t117 24.5q73 0 105 -23.5t41 -75t9 -163.5v-20zM144.5 455.5q-23.5 -13.5 -30.5 -50.5t-8 -124h217v15
q0 78 -8.5 114t-29.5 47.5t-64 11.5q-53 0 -76.5 -13.5zM102 605v5l78 133h65l78 -133v-5h-40l-70 101l-70 -101h-41zM280 750l-76 135v5h62l55 -135v-5h-41z" />
    <glyph glyph-name="uni1EC2" unicode="&#x1ec2;" horiz-adv-x="432" 
d="M74 0v688h320v-53h-260v-261h226v-52h-226v-269h260v-53h-320zM123 741v5l78 133h65l78 -133v-5h-40l-70 101l-70 -101h-41zM271 894q0 22 8 31t30 16l15 4q25 8 33.5 15.5t8.5 26.5q0 15 -4.5 22.5t-18.5 10t-43 2.5q-20 0 -84 -4v36q51 7 90 7q59 0 81 -15t22 -54
q0 -29 -8 -44t-37 -25l-15 -5q-27 -9 -33 -14t-6 -20h-39v10z" />
    <glyph glyph-name="uni1EC3" unicode="&#x1ec3;" horiz-adv-x="429" 
d="M378 236h-272q0 -87 8 -125.5t34.5 -54t86.5 -15.5q30 0 66 3.5t63 9.5v-48q-23 -6 -62 -10t-76 -4q-79 0 -115.5 22.5t-48.5 76t-12 163.5q0 111 10 163t46 76.5t117 24.5q73 0 105 -23.5t41 -75t9 -163.5v-20zM144.5 455.5q-23.5 -13.5 -30.5 -50.5t-8 -124h217v15
q0 78 -8.5 114t-29.5 47.5t-64 11.5q-53 0 -76.5 -13.5zM103 605v5l78 133h65l78 -133v-5h-40l-70 101l-70 -101h-41zM251 758q0 22 8 31t30 16l15 4q25 8 33.5 15.5t8.5 26.5q0 15 -4.5 22.5t-18.5 10t-43 2.5q-20 0 -84 -4v36q51 7 90 7q59 0 81 -15t22 -54q0 -29 -8 -44
t-37 -25l-15 -5q-27 -9 -33 -14t-6 -20h-39v10z" />
    <glyph glyph-name="uni1EC4" unicode="&#x1ec4;" horiz-adv-x="432" 
d="M74 0v688h320v-53h-260v-261h226v-52h-226v-269h260v-53h-320zM121 742v5l78 133h65l78 -133v-5h-40l-70 101l-70 -101h-41zM359.5 972q-10.5 -22 -46.5 -22q-19 0 -37.5 6t-48.5 18q-24 11 -39.5 16.5t-30.5 5.5t-19.5 -12t-4.5 -45h-37q0 58 11 80.5t47 22.5
q20 0 39.5 -6.5t48.5 -19.5q25 -10 39.5 -15t28.5 -5q15 0 19 11.5t4 45.5h37q0 -59 -10.5 -81z" />
    <glyph glyph-name="uni1EC5" unicode="&#x1ec5;" horiz-adv-x="429" 
d="M378 236h-272q0 -87 8 -125.5t34.5 -54t86.5 -15.5q30 0 66 3.5t63 9.5v-48q-23 -6 -62 -10t-76 -4q-79 0 -115.5 22.5t-48.5 76t-12 163.5q0 111 10 163t46 76.5t117 24.5q73 0 105 -23.5t41 -75t9 -163.5v-20zM144.5 455.5q-23.5 -13.5 -30.5 -50.5t-8 -124h217v15
q0 78 -8.5 114t-29.5 47.5t-64 11.5q-53 0 -76.5 -13.5zM101 605v5l78 133h65l78 -133v-5h-40l-70 101l-70 -101h-41zM339.5 835q-10.5 -22 -46.5 -22q-19 0 -37.5 6t-48.5 18q-24 11 -39.5 16.5t-30.5 5.5t-19.5 -12t-4.5 -45h-37q0 58 11 80.5t47 22.5q20 0 39.5 -6.5
t48.5 -19.5q25 -10 39.5 -15t28.5 -5q15 0 19 11.5t4 45.5h37q0 -59 -10.5 -81z" />
    <glyph glyph-name="uni1EC6" unicode="&#x1ec6;" horiz-adv-x="432" 
d="M74 0v688h320v-53h-260v-261h226v-52h-226v-269h260v-53h-320zM201 -142v80h66v-80h-66zM123 750v5l78 133h65l78 -133v-5h-40l-70 101l-70 -101h-41z" />
    <glyph glyph-name="uni1EC7" unicode="&#x1ec7;" horiz-adv-x="429" 
d="M378 236h-272q0 -87 8 -125.5t34.5 -54t86.5 -15.5q30 0 66 3.5t63 9.5v-48q-23 -6 -62 -10t-76 -4q-79 0 -115.5 22.5t-48.5 76t-12 163.5q0 111 10 163t46 76.5t117 24.5q73 0 105 -23.5t41 -75t9 -163.5v-20zM144.5 455.5q-23.5 -13.5 -30.5 -50.5t-8 -124h217v15
q0 78 -8.5 114t-29.5 47.5t-64 11.5q-53 0 -76.5 -13.5zM181 -142v80h66v-80h-66zM103 605v5l78 133h65l78 -133v-5h-40l-70 101l-70 -101h-41z" />
    <glyph glyph-name="uni1EC8" unicode="&#x1ec8;" horiz-adv-x="214" 
d="M78 0v688h58v-688h-58zM65 746q0 23 8 32t30 15l15 5q25 8 33.5 15.5t8.5 25.5q0 16 -4.5 23t-18.5 10t-43 3q-31 0 -84 -5v37q51 7 90 7q59 0 81 -15t22 -54q0 -29 -8 -44.5t-37 -25.5l-15 -5q-20 -6 -27.5 -10t-9.5 -8.5t-2 -15.5h-39v10z" />
    <glyph glyph-name="uni1EC9" unicode="&#x1ec9;" horiz-adv-x="190" 
d="M67 0v510h56v-510h-56zM53 620q0 22 8 31t30 16l15 4q25 8 33.5 15.5t8.5 26.5q0 15 -4.5 22.5t-18.5 10t-43 2.5q-20 0 -84 -4v36q51 7 90 7q59 0 81 -15t22 -54q0 -29 -8 -44t-37 -25l-15 -5q-27 -9 -33 -14t-6 -20h-39v10z" />
    <glyph glyph-name="uni1ECA" unicode="&#x1eca;" horiz-adv-x="214" 
d="M78 0v688h58v-688h-58zM74 -142v80h66v-80h-66z" />
    <glyph glyph-name="uni1ECB" unicode="&#x1ecb;" horiz-adv-x="190" 
d="M65 668v75h60v-75h-60zM67 0v510h56v-510h-56zM57 -142v80h66v-80h-66z" />
    <glyph glyph-name="uni1ECC" unicode="&#x1ecc;" horiz-adv-x="521" 
d="M123 18q-41 26 -53.5 95t-12.5 231t12.5 231t53.5 95t137 26q97 0 138 -26t53 -94.5t12 -231.5t-12 -231.5t-53 -94.5t-138 -26q-96 0 -137 26zM358 60.5q27 15.5 36.5 74.5t9.5 209t-9.5 209t-36.5 74.5t-98 15.5t-98 -15.5t-36.5 -74.5t-9.5 -209t9.5 -209t36.5 -74.5
t98 -15.5t98 15.5zM227 -142v80h66v-80h-66z" />
    <glyph glyph-name="uni1ECD" unicode="&#x1ecd;" horiz-adv-x="441" 
d="M105.5 13q-34.5 21 -45 72.5t-10.5 168.5q0 118 10.5 170t45 73t114.5 21t115 -21t45 -73t10 -170q0 -117 -10 -168.5t-45 -72.5t-115 -21t-114.5 21zM299.5 56q22.5 15 28.5 55.5t6 142.5t-6 143t-29 56.5t-79 15.5t-79 -15.5t-29 -56.5t-6 -143t6 -142.5t28.5 -55.5
t79.5 -15t79.5 15zM187 -142v80h66v-80h-66z" />
    <glyph glyph-name="uni1ECE" unicode="&#x1ece;" horiz-adv-x="521" 
d="M123 18q-41 26 -53.5 95t-12.5 231t12.5 231t53.5 95t137 26q97 0 138 -26t53 -94.5t12 -231.5t-12 -231.5t-53 -94.5t-138 -26q-96 0 -137 26zM358 60.5q27 15.5 36.5 74.5t9.5 209t-9.5 209t-36.5 74.5t-98 15.5t-98 -15.5t-36.5 -74.5t-9.5 -209t9.5 -209t36.5 -74.5
t98 -15.5t98 15.5zM218 746q0 23 8 32t30 15l15 5q25 8 33.5 15.5t8.5 25.5q0 16 -4.5 23t-18.5 10t-43 3q-31 0 -84 -5v37q51 7 90 7q59 0 81 -15t22 -54q0 -29 -8 -44.5t-37 -25.5l-15 -5q-20 -6 -27.5 -10t-9.5 -8.5t-2 -15.5h-39v10z" />
    <glyph glyph-name="uni1ECF" unicode="&#x1ecf;" horiz-adv-x="441" 
d="M105.5 13q-34.5 21 -45 72.5t-10.5 168.5q0 118 10.5 170t45 73t114.5 21t115 -21t45 -73t10 -170q0 -117 -10 -168.5t-45 -72.5t-115 -21t-114.5 21zM299.5 56q22.5 15 28.5 55.5t6 142.5t-6 143t-29 56.5t-79 15.5t-79 -15.5t-29 -56.5t-6 -143t6 -142.5t28.5 -55.5
t79.5 -15t79.5 15zM178 620q0 22 8 31t30 16l15 4q25 8 33.5 15.5t8.5 26.5q0 15 -4.5 22.5t-18.5 10t-43 2.5q-20 0 -84 -4v36q51 7 90 7q59 0 81 -15t22 -54q0 -29 -8 -44t-37 -25l-15 -5q-27 -9 -33 -14t-6 -20h-39v10z" />
    <glyph glyph-name="uni1ED0" unicode="&#x1ed0;" horiz-adv-x="521" 
d="M123 18q-41 26 -53.5 95t-12.5 231t12.5 231t53.5 95t137 26q97 0 138 -26t53 -94.5t12 -231.5t-12 -231.5t-53 -94.5t-138 -26q-96 0 -137 26zM358 60.5q27 15.5 36.5 74.5t9.5 209t-9.5 209t-36.5 74.5t-98 15.5t-98 -15.5t-36.5 -74.5t-9.5 -209t9.5 -209t36.5 -74.5
t98 -15.5t98 15.5zM148 744v5l78 133h65l78 -133v-5h-40l-70 101l-70 -101h-41zM311 889v5l56 135h61v-5l-76 -135h-41z" />
    <glyph glyph-name="uni1ED1" unicode="&#x1ed1;" horiz-adv-x="441" 
d="M105.5 13q-34.5 21 -45 72.5t-10.5 168.5q0 118 10.5 170t45 73t114.5 21t115 -21t45 -73t10 -170q0 -117 -10 -168.5t-45 -72.5t-115 -21t-114.5 21zM299.5 56q22.5 15 28.5 55.5t6 142.5t-6 143t-29 56.5t-79 15.5t-79 -15.5t-29 -56.5t-6 -143t6 -142.5t28.5 -55.5
t79.5 -15t79.5 15zM108 605v5l78 133h65l78 -133v-5h-40l-70 101l-70 -101h-41zM271 750v5l56 135h61v-5l-76 -135h-41z" />
    <glyph glyph-name="uni1ED2" unicode="&#x1ed2;" horiz-adv-x="521" 
d="M123 18q-41 26 -53.5 95t-12.5 231t12.5 231t53.5 95t137 26q97 0 138 -26t53 -94.5t12 -231.5t-12 -231.5t-53 -94.5t-138 -26q-96 0 -137 26zM358 60.5q27 15.5 36.5 74.5t9.5 209t-9.5 209t-36.5 74.5t-98 15.5t-98 -15.5t-36.5 -74.5t-9.5 -209t9.5 -209t36.5 -74.5
t98 -15.5t98 15.5zM148 741v5l78 133h65l78 -133v-5h-40l-70 101l-70 -101h-41zM326 886l-76 135v5h62l55 -135v-5h-41z" />
    <glyph glyph-name="uni1ED3" unicode="&#x1ed3;" horiz-adv-x="441" 
d="M105.5 13q-34.5 21 -45 72.5t-10.5 168.5q0 118 10.5 170t45 73t114.5 21t115 -21t45 -73t10 -170q0 -117 -10 -168.5t-45 -72.5t-115 -21t-114.5 21zM299.5 56q22.5 15 28.5 55.5t6 142.5t-6 143t-29 56.5t-79 15.5t-79 -15.5t-29 -56.5t-6 -143t6 -142.5t28.5 -55.5
t79.5 -15t79.5 15zM108 605v5l78 133h65l78 -133v-5h-40l-70 101l-70 -101h-41zM286 750l-76 135v5h62l55 -135v-5h-41z" />
    <glyph glyph-name="uni1ED4" unicode="&#x1ed4;" horiz-adv-x="521" 
d="M123 18q-41 26 -53.5 95t-12.5 231t12.5 231t53.5 95t137 26q97 0 138 -26t53 -94.5t12 -231.5t-12 -231.5t-53 -94.5t-138 -26q-96 0 -137 26zM358 60.5q27 15.5 36.5 74.5t9.5 209t-9.5 209t-36.5 74.5t-98 15.5t-98 -15.5t-36.5 -74.5t-9.5 -209t9.5 -209t36.5 -74.5
t98 -15.5t98 15.5zM149 741v5l78 133h65l78 -133v-5h-40l-70 101l-70 -101h-41zM297 894q0 22 8 31t30 16l15 4q25 8 33.5 15.5t8.5 26.5q0 15 -4.5 22.5t-18.5 10t-43 2.5q-20 0 -84 -4v36q51 7 90 7q59 0 81 -15t22 -54q0 -29 -8 -44t-37 -25l-15 -5q-27 -9 -33 -14
t-6 -20h-39v10z" />
    <glyph glyph-name="uni1ED5" unicode="&#x1ed5;" horiz-adv-x="441" 
d="M105.5 13q-34.5 21 -45 72.5t-10.5 168.5q0 118 10.5 170t45 73t114.5 21t115 -21t45 -73t10 -170q0 -117 -10 -168.5t-45 -72.5t-115 -21t-114.5 21zM299.5 56q22.5 15 28.5 55.5t6 142.5t-6 143t-29 56.5t-79 15.5t-79 -15.5t-29 -56.5t-6 -143t6 -142.5t28.5 -55.5
t79.5 -15t79.5 15zM109 605v5l78 133h65l78 -133v-5h-40l-70 101l-70 -101h-41zM257 758q0 22 8 31t30 16l15 4q25 8 33.5 15.5t8.5 26.5q0 15 -4.5 22.5t-18.5 10t-43 2.5q-20 0 -84 -4v36q51 7 90 7q59 0 81 -15t22 -54q0 -29 -8 -44t-37 -25l-15 -5q-27 -9 -33 -14
t-6 -20h-39v10z" />
    <glyph glyph-name="uni1ED6" unicode="&#x1ed6;" horiz-adv-x="521" 
d="M123 18q-41 26 -53.5 95t-12.5 231t12.5 231t53.5 95t137 26q97 0 138 -26t53 -94.5t12 -231.5t-12 -231.5t-53 -94.5t-138 -26q-96 0 -137 26zM358 60.5q27 15.5 36.5 74.5t9.5 209t-9.5 209t-36.5 74.5t-98 15.5t-98 -15.5t-36.5 -74.5t-9.5 -209t9.5 -209t36.5 -74.5
t98 -15.5t98 15.5zM147 742v5l78 133h65l78 -133v-5h-40l-70 101l-70 -101h-41zM385.5 972q-10.5 -22 -46.5 -22q-19 0 -37.5 6t-48.5 18q-24 11 -39.5 16.5t-30.5 5.5t-19.5 -12t-4.5 -45h-37q0 58 11 80.5t47 22.5q20 0 39.5 -6.5t48.5 -19.5q25 -10 39.5 -15t28.5 -5
q15 0 19 11.5t4 45.5h37q0 -59 -10.5 -81z" />
    <glyph glyph-name="uni1ED7" unicode="&#x1ed7;" horiz-adv-x="441" 
d="M105.5 13q-34.5 21 -45 72.5t-10.5 168.5q0 118 10.5 170t45 73t114.5 21t115 -21t45 -73t10 -170q0 -117 -10 -168.5t-45 -72.5t-115 -21t-114.5 21zM299.5 56q22.5 15 28.5 55.5t6 142.5t-6 143t-29 56.5t-79 15.5t-79 -15.5t-29 -56.5t-6 -143t6 -142.5t28.5 -55.5
t79.5 -15t79.5 15zM107 605v5l78 133h65l78 -133v-5h-40l-70 101l-70 -101h-41zM345.5 835q-10.5 -22 -46.5 -22q-19 0 -37.5 6t-48.5 18q-24 11 -39.5 16.5t-30.5 5.5t-19.5 -12t-4.5 -45h-37q0 58 11 80.5t47 22.5q20 0 39.5 -6.5t48.5 -19.5q25 -10 39.5 -15t28.5 -5
q15 0 19 11.5t4 45.5h37q0 -59 -10.5 -81z" />
    <glyph glyph-name="uni1ED8" unicode="&#x1ed8;" horiz-adv-x="521" 
d="M123 18q-41 26 -53.5 95t-12.5 231t12.5 231t53.5 95t137 26q97 0 138 -26t53 -94.5t12 -231.5t-12 -231.5t-53 -94.5t-138 -26q-96 0 -137 26zM358 60.5q27 15.5 36.5 74.5t9.5 209t-9.5 209t-36.5 74.5t-98 15.5t-98 -15.5t-36.5 -74.5t-9.5 -209t9.5 -209t36.5 -74.5
t98 -15.5t98 15.5zM227 -142v80h66v-80h-66zM149 750v5l78 133h65l78 -133v-5h-40l-70 101l-70 -101h-41z" />
    <glyph glyph-name="uni1ED9" unicode="&#x1ed9;" horiz-adv-x="441" 
d="M105.5 13q-34.5 21 -45 72.5t-10.5 168.5q0 118 10.5 170t45 73t114.5 21t115 -21t45 -73t10 -170q0 -117 -10 -168.5t-45 -72.5t-115 -21t-114.5 21zM299.5 56q22.5 15 28.5 55.5t6 142.5t-6 143t-29 56.5t-79 15.5t-79 -15.5t-29 -56.5t-6 -143t6 -142.5t28.5 -55.5
t79.5 -15t79.5 15zM187 -142v80h66v-80h-66zM109 605v5l78 133h65l78 -133v-5h-40l-70 101l-70 -101h-41z" />
    <glyph glyph-name="uni1EDA" unicode="&#x1eda;" horiz-adv-x="521" 
d="M493 785v-33q0 -37 -6 -57t-22.5 -29.5t-48.5 -11.5q30 -32 38.5 -99t8.5 -211q0 -163 -12 -231.5t-53 -94.5t-138 -26q-96 0 -137 26t-53.5 95t-12.5 231t12.5 231t53.5 95t137 26q61 0 94 -8h44q33 0 42.5 11.5t9.5 43.5v42h43zM358 60.5q27 15.5 36.5 74.5t9.5 209
t-9.5 209t-36.5 74.5t-98 15.5t-98 -15.5t-36.5 -74.5t-9.5 -209t9.5 -209t36.5 -74.5t98 -15.5t98 15.5zM234 748v5l56 135h61v-5l-76 -135h-41z" />
    <glyph glyph-name="uni1EDB" unicode="&#x1edb;" horiz-adv-x="441" 
d="M441 607v-33q0 -39 -6.5 -59t-24 -29t-52.5 -10q20 -26 26 -75.5t6 -146.5q0 -117 -10 -168.5t-45 -72.5t-115 -21t-114.5 21t-45 72.5t-10.5 168.5q0 118 10.5 170t45 73t114.5 21q54 0 83 -8h43q33 0 42.5 11.5t9.5 43.5v42h43zM299.5 56q22.5 15 28.5 55.5t6 142.5
t-6 143t-29 56.5t-79 15.5t-79 -15.5t-29 -56.5t-6 -143t6 -142.5t28.5 -55.5t79.5 -15t79.5 15zM194 603v5l56 135h61v-5l-76 -135h-41z" />
    <glyph glyph-name="uni1EDC" unicode="&#x1edc;" horiz-adv-x="521" 
d="M493 785v-33q0 -37 -6 -57t-22.5 -29.5t-48.5 -11.5q30 -32 38.5 -99t8.5 -211q0 -163 -12 -231.5t-53 -94.5t-138 -26q-96 0 -137 26t-53.5 95t-12.5 231t12.5 231t53.5 95t137 26q61 0 94 -8h44q33 0 42.5 11.5t9.5 43.5v42h43zM358 60.5q27 15.5 36.5 74.5t9.5 209
t-9.5 209t-36.5 74.5t-98 15.5t-98 -15.5t-36.5 -74.5t-9.5 -209t9.5 -209t36.5 -74.5t98 -15.5t98 15.5zM244 748l-76 135v5h62l55 -135v-5h-41z" />
    <glyph glyph-name="uni1EDD" unicode="&#x1edd;" horiz-adv-x="441" 
d="M441 607v-33q0 -39 -6.5 -59t-24 -29t-52.5 -10q20 -26 26 -75.5t6 -146.5q0 -117 -10 -168.5t-45 -72.5t-115 -21t-114.5 21t-45 72.5t-10.5 168.5q0 118 10.5 170t45 73t114.5 21q54 0 83 -8h43q33 0 42.5 11.5t9.5 43.5v42h43zM299.5 56q22.5 15 28.5 55.5t6 142.5
t-6 143t-29 56.5t-79 15.5t-79 -15.5t-29 -56.5t-6 -143t6 -142.5t28.5 -55.5t79.5 -15t79.5 15zM202 603l-76 135v5h62l55 -135v-5h-41z" />
    <glyph glyph-name="uni1EDE" unicode="&#x1ede;" horiz-adv-x="521" 
d="M493 785v-33q0 -37 -6 -57t-22.5 -29.5t-48.5 -11.5q30 -32 38.5 -99t8.5 -211q0 -163 -12 -231.5t-53 -94.5t-138 -26q-96 0 -137 26t-53.5 95t-12.5 231t12.5 231t53.5 95t137 26q61 0 94 -8h44q33 0 42.5 11.5t9.5 43.5v42h43zM358 60.5q27 15.5 36.5 74.5t9.5 209
t-9.5 209t-36.5 74.5t-98 15.5t-98 -15.5t-36.5 -74.5t-9.5 -209t9.5 -209t36.5 -74.5t98 -15.5t98 15.5zM218 746q0 23 8 32t30 15l15 5q25 8 33.5 15.5t8.5 25.5q0 16 -4.5 23t-18.5 10t-43 3q-31 0 -84 -5v37q51 7 90 7q59 0 81 -15t22 -54q0 -29 -8 -44.5t-37 -25.5
l-15 -5q-20 -6 -27.5 -10t-9.5 -8.5t-2 -15.5h-39v10z" />
    <glyph glyph-name="uni1EDF" unicode="&#x1edf;" horiz-adv-x="441" 
d="M441 607v-33q0 -39 -6.5 -59t-24 -29t-52.5 -10q20 -26 26 -75.5t6 -146.5q0 -117 -10 -168.5t-45 -72.5t-115 -21t-114.5 21t-45 72.5t-10.5 168.5q0 118 10.5 170t45 73t114.5 21q54 0 83 -8h43q33 0 42.5 11.5t9.5 43.5v42h43zM299.5 56q22.5 15 28.5 55.5t6 142.5
t-6 143t-29 56.5t-79 15.5t-79 -15.5t-29 -56.5t-6 -143t6 -142.5t28.5 -55.5t79.5 -15t79.5 15zM178 620q0 22 8 31t30 16l15 4q25 8 33.5 15.5t8.5 26.5q0 15 -4.5 22.5t-18.5 10t-43 2.5q-20 0 -84 -4v36q51 7 90 7q59 0 81 -15t22 -54q0 -29 -8 -44t-37 -25l-15 -5
q-27 -9 -33 -14t-6 -20h-39v10z" />
    <glyph glyph-name="uni1EE0" unicode="&#x1ee0;" horiz-adv-x="521" 
d="M493 785v-33q0 -37 -6 -57t-22.5 -29.5t-48.5 -11.5q30 -32 38.5 -99t8.5 -211q0 -163 -12 -231.5t-53 -94.5t-138 -26q-96 0 -137 26t-53.5 95t-12.5 231t12.5 231t53.5 95t137 26q61 0 94 -8h44q33 0 42.5 11.5t9.5 43.5v42h43zM358 60.5q27 15.5 36.5 74.5t9.5 209
t-9.5 209t-36.5 74.5t-98 15.5t-98 -15.5t-36.5 -74.5t-9.5 -209t9.5 -209t36.5 -74.5t98 -15.5t98 15.5zM385.5 807q-10.5 -22 -46.5 -22q-19 0 -37.5 6t-48.5 18q-24 11 -39.5 16.5t-30.5 5.5t-19.5 -12t-4.5 -45h-37q0 58 11 80.5t47 22.5q20 0 39.5 -6.5t48.5 -19.5
q25 -10 39.5 -15t28.5 -5q15 0 19 11.5t4 45.5h37q0 -59 -10.5 -81z" />
    <glyph glyph-name="uni1EE1" unicode="&#x1ee1;" horiz-adv-x="441" 
d="M441 607v-33q0 -39 -6.5 -59t-24 -29t-52.5 -10q20 -26 26 -75.5t6 -146.5q0 -117 -10 -168.5t-45 -72.5t-115 -21t-114.5 21t-45 72.5t-10.5 168.5q0 118 10.5 170t45 73t114.5 21q54 0 83 -8h43q33 0 42.5 11.5t9.5 43.5v42h43zM299.5 56q22.5 15 28.5 55.5t6 142.5
t-6 143t-29 56.5t-79 15.5t-79 -15.5t-29 -56.5t-6 -143t6 -142.5t28.5 -55.5t79.5 -15t79.5 15zM345.5 662q-10.5 -22 -46.5 -22q-19 0 -37.5 6t-48.5 18q-24 11 -39.5 16.5t-30.5 5.5t-19.5 -12t-4.5 -45h-37q0 58 11 80.5t47 22.5q20 0 39.5 -6.5t48.5 -19.5
q25 -10 39.5 -15t28.5 -5q15 0 19 11.5t4 45.5h37q0 -59 -10.5 -81z" />
    <glyph glyph-name="uni1EE2" unicode="&#x1ee2;" horiz-adv-x="521" 
d="M493 785v-33q0 -37 -6 -57t-22.5 -29.5t-48.5 -11.5q30 -32 38.5 -99t8.5 -211q0 -163 -12 -231.5t-53 -94.5t-138 -26q-96 0 -137 26t-53.5 95t-12.5 231t12.5 231t53.5 95t137 26q61 0 94 -8h44q33 0 42.5 11.5t9.5 43.5v42h43zM358 60.5q27 15.5 36.5 74.5t9.5 209
t-9.5 209t-36.5 74.5t-98 15.5t-98 -15.5t-36.5 -74.5t-9.5 -209t9.5 -209t36.5 -74.5t98 -15.5t98 15.5zM227 -142v80h66v-80h-66z" />
    <glyph glyph-name="uni1EE3" unicode="&#x1ee3;" horiz-adv-x="441" 
d="M441 607v-33q0 -39 -6.5 -59t-24 -29t-52.5 -10q20 -26 26 -75.5t6 -146.5q0 -117 -10 -168.5t-45 -72.5t-115 -21t-114.5 21t-45 72.5t-10.5 168.5q0 118 10.5 170t45 73t114.5 21q54 0 83 -8h43q33 0 42.5 11.5t9.5 43.5v42h43zM299.5 56q22.5 15 28.5 55.5t6 142.5
t-6 143t-29 56.5t-79 15.5t-79 -15.5t-29 -56.5t-6 -143t6 -142.5t28.5 -55.5t79.5 -15t79.5 15zM187 -142v80h66v-80h-66z" />
    <glyph glyph-name="uni1EE4" unicode="&#x1ee4;" horiz-adv-x="517" 
d="M448 688v-391q0 -133 -12 -193.5t-51 -86t-126 -25.5q-88 0 -127 25.5t-51 86t-12 193.5v391h58v-424q0 -99 7.5 -141.5t34.5 -60t90 -17.5q62 0 88.5 17.5t34 60t7.5 141.5v424h59zM226 -142v80h66v-80h-66z" />
    <glyph glyph-name="uni1EE5" unicode="&#x1ee5;" horiz-adv-x="455" 
d="M336 73h-5q-12 -38 -41.5 -59.5t-88.5 -21.5q-58 0 -87.5 19.5t-39.5 60.5t-10 117v321h56v-304q0 -75 7.5 -108t27.5 -44t66 -11q51 0 75 24.5t29.5 64.5t5.5 114v264h56v-510h-47zM182 -142v80h66v-80h-66z" />
    <glyph glyph-name="uni1EE6" unicode="&#x1ee6;" horiz-adv-x="517" 
d="M448 688v-391q0 -133 -12 -193.5t-51 -86t-126 -25.5q-88 0 -127 25.5t-51 86t-12 193.5v391h58v-424q0 -99 7.5 -141.5t34.5 -60t90 -17.5q62 0 88.5 17.5t34 60t7.5 141.5v424h59zM217 746q0 23 8 32t30 15l15 5q25 8 33.5 15.5t8.5 25.5q0 16 -4.5 23t-18.5 10t-43 3
q-31 0 -84 -5v37q51 7 90 7q59 0 81 -15t22 -54q0 -29 -8 -44.5t-37 -25.5l-15 -5q-20 -6 -27.5 -10t-9.5 -8.5t-2 -15.5h-39v10z" />
    <glyph glyph-name="uni1EE7" unicode="&#x1ee7;" horiz-adv-x="455" 
d="M336 73h-5q-12 -38 -41.5 -59.5t-88.5 -21.5q-58 0 -87.5 19.5t-39.5 60.5t-10 117v321h56v-304q0 -75 7.5 -108t27.5 -44t66 -11q51 0 75 24.5t29.5 64.5t5.5 114v264h56v-510h-47zM185 620q0 22 8 31t30 16l15 4q25 8 33.5 15.5t8.5 26.5q0 15 -4.5 22.5t-18.5 10
t-43 2.5q-20 0 -84 -4v36q51 7 90 7q59 0 81 -15t22 -54q0 -29 -8 -44t-37 -25l-15 -5q-27 -9 -33 -14t-6 -20h-39v10z" />
    <glyph glyph-name="uni1EE8" unicode="&#x1ee8;" horiz-adv-x="517" 
d="M538 785v-33q0 -40 -7 -60t-26 -28.5t-57 -9.5v-357q0 -133 -12 -193.5t-51 -86t-126 -25.5q-88 0 -127 25.5t-51 86t-12 193.5v391h58v-424q0 -99 7.5 -141.5t34.5 -60t90 -17.5q62 0 88.5 17.5t34 60t7.5 141.5v424h54q33 0 42.5 11.5t9.5 43.5v42h43zM233 748v5
l56 135h61v-5l-76 -135h-41z" />
    <glyph glyph-name="uni1EE9" unicode="&#x1ee9;" horiz-adv-x="455" 
d="M476 607v-33q0 -39 -7 -59.5t-25.5 -29t-56.5 -9.5v-476h-47l-4 73h-5q-12 -38 -41.5 -59.5t-88.5 -21.5q-58 0 -87.5 19.5t-39.5 60.5t-10 117v321h56v-304q0 -75 7.5 -108t27.5 -44t66 -11q51 0 75 24.5t29.5 64.5t5.5 114v264h50q33 0 42.5 11.5t9.5 43.5v42h43z
M201 603v5l56 135h61v-5l-76 -135h-41z" />
    <glyph glyph-name="uni1EEA" unicode="&#x1eea;" horiz-adv-x="517" 
d="M538 785v-33q0 -40 -7 -60t-26 -28.5t-57 -9.5v-357q0 -133 -12 -193.5t-51 -86t-126 -25.5q-88 0 -127 25.5t-51 86t-12 193.5v391h58v-424q0 -99 7.5 -141.5t34.5 -60t90 -17.5q62 0 88.5 17.5t34 60t7.5 141.5v424h54q33 0 42.5 11.5t9.5 43.5v42h43zM243 748l-76 135
v5h62l55 -135v-5h-41z" />
    <glyph glyph-name="uni1EEB" unicode="&#x1eeb;" horiz-adv-x="455" 
d="M476 607v-33q0 -39 -7 -59.5t-25.5 -29t-56.5 -9.5v-476h-47l-4 73h-5q-12 -38 -41.5 -59.5t-88.5 -21.5q-58 0 -87.5 19.5t-39.5 60.5t-10 117v321h56v-304q0 -75 7.5 -108t27.5 -44t66 -11q51 0 75 24.5t29.5 64.5t5.5 114v264h50q33 0 42.5 11.5t9.5 43.5v42h43z
M209 603l-76 135v5h62l55 -135v-5h-41z" />
    <glyph glyph-name="uni1EEC" unicode="&#x1eec;" horiz-adv-x="517" 
d="M538 785v-33q0 -40 -7 -60t-26 -28.5t-57 -9.5v-357q0 -133 -12 -193.5t-51 -86t-126 -25.5q-88 0 -127 25.5t-51 86t-12 193.5v391h58v-424q0 -99 7.5 -141.5t34.5 -60t90 -17.5q62 0 88.5 17.5t34 60t7.5 141.5v424h54q33 0 42.5 11.5t9.5 43.5v42h43zM217 746
q0 23 8 32t30 15l15 5q25 8 33.5 15.5t8.5 25.5q0 16 -4.5 23t-18.5 10t-43 3q-31 0 -84 -5v37q51 7 90 7q59 0 81 -15t22 -54q0 -29 -8 -44.5t-37 -25.5l-15 -5q-20 -6 -27.5 -10t-9.5 -8.5t-2 -15.5h-39v10z" />
    <glyph glyph-name="uni1EED" unicode="&#x1eed;" horiz-adv-x="455" 
d="M476 607v-33q0 -39 -7 -59.5t-25.5 -29t-56.5 -9.5v-476h-47l-4 73h-5q-12 -38 -41.5 -59.5t-88.5 -21.5q-58 0 -87.5 19.5t-39.5 60.5t-10 117v321h56v-304q0 -75 7.5 -108t27.5 -44t66 -11q51 0 75 24.5t29.5 64.5t5.5 114v264h50q33 0 42.5 11.5t9.5 43.5v42h43z
M185 620q0 22 8 31t30 16l15 4q25 8 33.5 15.5t8.5 26.5q0 15 -4.5 22.5t-18.5 10t-43 2.5q-20 0 -84 -4v36q51 7 90 7q59 0 81 -15t22 -54q0 -29 -8 -44t-37 -25l-15 -5q-27 -9 -33 -14t-6 -20h-39v10z" />
    <glyph glyph-name="uni1EEE" unicode="&#x1eee;" horiz-adv-x="517" 
d="M538 785v-33q0 -40 -7 -60t-26 -28.5t-57 -9.5v-357q0 -133 -12 -193.5t-51 -86t-126 -25.5q-88 0 -127 25.5t-51 86t-12 193.5v391h58v-424q0 -99 7.5 -141.5t34.5 -60t90 -17.5q62 0 88.5 17.5t34 60t7.5 141.5v424h54q33 0 42.5 11.5t9.5 43.5v42h43zM384.5 807
q-10.5 -22 -46.5 -22q-19 0 -37.5 6t-48.5 18q-24 11 -39.5 16.5t-30.5 5.5t-19.5 -12t-4.5 -45h-37q0 58 11 80.5t47 22.5q20 0 39.5 -6.5t48.5 -19.5q25 -10 39.5 -15t28.5 -5q15 0 19 11.5t4 45.5h37q0 -59 -10.5 -81z" />
    <glyph glyph-name="uni1EEF" unicode="&#x1eef;" horiz-adv-x="455" 
d="M476 607v-33q0 -39 -7 -59.5t-25.5 -29t-56.5 -9.5v-476h-47l-4 73h-5q-12 -38 -41.5 -59.5t-88.5 -21.5q-58 0 -87.5 19.5t-39.5 60.5t-10 117v321h56v-304q0 -75 7.5 -108t27.5 -44t66 -11q51 0 75 24.5t29.5 64.5t5.5 114v264h50q33 0 42.5 11.5t9.5 43.5v42h43z
M352.5 662q-10.5 -22 -46.5 -22q-19 0 -37.5 6t-48.5 18q-24 11 -39.5 16.5t-30.5 5.5t-19.5 -12t-4.5 -45h-37q0 58 11 80.5t47 22.5q20 0 39.5 -6.5t48.5 -19.5q25 -10 39.5 -15t28.5 -5q15 0 19 11.5t4 45.5h37q0 -59 -10.5 -81z" />
    <glyph glyph-name="uni1EF0" unicode="&#x1ef0;" horiz-adv-x="517" 
d="M538 785v-33q0 -40 -7 -60t-26 -28.5t-57 -9.5v-357q0 -133 -12 -193.5t-51 -86t-126 -25.5q-88 0 -127 25.5t-51 86t-12 193.5v391h58v-424q0 -99 7.5 -141.5t34.5 -60t90 -17.5q62 0 88.5 17.5t34 60t7.5 141.5v424h54q33 0 42.5 11.5t9.5 43.5v42h43zM226 -142v80h66
v-80h-66z" />
    <glyph glyph-name="uni1EF1" unicode="&#x1ef1;" horiz-adv-x="455" 
d="M476 607v-33q0 -39 -7 -59.5t-25.5 -29t-56.5 -9.5v-476h-47l-4 73h-5q-12 -38 -41.5 -59.5t-88.5 -21.5q-58 0 -87.5 19.5t-39.5 60.5t-10 117v321h56v-304q0 -75 7.5 -108t27.5 -44t66 -11q51 0 75 24.5t29.5 64.5t5.5 114v264h50q33 0 42.5 11.5t9.5 43.5v42h43z
M182 -142v80h66v-80h-66z" />
    <glyph glyph-name="Ygrave" unicode="&#x1ef2;" horiz-adv-x="428" 
d="M184 0v271l-180 417h62l146 -344h6l146 344h60l-181 -417v-271h-59zM198 748l-76 135v5h62l55 -135v-5h-41z" />
    <glyph glyph-name="ygrave" unicode="&#x1ef3;" horiz-adv-x="455" 
d="M77 -194v48q70 -4 120 -4q61 0 89.5 19t36.5 59.5t8 121.5v17h-4q-12 -34 -40 -54t-88 -20q-58 0 -86.5 20t-38.5 62t-10 120v315h56v-304q0 -74 7.5 -107t27.5 -44t66 -11q52 0 75.5 24t29 63.5t5.5 114.5v264h56v-438q0 -107 -13 -163t-51.5 -82t-116.5 -26
q-69 0 -129 5zM209 603l-76 135v5h62l55 -135v-5h-41z" />
    <glyph glyph-name="uni1EF4" unicode="&#x1ef4;" horiz-adv-x="428" 
d="M184 0v271l-180 417h62l146 -344h6l146 344h60l-181 -417v-271h-59zM181 -142v80h66v-80h-66z" />
    <glyph glyph-name="uni1EF5" unicode="&#x1ef5;" horiz-adv-x="455" 
d="M77 -194v48q70 -4 120 -4q61 0 89.5 19t36.5 59.5t8 121.5v17h-4q-12 -34 -40 -54t-88 -20q-58 0 -86.5 20t-38.5 62t-10 120v315h56v-304q0 -74 7.5 -107t27.5 -44t66 -11q52 0 75.5 24t29 63.5t5.5 114.5v264h56v-438q0 -107 -13 -163t-51.5 -82t-116.5 -26
q-69 0 -129 5zM173 -341v80h66v-80h-66z" />
    <glyph glyph-name="uni1EF6" unicode="&#x1ef6;" horiz-adv-x="428" 
d="M184 0v271l-180 417h62l146 -344h6l146 344h60l-181 -417v-271h-59zM172 746q0 23 8 32t30 15l15 5q25 8 33.5 15.5t8.5 25.5q0 16 -4.5 23t-18.5 10t-43 3q-31 0 -84 -5v37q51 7 90 7q59 0 81 -15t22 -54q0 -29 -8 -44.5t-37 -25.5l-15 -5q-20 -6 -27.5 -10t-9.5 -8.5
t-2 -15.5h-39v10z" />
    <glyph glyph-name="uni1EF7" unicode="&#x1ef7;" horiz-adv-x="455" 
d="M77 -194v48q70 -4 120 -4q61 0 89.5 19t36.5 59.5t8 121.5v17h-4q-12 -34 -40 -54t-88 -20q-58 0 -86.5 20t-38.5 62t-10 120v315h56v-304q0 -74 7.5 -107t27.5 -44t66 -11q52 0 75.5 24t29 63.5t5.5 114.5v264h56v-438q0 -107 -13 -163t-51.5 -82t-116.5 -26
q-69 0 -129 5zM185 620q0 22 8 31t30 16l15 4q25 8 33.5 15.5t8.5 26.5q0 15 -4.5 22.5t-18.5 10t-43 2.5q-20 0 -84 -4v36q51 7 90 7q59 0 81 -15t22 -54q0 -29 -8 -44t-37 -25l-15 -5q-27 -9 -33 -14t-6 -20h-39v10z" />
    <glyph glyph-name="uni1EF8" unicode="&#x1ef8;" horiz-adv-x="428" 
d="M184 0v271l-180 417h62l146 -344h6l146 344h60l-181 -417v-271h-59zM339.5 807q-10.5 -22 -46.5 -22q-19 0 -37.5 6t-48.5 18q-24 11 -39.5 16.5t-30.5 5.5t-19.5 -12t-4.5 -45h-37q0 58 11 80.5t47 22.5q20 0 39.5 -6.5t48.5 -19.5q25 -10 39.5 -15t28.5 -5
q15 0 19 11.5t4 45.5h37q0 -59 -10.5 -81z" />
    <glyph glyph-name="uni1EF9" unicode="&#x1ef9;" horiz-adv-x="455" 
d="M77 -194v48q70 -4 120 -4q61 0 89.5 19t36.5 59.5t8 121.5v17h-4q-12 -34 -40 -54t-88 -20q-58 0 -86.5 20t-38.5 62t-10 120v315h56v-304q0 -74 7.5 -107t27.5 -44t66 -11q52 0 75.5 24t29 63.5t5.5 114.5v264h56v-438q0 -107 -13 -163t-51.5 -82t-116.5 -26
q-69 0 -129 5zM352.5 662q-10.5 -22 -46.5 -22q-19 0 -37.5 6t-48.5 18q-24 11 -39.5 16.5t-30.5 5.5t-19.5 -12t-4.5 -45h-37q0 58 11 80.5t47 22.5q20 0 39.5 -6.5t48.5 -19.5q25 -10 39.5 -15t28.5 -5q15 0 19 11.5t4 45.5h37q0 -59 -10.5 -81z" />
    <glyph glyph-name="uni2002" unicode="&#x2002;" horiz-adv-x="300" 
 />
    <glyph glyph-name="endash" unicode="&#x2013;" horiz-adv-x="426" 
d="M58 279v50h310v-50h-310z" />
    <glyph glyph-name="emdash" unicode="&#x2014;" horiz-adv-x="824" 
d="M58 279v50h708v-50h-708z" />
    <glyph glyph-name="underscoredbl" unicode="&#x2017;" horiz-adv-x="310" 
d="M0 -260v48h310v-48h-310zM0 -159v48h310v-48h-310z" />
    <glyph glyph-name="quoteleft" unicode="&#x2018;" horiz-adv-x="162" 
d="M45 578q0 46 6.5 68.5t25 32t56.5 9.5v-29q-32 0 -40.5 -12.5t-8.5 -50.5v-17h27v-79h-66v78z" />
    <glyph glyph-name="quoteright" unicode="&#x2019;" horiz-adv-x="162" 
d="M69.5 541.5q8.5 12.5 8.5 51.5v17h-28v78h67v-77q0 -46 -6.5 -69t-25 -32.5t-56.5 -9.5v29q32 0 40.5 12.5z" />
    <glyph glyph-name="quotesinglbase" unicode="&#x201a;" horiz-adv-x="178" 
d="M66.5 -74.5q10.5 5.5 13.5 18t3 39.5v17h-28v78h67v-77q0 -46 -6.5 -69t-25 -32t-56.5 -9v29q22 0 32.5 5.5z" />
    <glyph glyph-name="quotedblleft" unicode="&#x201c;" horiz-adv-x="287" 
d="M45 578q0 46 6.5 68.5t25 32t56.5 9.5v-29q-32 0 -40.5 -12.5t-8.5 -50.5v-17h27v-79h-66v78zM171 578q0 46 6.5 68.5t24.5 32t56 9.5v-29q-32 0 -40.5 -12.5t-8.5 -50.5v-17h28v-79h-66v78z" />
    <glyph glyph-name="quotedblright" unicode="&#x201d;" horiz-adv-x="287" 
d="M69.5 541.5q8.5 12.5 8.5 51.5v17h-28v78h67v-77q0 -46 -6.5 -69t-25 -32.5t-56.5 -9.5v29q32 0 40.5 12.5zM195.5 541.5q8.5 12.5 8.5 51.5v17h-28v78h66v-77q0 -46 -6.5 -69t-24.5 -32.5t-56 -9.5v29q32 0 40.5 12.5z" />
    <glyph glyph-name="quotedblbase" unicode="&#x201e;" horiz-adv-x="304" 
d="M66.5 -74.5q10.5 5.5 13.5 18t3 39.5v17h-28v78h67v-77q0 -46 -6.5 -69t-25 -32t-56.5 -9v29q22 0 32.5 5.5zM192 -74.5q10 5.5 13 18t3 39.5v17h-27v78h66v-77q0 -46 -6.5 -69t-24.5 -32t-56 -9v29q22 0 32 5.5z" />
    <glyph glyph-name="dagger" unicode="&#x2020;" horiz-adv-x="335" 
d="M146 0l-7 457l-94 7v37l94 7l7 180h39l6 -180l100 -7v-37l-100 -7l-6 -457h-39z" />
    <glyph glyph-name="daggerdbl" unicode="&#x2021;" horiz-adv-x="335" 
d="M146 0l-7 180l-94 6v38l94 7v226l-94 7v37l94 7l7 180h39l6 -180l100 -7v-37l-100 -7v-226l100 -7v-38l-100 -6l-6 -180h-39z" />
    <glyph glyph-name="bullet" unicode="&#x2022;" horiz-adv-x="295" 
d="M230 284.5q-5 -16.5 -22.5 -23t-61.5 -6.5q-42 0 -59.5 6.5t-22 23t-4.5 57.5q0 43 4.5 60t22 23.5t59.5 6.5q44 0 61.5 -6.5t22.5 -23.5t5 -60q0 -41 -5 -57.5z" />
    <glyph glyph-name="ellipsis" unicode="&#x2026;" horiz-adv-x="540" 
d="M57 0v80h66v-80h-66zM236 0v80h67v-80h-67zM416 0v80h67v-80h-67z" />
    <glyph glyph-name="perthousand" unicode="&#x2030;" horiz-adv-x="746" 
d="M83 372.5q-19 13.5 -25.5 47.5t-6.5 107q0 74 6.5 108t25.5 47.5t61 13.5t61 -13.5t25.5 -47.5t6.5 -108q0 -73 -6.5 -107t-25.5 -47.5t-61 -13.5t-61 13.5zM73 0l336 688h44l-336 -688h-44zM179 404q10 7 13.5 32.5t3.5 90.5q0 66 -3.5 91.5t-13 32.5t-35.5 7
q-25 0 -35 -7t-13.5 -33t-3.5 -91q0 -64 3.5 -90t13.5 -33t35 -7t35 7zM321 5q-19 13 -25.5 47t-6.5 108t6.5 108t25.5 47.5t61 13.5t61 -13.5t25 -47.5t6 -108t-6 -108t-25 -47t-61 -13t-61 13zM541.5 5q-18.5 13 -25 47t-6.5 108t6.5 108t25.5 47.5t60 13.5q42 0 61 -13.5
t25.5 -47.5t6.5 -108t-6.5 -108t-25.5 -47t-61 -13t-60.5 13zM416.5 37q9.5 7 13 32.5t3.5 90.5q0 66 -3 91.5t-13 32.5t-35 7t-35 -7t-13.5 -33t-3.5 -91t3.5 -90.5t13.5 -32.5t35 -7t34.5 7zM637 37q10 7 13.5 32.5t3.5 90.5q0 66 -3.5 91.5t-13 32.5t-35.5 7
q-25 0 -35 -7t-13.5 -33t-3.5 -91q0 -64 3.5 -90t13.5 -33t35 -7t35 7z" />
    <glyph glyph-name="minute" unicode="&#x2032;" horiz-adv-x="153" 
d="M39 389l17 299h57l-8 -142l-27 -157h-39z" />
    <glyph glyph-name="second" unicode="&#x2033;" horiz-adv-x="268" 
d="M154 389l17 299h57l-8 -142l-27 -157h-39zM39 389l17 299h57l-8 -142l-27 -157h-39z" />
    <glyph glyph-name="guilsinglleft" unicode="&#x2039;" horiz-adv-x="228" 
d="M130 101l-97 204l97 205h43l-84 -205l84 -204h-43z" />
    <glyph glyph-name="guilsinglright" unicode="&#x203a;" horiz-adv-x="228" 
d="M55 101l84 204l-84 205h43l98 -205l-98 -204h-43z" />
    <glyph glyph-name="exclamdbl" unicode="&#x203c;" horiz-adv-x="362" 
d="M241 309q-7 222 -7 255v124h64v-124q0 -45 -6 -207l-5 -173h-42zM232 0v80h67v-80h-67zM73 309q-7 222 -7 255v124h64v-124q0 -45 -6 -207l-5 -173h-42zM64 0v80h67v-80h-67z" />
    <glyph glyph-name="fraction" unicode="&#x2044;" horiz-adv-x="117" 
d="M-129 0l331 688h45l-331 -688h-45z" />
    <glyph glyph-name="Euro" unicode="&#x20ac;" horiz-adv-x="447" 
d="M174.5 11q-39.5 19 -57 72t-21.5 164h-59v44h58v109h-58v43h59q4 108 22 161t57.5 72.5t117.5 19.5q29 0 59.5 -4t47.5 -9v-50q-18 4 -45.5 7t-49.5 3q-64 0 -93.5 -13.5t-42 -54.5t-15.5 -132h207v-43h-207v-109h207v-44h-207q3 -92 15.5 -133.5t42 -55t93.5 -13.5
q25 0 52.5 3t45.5 7v-52q-53 -11 -110 -11q-79 0 -118.5 19z" />
    <glyph glyph-name="uni20B2" unicode="&#x20b2;" horiz-adv-x="477" 
d="M421 368v-69q0 -97 -8.5 -141t-39.5 -63.5t-101 -22.5v-80h-48v80q-71 3 -105.5 25t-48 78t-13.5 169q0 112 13.5 167.5t48 78t105.5 25.5v81h48v-80q75 -3 132 -18v-50q-33 7 -69.5 11t-61.5 4h-1v-195h149zM123.5 205q7.5 -44 29.5 -61t71 -19v437q-48 -3 -70 -19.5
t-30 -60t-8 -138.5t7.5 -139zM363 316h-91v-191q44 2 62 14.5t23.5 45t5.5 109.5v22z" />
    <glyph glyph-name="uni2113" unicode="&#x2113;" horiz-adv-x="349" 
d="M140 112q9 -37 23.5 -51.5t37.5 -14.5q20 0 42.5 10t53.5 34v-60q-51 -37 -102 -37q-57 0 -85 42t-37 147q-24 -12 -56 -20v54q32 11 53 23q-2 27 -2 89q0 134 12.5 213.5t40.5 116.5t78 37q49 0 73.5 -34.5t24.5 -96.5q0 -93 -46 -191.5t-123 -156.5q3 -67 12 -104z
M156 611.5q-16 -30.5 -23 -98t-7 -181.5v-49q53 53 84 131t31 149q0 79 -43 79q-26 0 -42 -30.5z" />
    <glyph glyph-name="uni2116" unicode="&#x2116;" horiz-adv-x="795" 
d="M561.5 410q-21.5 13 -27.5 42t-6 94t6 94.5t27.5 42.5t70.5 13q48 0 69.5 -13t27.5 -42.5t6 -94.5t-6 -94t-27.5 -42t-69.5 -13q-49 0 -70.5 13zM395 0l-260 559h-4v-559h-56v688h63l257 -554h4v554h57v-688h-61zM673 444q12 9 14.5 29.5t2.5 72.5t-2.5 72.5t-14.5 29.5
t-41 9q-30 0 -42 -9t-15 -29.5t-3 -72.5t3 -72.5t15 -29.5t42 -9q29 0 41 9zM537 229v48h195v-48h-195z" />
    <glyph glyph-name="trademark" unicode="&#x2122;" horiz-adv-x="550" 
d="M105 384v274h-70v30h171v-30h-69v-274h-32zM250 384v304h46l70 -250h4l68 250h46v-304h-32v242h-4l-66 -242h-30l-67 241h-4v-241h-31z" />
    <glyph glyph-name="uni2126" unicode="&#x2126;" horiz-adv-x="528" 
d="M62 52h5q16 -2 56 -8l30 -4v6q-39 17 -59 56.5t-26.5 100t-6.5 159.5q0 146 12 211.5t54 94t137 28.5t137 -28.5t54 -94t12 -211.5q0 -98 -6.5 -159t-26.5 -100.5t-59 -56.5v-6l30 4q40 6 56 8h4v-52h-168v48q51 11 74 40t30 88t7 183q0 137 -8.5 192t-37 73.5
t-98.5 18.5t-98.5 -18.5t-37 -73.5t-8.5 -192q0 -124 7 -183t30 -88t73 -40v-48h-168v52z" />
    <glyph glyph-name="estimated" unicode="&#x212e;" horiz-adv-x="521" 
d="M127 116q10 -59 37.5 -74.5t98.5 -15.5q65 0 95 10t45 46t19 118h36q-5 -89 -22.5 -132.5t-57 -59.5t-118.5 -16q-96 0 -137 26t-53.5 95t-12.5 231t12.5 231t53.5 95t137 26q97 0 138 -26t53.5 -95t12.5 -231v-21h-348q1 -148 11 -207zM163 646q-27 -16 -37 -76.5
t-10 -212.5h289q0 152 -10 212.5t-37.5 76.5t-97.5 16t-97 -16z" />
    <glyph glyph-name="uni2153" unicode="&#x2153;" horiz-adv-x="589" 
d="M98 318v314l-53 -26v42l65 40h32v-370h-44zM58 0l331 688h45l-331 -688h-45zM424 33q35 0 50 13t15 53q0 37 -11 53t-36 16h-55v40h55q44 0 44 64q0 39 -14.5 52t-51.5 13q-23 0 -77 -7v39q50 10 85 10q57 0 79.5 -23.5t22.5 -79.5q0 -34 -10.5 -53.5t-33.5 -30.5v-4
q48 -18 48 -88q0 -56 -21.5 -82t-85.5 -26q-35 0 -85 9v39q58 -7 82 -7z" />
    <glyph glyph-name="uni2154" unicode="&#x2154;" horiz-adv-x="641" 
d="M242 318h-193v44q0 44 2 64t10 32.5t26 24.5q51 31 80 47q18 11 24 24.5t6 39.5q0 36 -12 48.5t-46 12.5q-31 0 -85 -8v40q44 9 93 9q31 0 51 -6.5t32 -27.5t12 -63q0 -44 -11.5 -66t-39.5 -38l-76 -45q-14 -9 -18.5 -20t-4.5 -41v-30h150v-41zM457 688h45l-331 -688h-45
zM586 100q0 -56 -21.5 -82t-84.5 -26q-34 0 -86 9v39q58 -7 83 -7q34 0 49.5 13t15.5 53q0 36 -11.5 52.5t-35.5 16.5h-56v40h56q43 0 43 64q0 39 -14.5 52t-50.5 13q-23 0 -77 -7v39q50 10 84 10q58 0 80.5 -23.5t22.5 -79.5q0 -34 -11 -53.5t-34 -30.5v-4q48 -18 48 -88z
" />
    <glyph glyph-name="oneeighth" unicode="&#x215b;" horiz-adv-x="606" 
d="M98 318v314l-53 -26v42l65 40h32v-370h-44zM58 0l331 688h45l-331 -688h-45zM364.5 7q-24.5 11 -34 33.5t-9.5 60.5q0 46 12.5 64.5t41.5 26.5v2q-27 6 -39.5 27t-12.5 62q0 55 24.5 77t88.5 22q63 0 87.5 -22t24.5 -77q0 -41 -12.5 -62t-39.5 -27v-2q29 -8 42 -27
t13 -64q0 -38 -9.5 -60.5t-34.5 -33.5t-71 -11q-47 0 -71.5 11zM490.5 223q13.5 13 13.5 54t-13 54t-55 13q-29 0 -43.5 -5.5t-20 -19.5t-5.5 -42q0 -41 13.5 -54t55.5 -13q41 0 54.5 13zM479.5 40q14.5 5 21 19t6.5 44q0 31 -6 45t-20.5 19t-44.5 5q-31 0 -45.5 -5
t-20.5 -19t-6 -45q0 -30 6.5 -44t21.5 -19t44 -5t43.5 5z" />
    <glyph glyph-name="threeeighths" unicode="&#x215c;" horiz-adv-x="672" 
d="M20 312v37q56 -6 84 -6q41 0 58.5 13t17.5 54q0 39 -13 54.5t-43 15.5h-56v39h56q25 0 39 14t14 52q0 29 -7.5 42.5t-23.5 18t-46 4.5q-48 0 -78 -5v37q38 8 89 8q61 0 85 -22.5t24 -76.5q0 -40 -13 -61t-39 -28v-2q28 -6 42 -26.5t14 -64.5q0 -55 -24 -80t-90 -25
q-47 0 -90 8zM128 0l331 688h45l-331 -688h-45zM451.5 7q-24.5 11 -34 33.5t-9.5 60.5q0 46 12.5 64.5t41.5 26.5v2q-27 6 -39.5 27t-12.5 62q0 55 24.5 77t88.5 22q63 0 87.5 -22t24.5 -77q0 -41 -12.5 -62t-39.5 -27v-2q29 -8 42 -27t13 -64q0 -38 -9.5 -60.5t-34.5 -33.5
t-71 -11q-47 0 -71.5 11zM577.5 223q13.5 13 13.5 54t-13 54t-55 13q-29 0 -43.5 -5.5t-20 -19.5t-5.5 -42q0 -41 13.5 -54t55.5 -13q41 0 54.5 13zM566.5 40q14.5 5 21 19t6.5 44q0 31 -6 45t-20.5 19t-44.5 5q-31 0 -45.5 -5t-20.5 -19t-6 -45q0 -30 6.5 -44t21.5 -19
t44 -5t43.5 5z" />
    <glyph glyph-name="fiveeighths" unicode="&#x215d;" horiz-adv-x="682" 
d="M118 343q33 0 49 7t22.5 23t6.5 47q0 33 -7 48.5t-23.5 20.5t-52.5 5q-35 0 -74 -6v198h180v-40h-139v-117q23 5 60 5q42 0 63.5 -12t29 -35.5t7.5 -61.5q0 -45 -9.5 -71t-34 -38t-70.5 -12q-48 0 -90 8v37q56 -6 82 -6zM138 0l331 688h45l-331 -688h-45zM461.5 7
q-24.5 11 -34 33.5t-9.5 60.5q0 46 12.5 64.5t41.5 26.5v2q-27 6 -39.5 27t-12.5 62q0 55 24.5 77t88.5 22q63 0 87.5 -22t24.5 -77q0 -41 -12.5 -62t-39.5 -27v-2q29 -8 42 -27t13 -64q0 -38 -9.5 -60.5t-34.5 -33.5t-71 -11q-47 0 -71.5 11zM587.5 223q13.5 13 13.5 54
t-13 54t-55 13q-29 0 -43.5 -5.5t-20 -19.5t-5.5 -42q0 -41 13.5 -54t55.5 -13q41 0 54.5 13zM576.5 40q14.5 5 21 19t6.5 44q0 31 -6 45t-20.5 19t-44.5 5q-31 0 -45.5 -5t-20.5 -19t-6 -45q0 -30 6.5 -44t21.5 -19t44 -5t43.5 5z" />
    <glyph glyph-name="seveneighths" unicode="&#x215e;" horiz-adv-x="623" 
d="M55 308l123 338h-161v40h207v-35l-122 -343h-47zM79 0l331 688h45l-331 -688h-45zM402.5 7q-24.5 11 -34 33.5t-9.5 60.5q0 46 12.5 64.5t41.5 26.5v2q-27 6 -39.5 27t-12.5 62q0 55 24.5 77t88.5 22q63 0 87.5 -22t24.5 -77q0 -41 -12.5 -62t-39.5 -27v-2q29 -8 42 -27
t13 -64q0 -38 -9.5 -60.5t-34.5 -33.5t-71 -11q-47 0 -71.5 11zM528.5 223q13.5 13 13.5 54t-13 54t-55 13q-29 0 -43.5 -5.5t-20 -19.5t-5.5 -42q0 -41 13.5 -54t55.5 -13q41 0 54.5 13zM517.5 40q14.5 5 21 19t6.5 44q0 31 -6 45t-20.5 19t-44.5 5q-31 0 -45.5 -5
t-20.5 -19t-6 -45q0 -30 6.5 -44t21.5 -19t44 -5t43.5 5z" />
    <glyph glyph-name="arrowleft" unicode="&#x2190;" horiz-adv-x="883" 
d="M271 279l40 -95l-256 120l256 121l-40 -96h557v-50h-557z" />
    <glyph glyph-name="arrowup" unicode="&#x2191;" horiz-adv-x="395" 
d="M173 -81v548l-96 -39l121 263l120 -263l-95 39v-548h-50z" />
    <glyph glyph-name="arrowright" unicode="&#x2192;" horiz-adv-x="883" 
d="M565 184l39 95h-549v50h549l-39 96l263 -121z" />
    <glyph glyph-name="arrowdown" unicode="&#x2193;" horiz-adv-x="395" 
d="M198 -85l-121 263l96 -40v550h50v-550l95 40z" />
    <glyph glyph-name="arrowboth" unicode="&#x2194;" horiz-adv-x="883" 
d="M318 184l-263 120l263 121l-40 -96h326l-39 96l263 -121l-263 -120l39 95h-326z" />
    <glyph glyph-name="arrowupdn" unicode="&#x2195;" horiz-adv-x="395" 
d="M198 -85l-121 263l96 -40v334l-96 -39l121 263l120 -263l-95 39v-334l95 40z" />
    <glyph glyph-name="arrowupdnbse" unicode="&#x21a8;" horiz-adv-x="395" 
d="M198 -85l-121 263l96 -40v334l-96 -39l121 263l120 -263l-95 39v-334l95 40zM55 -173v47h285v-47h-285z" />
    <glyph glyph-name="partialdiff" unicode="&#x2202;" horiz-adv-x="441" 
d="M105 13.5q-35 21.5 -45 73t-10 167.5q0 115 9.5 167t42 74.5t107.5 22.5q66 0 102 -31l4 2q-38 153 -127 250v4h62q49 -51 84 -135.5t45 -169.5q11 -91 11 -163q0 -129 -8.5 -182.5t-43.5 -77t-118 -23.5q-80 0 -115 21.5zM301 57.5q23 16.5 28 55.5t5 141
q0 91 -5.5 131.5t-29.5 62t-79 21.5q-58 0 -81 -15.5t-28 -54.5t-5 -145q0 -102 5 -141t28 -55.5t81 -16.5t81 16.5z" />
    <glyph glyph-name="uni2206" unicode="&#x2206;" horiz-adv-x="494" 
d="M22 0l188 688h74l188 -688h-450zM249 610h-5l-150 -558h304z" />
    <glyph glyph-name="product" unicode="&#x220f;" horiz-adv-x="530" 
d="M397 -190v825h-265v-825h-57v878h380v-878h-58z" />
    <glyph glyph-name="summation" unicode="&#x2211;" horiz-adv-x="522" 
d="M71 -190v49l229 390l-229 390v49h380v-53h-311l229 -386l-229 -386h311v-53h-380z" />
    <glyph glyph-name="minus" unicode="&#x2212;" horiz-adv-x="485" 
d="M63 229v48h359v-48h-359z" />
    <glyph glyph-name="radical" unicode="&#x221a;" horiz-adv-x="469" 
d="M210 -106l-133 365l-46 -21l-15 39l97 45l127 -361l151 809h55l-168 -876h-68z" />
    <glyph glyph-name="infinity" unicode="&#x221e;" horiz-adv-x="792" 
d="M89.5 103q-35.5 50 -35.5 153t35.5 153t126.5 50q75 0 115 -37t65 -103q25 66 65.5 103t115.5 37q91 0 126 -50t35 -153q0 -104 -35 -153.5t-126 -49.5q-75 0 -116 37t-65 103q-24 -66 -64.5 -103t-115.5 -37q-91 0 -126.5 50zM317 141.5q33 41.5 52 114.5
q-19 73 -52 114.5t-99 41.5q-65 0 -89 -38t-24 -118t24 -118t89 -38q66 0 99 41.5zM663.5 138q23.5 38 23.5 118t-23.5 118t-88.5 38q-66 0 -99.5 -41.5t-52.5 -114.5q19 -73 52.5 -114.5t99.5 -41.5q65 0 88.5 38z" />
    <glyph glyph-name="integral" unicode="&#x222b;" horiz-adv-x="339" 
d="M56 -145q41 0 63 4.5t31 16.5t9 34l-4 79l-35 567l-2 37q0 46 18 68t50.5 28.5t92.5 6.5v-45q-42 0 -63.5 -4.5t-30.5 -16.5t-9 -35l1 -35l35 -570q3 -62 3 -77q0 -47 -17.5 -69t-49.5 -28t-92 -6v45z" />
    <glyph glyph-name="approxequal" unicode="&#x2248;" horiz-adv-x="436" 
d="M66.5 345q4.5 21 19 31.5t43.5 10.5q22 0 42.5 -6t56.5 -19q28 -11 44.5 -16t31.5 -5q21 0 27 12t6 45h37q0 -40 -4.5 -61t-19 -31.5t-43.5 -10.5q-37 0 -98 26q-28 11 -44.5 16t-32.5 5q-21 0 -27 -12t-6 -46h-37q0 40 4.5 61zM66.5 170q4.5 21 19 31.5t43.5 10.5
q22 0 44 -6.5t55 -19.5q8 -3 33 -12t43 -9q21 0 27 12.5t6 45.5h37q0 -40 -4.5 -61t-19 -31.5t-43.5 -10.5q-22 0 -44.5 6.5t-54.5 18.5q-48 21 -76 21q-21 0 -27 -12t-6 -45h-37q0 40 4.5 61z" />
    <glyph glyph-name="notequal" unicode="&#x2260;" horiz-adv-x="485" 
d="M206 139l-59 -118h-48l60 118h-96v48h119l67 132h-186v48h210l62 122h48l-62 -122h101v-48h-125l-67 -132h192v-48h-216z" />
    <glyph glyph-name="lessequal" unicode="&#x2264;" horiz-adv-x="485" 
d="M423 187l-360 157v60l360 157v-53l-308 -134l308 -135v-52zM63 30v49h359v-49h-359z" />
    <glyph glyph-name="greaterequal" unicode="&#x2265;" horiz-adv-x="485" 
d="M63 187v52l307 135l-307 134v53l359 -157v-60zM63 30v49h360v-49h-360z" />
    <glyph glyph-name="house" unicode="&#x2302;" horiz-adv-x="521" 
d="M34 0v377l203 319h47l203 -319v-377h-453zM86 45h349l1 321l-175 276l-175 -276v-321z" />
    <glyph glyph-name="lozenge" unicode="&#x25ca;" horiz-adv-x="433" 
d="M189 0l-140 344l140 345h55l139 -345l-139 -344h-55zM216 52l116 292l-116 293l-116 -293z" />
    <glyph glyph-name="uniA78B" unicode="&#xa78b;" horiz-adv-x="106" 
d="M24 289v399h57v-177l-18 -222h-39z" />
    <glyph glyph-name="uniA78C" unicode="&#xa78c;" horiz-adv-x="106" 
d="M24 289v454h57v-232l-18 -222h-39z" />
    <glyph glyph-name="uniF8FF" unicode="&#xf8ff;" horiz-adv-x="841" 
d="M72 0v698h697v-698h-697zM594.5 473.5q-23.5 41.5 -68 65.5t-104.5 24q-61 0 -105.5 -24t-68.5 -65.5t-24 -91.5v-66q0 -50 24 -91.5t68.5 -65.5t105.5 -24q60 0 104.5 24t68 65.5t23.5 91.5v66q0 50 -23.5 91.5zM465 247.5q-18 -17.5 -43 -17.5q-26 0 -44 17.5t-18 42.5
v118q0 25 18 42.5t44 17.5q25 0 43 -17.5t18 -42.5v-118q0 -25 -18 -42.5z" />
    <glyph glyph-name="Iacute_J.loclNLD" horiz-adv-x="454" 
d="M78 0v688h58v-688h-58zM81 748v5l56 135h61v-5l-76 -135h-41zM299.5 63q17.5 10 22 42.5t4.5 129.5v453h59v-440q0 -127 -8 -173.5t-37 -60t-109 -14.5v51q51 2 68.5 12zM330 748v5l56 135h61v-5l-76 -135h-41z" />
    <glyph glyph-name="G_tilde.loclGUA" horiz-adv-x="484" 
d="M253 307v52h172v-349q-36 -8 -79.5 -13t-78.5 -5q-90 0 -133 26t-60 98.5t-17 227.5q0 153 16.5 225.5t60 99.5t134.5 27q39 0 82.5 -5.5t72.5 -13.5v-49q-30 6 -67 10.5t-61 4.5q-84 0 -118 -15.5t-47.5 -75.5t-13.5 -208q0 -136 10 -196t40.5 -82t100.5 -22
q25 0 53.5 3t46.5 7v253h-114zM367.5 807q-10.5 -22 -46.5 -22q-19 0 -37.5 6t-48.5 18q-24 11 -39.5 16.5t-30.5 5.5t-19.5 -12t-4.5 -45h-37q0 58 11 80.5t47 22.5q20 0 39.5 -6.5t48.5 -19.5q25 -10 39.5 -15t28.5 -5q15 0 19 11.5t4 45.5h37q0 -59 -10.5 -81z" />
    <glyph glyph-name="Y.loclGUA" horiz-adv-x="428" 
d="M404 688v-184q0 -125 -10 -185t-44 -88t-107 -31v-200h-59v200q-72 3 -105.5 31t-43.5 88t-10 185v184h58v-216q0 -99 7.5 -142t34.5 -60.5t89 -17.5q63 0 89.5 17.5t34 60.5t7.5 142v216h59z" />
    <glyph glyph-name="Yacute.loclGUA" horiz-adv-x="428" 
d="M404 688v-184q0 -125 -10 -185t-44 -88t-107 -31v-200h-59v200q-72 3 -105.5 31t-43.5 88t-10 185v184h58v-216q0 -99 7.5 -142t34.5 -60.5t89 -17.5q63 0 89.5 17.5t34 60.5t7.5 142v216h59zM188 748v5l56 135h61v-5l-76 -135h-41z" />
    <glyph glyph-name="Ycircumflex.loclGUA" horiz-adv-x="428" 
d="M404 688v-184q0 -125 -10 -185t-44 -88t-107 -31v-200h-59v200q-72 3 -105.5 31t-43.5 88t-10 185v184h58v-216q0 -99 7.5 -142t34.5 -60.5t89 -17.5q63 0 89.5 17.5t34 60.5t7.5 142v216h59zM103 750v5l78 133h65l78 -133v-5h-40l-70 101l-70 -101h-41z" />
    <glyph glyph-name="Ydieresis.loclGUA" horiz-adv-x="428" 
d="M404 688v-184q0 -125 -10 -185t-44 -88t-107 -31v-200h-59v200q-72 3 -105.5 31t-43.5 88t-10 185v184h58v-216q0 -99 7.5 -142t34.5 -60.5t89 -17.5q63 0 89.5 17.5t34 60.5t7.5 142v216h59zM97 805v70h57v-70h-57zM273 805v70h57v-70h-57z" />
    <glyph glyph-name="uni1EF4.loclGUA" horiz-adv-x="428" 
d="M404 688v-184q0 -125 -10 -185t-44 -88t-107 -31v-200h-59v200q-72 3 -105.5 31t-43.5 88t-10 185v184h58v-216q0 -99 7.5 -142t34.5 -60.5t89 -17.5q63 0 89.5 17.5t34 60.5t7.5 142v216h59zM181 -142v80h66v-80h-66z" />
    <glyph glyph-name="Ygrave.loclGUA" horiz-adv-x="428" 
d="M404 688v-184q0 -125 -10 -185t-44 -88t-107 -31v-200h-59v200q-72 3 -105.5 31t-43.5 88t-10 185v184h58v-216q0 -99 7.5 -142t34.5 -60.5t89 -17.5q63 0 89.5 17.5t34 60.5t7.5 142v216h59zM198 748l-76 135v5h62l55 -135v-5h-41z" />
    <glyph glyph-name="uni1EF6.loclGUA" horiz-adv-x="428" 
d="M404 688v-184q0 -125 -10 -185t-44 -88t-107 -31v-200h-59v200q-72 3 -105.5 31t-43.5 88t-10 185v184h58v-216q0 -99 7.5 -142t34.5 -60.5t89 -17.5q63 0 89.5 17.5t34 60.5t7.5 142v216h59zM172 746q0 23 8 32t30 15l15 5q25 8 33.5 15.5t8.5 25.5q0 16 -4.5 23
t-18.5 10t-43 3q-31 0 -84 -5v37q51 7 90 7q59 0 81 -15t22 -54q0 -29 -8 -44.5t-37 -25.5l-15 -5q-20 -6 -27.5 -10t-9.5 -8.5t-2 -15.5h-39v10z" />
    <glyph glyph-name="uni0232.loclGUA" horiz-adv-x="428" 
d="M404 688v-184q0 -125 -10 -185t-44 -88t-107 -31v-200h-59v200q-72 3 -105.5 31t-43.5 88t-10 185v184h58v-216q0 -99 7.5 -142t34.5 -60.5t89 -17.5q63 0 89.5 17.5t34 60.5t7.5 142v216h59zM118 834v54h191v-54h-191z" />
    <glyph glyph-name="uni1EF8.loclGUA" horiz-adv-x="428" 
d="M404 688v-184q0 -125 -10 -185t-44 -88t-107 -31v-200h-59v200q-72 3 -105.5 31t-43.5 88t-10 185v184h58v-216q0 -99 7.5 -142t34.5 -60.5t89 -17.5q63 0 89.5 17.5t34 60.5t7.5 142v216h59zM339.5 807q-10.5 -22 -46.5 -22q-19 0 -37.5 6t-48.5 18q-24 11 -39.5 16.5
t-30.5 5.5t-19.5 -12t-4.5 -45h-37q0 58 11 80.5t47 22.5q20 0 39.5 -6.5t48.5 -19.5q25 -10 39.5 -15t28.5 -5q15 0 19 11.5t4 45.5h37q0 -59 -10.5 -81z" />
    <glyph glyph-name="Cacute.loclPLK" horiz-adv-x="401" 
d="M313 -5q-31 -3 -57 -3q-89 0 -129.5 25.5t-55 97t-14.5 229.5q0 156 14.5 227.5t55 98t129.5 26.5q27 0 57.5 -4t50.5 -9v-49q-54 9 -96 9q-74 0 -103.5 -19t-39 -77.5t-9.5 -202.5t9.5 -202.5t39 -77.5t103.5 -19q51 0 98 9v-51q-22 -5 -53 -8zM174 748v5l26 135h61v-5
l-46 -135h-41z" />
    <glyph glyph-name="Nacute.loclPLK" horiz-adv-x="530" 
d="M395 0l-260 559h-4v-559h-56v688h63l257 -554h4v554h57v-688h-61zM239 748v5l26 135h61v-5l-46 -135h-41z" />
    <glyph glyph-name="Oacute.loclPLK" horiz-adv-x="521" 
d="M123 18q-41 26 -53.5 95t-12.5 231t12.5 231t53.5 95t137 26q97 0 138 -26t53 -94.5t12 -231.5t-12 -231.5t-53 -94.5t-138 -26q-96 0 -137 26zM358 60.5q27 15.5 36.5 74.5t9.5 209t-9.5 209t-36.5 74.5t-98 15.5t-98 -15.5t-36.5 -74.5t-9.5 -209t9.5 -209t36.5 -74.5
t98 -15.5t98 15.5zM234 748v5l26 135h61v-5l-46 -135h-41z" />
    <glyph glyph-name="Sacute.loclPLK" horiz-adv-x="444" 
d="M138.5 -4.5q-46.5 3.5 -80.5 9.5v52q35 -5 77.5 -8.5t72.5 -3.5q40 0 64.5 5.5t42.5 20.5q16 13 21 41t5 74q0 61 -4 84.5t-20 33t-57 16.5l-123 19q-42 6 -62 27t-25.5 53.5t-5.5 89.5q0 101 42.5 144t139.5 43q41 0 82.5 -4t65.5 -10v-51q-28 5 -66 8.5t-70 3.5
q-45 0 -71.5 -7.5t-40.5 -24.5t-18.5 -40.5t-4.5 -61.5q0 -49 4.5 -71t17 -31t42.5 -14l116 -18q45 -8 69.5 -22t37.5 -48q10 -26 10 -112q0 -75 -16 -118t-53.5 -63t-104.5 -20q-41 0 -87.5 3.5zM196 748v5l26 135h61v-5l-46 -135h-41z" />
    <glyph glyph-name="Zacute.loclPLK" horiz-adv-x="422" 
d="M31 0v50l288 585h-280v53h348v-49l-287 -587h292v-52h-361zM185 748v5l26 135h61v-5l-46 -135h-41z" />
    <glyph glyph-name="A.ss01" horiz-adv-x="517" 
d="M389 257h-262v-257h-58v391q0 132 12 193t51 86.5t126 25.5q88 0 127 -25.5t51 -86.5t12 -193v-391h-59v257zM381.5 565.5q-7.5 42.5 -34 60t-89.5 17.5q-62 0 -89 -17.5t-34.5 -60t-7.5 -141.5v-113h262v113q0 99 -7.5 141.5z" />
    <glyph glyph-name="Aacute.ss01" horiz-adv-x="517" 
d="M389 257h-262v-257h-58v391q0 132 12 193t51 86.5t126 25.5q88 0 127 -25.5t51 -86.5t12 -193v-391h-59v257zM381.5 565.5q-7.5 42.5 -34 60t-89.5 17.5q-62 0 -89 -17.5t-34.5 -60t-7.5 -141.5v-113h262v113q0 99 -7.5 141.5zM229 749v5l56 135h61v-5l-76 -135h-41z" />
    <glyph glyph-name="Abreve.ss01" horiz-adv-x="517" 
d="M389 257h-262v-257h-58v391q0 132 12 193t51 86.5t126 25.5q88 0 127 -25.5t51 -86.5t12 -193v-391h-59v257zM381.5 565.5q-7.5 42.5 -34 60t-89.5 17.5q-62 0 -89 -17.5t-34.5 -60t-7.5 -141.5v-113h262v113q0 99 -7.5 141.5zM360.5 809.5q-6.5 -28.5 -30 -45.5
t-73.5 -17t-73 17t-29 45t-6 79h43q0 -41 3.5 -61t17 -31t44.5 -11q32 0 46 11t17.5 31t3.5 61h43q0 -50 -6.5 -78.5z" />
    <glyph glyph-name="uni1EAE.ss01" horiz-adv-x="517" 
d="M389 257h-262v-257h-58v391q0 132 12 193t51 86.5t126 25.5q88 0 127 -25.5t51 -86.5t12 -193v-391h-59v257zM381.5 565.5q-7.5 42.5 -34 60t-89.5 17.5q-62 0 -89 -17.5t-34.5 -60t-7.5 -141.5v-113h262v113q0 99 -7.5 141.5zM360.5 809.5q-6.5 -28.5 -30 -45.5
t-73.5 -17t-73 17t-29 45t-6 79h43q0 -41 3.5 -61t17 -31t44.5 -11q32 0 46 11t17.5 31t3.5 61h43q0 -50 -6.5 -78.5zM236 921v5l56 135h61v-5l-76 -135h-41z" />
    <glyph glyph-name="uni1EB6.ss01" horiz-adv-x="517" 
d="M389 257h-262v-257h-58v391q0 132 12 193t51 86.5t126 25.5q88 0 127 -25.5t51 -86.5t12 -193v-391h-59v257zM381.5 565.5q-7.5 42.5 -34 60t-89.5 17.5q-62 0 -89 -17.5t-34.5 -60t-7.5 -141.5v-113h262v113q0 99 -7.5 141.5zM360.5 809.5q-6.5 -28.5 -30 -45.5
t-73.5 -17t-73 17t-29 45t-6 79h43q0 -41 3.5 -61t17 -31t44.5 -11q32 0 46 11t17.5 31t3.5 61h43q0 -50 -6.5 -78.5zM226 -142v80h66v-80h-66z" />
    <glyph glyph-name="uni1EB0.ss01" horiz-adv-x="517" 
d="M389 257h-262v-257h-58v391q0 132 12 193t51 86.5t126 25.5q88 0 127 -25.5t51 -86.5t12 -193v-391h-59v257zM381.5 565.5q-7.5 42.5 -34 60t-89.5 17.5q-62 0 -89 -17.5t-34.5 -60t-7.5 -141.5v-113h262v113q0 99 -7.5 141.5zM362.5 809.5q-6.5 -28.5 -30 -45.5
t-73.5 -17t-73 17t-29 45t-6 79h43q0 -41 3.5 -61t17 -31t44.5 -11q32 0 46 11t17.5 31t3.5 61h43q0 -50 -6.5 -78.5zM245 921l-76 135v5h62l55 -135v-5h-41z" />
    <glyph glyph-name="uni1EB2.ss01" horiz-adv-x="517" 
d="M389 257h-262v-257h-58v391q0 132 12 193t51 86.5t126 25.5q88 0 127 -25.5t51 -86.5t12 -193v-391h-59v257zM381.5 565.5q-7.5 42.5 -34 60t-89.5 17.5q-62 0 -89 -17.5t-34.5 -60t-7.5 -141.5v-113h262v113q0 99 -7.5 141.5zM360.5 809.5q-6.5 -28.5 -30 -45.5
t-73.5 -17t-73 17t-29 45t-6 79h43q0 -41 3.5 -61t17 -31t44.5 -11q32 0 46 11t17.5 31t3.5 61h43q0 -50 -6.5 -78.5zM219 886q0 23 8 32t30 15l15 5q25 8 33.5 15.5t8.5 25.5q0 16 -4.5 23t-18.5 10t-43 3q-31 0 -84 -5v37q51 7 90 7q59 0 81 -15t22 -54q0 -29 -8 -44.5
t-37 -25.5l-15 -5q-20 -6 -27.5 -10t-9.5 -8.5t-2 -15.5h-39v10z" />
    <glyph glyph-name="uni1EB4.ss01" horiz-adv-x="517" 
d="M389 257h-262v-257h-58v391q0 132 12 193t51 86.5t126 25.5q88 0 127 -25.5t51 -86.5t12 -193v-391h-59v257zM381.5 565.5q-7.5 42.5 -34 60t-89.5 17.5q-62 0 -89 -17.5t-34.5 -60t-7.5 -141.5v-113h262v113q0 99 -7.5 141.5zM358.5 809.5q-6.5 -28.5 -30 -45.5
t-73.5 -17t-73 17t-29 45t-6 79h43q0 -41 3.5 -61t17 -31t44.5 -11q32 0 46 11t17.5 31t3.5 61h43q0 -50 -6.5 -78.5zM384.5 982q-10.5 -22 -46.5 -22q-19 0 -37.5 6t-48.5 18q-24 11 -39.5 16.5t-30.5 5.5t-19.5 -12t-4.5 -45h-37q0 58 11 80.5t47 22.5q20 0 39.5 -6.5
t48.5 -19.5q25 -10 39.5 -15t28.5 -5q15 0 19 11.5t4 45.5h37q0 -59 -10.5 -81z" />
    <glyph glyph-name="uni01CD.ss01" horiz-adv-x="517" 
d="M389 257h-262v-257h-58v391q0 132 12 193t51 86.5t126 25.5q88 0 127 -25.5t51 -86.5t12 -193v-391h-59v257zM381.5 565.5q-7.5 42.5 -34 60t-89.5 17.5q-62 0 -89 -17.5t-34.5 -60t-7.5 -141.5v-113h262v113q0 99 -7.5 141.5zM226 750l-78 132v6h41l70 -102l70 102h40
v-6l-78 -132h-65z" />
    <glyph glyph-name="Acircumflex.ss01" horiz-adv-x="517" 
d="M389 257h-262v-257h-58v391q0 132 12 193t51 86.5t126 25.5q88 0 127 -25.5t51 -86.5t12 -193v-391h-59v257zM381.5 565.5q-7.5 42.5 -34 60t-89.5 17.5q-62 0 -89 -17.5t-34.5 -60t-7.5 -141.5v-113h262v113q0 99 -7.5 141.5zM149 750v5l78 133h65l78 -133v-5h-40
l-70 101l-70 -101h-41z" />
    <glyph glyph-name="uni1EA4.ss01" horiz-adv-x="517" 
d="M389 257h-262v-257h-58v391q0 132 12 193t51 86.5t126 25.5q88 0 127 -25.5t51 -86.5t12 -193v-391h-59v257zM381.5 565.5q-7.5 42.5 -34 60t-89.5 17.5q-62 0 -89 -17.5t-34.5 -60t-7.5 -141.5v-113h262v113q0 99 -7.5 141.5zM147 744v5l78 133h65l78 -133v-5h-40
l-70 101l-70 -101h-41zM310 889v5l56 135h61v-5l-76 -135h-41z" />
    <glyph glyph-name="uni1EAC.ss01" horiz-adv-x="517" 
d="M389 257h-262v-257h-58v391q0 132 12 193t51 86.5t126 25.5q88 0 127 -25.5t51 -86.5t12 -193v-391h-59v257zM381.5 565.5q-7.5 42.5 -34 60t-89.5 17.5q-62 0 -89 -17.5t-34.5 -60t-7.5 -141.5v-113h262v113q0 99 -7.5 141.5zM148 750v5l78 133h65l78 -133v-5h-40
l-70 101l-70 -101h-41zM226 -142v80h66v-80h-66z" />
    </font>
</defs>
</svg>
