<?xml version="1.0" standalone="no"?>
<!DOCTYPE svg PUBLIC "-//W3C//DTD SVG 1.1//EN" "http://www.w3.org/Graphics/SVG/1.1/DTD/svg11.dtd" >
<svg xmlns="http://www.w3.org/2000/svg" xmlns:xlink="http://www.w3.org/1999/xlink" version="1.1">
<metadata>
Created by FontForge 20170731 at Sat Dec  3 12:15:22 2016
 By Aleksey,,,
Copyright 2016 The Saira Project Authors (omnibus.type@gmail.com), with reserved font name "Saira".
</metadata>
<defs>
<font id="SairaCondensed-Bold" horiz-adv-x="506" >
  <font-face 
    font-family="Saira Condensed Condensed"
    font-weight="700"
    font-stretch="condensed"
    units-per-em="1000"
    panose-1="0 0 8 6 0 0 0 0 0 0"
    ascent="800"
    descent="-200"
    x-height="510"
    cap-height="688"
    bbox="-467 -396 904 1111"
    underline-thickness="50"
    underline-position="-150"
    unicode-range="U+000D-FB02"
  />
<missing-glyph horiz-adv-x="500" 
d="M0 0v700h500v-700h-500zM450 650h-400v-600h400v600zM229 278q0 29 13.5 48t40.5 41q28 23 42 43.5t14 54.5q0 31 -19 59t-70 28q-58 0 -78 -33.5t-20 -66.5v-28h-49q-4 12 -4 31q0 23 10.5 56t44 62t96.5 29t94.5 -28t40 -58t8.5 -49q0 -45 -18.5 -74t-48.5 -55
q-22 -18 -33 -33t-11 -37v-53h-53v63zM225 99v70h60v-70h-60z" />
    <glyph glyph-name="fi" unicode="fi" horiz-adv-x="530" 
d="M78 402h-63v108h63v30q0 97 16.5 138.5t57.5 53t139 11.5v-96q-40 0 -56.5 -4.5t-22 -20t-5.5 -53.5v-59h84v-108h-84v-402h-129v402zM354 621v122h131v-122h-131zM355 0v510h129v-510h-129z" />
    <glyph glyph-name="fl" unicode="fl" horiz-adv-x="530" 
d="M78 402h-63v108h63v30q0 97 16.5 138.5t57.5 53t139 11.5v-96q-40 0 -56.5 -4.5t-22 -20t-5.5 -53.5v-59h84v-108h-84v-402h-129v402zM355 0v743h129v-743h-129z" />
    <glyph glyph-name="f_f" unicode="ff" horiz-adv-x="618" 
d="M78 402h-63v108h63v30q0 97 16.5 138.5t57.5 53t139 11.5v-96q-40 0 -56.5 -4.5t-22 -20t-5.5 -53.5v-59h84v-108h-84v-402h-129v402zM387 402h-63v108h63v30q0 97 16.5 138.5t57.5 53t139 11.5v-96q-40 0 -56.5 -4.5t-22 -20t-5.5 -53.5v-59h84v-108h-84v-402h-129v402z
" />
    <glyph glyph-name=".notdef" horiz-adv-x="500" 
d="M0 0v700h500v-700h-500zM450 650h-400v-600h400v600zM229 278q0 29 13.5 48t40.5 41q28 23 42 43.5t14 54.5q0 31 -19 59t-70 28q-58 0 -78 -33.5t-20 -66.5v-28h-49q-4 12 -4 31q0 23 10.5 56t44 62t96.5 29t94.5 -28t40 -58t8.5 -49q0 -45 -18.5 -74t-48.5 -55
q-22 -18 -33 -33t-11 -37v-53h-53v63zM225 99v70h60v-70h-60z" />
    <glyph glyph-name=".null" horiz-adv-x="0" 
 />
    <glyph glyph-name="nonmarkingreturn" unicode="&#xd;" horiz-adv-x="179" 
 />
    <glyph glyph-name="NULL" horiz-adv-x="0" 
 />
    <glyph glyph-name="NULL" horiz-adv-x="0" 
 />
    <glyph glyph-name="space" unicode=" " horiz-adv-x="179" 
 />
    <glyph glyph-name="exclam" unicode="!" horiz-adv-x="259" 
d="M66 442.5q-13 152.5 -13 195.5v50h157v-50q0 -41 -13 -192t-23 -228h-85q-10 72 -23 224.5zM61 0v132h141v-132h-141z" />
    <glyph glyph-name="quotedbl" unicode="&#x22;" horiz-adv-x="382" 
d="M61 428l-14 206v54h121v-54l-14 -206h-93zM227 428l-14 206v54h121v-54l-14 -206h-93z" />
    <glyph glyph-name="numbersign" unicode="#" horiz-adv-x="573" 
d="M279 0l25 180h-99l-24 -180h-93l24 180h-67v92h79l19 143h-76v91h88l26 182h92l-25 -182h99l25 182h93l-25 -182h74v-91h-86l-20 -143h84v-92h-95l-25 -180h-93zM335 415h-99l-19 -143h99z" />
    <glyph glyph-name="dollar" unicode="$" horiz-adv-x="407" 
d="M160 71q-69 5 -110 16v103q72 -7 118 -7q30 0 45 4t21 14.5t6 31.5q0 23 -3 33.5t-10 14t-24 6.5l-58 10q-44 8 -66.5 25.5t-31.5 49t-9 86.5q0 74 31 111.5t91 46.5v80h95v-79q25 -2 49.5 -6t38.5 -9v-103q-59 8 -109 8q-39 0 -52 -9t-13 -38q0 -23 2 -32.5t8.5 -13
t22.5 -5.5l64 -10q35 -5 56 -18t33.5 -45t12.5 -93q0 -82 -28.5 -120.5t-84.5 -48.5v-82h-95v79z" />
    <glyph glyph-name="percent" unicode="%" horiz-adv-x="731" 
d="M86.5 327.5q-26.5 16.5 -34.5 55t-8 120.5t8 120.5t35 55.5t86 17t86 -17t35 -55.5t8 -120.5t-8 -120.5t-35 -55t-86 -16.5q-60 0 -86.5 16.5zM144 0l363 688h81l-365 -688h-79zM200.5 388q7.5 6 9.5 29t2 86q0 64 -2 87t-9.5 29t-27.5 6q-21 0 -28.5 -6t-9.5 -29t-2 -87
t2 -86.5t9.5 -28.5t28.5 -6q20 0 27.5 6zM472.5 8.5q-26.5 16.5 -34.5 55t-8 120.5t8 120.5t35 55.5t86 17t86 -17t35 -56t8 -120q0 -82 -8 -120.5t-35 -55t-86 -16.5q-60 0 -86.5 16.5zM586.5 68q7.5 6 9.5 29t2 87t-2 87t-9.5 29t-27.5 6t-27.5 -6t-9.5 -29t-2 -87t2 -87
t9.5 -29t27.5 -6t27.5 6z" />
    <glyph glyph-name="ampersand" unicode="&#x26;" horiz-adv-x="547" 
d="M529 403v-111h-77v-282q-41 -8 -93.5 -13t-93.5 -5q-87 0 -135.5 19.5t-69 60.5t-20.5 109q0 82 23.5 118t75.5 50v4q-48 13 -70.5 51.5t-22.5 113.5q0 96 52 137t173 41q39 0 89.5 -5.5t90.5 -13.5v-101q-72 9 -142 9q-62 0 -88 -6.5t-35 -24.5t-9 -61q0 -38 5 -56.5
t19.5 -26t44.5 -7.5h28v-111h-28q-32 0 -47.5 -7t-21.5 -27t-6 -61q0 -44 10 -63.5t32.5 -25.5t70.5 -6q12 0 40 2v299h205z" />
    <glyph glyph-name="quotesingle" unicode="'" horiz-adv-x="216" 
d="M61 428l-14 206v54h121v-54l-14 -206h-93z" />
    <glyph glyph-name="parenleft" unicode="(" horiz-adv-x="289" 
d="M93 -22.5q-22 46.5 -33 119t-11 200.5q0 129 11 202.5t34 122t72 121.5h103q-38 -64 -55 -106t-27 -120t-10 -220q0 -143 10 -221t27 -119.5t55 -106.5h-103q-51 81 -73 127.5z" />
    <glyph glyph-name="parenright" unicode=")" horiz-adv-x="289" 
d="M75 -43.5q17 41.5 26.5 119.5t9.5 221q0 142 -9.5 220t-26.5 119.5t-55 106.5h102q49 -72 72 -121t34 -122.5t11 -202.5t-11 -201t-33 -119t-73 -127h-102q38 65 55 106.5z" />
    <glyph glyph-name="asterisk" unicode="*" horiz-adv-x="407" 
d="M231 476l11 -114h-76l10 114l-95 -67l-39 67l104 48l-104 49l39 67l95 -66l-10 114h76l-11 -114l96 66l38 -67l-105 -49l105 -48l-38 -67z" />
    <glyph glyph-name="plus" unicode="+" horiz-adv-x="472" 
d="M182 73v125h-125v109h125v126h108v-126h126v-109h-126v-125h-108z" />
    <glyph glyph-name="comma" unicode="," horiz-adv-x="242" 
d="M91 -75q10 15 10 60v15h-50v132h141v-94q0 -80 -10 -118t-40 -54.5t-95 -16.5v61q34 0 44 15z" />
    <glyph glyph-name="hyphen" unicode="-" horiz-adv-x="297" 
d="M48 227v116h201v-116h-201z" />
    <glyph glyph-name="period" unicode="." horiz-adv-x="242" 
d="M51 0v132h141v-132h-141z" />
    <glyph glyph-name="slash" unicode="/" horiz-adv-x="327" 
d="M12 -55l189 798h114l-189 -798h-114z" />
    <glyph glyph-name="zero" unicode="0" horiz-adv-x="477" 
d="M101 22q-41 30 -51.5 97.5t-10.5 224.5t10.5 224.5t51.5 97.5t137 30q97 0 138 -30t51.5 -97.5t10.5 -224.5t-10.5 -224.5t-51.5 -97.5t-138 -30q-96 0 -137 30zM284 124q12 11 15.5 54.5t3.5 165.5t-3.5 165.5t-15.5 54.5t-46 11t-46 -11t-15 -53.5t-3 -166.5t3 -166.5
t15 -53.5t46 -11t46 11z" />
    <glyph glyph-name="one" unicode="1" horiz-adv-x="310" 
d="M118 0v530l-101 -41v126l136 73h103v-688h-138z" />
    <glyph glyph-name="two" unicode="2" horiz-adv-x="450" 
d="M173 121h240v-121h-376v88q0 96 4 139.5t20 71t53 47.5l111 60q22 12 32 21t14.5 23.5t4.5 43.5q0 39 -8 55.5t-26 21t-59 4.5q-44 0 -138 -9v112q34 8 84 13t92 5q62 0 102 -12t65 -54t25 -126q0 -88 -20.5 -128t-64.5 -63q-36 -18 -119 -63q-22 -11 -28 -24
q-5 -11 -6.5 -29.5t-1.5 -58.5v-17z" />
    <glyph glyph-name="three" unicode="3" horiz-adv-x="437" 
d="M110 -3q-48 5 -85 13v111q77 -8 140 -8q41 0 60.5 5t28.5 22.5t9 56.5t-7 58.5t-22.5 26t-45.5 6.5h-94v120h94q28 0 42 5.5t20.5 23.5t6.5 56t-8 55t-27.5 22t-62.5 5q-47 0 -133 -8v111q37 8 84.5 13t84.5 5q72 0 115.5 -17t64 -55.5t20.5 -105.5q0 -75 -22.5 -114
t-68.5 -51v-4q50 -13 73.5 -49.5t23.5 -118.5q0 -68 -19.5 -109t-64.5 -60.5t-122 -19.5q-37 0 -85 5z" />
    <glyph glyph-name="four" unicode="4" horiz-adv-x="469" 
d="M256 0v137h-235v105l139 446h143l-145 -431h99l37 175h99v-175h58v-120h-58v-137h-137z" />
    <glyph glyph-name="five" unicode="5" horiz-adv-x="453" 
d="M180 113q46 0 67 7t28.5 27.5t7.5 65.5q0 47 -8 67.5t-29 27t-68 6.5q-60 0 -127 -9v383h341v-121h-214v-139q13 3 35 5t42 2q95 0 130.5 -51.5t35.5 -156.5q0 -88 -17 -138t-61 -73.5t-126 -23.5q-37 0 -85 5t-85 13v111q74 -8 133 -8z" />
    <glyph glyph-name="six" unicode="6" horiz-adv-x="473" 
d="M146 2q-36 10 -58.5 39t-34.5 86q-14 59 -14 216q0 159 20 226q21 70 67.5 98.5t135.5 28.5q33 0 76 -6t78 -15v-111q-81 11 -128 11q-55 0 -77.5 -13t-29 -49.5t-6.5 -125.5h8q28 48 108 48q53 0 84 -14.5t47.5 -58.5t16.5 -131q0 -95 -16 -145t-57 -72t-122 -22
q-62 0 -98 10zM283 117.5q13 5.5 18 25.5t5 69q0 50 -5 70.5t-17.5 26t-43.5 5.5q-30 0 -43 -6t-17 -24.5t-4 -61.5q0 -52 5.5 -75t18 -29t40.5 -6q30 0 43 5.5z" />
    <glyph glyph-name="seven" unicode="7" horiz-adv-x="421" 
d="M65 0l193 567h-236v121h380v-108l-191 -580h-146z" />
    <glyph glyph-name="eight" unicode="8" horiz-adv-x="487" 
d="M120 11q-45 19 -64.5 60t-19.5 110q0 83 23 118.5t74 49.5v4q-47 13 -69 52t-22 113q0 67 20.5 105.5t64.5 55.5t117 17q72 0 116 -17t64.5 -55.5t20.5 -105.5q0 -75 -22 -113.5t-69 -51.5v-4q51 -14 74 -49.5t23 -118.5q0 -69 -19.5 -110t-64.5 -60t-123 -19
q-79 0 -124 19zM286 409.5q13 5.5 18 23.5t5 58q0 41 -4.5 59t-17.5 23.5t-43 5.5t-43.5 -5.5t-18 -23.5t-4.5 -59t4.5 -58.5t18 -23t43.5 -5.5q29 0 42 5.5zM287.5 115q13.5 6 19 24.5t5.5 59.5q0 42 -5.5 61.5t-19 25.5t-43.5 6q-31 0 -45 -6t-19 -25t-5 -62
q0 -41 5.5 -59.5t19.5 -24.5t44 -6t43.5 6z" />
    <glyph glyph-name="nine" unicode="9" horiz-adv-x="473" 
d="M134.5 -2q-43.5 6 -78.5 15v111q81 -11 129 -11q55 0 77.5 13t29 49.5t6.5 125.5h-7q-28 -48 -109 -48q-54 0 -85 14.5t-47.5 58.5t-16.5 131q0 94 16 144.5t57.5 72.5t122.5 22q59 0 95 -8.5t58.5 -33.5t34.5 -73q9 -38 13 -94.5t4 -141.5q0 -166 -24 -237
q-21 -64 -67.5 -90t-131.5 -26q-33 0 -76.5 6zM275 380q13 6 17.5 24.5t4.5 61.5q0 52 -5.5 75t-18.5 29t-41 6q-30 0 -42.5 -5.5t-17.5 -25.5t-5 -69q0 -50 5 -70.5t17 -26t43 -5.5q30 0 43 6z" />
    <glyph glyph-name="colon" unicode=":" horiz-adv-x="242" 
d="M51 378v132h141v-132h-141zM51 0v132h141v-132h-141z" />
    <glyph glyph-name="semicolon" unicode=";" horiz-adv-x="242" 
d="M51 378v132h141v-132h-141zM91 -75q10 15 10 60v15h-50v132h141v-94q0 -80 -10 -118t-40 -54.5t-95 -16.5v61q34 0 44 15z" />
    <glyph glyph-name="less" unicode="&#x3c;" horiz-adv-x="473" 
d="M416 66l-359 131v111l359 132v-110l-228 -77l228 -77v-110z" />
    <glyph glyph-name="equal" unicode="=" horiz-adv-x="472" 
d="M57 289v110h359v-110h-359zM57 108v109h359v-109h-359z" />
    <glyph glyph-name="greater" unicode="&#x3e;" horiz-adv-x="473" 
d="M57 66v110l227 77l-227 77v110l359 -132v-111z" />
    <glyph glyph-name="question" unicode="?" horiz-adv-x="393" 
d="M97 304q0 35 5 55t15.5 31.5t31.5 23.5l19 11q30 19 38.5 34t8.5 51q0 30 -8.5 44t-25.5 17.5t-52 3.5q-47 0 -98 -8v113q33 7 76 11.5t76 4.5q84 0 127 -38t43 -128q0 -50 -6.5 -80t-22.5 -50t-45 -39l-17 -10q-25 -16 -33.5 -24.5t-11 -20.5t-2.5 -42v-47h-118v87z
M86 0v132h140v-132h-140z" />
    <glyph glyph-name="at" unicode="@" horiz-adv-x="705" 
d="M144 -81.5q-59 26.5 -74 102t-15 273.5t15 273.5t74 102t210 26.5t210 -26.5t74 -101.5t15 -274q0 -106 -11 -152t-32 -56.5t-70 -10.5h-141l-4 50h-6q-11 -30 -34.5 -43.5t-53.5 -13.5q-53 0 -75 31.5t-22 100.5q0 51 10 80t33 41.5t65 12.5q34 0 82 -3v20q0 36 -5 50.5
t-19.5 18.5t-51.5 4q-49 0 -94 -5v86q70 13 128 13q64 0 96 -17t43.5 -54t11.5 -105v-209h43q22 0 31 7.5t12.5 40t3.5 113.5q0 148 -5.5 209.5t-27.5 91t-75 38.5q-22 3 -56.5 4t-74.5 1q-91 0 -123 -4q-57 -7 -80.5 -35.5t-29 -90t-5.5 -214.5q0 -165 7 -227.5t37.5 -87
t107.5 -28.5q22 -1 86 -1q117 0 149 3v-59q-32 -2 -149 -2q-151 0 -210 26.5zM385 177.5q9 14.5 9 58.5v25h-51q-21 0 -28 -9.5t-7 -41.5q0 -28 7 -37.5t32 -9.5q29 0 38 14.5z" />
    <glyph glyph-name="A" unicode="A" horiz-adv-x="501" 
d="M353 0l-27 141h-154l-27 -141h-137l142 688h201l142 -688h-140zM252 558h-6l-54 -298h113z" />
    <glyph glyph-name="B" unicode="B" horiz-adv-x="488" 
d="M52 688h236q81 0 121.5 -43t40.5 -130q0 -73 -22 -111.5t-69 -50.5v-4q52 -13 74.5 -50t22.5 -115q0 -91 -39 -137.5t-129 -46.5h-236v688zM290.5 413q13.5 6 19 23t5.5 51q0 36 -5 52.5t-18 22t-41 5.5h-63v-160h63q26 0 39.5 6zM295 127q13 6 18 23t5 54t-5 54.5
t-18.5 23.5t-40.5 6h-66v-167h66q28 0 41 6z" />
    <glyph glyph-name="C" unicode="C" horiz-adv-x="396" 
d="M313.5 -3q-33.5 -5 -63.5 -5q-94 0 -138 31t-58.5 103t-14.5 218q0 145 15 217.5t59.5 103.5t136.5 31q33 0 65.5 -4.5t50.5 -11.5v-112q-58 7 -88 7q-51 0 -70.5 -13.5t-25 -57.5t-5.5 -160t5.5 -160t25 -57.5t70.5 -13.5q46 0 90 7v-111q-21 -7 -54.5 -12z" />
    <glyph glyph-name="D" unicode="D" horiz-adv-x="496" 
d="M52 688h186q106 0 151.5 -29.5t56.5 -95t11 -219.5t-11 -219.5t-56.5 -95t-151.5 -29.5h-186v688zM236 121q44 0 59.5 10.5t20 52.5t4.5 160q0 117 -5 159.5t-20 53t-59 10.5h-47v-446h47z" />
    <glyph glyph-name="E" unicode="E" horiz-adv-x="421" 
d="M52 0v688h334v-121h-196v-159h169v-121h-169v-166h196v-121h-334z" />
    <glyph glyph-name="F" unicode="F" horiz-adv-x="392" 
d="M52 0v688h319v-121h-181v-175h159v-121h-159v-271h-138z" />
    <glyph glyph-name="G" unicode="G" horiz-adv-x="487" 
d="M251 282v118h189v-387q-35 -9 -85 -15t-93 -6q-95 0 -141.5 28.5t-64 102t-17.5 221.5q0 147 18.5 220.5t67.5 102.5t147 29q40 0 87 -6t80 -14v-113q-86 12 -125 12q-68 0 -93.5 -11t-35 -56.5t-9.5 -163.5q0 -110 6 -156.5t23.5 -62.5t59.5 -16q9 0 48 3v170h-62z" />
    <glyph glyph-name="H" unicode="H" horiz-adv-x="519" 
d="M330 0v283h-141v-283h-137v688h137v-278h141v278h137v-688h-137z" />
    <glyph glyph-name="I" unicode="I" horiz-adv-x="243" 
d="M53 0v688h137v-688h-137z" />
    <glyph glyph-name="J" unicode="J" horiz-adv-x="296" 
d="M81 122q19 7 24 31t5 91v444h138v-380q0 -159 -12.5 -216.5t-57 -74t-167.5 -17.5v114q51 1 70 8z" />
    <glyph glyph-name="K" unicode="K" horiz-adv-x="492" 
d="M336 0l-108 287h-38v-287h-138v688h138v-277h38l111 277h142l-143 -329l146 -359h-148z" />
    <glyph glyph-name="L" unicode="L" horiz-adv-x="379" 
d="M52 0v688h138v-563h174v-125h-312z" />
    <glyph glyph-name="M" unicode="M" horiz-adv-x="703" 
d="M518 0v507h-6l-99 -507h-127l-97 507h-8v-507h-129v688h208l90 -476h7l89 476h205v-688h-133z" />
    <glyph glyph-name="N" unicode="N" horiz-adv-x="523" 
d="M347 0l-160 377h-4v-377h-131v688h133l149 -348h5v348h132v-688h-124z" />
    <glyph glyph-name="O" unicode="O" 
d="M105 22.5q-44 30.5 -55 98t-11 223.5q0 157 11 224t55 97.5t148 30.5t148 -30.5t55 -97.5t11 -224q0 -156 -11 -223.5t-55 -98t-148 -30.5t-148 30.5zM307 124q14 11 18 54t4 166t-4 166t-18 54t-54 11t-54 -11t-18 -54t-4 -166t4 -166t18 -54t54 -11t54 11z" />
    <glyph glyph-name="P" unicode="P" horiz-adv-x="475" 
d="M52 688h227q73 0 110.5 -26t50.5 -75.5t13 -131.5q0 -79 -12 -128.5t-50 -78t-113 -28.5h-88v-220h-138v688zM244 341q34 0 48 8t18.5 30.5t4.5 75.5t-4.5 75t-18 29.5t-47.5 7.5h-55v-226h54z" />
    <glyph glyph-name="Q" unicode="Q" 
d="M296 -6q-26 -2 -43 -2q-104 0 -148 30.5t-55 97.5t-11 224t11 224t55 97.5t148 30.5q103 0 147.5 -30.5t55.5 -98t11 -223.5q0 -141 -9.5 -207t-44.5 -101l90 -146v-5h-145zM307 124q14 11 18 54.5t4 165.5t-4 165.5t-18 54.5t-54 11t-54 -11t-18 -54t-4 -166t4 -166
t18 -54t54 -11t54 11z" />
    <glyph glyph-name="R" unicode="R" horiz-adv-x="494" 
d="M331 0l-67 240h-74v-240h-138v688h232q74 0 111.5 -25t50.5 -72t13 -126q0 -75 -13.5 -124t-54.5 -74l83 -267h-143zM298 366.5q14 7.5 18.5 28t4.5 69.5q0 48 -4.5 68t-18.5 27.5t-47 7.5h-61v-208h61q33 0 47 7.5z" />
    <glyph glyph-name="S" unicode="S" horiz-adv-x="443" 
d="M129.5 -3.5q-49.5 4.5 -87.5 12.5v112q102 -8 141 -8q35 0 53 4t27 14q8 8 10.5 22.5t2.5 41.5q0 37 -4 52.5t-16.5 23t-43.5 13.5l-94 17q-50 9 -69 55t-19 133q0 85 24.5 130t67.5 61t109 16q46 0 88.5 -6t69.5 -12v-112q-54 9 -121 9q-36 0 -55.5 -3t-28.5 -11
q-11 -8 -14 -23t-3 -44q0 -31 3.5 -45t12.5 -20t31 -10l88 -16q35 -5 59.5 -21.5t38.5 -54.5q14 -40 14 -113q0 -95 -23 -143t-63.5 -63.5t-106.5 -15.5q-42 0 -91.5 4.5z" />
    <glyph glyph-name="T" unicode="T" horiz-adv-x="418" 
d="M140 0v563h-130v125h398v-125h-130v-563h-138z" />
    <glyph glyph-name="U" unicode="U" 
d="M458 688v-383q0 -136 -11.5 -197.5t-54 -88.5t-139.5 -27t-139.5 27t-54 88.5t-11.5 197.5v383h137v-429q0 -73 3.5 -100.5t17 -36.5t47.5 -9t47 9t16.5 36t3.5 101v429h138z" />
    <glyph glyph-name="V" unicode="V" horiz-adv-x="485" 
d="M142 0l-132 688h140l90 -544h9l87 544h138l-132 -688h-200z" />
    <glyph glyph-name="W" unicode="W" horiz-adv-x="756" 
d="M452 0l-71 479h-6l-70 -479h-189l-99 688h139l59 -539h7l78 539h162l79 -539h7l56 539h136l-100 -688h-188z" />
    <glyph glyph-name="X" unicode="X" horiz-adv-x="501" 
d="M341 0l-89 247h-8l-88 -247h-144l144 346l-142 342h148l87 -237h7l87 237h144l-140 -338l143 -350h-149z" />
    <glyph glyph-name="Y" unicode="Y" horiz-adv-x="463" 
d="M163 0v238l-163 450h141l90 -297h9l87 297h136l-163 -450v-238h-137z" />
    <glyph glyph-name="Z" unicode="Z" horiz-adv-x="439" 
d="M31 0v114l221 453h-214v121h368v-113l-222 -454h224v-121h-377z" />
    <glyph glyph-name="bracketleft" unicode="[" horiz-adv-x="301" 
d="M53 -150v893h214v-83l-90 -4v-718l90 -4v-84h-214z" />
    <glyph glyph-name="backslash" unicode="\" horiz-adv-x="327" 
d="M201 -55l-189 798h114l189 -798h-114z" />
    <glyph glyph-name="bracketright" unicode="]" horiz-adv-x="300" 
d="M33 -150v84l90 4v718l-90 4v83h215v-893h-215z" />
    <glyph glyph-name="asciicircum" unicode="^" horiz-adv-x="389" 
d="M267 476l-72 176l-73 -176h-109l127 274h110l126 -274h-109z" />
    <glyph glyph-name="underscore" unicode="_" horiz-adv-x="361" 
d="M0 -186v107h361v-107h-361z" />
    <glyph glyph-name="grave" unicode="`" horiz-adv-x="193" 
d="M84 597l-78 141v5h128l53 -141v-5h-103z" />
    <glyph glyph-name="a" unicode="a" horiz-adv-x="426" 
d="M52 29.5q-27 37.5 -27 117.5q0 59 12 92.5t40.5 49t79.5 15.5q36 0 96 -4v23q0 42 -6.5 59.5t-24 22.5t-60.5 5q-42 0 -112 -7v100q75 15 151 15q75 0 114 -20t53 -63t14 -123v-312h-123l-4 60h-7q-13 -37 -42 -52.5t-65 -15.5q-62 0 -89 37.5zM224.5 108q10.5 4 17.5 15
q11 17 11 69v25h-60q-26 0 -34.5 -11t-8.5 -48q0 -32 8.5 -43t38.5 -11q17 0 27.5 4z" />
    <glyph glyph-name="b" unicode="b" horiz-adv-x="446" 
d="M180 60h-8l-4 -60h-122v743h129v-287h7q24 62 104 62q50 0 77 -24.5t38 -80.5t11 -159q0 -104 -12 -160.5t-39.5 -79t-76.5 -22.5q-83 0 -104 68zM265.5 116q10.5 8 14 36.5t3.5 102.5t-3.5 102.5t-14 36.5t-37.5 8q-19 0 -29.5 -6t-15.5 -22q-8 -27 -8 -119
q0 -89 7 -114q4 -19 14.5 -26t31.5 -7q27 0 37.5 8z" />
    <glyph glyph-name="c" unicode="c" horiz-adv-x="341" 
d="M203 -8q-74 0 -110 28t-47.5 82t-11.5 153t12.5 154t48.5 82t107 27q68 0 110 -14v-100q-46 6 -73 6q-36 0 -51 -10t-20 -41t-5 -104q0 -74 5.5 -105t20.5 -40.5t51 -9.5q25 0 75 6v-99q-51 -15 -112 -15z" />
    <glyph glyph-name="d" unicode="d" horiz-adv-x="446" 
d="M85 14.5q-27 22.5 -39 78.5t-12 161q0 103 11 159t38 80.5t77 24.5q39 0 65 -15t39 -47h7v287h129v-743h-122l-4 60h-8q-21 -68 -104 -68q-50 0 -77 22.5zM249.5 115q10.5 7 15.5 27q6 29 6 113q0 81 -4 103q-4 26 -15 35t-34 9q-27 0 -37.5 -8t-14 -36.5t-3.5 -102.5
t3.5 -102.5t14 -36.5t37.5 -8q21 0 31.5 7z" />
    <glyph glyph-name="e" unicode="e" horiz-adv-x="425" 
d="M390 215h-227q0 -57 5 -79t23 -29t65 -7q38 0 122 6v-99q-27 -6 -70 -10.5t-82 -4.5q-89 0 -129.5 26.5t-51.5 78.5t-11 157q0 103 11 156t50 80.5t123 27.5q82 0 118.5 -25.5t45 -76.5t8.5 -162v-39zM181.5 404q-10.5 -7 -14.5 -29t-4 -73h106q0 51 -4 73.5t-14 29
t-34 6.5q-25 0 -35.5 -7z" />
    <glyph glyph-name="f" unicode="f" horiz-adv-x="309" 
d="M78 402h-63v108h63v30q0 97 16.5 138.5t57.5 53t139 11.5v-96q-40 0 -56.5 -4.5t-22 -20t-5.5 -53.5v-59h84v-108h-84v-402h-129v402z" />
    <glyph glyph-name="g" unicode="g" horiz-adv-x="446" 
d="M131 -200q-40 3 -65 8v99q18 0 26 -1l85 -1q47 0 65.5 8t23.5 31t5 82v38h-8q-23 -62 -102 -62q-50 0 -77.5 23.5t-38.5 78t-11 155.5q0 103 12 158.5t39 78t77 22.5q35 0 63.5 -15.5t40.5 -52.5h8l4 60h122v-449q0 -104 -11 -156.5t-52 -80t-130 -27.5q-36 0 -76 3z
M249.5 124q10.5 7 15.5 27q6 24 6 108q0 75 -5 100q-4 25 -14.5 33.5t-34.5 8.5q-27 0 -37 -7.5t-13.5 -35t-3.5 -99.5t3.5 -99.5t13.5 -35t37 -7.5q22 0 32.5 7z" />
    <glyph glyph-name="h" unicode="h" horiz-adv-x="450" 
d="M277 276q0 64 -3 88t-12 30.5t-34 6.5q-26 0 -36.5 -10t-13.5 -37.5t-3 -92.5v-261h-129v743h129v-292h7q13 37 41.5 52t68.5 15q48 0 72.5 -19t33 -57t8.5 -105v-337h-129v276z" />
    <glyph glyph-name="i" unicode="i" horiz-adv-x="221" 
d="M45 621v122h131v-122h-131zM46 0v510h129v-510h-129z" />
    <glyph glyph-name="j" unicode="j" horiz-adv-x="221" 
d="M45 621v122h131v-122h-131zM-14 -98q28 0 41 5t16 15t3 32v556h129v-503q0 -95 -15.5 -136.5t-53 -54t-120.5 -12.5v98z" />
    <glyph glyph-name="k" unicode="k" horiz-adv-x="430" 
d="M284 0l-82 199h-27v-199h-129v743h129v-435h27l85 202h132l-110 -243l111 -267h-136z" />
    <glyph glyph-name="l" unicode="l" horiz-adv-x="221" 
d="M46 0v743h129v-743h-129z" />
    <glyph glyph-name="m" unicode="m" horiz-adv-x="669" 
d="M495 276q0 63 -3 87.5t-11.5 31t-31.5 6.5q-24 0 -34 -10t-12.5 -36.5t-2.5 -93.5v-261h-129v276q0 63 -3 87.5t-11.5 31t-32.5 6.5t-33.5 -10t-12.5 -37.5t-3 -92.5v-261h-129v510h122l4 -61h7q15 37 42 53t69 16q45 0 69 -16.5t33 -52.5h8q14 37 42 53t70 16
q46 0 70 -18.5t33 -56t9 -102.5v-341h-129v276z" />
    <glyph glyph-name="n" unicode="n" horiz-adv-x="450" 
d="M277 276q0 64 -3 88t-12 30.5t-34 6.5q-26 0 -36.5 -10t-13.5 -37.5t-3 -92.5v-261h-129v510h122l4 -61h7q14 38 43 53.5t70 15.5q48 0 72.5 -19t33 -57.5t8.5 -106.5v-335h-129v276z" />
    <glyph glyph-name="o" unicode="o" horiz-adv-x="436" 
d="M94 14q-38 22 -49 74t-11 167t11 167t49 74t124 22t124 -22t49 -74t11 -167t-11 -167t-49 -74t-124 -22t-124 22zM257.5 109q10.5 9 13 37.5t2.5 108.5t-2.5 108.5t-13 37.5t-39.5 9t-39.5 -9t-13 -37.5t-2.5 -108.5t2.5 -108.5t13 -37.5t39.5 -9t39.5 9z" />
    <glyph glyph-name="p" unicode="p" horiz-adv-x="446" 
d="M46 510h122l4 -60h8q21 68 104 68q49 0 76.5 -22.5t39.5 -78.5t12 -161q0 -103 -11 -159t-38 -80.5t-77 -24.5q-81 0 -103 63h-8v-251h-129v706zM265.5 116q10.5 8 14 36.5t3.5 102.5t-3.5 102.5t-14 36.5t-37.5 8q-21 0 -32 -7.5t-15 -28.5q-6 -25 -6 -111q0 -78 4 -103
q4 -26 15 -35t34 -9q27 0 37.5 8z" />
    <glyph glyph-name="q" unicode="q" horiz-adv-x="446" 
d="M271 55h-7q-13 -33 -39 -48t-65 -15q-50 0 -77 24.5t-38 80.5t-11 158q0 105 12 161t39 79t77 23q83 0 104 -68h8l4 60h122v-706h-129v251zM250 115.5q11 7.5 16 28.5q5 24 5 111q0 53 -1 77t-6 39q-4 18 -14.5 24.5t-31.5 6.5q-27 0 -37.5 -8t-14 -36.5t-3.5 -102.5
t3.5 -102.5t14 -36.5t37.5 -8q21 0 32 7.5z" />
    <glyph glyph-name="r" unicode="r" horiz-adv-x="312" 
d="M46 510h122l4 -84h8q15 52 43 72t75 20v-135q-45 0 -71.5 -13t-39 -46t-12.5 -92v-232h-129v510z" />
    <glyph glyph-name="s" unicode="s" horiz-adv-x="371" 
d="M109.5 -3.5q-42.5 4.5 -72.5 11.5v99q66 -7 114 -7q30 0 44.5 3.5t20 13.5t5.5 31q0 23 -2.5 32.5t-10 13t-26.5 6.5l-84 14q-40 6 -56.5 39.5t-16.5 109.5q0 86 42 120.5t125 34.5q33 0 70 -4.5t60 -11.5v-100q-64 8 -106 8q-38 0 -50.5 -8.5t-12.5 -36.5q0 -22 2 -31
t8.5 -12.5t22.5 -5.5l73 -11q28 -5 46 -16.5t29.5 -42.5t11.5 -89q0 -94 -39 -129.5t-120 -35.5q-35 0 -77.5 4.5z" />
    <glyph glyph-name="t" unicode="t" horiz-adv-x="302" 
d="M78 0v402h-63v108h63v148h129v-148h81v-108h-81v-402h-129z" />
    <glyph glyph-name="u" unicode="u" horiz-adv-x="450" 
d="M279 61h-8q-24 -69 -112 -69q-49 0 -73.5 19t-33 57.5t-8.5 106.5v335h129v-276q0 -64 3 -88t12.5 -30.5t34.5 -6.5t35.5 10t13.5 37.5t3 92.5v261h129v-510h-121z" />
    <glyph glyph-name="v" unicode="v" horiz-adv-x="417" 
d="M119 0l-110 510h131l66 -374h9l63 374h129l-110 -510h-178z" />
    <glyph glyph-name="w" unicode="w" horiz-adv-x="644" 
d="M379 0l-52 280h-9l-51 -280h-161l-94 510h128l49 -353h8l65 353h125l66 -353h8l48 353h122l-93 -510h-159z" />
    <glyph glyph-name="x" unicode="x" horiz-adv-x="426" 
d="M281 0l-66 166h-8l-66 -166h-131l118 257l-115 253h137l63 -156h7l62 156h131l-114 -251l118 -259h-136z" />
    <glyph glyph-name="y" unicode="y" horiz-adv-x="450" 
d="M137 -200q-40 3 -65 7v100q37 -1 111 -1q46 0 64.5 7.5t23 30t4.5 80.5v43h-7q-24 -66 -109 -66q-50 0 -74.5 20.5t-32.5 61t-8 115.5v312h129v-268q0 -64 3 -88t12.5 -30.5t34.5 -6.5q26 0 36 10t13 36.5t3 93.5v253h129v-450q0 -103 -11 -155.5t-51.5 -80t-128.5 -27.5
q-36 0 -76 3z" />
    <glyph glyph-name="z" unicode="z" horiz-adv-x="394" 
d="M32 0v101l178 301h-171v108h321v-101l-177 -301h179v-108h-330z" />
    <glyph glyph-name="braceleft" unicode="{" horiz-adv-x="315" 
d="M130 -76q-33 50 -33 103v124q0 49 -16 79.5t-60 35.5v59q44 5 60 36t16 80v124q0 54 33 104t78 74h84q-39 -49 -54.5 -88.5t-15.5 -97.5v-112q0 -123 -101 -145v-7q101 -22 101 -146v-112q0 -58 15.5 -96.5t54.5 -88.5h-84q-45 24 -78 74z" />
    <glyph glyph-name="bar" unicode="|" horiz-adv-x="236" 
d="M58 -161v904h119v-904h-119z" />
    <glyph glyph-name="braceright" unicode="}" horiz-adv-x="315" 
d="M77 -61q16 39 16 96v112q0 124 101 146v7q-101 22 -101 145v112q0 57 -15.5 95t-55.5 91h84q45 -24 78 -74t33 -104v-124q0 -49 16 -80t60 -36v-59q-44 -5 -60 -35.5t-16 -79.5v-124q0 -54 -33 -103.5t-78 -73.5h-84q39 50 55 89z" />
    <glyph glyph-name="asciitilde" unicode="~" horiz-adv-x="460" 
d="M402.5 298.5q-4.5 -25.5 -22.5 -40t-58 -14.5q-23 0 -52 5t-55 11q-18 5 -36 8.5t-29 3.5q-15 0 -18.5 -7.5t-3.5 -31.5h-76q0 50 4.5 76t23 40.5t57.5 14.5q37 0 107 -17q10 -2 31.5 -6.5t34.5 -4.5q15 0 18.5 7.5t3.5 30.5h75q0 -50 -4.5 -75.5z" />
    <glyph glyph-name="uni00A0" unicode="&#xa0;" horiz-adv-x="179" 
 />
    <glyph glyph-name="exclamdown" unicode="&#xa1;" horiz-adv-x="254" 
d="M56 378v132h141v-132h-141zM48 -128q0 41 13 192t23 228h85q10 -77 23 -228t13 -192v-50h-157v50z" />
    <glyph glyph-name="cent" unicode="&#xa2;" horiz-adv-x="354" 
d="M158 72q-51 10 -77.5 42.5t-35 86t-8.5 141.5q0 90 9.5 144t36 85.5t75.5 40.5v84h96v-81q32 -3 65 -12v-104q-60 6 -73 6q-36 0 -51 -10.5t-20.5 -43t-5.5 -109.5t5.5 -109.5t21 -42t51.5 -9.5q33 0 75 6v-103q-33 -10 -68 -13v-79h-96v80z" />
    <glyph glyph-name="sterling" unicode="&#xa3;" horiz-adv-x="436" 
d="M401 121v-121h-370v121h58v173h-58v120h58v10q0 102 14.5 159t55.5 85t120 28q30 0 62.5 -4t52.5 -10v-114q-40 7 -80 7q-25 0 -39.5 -2.5t-23.5 -10.5q-15 -12 -20 -42t-5 -96v-10h124v-120h-124v-173h175z" />
    <glyph glyph-name="currency" unicode="&#xa4;" horiz-adv-x="538" 
d="M34 83l68 68q-11 29 -15 74t-4 120q0 74 4 118.5t15 74.5l-68 67l78 78l74 -75q26 6 81 6q53 0 84 -7l76 76l77 -78l-70 -70q11 -29 14.5 -73.5t3.5 -116.5q0 -73 -3.5 -117.5t-14.5 -73.5l70 -71l-77 -77l-76 75q-31 -7 -84 -7q-50 0 -81 7l-74 -75zM306.5 191.5
q10.5 9.5 13.5 40t3 113.5q0 82 -3 112t-13.5 39.5t-39.5 9.5q-28 0 -38.5 -9.5t-13.5 -39.5t-3 -112q0 -83 3 -113.5t13.5 -40t38.5 -9.5q29 0 39.5 9.5z" />
    <glyph glyph-name="yen" unicode="&#xa5;" horiz-adv-x="508" 
d="M184 0v212h-136v72h124l-31 81h-93v72h67l-86 251h139l84 -297h9l81 297h136l-87 -251h68v-72h-94l-31 -81h125v-72h-137v-212h-138z" />
    <glyph glyph-name="brokenbar" unicode="&#xa6;" horiz-adv-x="236" 
d="M58 390v353h119v-353h-119zM58 -161v353h119v-353h-119z" />
    <glyph glyph-name="section" unicode="&#xa7;" horiz-adv-x="501" 
d="M151 -165q-40 5 -62 12v110q65 -7 117 -7q32 0 48 4.5t22 15t6 30.5q0 19 -2.5 28t-9 14t-23.5 12l-93 38q-41 18 -65 33t-41.5 47t-17.5 86q0 73 19 112t62 51q-13 19 -19 43.5t-6 60.5q0 93 46.5 132t136.5 39q42 0 81.5 -5.5t60.5 -12.5v-110q-20 3 -54 5.5t-62 2.5
q-32 0 -48 -4.5t-22 -15t-6 -30.5q0 -27 6 -35.5t27 -17.5l92 -38q41 -17 66 -33t42.5 -48.5t17.5 -87.5q0 -73 -19 -112t-62 -51q26 -35 26 -102q0 -93 -46.5 -132t-136.5 -39q-41 0 -81 5zM339 246q0 46 -24 57l-101 43q-21 9 -27 9q-25 0 -25 -76q0 -23 6 -37.5t21 -20.5
l99 -43q18 -7 26 -7q25 0 25 75z" />
    <glyph glyph-name="dieresis" unicode="&#xa8;" horiz-adv-x="301" 
d="M8 627v103h111v-103h-111zM183 627v103h111v-103h-111z" />
    <glyph glyph-name="copyright" unicode="&#xa9;" horiz-adv-x="581" 
d="M126 16q-46 24 -58 90t-12 238t12 238t58 90t164 24t164.5 -24t58.5 -90t12 -238t-12 -238t-58.5 -90t-164.5 -24t-164 24zM422.5 57q33.5 15 42.5 70t9 217t-9 217t-42.5 70t-132.5 15q-98 0 -131.5 -15t-42.5 -70t-9 -217t9 -217t42.5 -70t131.5 -15q99 0 132.5 15z
M233.5 172q-23.5 17 -31 55.5t-7.5 115.5t8 116t31.5 56t72.5 17q18 0 35.5 -2.5t27.5 -6.5v-62q-26 4 -48 4q-26 0 -35.5 -7t-12 -29.5t-2.5 -85.5q0 -62 2.5 -84.5t12 -29.5t35.5 -7q25 0 49 4v-62q-27 -9 -64 -9q-50 0 -73.5 17z" />
    <glyph glyph-name="ordfeminine" unicode="&#xaa;" horiz-adv-x="329" 
d="M47.5 335q-19.5 28 -19.5 87q0 64 20.5 89.5t75.5 25.5q39 0 70 -3v18q0 30 -4.5 42.5t-17 16t-45.5 3.5q-31 0 -81 -5v75q57 12 112 12t83.5 -15t39 -47t10.5 -91v-231h-93l-3 43h-6q-19 -48 -77 -48q-45 0 -64.5 28zM178 394.5q8 4.5 12 16.5t4 43v19h-43q-18 0 -24 -8
t-6 -35q0 -24 6 -32t28 -8q15 0 23 4.5z" />
    <glyph glyph-name="guillemotleft" unicode="&#xab;" horiz-adv-x="415" 
d="M120 121l-86 194l86 195h92l-68 -195l68 -194h-92zM282 121l-87 194l87 195h91l-67 -195l67 -194h-91z" />
    <glyph glyph-name="logicalnot" unicode="&#xac;" horiz-adv-x="473" 
d="M306 67v125h-249v110h359v-235h-110z" />
    <glyph glyph-name="uni00AD" unicode="&#xad;" horiz-adv-x="297" 
d="M48 227v116h201v-116h-201z" />
    <glyph glyph-name="registered" unicode="&#xae;" horiz-adv-x="581" 
d="M454.5 672q46.5 -24 58.5 -90t12 -238q0 -173 -12 -239t-58.5 -89.5t-164.5 -23.5t-164 23.5t-58 89.5t-12 239q0 172 12 238t58 90t164 24t164.5 -24zM422.5 57q33.5 15 42.5 70t9 217q0 161 -9 216.5t-43 70.5t-132 15t-131.5 -15t-42.5 -70.5t-9 -216.5q0 -162 9 -217
t42.5 -70t131.5 -15q99 0 132.5 15zM394 341.5q-7 -26.5 -28 -38.5l43 -144h-78l-36 129h-35v-129h-75v369h122q40 0 60.5 -13.5t27 -38.5t6.5 -68q0 -40 -7 -66.5zM313.5 356.5q7.5 3.5 10 14.5t2.5 36t-3 35.5t-10 14t-24 3.5h-29v-107h28q18 0 25.5 3.5z" />
    <glyph glyph-name="macron" unicode="&#xaf;" horiz-adv-x="298" 
d="M48 627v116h202v-116h-202z" />
    <glyph glyph-name="degree" unicode="&#xb0;" horiz-adv-x="320" 
d="M75.5 411q-25.5 14 -32 43t-6.5 92t6.5 92t32 43.5t84.5 14.5t85 -14.5t32.5 -43.5t6.5 -92t-6.5 -92t-32.5 -43t-85 -14t-84.5 14zM188.5 469q8.5 6 10.5 21.5t2 55.5t-2 55.5t-10 21.5t-29 6t-28.5 -5.5t-9.5 -21t-2 -56.5t2 -56t10 -21t28 -6t28.5 6z" />
    <glyph glyph-name="plusminus" unicode="&#xb1;" horiz-adv-x="472" 
d="M182 195v126h-125v109h125v125h108v-125h126v-109h-126v-126h-108zM57 29v110h359v-110h-359z" />
    <glyph glyph-name="uni00B2" unicode="&#xb2;" horiz-adv-x="298" 
d="M126 391h131v-76h-215v57q0 66 6 91.5t30 38.5l65 37q17 9 22.5 17t5.5 27q0 24 -8.5 30t-38.5 6q-21 0 -79 -5v72q50 10 102 10q36 0 58.5 -6.5t37 -30t14.5 -71.5q0 -47 -11.5 -69.5t-36.5 -36.5l-63 -34q-13 -7 -16.5 -14t-3.5 -28v-15z" />
    <glyph glyph-name="uni00B3" unicode="&#xb3;" horiz-adv-x="297" 
d="M40 317v71q53 -5 81 -5t37 7t9 33q0 27 -7 35t-26 8h-57v73h57q18 0 24 8t6 35q0 25 -8.5 31.5t-38.5 6.5q-28 0 -75 -7v73q56 10 96 10q60 0 86.5 -22.5t26.5 -78.5q0 -37 -11.5 -58t-34.5 -30v-4q24 -9 36.5 -29.5t12.5 -59.5q0 -59 -25.5 -83.5t-91.5 -24.5
q-37 0 -97 11z" />
    <glyph glyph-name="acute" unicode="&#xb4;" horiz-adv-x="193" 
d="M6 597v5l53 141h128v-5l-79 -141h-102z" />
    <glyph glyph-name="uni00B5" unicode="&#xb5;" horiz-adv-x="452" 
d="M406 510v-510h-122l-4 61h-7q-13 -33 -36.5 -48.5t-61.5 -16.5v-185h-129v699h129v-276q0 -64 3 -88t12 -30.5t34 -6.5q26 0 36.5 10t13.5 37.5t3 92.5v261h129z" />
    <glyph glyph-name="paragraph" unicode="&#xb6;" horiz-adv-x="484" 
d="M173 222q-68 0 -96.5 16t-37.5 61.5t-9 154.5t9 155t37.5 62.5t96.5 16.5h100v-832h-100v366zM325 -144v832h100v-832h-100z" />
    <glyph glyph-name="periodcentered" unicode="&#xb7;" horiz-adv-x="242" 
d="M51 233v131h141v-131h-141z" />
    <glyph glyph-name="cedilla" unicode="&#xb8;" horiz-adv-x="162" 
d="M7 -189v5l64 192h84v-5l-35 -192h-113z" />
    <glyph glyph-name="uni00B9" unicode="&#xb9;" horiz-adv-x="225" 
d="M93 315v273l-55 -23v81l78 42h63v-373h-86z" />
    <glyph glyph-name="ordmasculine" unicode="&#xba;" horiz-adv-x="337" 
d="M77.5 324.5q-28.5 16.5 -37 55t-8.5 121.5t8.5 122t37 56t91.5 17t91 -17t36.5 -55.5t8.5 -122.5q0 -83 -8.5 -121.5t-36.5 -55t-91 -16.5t-91.5 16.5zM196.5 395.5q7.5 6.5 9 26.5t1.5 79q0 60 -1.5 80.5t-9 27t-27.5 6.5q-21 0 -28 -6.5t-9 -27t-2 -80.5q0 -59 2 -79
t9 -26.5t28 -6.5q20 0 27.5 6.5z" />
    <glyph glyph-name="guillemotright" unicode="&#xbb;" horiz-adv-x="415" 
d="M42 121l67 194l-67 195h91l87 -195l-87 -194h-91zM203 121l68 194l-68 195h92l86 -195l-86 -194h-92z" />
    <glyph glyph-name="onequarter" unicode="&#xbc;" horiz-adv-x="624" 
d="M92 315v273l-54 -23v81l78 42h62v-373h-86zM77 0l348 688h82l-348 -688h-82zM468 0v72h-129v63l77 239h90l-82 -225h46l28 94h56v-94h31v-77h-31v-72h-86z" />
    <glyph glyph-name="onehalf" unicode="&#xbd;" horiz-adv-x="653" 
d="M92 315v273l-54 -23v81l78 42h62v-373h-86zM425 688h82l-348 -688h-82zM479 77h130v-77h-215v57q0 66 6 91t30 39q16 10 66 37q17 10 22 17.5t5 26.5q0 24 -9 30.5t-37 6.5q-8 0 -54 -4l-25 -2v72q48 10 102 10q35 0 57.5 -6.5t37 -30t14.5 -71.5q0 -47 -11.5 -69.5
t-36.5 -35.5q-13 -8 -24.5 -13.5t-18.5 -9.5l-19 -11q-13 -7 -16.5 -15.5t-3.5 -27.5v-14z" />
    <glyph glyph-name="threequarters" unicode="&#xbe;" horiz-adv-x="672" 
d="M121 383q28 0 37 7t9 33q0 27 -7 35t-26 8h-57v73h57q18 0 24 8t6 35q0 25 -8.5 31.5t-38.5 6.5q-28 0 -75 -7v73q56 10 96 10q60 0 86.5 -22.5t26.5 -78.5q0 -38 -11 -58.5t-35 -29.5v-4q24 -9 36.5 -29.5t12.5 -59.5q0 -59 -25.5 -83.5t-90.5 -24.5q-38 0 -98 11v71
q53 -5 81 -5zM126 0l348 688h81l-347 -688h-82zM516 0v72h-129v63l77 239h89l-82 -225h47l27 94h57v-94h31v-77h-31v-72h-86z" />
    <glyph glyph-name="questiondown" unicode="&#xbf;" horiz-adv-x="363" 
d="M165 378v132h140v-132h-140zM81.5 -149q-43.5 37 -43.5 129q0 52 7 82.5t22 49t42 36.5l33 20q17 11 23.5 18t8.5 19t2 41v47h118v-87q0 -35 -5 -55t-15.5 -31.5t-31.5 -23.5l-16 -10q-32 -20 -41 -35t-9 -51q0 -30 8.5 -43.5t25.5 -17.5t53 -4q46 0 97 8v-113
q-32 -7 -75 -11.5t-77 -4.5q-83 0 -126.5 37z" />
    <glyph glyph-name="Agrave" unicode="&#xc0;" horiz-adv-x="501" 
d="M353 0l-27 141h-154l-27 -141h-137l142 688h201l142 -688h-140zM252 558h-6l-54 -298h113zM210 749l-78 141v5h128l53 -141v-5h-103z" />
    <glyph glyph-name="Aacute" unicode="&#xc1;" horiz-adv-x="501" 
d="M353 0l-27 141h-154l-27 -141h-137l142 688h201l142 -688h-140zM252 558h-6l-54 -298h113zM185 750v5l53 141h128v-5l-79 -141h-102z" />
    <glyph glyph-name="Acircumflex" unicode="&#xc2;" horiz-adv-x="501" 
d="M353 0l-27 141h-154l-27 -141h-137l142 688h201l142 -688h-140zM252 558h-6l-54 -298h113zM111 750v8l75 123h129l76 -123v-8h-89l-52 71l-51 -71h-88z" />
    <glyph glyph-name="Atilde" unicode="&#xc3;" horiz-adv-x="501" 
d="M353 0l-27 141h-154l-27 -141h-137l142 688h201l142 -688h-140zM252 558h-6l-54 -298h113zM401 816.5q-4 -25.5 -19.5 -40t-50.5 -14.5t-89 16q-6 2 -24.5 7t-29.5 5q-13 0 -16 -8t-3 -32h-74q0 50 4 76t20 40.5t51 14.5q33 0 88 -17q40 -11 55 -11q13 0 15.5 7.5
t2.5 31.5h74q0 -50 -4 -75.5z" />
    <glyph glyph-name="Adieresis" unicode="&#xc4;" horiz-adv-x="501" 
d="M353 0l-27 141h-154l-27 -141h-137l142 688h201l142 -688h-140zM252 558h-6l-54 -298h113zM108 779v103h111v-103h-111zM283 779v103h111v-103h-111z" />
    <glyph glyph-name="Aring" unicode="&#xc5;" horiz-adv-x="501" 
d="M493 0h-140l-27 141h-154l-27 -141h-137l142 686q-18 12 -22.5 31.5t-4.5 57.5q0 44 7 66t34 33.5t86 11.5q60 0 87 -11.5t34 -33.5t7 -66q0 -37 -5 -57t-22 -31zM218.5 817q-9.5 -4 -11.5 -12.5t-2 -29.5t2 -29.5t11.5 -12.5t31.5 -4q23 0 32.5 4t12 12.5t2.5 29.5
t-2.5 29.5t-12 12.5t-32.5 4q-22 0 -31.5 -4zM192 260h113l-53 298h-6z" />
    <glyph glyph-name="AE" unicode="&#xc6;" horiz-adv-x="677" 
d="M333 0l-17 141h-156l-37 -141h-136l190 688h465v-121h-244l21 -159h196v-122h-181l23 -165h185v-121h-309zM268 559h-6l-74 -299h115z" />
    <glyph glyph-name="Ccedilla" unicode="&#xc7;" horiz-adv-x="396" 
d="M368 120v-111q-21 -7 -54.5 -12t-63.5 -5h-10l-33 -181h-113v5l62 187q-50 14 -75 52t-33.5 104.5t-8.5 184.5q0 145 15 217.5t59.5 103.5t136.5 31q33 0 65.5 -4.5t50.5 -11.5v-112q-58 7 -88 7q-51 0 -70.5 -13.5t-25 -57.5t-5.5 -160t5.5 -160t25 -57.5t70.5 -13.5
q46 0 90 7z" />
    <glyph glyph-name="Egrave" unicode="&#xc8;" horiz-adv-x="421" 
d="M52 0v688h334v-121h-196v-159h169v-121h-169v-166h196v-121h-334zM181 750l-78 141v5h128l53 -141v-5h-103z" />
    <glyph glyph-name="Eacute" unicode="&#xc9;" horiz-adv-x="421" 
d="M52 0v688h334v-121h-196v-159h169v-121h-169v-166h196v-121h-334zM169 750v5l53 141h128v-5l-79 -141h-102z" />
    <glyph glyph-name="Ecircumflex" unicode="&#xca;" horiz-adv-x="421" 
d="M52 0v688h334v-121h-196v-159h169v-121h-169v-166h196v-121h-334zM78 750v8l75 123h129l76 -123v-8h-89l-52 71l-51 -71h-88z" />
    <glyph glyph-name="Edieresis" unicode="&#xcb;" horiz-adv-x="421" 
d="M52 0v688h334v-121h-196v-159h169v-121h-169v-166h196v-121h-334zM77 777v103h111v-103h-111zM252 777v103h111v-103h-111z" />
    <glyph glyph-name="Igrave" unicode="&#xcc;" horiz-adv-x="243" 
d="M53 0v688h137v-688h-137zM88 750l-78 141v5h128l53 -141v-5h-103z" />
    <glyph glyph-name="Iacute" unicode="&#xcd;" horiz-adv-x="243" 
d="M53 0v688h137v-688h-137zM56 750v5l53 141h128v-5l-79 -141h-102z" />
    <glyph glyph-name="Icircumflex" unicode="&#xce;" horiz-adv-x="243" 
d="M53 0v688h137v-688h-137zM-18 750v8l75 123h129l76 -123v-8h-89l-52 71l-51 -71h-88z" />
    <glyph glyph-name="Idieresis" unicode="&#xcf;" horiz-adv-x="243" 
d="M53 0v688h137v-688h-137zM-21 779v103h111v-103h-111zM154 779v103h111v-103h-111z" />
    <glyph glyph-name="Eth" unicode="&#xd0;" horiz-adv-x="496" 
d="M52 289h-47v117h47v282h186q106 0 151.5 -29.5t56.5 -95t11 -219.5t-11 -219.5t-56.5 -95t-151.5 -29.5h-186v289zM295.5 131.5q15.5 10.5 20 52.5t4.5 160q0 117 -5 159.5t-20 53t-59 10.5h-47v-161h60v-117h-60v-168h47q44 0 59.5 10.5z" />
    <glyph glyph-name="Ntilde" unicode="&#xd1;" horiz-adv-x="523" 
d="M347 0l-160 377h-4v-377h-131v688h133l149 -348h5v348h132v-688h-124zM412 817.5q-4 -25.5 -19.5 -40t-50.5 -14.5t-89 16q-6 2 -24.5 7t-29.5 5q-13 0 -16 -8t-3 -32h-74q0 50 4 76t20 40.5t51 14.5q33 0 88 -17q40 -11 55 -11q13 0 15.5 7.5t2.5 31.5h74
q0 -50 -4 -75.5z" />
    <glyph glyph-name="Ograve" unicode="&#xd2;" 
d="M105 22.5q-44 30.5 -55 98t-11 223.5q0 157 11 224t55 97.5t148 30.5t148 -30.5t55 -97.5t11 -224q0 -156 -11 -223.5t-55 -98t-148 -30.5t-148 30.5zM307 124q14 11 18 54t4 166t-4 166t-18 54t-54 11t-54 -11t-18 -54t-4 -166t4 -166t18 -54t54 -11t54 11zM205 750
l-78 141v5h128l53 -141v-5h-103z" />
    <glyph glyph-name="Oacute" unicode="&#xd3;" 
d="M105 22.5q-44 30.5 -55 98t-11 223.5q0 157 11 224t55 97.5t148 30.5t148 -30.5t55 -97.5t11 -224q0 -156 -11 -223.5t-55 -98t-148 -30.5t-148 30.5zM307 124q14 11 18 54t4 166t-4 166t-18 54t-54 11t-54 -11t-18 -54t-4 -166t4 -166t18 -54t54 -11t54 11zM193 750v5
l53 141h128v-5l-79 -141h-102z" />
    <glyph glyph-name="Ocircumflex" unicode="&#xd4;" 
d="M105 22.5q-44 30.5 -55 98t-11 223.5q0 157 11 224t55 97.5t148 30.5t148 -30.5t55 -97.5t11 -224q0 -156 -11 -223.5t-55 -98t-148 -30.5t-148 30.5zM307 124q14 11 18 54t4 166t-4 166t-18 54t-54 11t-54 -11t-18 -54t-4 -166t4 -166t18 -54t54 -11t54 11zM113 750v8
l75 123h129l76 -123v-8h-89l-52 71l-51 -71h-88z" />
    <glyph glyph-name="Otilde" unicode="&#xd5;" 
d="M105 22.5q-44 30.5 -55 98t-11 223.5q0 157 11 224t55 97.5t148 30.5t148 -30.5t55 -97.5t11 -224q0 -156 -11 -223.5t-55 -98t-148 -30.5t-148 30.5zM307 124q14 11 18 54t4 166t-4 166t-18 54t-54 11t-54 -11t-18 -54t-4 -166t4 -166t18 -54t54 -11t54 11zM404 816.5
q-4 -25.5 -19.5 -40t-50.5 -14.5t-89 16q-6 2 -24.5 7t-29.5 5q-13 0 -16 -8t-3 -32h-74q0 50 4 76t20 40.5t51 14.5q33 0 88 -17q40 -11 55 -11q13 0 15.5 7.5t2.5 31.5h74q0 -50 -4 -75.5z" />
    <glyph glyph-name="Odieresis" unicode="&#xd6;" 
d="M105 22.5q-44 30.5 -55 98t-11 223.5q0 157 11 224t55 97.5t148 30.5t148 -30.5t55 -97.5t11 -224q0 -156 -11 -223.5t-55 -98t-148 -30.5t-148 30.5zM307 124q14 11 18 54t4 166t-4 166t-18 54t-54 11t-54 -11t-18 -54t-4 -166t4 -166t18 -54t54 -11t54 11zM110 779v103
h111v-103h-111zM285 779v103h111v-103h-111z" />
    <glyph glyph-name="multiply" unicode="&#xd7;" horiz-adv-x="447" 
d="M223 175l-90 -90l-78 77l91 91l-91 90l78 78l90 -91l91 91l77 -78l-90 -90l90 -91l-77 -77z" />
    <glyph glyph-name="Oslash" unicode="&#xd8;" 
d="M426 642q27 -36 34 -100t7 -198q0 -156 -11 -223.5t-55 -98t-148 -30.5q-46 0 -80 6l-20 -53h-114l40 102q-26 36 -33 100t-7 197q0 157 11 224t55 97.5t148 30.5q41 0 79 -5l20 52h115zM307 124q14 11 18 54t4 166t-4 166t-18 54t-54 11t-54 -11t-18 -54t-4 -166t4 -166
t18 -54t54 -11t54 11z" />
    <glyph glyph-name="Ugrave" unicode="&#xd9;" 
d="M458 688v-383q0 -136 -11.5 -197.5t-54 -88.5t-139.5 -27t-139.5 27t-54 88.5t-11.5 197.5v383h137v-429q0 -73 3.5 -100.5t17 -36.5t47.5 -9t47 9t16.5 36t3.5 101v429h138zM209 750l-78 141v5h128l53 -141v-5h-103z" />
    <glyph glyph-name="Uacute" unicode="&#xda;" 
d="M458 688v-383q0 -136 -11.5 -197.5t-54 -88.5t-139.5 -27t-139.5 27t-54 88.5t-11.5 197.5v383h137v-429q0 -73 3.5 -100.5t17 -36.5t47.5 -9t47 9t16.5 36t3.5 101v429h138zM199 750v5l53 141h128v-5l-79 -141h-102z" />
    <glyph glyph-name="Ucircumflex" unicode="&#xdb;" 
d="M458 688v-383q0 -136 -11.5 -197.5t-54 -88.5t-139.5 -27t-139.5 27t-54 88.5t-11.5 197.5v383h137v-429q0 -73 3.5 -100.5t17 -36.5t47.5 -9t47 9t16.5 36t3.5 101v429h138zM114 750v8l75 123h129l76 -123v-8h-89l-52 71l-51 -71h-88z" />
    <glyph glyph-name="Udieresis" unicode="&#xdc;" 
d="M458 688v-383q0 -136 -11.5 -197.5t-54 -88.5t-139.5 -27t-139.5 27t-54 88.5t-11.5 197.5v383h137v-429q0 -73 3.5 -100.5t17 -36.5t47.5 -9t47 9t16.5 36t3.5 101v429h138zM110 779v103h111v-103h-111zM285 779v103h111v-103h-111z" />
    <glyph glyph-name="Yacute" unicode="&#xdd;" horiz-adv-x="463" 
d="M163 0v238l-163 450h141l90 -297h9l87 297h136l-163 -450v-238h-137zM181 750v5l53 141h128v-5l-79 -141h-102z" />
    <glyph glyph-name="Thorn" unicode="&#xde;" horiz-adv-x="475" 
d="M52 688h138v-103h89q73 0 110.5 -26t50.5 -75t13 -132q0 -79 -12 -128t-50.5 -77.5t-112.5 -28.5h-88v-118h-138v688zM244 239q33 0 47.5 8t19 30t4.5 75t-4.5 75t-18 29.5t-47.5 7.5h-55v-225h54z" />
    <glyph glyph-name="germandbls" unicode="&#xdf;" horiz-adv-x="457" 
d="M221 0v108h14q29 0 40 7.5t14.5 35.5t3.5 101q0 61 -4.5 87.5t-16 34t-37.5 7.5h-9v109h9q24 0 34.5 6t14 21.5t3.5 48.5t-5.5 49t-17 21.5t-33.5 5.5q-23 0 -34.5 -6.5t-16.5 -28t-5 -66.5v-541h-129v545q0 73 17 117t57.5 66t111.5 22q101 0 143 -40t42 -126
q0 -64 -22.5 -97.5t-70.5 -44.5v-4q52 -12 75 -55.5t23 -139.5q0 -90 -13 -141t-51 -76.5t-112 -25.5h-25z" />
    <glyph glyph-name="agrave" unicode="&#xe0;" horiz-adv-x="426" 
d="M52 29.5q-27 37.5 -27 117.5q0 59 12 92.5t40.5 49t79.5 15.5q36 0 96 -4v23q0 42 -6.5 59.5t-24 22.5t-60.5 5q-42 0 -112 -7v100q75 15 151 15q75 0 114 -20t53 -63t14 -123v-312h-123l-4 60h-7q-13 -37 -42 -52.5t-65 -15.5q-62 0 -89 37.5zM224.5 108q10.5 4 17.5 15
q11 17 11 69v25h-60q-26 0 -34.5 -11t-8.5 -48q0 -32 8.5 -43t38.5 -11q17 0 27.5 4zM171 597l-78 141v5h128l53 -141v-5h-103z" />
    <glyph glyph-name="aacute" unicode="&#xe1;" horiz-adv-x="426" 
d="M52 29.5q-27 37.5 -27 117.5q0 59 12 92.5t40.5 49t79.5 15.5q36 0 96 -4v23q0 42 -6.5 59.5t-24 22.5t-60.5 5q-42 0 -112 -7v100q75 15 151 15q75 0 114 -20t53 -63t14 -123v-312h-123l-4 60h-7q-13 -37 -42 -52.5t-65 -15.5q-62 0 -89 37.5zM224.5 108q10.5 4 17.5 15
q11 17 11 69v25h-60q-26 0 -34.5 -11t-8.5 -48q0 -32 8.5 -43t38.5 -11q17 0 27.5 4zM157 597v5l53 141h128v-5l-79 -141h-102z" />
    <glyph glyph-name="acircumflex" unicode="&#xe2;" horiz-adv-x="426" 
d="M52 29.5q-27 37.5 -27 117.5q0 59 12 92.5t40.5 49t79.5 15.5q36 0 96 -4v23q0 42 -6.5 59.5t-24 22.5t-60.5 5q-42 0 -112 -7v100q75 15 151 15q75 0 114 -20t53 -63t14 -123v-312h-123l-4 60h-7q-13 -37 -42 -52.5t-65 -15.5q-62 0 -89 37.5zM224.5 108q10.5 4 17.5 15
q11 17 11 69v25h-60q-26 0 -34.5 -11t-8.5 -48q0 -32 8.5 -43t38.5 -11q17 0 27.5 4zM74 612v8l75 123h129l76 -123v-8h-89l-52 71l-51 -71h-88z" />
    <glyph glyph-name="atilde" unicode="&#xe3;" horiz-adv-x="426" 
d="M52 29.5q-27 37.5 -27 117.5q0 59 12 92.5t40.5 49t79.5 15.5q36 0 96 -4v23q0 42 -6.5 59.5t-24 22.5t-60.5 5q-42 0 -112 -7v100q75 15 151 15q75 0 114 -20t53 -63t14 -123v-312h-123l-4 60h-7q-13 -37 -42 -52.5t-65 -15.5q-62 0 -89 37.5zM224.5 108q10.5 4 17.5 15
q11 17 11 69v25h-60q-26 0 -34.5 -11t-8.5 -48q0 -32 8.5 -43t38.5 -11q17 0 27.5 4zM364 667.5q-4 -25.5 -19.5 -40t-50.5 -14.5t-89 16q-6 2 -24.5 7t-29.5 5q-13 0 -16 -8t-3 -32h-74q0 50 4 76t20 40.5t51 14.5q33 0 88 -17q40 -11 55 -11q13 0 15.5 7.5t2.5 31.5h74
q0 -50 -4 -75.5z" />
    <glyph glyph-name="adieresis" unicode="&#xe4;" horiz-adv-x="426" 
d="M52 29.5q-27 37.5 -27 117.5q0 59 12 92.5t40.5 49t79.5 15.5q36 0 96 -4v23q0 42 -6.5 59.5t-24 22.5t-60.5 5q-42 0 -112 -7v100q75 15 151 15q75 0 114 -20t53 -63t14 -123v-312h-123l-4 60h-7q-13 -37 -42 -52.5t-65 -15.5q-62 0 -89 37.5zM224.5 108q10.5 4 17.5 15
q11 17 11 69v25h-60q-26 0 -34.5 -11t-8.5 -48q0 -32 8.5 -43t38.5 -11q17 0 27.5 4zM71 623v103h111v-103h-111zM246 623v103h111v-103h-111z" />
    <glyph glyph-name="aring" unicode="&#xe5;" horiz-adv-x="426" 
d="M52 29.5q-27 37.5 -27 117.5q0 59 12 92.5t40.5 49t79.5 15.5q36 0 96 -4v23q0 42 -6.5 59.5t-24 22.5t-60.5 5q-42 0 -112 -7v100q75 15 151 15q75 0 114 -20t53 -63t14 -123v-312h-123l-4 60h-7q-13 -37 -42 -52.5t-65 -15.5q-62 0 -89 37.5zM224.5 108q10.5 4 17.5 15
q11 17 11 69v25h-60q-26 0 -34.5 -11t-8.5 -48q0 -32 8.5 -43t38.5 -11q17 0 27.5 4zM127.5 595.5q-26.5 11.5 -33.5 33t-7 64.5q0 44 7 65.5t33.5 33t85.5 11.5q60 0 86.5 -11.5t33.5 -33t7 -65.5t-7 -65t-33.5 -32.5t-86.5 -11.5q-59 0 -85.5 11.5zM245.5 651.5
q9.5 3.5 12 12t2.5 29.5t-2.5 30t-12 13t-32.5 4q-22 0 -31 -4t-11.5 -13t-2.5 -30t2.5 -29.5t11.5 -12t31 -3.5q23 0 32.5 3.5z" />
    <glyph glyph-name="ae" unicode="&#xe6;" horiz-adv-x="643" 
d="M608 215h-227q0 -57 5 -79t23 -29t65 -7q42 0 122 6v-99q-27 -7 -69.5 -11t-81.5 -4q-52 0 -84.5 10t-52.5 33q-47 -43 -140 -43q-79 0 -111 37t-32 117q0 59 12 93t40.5 49.5t79.5 15.5t95 -4v22q0 43 -6 60.5t-24 22.5t-61 5q-46 0 -112 -7v100q86 15 151 15
q81 0 119 -34q40 34 119 34q82 0 117.5 -26t44 -76t8.5 -162v-39zM399.5 404q-10.5 -7 -14 -29t-4.5 -73h106q0 51 -4 73.5t-14 29t-34 6.5q-25 0 -35.5 -7zM252 216h-60q-27 0 -35 -11t-8 -47q0 -35 8.5 -47t38.5 -12q21 0 32.5 6.5t17.5 23.5q6 21 6 60v27z" />
    <glyph glyph-name="ccedilla" unicode="&#xe7;" horiz-adv-x="341" 
d="M315 7q-46 -13 -102 -15l-33 -181h-113v5l62 186q-41 13 -61.5 44.5t-27 80t-6.5 128.5q0 99 12.5 154t48.5 82t107 27q68 0 110 -14v-100q-46 6 -73 6q-36 0 -51 -10t-20 -41t-5 -104q0 -74 5.5 -105t20.5 -40.5t51 -9.5q25 0 75 6v-99z" />
    <glyph glyph-name="egrave" unicode="&#xe8;" horiz-adv-x="425" 
d="M390 215h-227q0 -57 5 -79t23 -29t65 -7q38 0 122 6v-99q-27 -6 -70 -10.5t-82 -4.5q-89 0 -129.5 26.5t-51.5 78.5t-11 157q0 103 11 156t50 80.5t123 27.5q82 0 118.5 -25.5t45 -76.5t8.5 -162v-39zM181.5 404q-10.5 -7 -14.5 -29t-4 -73h106q0 51 -4 73.5t-14 29
t-34 6.5q-25 0 -35.5 -7zM174 597l-78 141v5h128l53 -141v-5h-103z" />
    <glyph glyph-name="eacute" unicode="&#xe9;" horiz-adv-x="425" 
d="M390 215h-227q0 -57 5 -79t23 -29t65 -7q38 0 122 6v-99q-27 -6 -70 -10.5t-82 -4.5q-89 0 -129.5 26.5t-51.5 78.5t-11 157q0 103 11 156t50 80.5t123 27.5q82 0 118.5 -25.5t45 -76.5t8.5 -162v-39zM181.5 404q-10.5 -7 -14.5 -29t-4 -73h106q0 51 -4 73.5t-14 29
t-34 6.5q-25 0 -35.5 -7zM164 597v5l53 141h128v-5l-79 -141h-102z" />
    <glyph glyph-name="ecircumflex" unicode="&#xea;" horiz-adv-x="425" 
d="M390 215h-227q0 -57 5 -79t23 -29t65 -7q38 0 122 6v-99q-27 -6 -70 -10.5t-82 -4.5q-89 0 -129.5 26.5t-51.5 78.5t-11 157q0 103 11 156t50 80.5t123 27.5q82 0 118.5 -25.5t45 -76.5t8.5 -162v-39zM181.5 404q-10.5 -7 -14.5 -29t-4 -73h106q0 51 -4 73.5t-14 29
t-34 6.5q-25 0 -35.5 -7zM80 612v8l75 123h129l76 -123v-8h-89l-52 71l-51 -71h-88z" />
    <glyph glyph-name="edieresis" unicode="&#xeb;" horiz-adv-x="425" 
d="M390 215h-227q0 -57 5 -79t23 -29t65 -7q38 0 122 6v-99q-27 -6 -70 -10.5t-82 -4.5q-89 0 -129.5 26.5t-51.5 78.5t-11 157q0 103 11 156t50 80.5t123 27.5q82 0 118.5 -25.5t45 -76.5t8.5 -162v-39zM181.5 404q-10.5 -7 -14.5 -29t-4 -73h106q0 51 -4 73.5t-14 29
t-34 6.5q-25 0 -35.5 -7zM76 623v103h111v-103h-111zM251 623v103h111v-103h-111z" />
    <glyph glyph-name="igrave" unicode="&#xec;" horiz-adv-x="221" 
d="M46 0v510h129v-510h-129zM72 597l-78 141v5h128l53 -141v-5h-103z" />
    <glyph glyph-name="iacute" unicode="&#xed;" horiz-adv-x="221" 
d="M46 0v510h129v-510h-129zM47 597v5l53 141h128v-5l-79 -141h-102z" />
    <glyph glyph-name="icircumflex" unicode="&#xee;" horiz-adv-x="221" 
d="M46 0v510h129v-510h-129zM-29 612v8l75 123h129l76 -123v-8h-89l-52 71l-51 -71h-88z" />
    <glyph glyph-name="idieresis" unicode="&#xef;" horiz-adv-x="221" 
d="M46 0v510h129v-510h-129zM-31 623v103h111v-103h-111zM144 623v103h111v-103h-111z" />
    <glyph glyph-name="eth" unicode="&#xf0;" horiz-adv-x="439" 
d="M94.5 15q-38.5 23 -49.5 74.5t-11 164.5q0 99 9 153t39.5 82t92.5 28q42 0 71 -12l3 4q-15 56 -32 92l-89 -13v76l53 7q-26 40 -48 68v4h131q9 -11 40 -53l88 13v-76l-51 -8q27 -60 46 -158q15 -75 15 -204q0 -115 -10.5 -167t-48.5 -75t-124 -23t-124.5 23zM257.5 109
q10.5 9 13 36.5t2.5 108.5q0 79 -2.5 107t-13.5 38.5t-39 10.5q-29 0 -39.5 -9t-13 -37t-2.5 -110q0 -81 2.5 -108.5t13 -36.5t39.5 -9t39.5 9z" />
    <glyph glyph-name="ntilde" unicode="&#xf1;" horiz-adv-x="450" 
d="M277 276q0 64 -3 88t-12 30.5t-34 6.5q-26 0 -36.5 -10t-13.5 -37.5t-3 -92.5v-261h-129v510h122l4 -61h7q14 38 43 53.5t70 15.5q48 0 72.5 -19t33 -57.5t8.5 -106.5v-335h-129v276zM379 667.5q-4 -25.5 -19.5 -40t-50.5 -14.5t-89 16q-6 2 -24.5 7t-29.5 5
q-13 0 -16 -8t-3 -32h-74q0 50 4 76t20 40.5t51 14.5q33 0 88 -17q40 -11 55 -11q13 0 15.5 7.5t2.5 31.5h74q0 -50 -4 -75.5z" />
    <glyph glyph-name="ograve" unicode="&#xf2;" horiz-adv-x="436" 
d="M94 14q-38 22 -49 74t-11 167t11 167t49 74t124 22t124 -22t49 -74t11 -167t-11 -167t-49 -74t-124 -22t-124 22zM257.5 109q10.5 9 13 37.5t2.5 108.5t-2.5 108.5t-13 37.5t-39.5 9t-39.5 -9t-13 -37.5t-2.5 -108.5t2.5 -108.5t13 -37.5t39.5 -9t39.5 9zM172 597
l-78 141v5h128l53 -141v-5h-103z" />
    <glyph glyph-name="oacute" unicode="&#xf3;" horiz-adv-x="436" 
d="M94 14q-38 22 -49 74t-11 167t11 167t49 74t124 22t124 -22t49 -74t11 -167t-11 -167t-49 -74t-124 -22t-124 22zM257.5 109q10.5 9 13 37.5t2.5 108.5t-2.5 108.5t-13 37.5t-39.5 9t-39.5 -9t-13 -37.5t-2.5 -108.5t2.5 -108.5t13 -37.5t39.5 -9t39.5 9zM161 597v5
l53 141h128v-5l-79 -141h-102z" />
    <glyph glyph-name="ocircumflex" unicode="&#xf4;" horiz-adv-x="436" 
d="M94 14q-38 22 -49 74t-11 167t11 167t49 74t124 22t124 -22t49 -74t11 -167t-11 -167t-49 -74t-124 -22t-124 22zM257.5 109q10.5 9 13 37.5t2.5 108.5t-2.5 108.5t-13 37.5t-39.5 9t-39.5 -9t-13 -37.5t-2.5 -108.5t2.5 -108.5t13 -37.5t39.5 -9t39.5 9zM79 612v8
l75 123h129l76 -123v-8h-89l-52 71l-51 -71h-88z" />
    <glyph glyph-name="otilde" unicode="&#xf5;" horiz-adv-x="436" 
d="M94 14q-38 22 -49 74t-11 167t11 167t49 74t124 22t124 -22t49 -74t11 -167t-11 -167t-49 -74t-124 -22t-124 22zM257.5 109q10.5 9 13 37.5t2.5 108.5t-2.5 108.5t-13 37.5t-39.5 9t-39.5 -9t-13 -37.5t-2.5 -108.5t2.5 -108.5t13 -37.5t39.5 -9t39.5 9zM371 667.5
q-4 -25.5 -19.5 -40t-50.5 -14.5t-89 16q-6 2 -24.5 7t-29.5 5q-13 0 -16 -8t-3 -32h-74q0 50 4 76t20 40.5t51 14.5q33 0 88 -17q40 -11 55 -11q13 0 15.5 7.5t2.5 31.5h74q0 -50 -4 -75.5z" />
    <glyph glyph-name="odieresis" unicode="&#xf6;" horiz-adv-x="436" 
d="M94 14q-38 22 -49 74t-11 167t11 167t49 74t124 22t124 -22t49 -74t11 -167t-11 -167t-49 -74t-124 -22t-124 22zM257.5 109q10.5 9 13 37.5t2.5 108.5t-2.5 108.5t-13 37.5t-39.5 9t-39.5 -9t-13 -37.5t-2.5 -108.5t2.5 -108.5t13 -37.5t39.5 -9t39.5 9zM76 623v103h111
v-103h-111zM251 623v103h111v-103h-111z" />
    <glyph glyph-name="divide" unicode="&#xf7;" horiz-adv-x="472" 
d="M181 371v94h110v-94h-110zM57 198v109h359v-109h-359zM181 41v93h110v-93h-110z" />
    <glyph glyph-name="oslash" unicode="&#xf8;" horiz-adv-x="436" 
d="M70 34q-22 27 -29 76t-7 145q0 115 11 167t49 74t124 22q29 0 51 -3l21 50h112l-36 -89q22 -27 29 -76t7 -145q0 -115 -11 -167t-49 -74t-124 -22q-30 0 -51 3l-20 -50h-113zM257.5 109q10.5 9 13 37.5t2.5 108.5t-2.5 108.5t-13 37.5t-39.5 9t-39.5 -9t-13 -37.5
t-2.5 -108.5t2.5 -108.5t13 -37.5t39.5 -9t39.5 9z" />
    <glyph glyph-name="ugrave" unicode="&#xf9;" horiz-adv-x="450" 
d="M279 61h-8q-24 -69 -112 -69q-49 0 -73.5 19t-33 57.5t-8.5 106.5v335h129v-276q0 -64 3 -88t12.5 -30.5t34.5 -6.5t35.5 10t13.5 37.5t3 92.5v261h129v-510h-121zM179 597l-78 141v5h128l53 -141v-5h-103z" />
    <glyph glyph-name="uacute" unicode="&#xfa;" horiz-adv-x="450" 
d="M279 61h-8q-24 -69 -112 -69q-49 0 -73.5 19t-33 57.5t-8.5 106.5v335h129v-276q0 -64 3 -88t12.5 -30.5t34.5 -6.5t35.5 10t13.5 37.5t3 92.5v261h129v-510h-121zM170 597v5l53 141h128v-5l-79 -141h-102z" />
    <glyph glyph-name="ucircumflex" unicode="&#xfb;" horiz-adv-x="450" 
d="M279 61h-8q-24 -69 -112 -69q-49 0 -73.5 19t-33 57.5t-8.5 106.5v335h129v-276q0 -64 3 -88t12.5 -30.5t34.5 -6.5t35.5 10t13.5 37.5t3 92.5v261h129v-510h-121zM85 612v8l75 123h129l76 -123v-8h-89l-52 71l-51 -71h-88z" />
    <glyph glyph-name="udieresis" unicode="&#xfc;" horiz-adv-x="450" 
d="M279 61h-8q-24 -69 -112 -69q-49 0 -73.5 19t-33 57.5t-8.5 106.5v335h129v-276q0 -64 3 -88t12.5 -30.5t34.5 -6.5t35.5 10t13.5 37.5t3 92.5v261h129v-510h-121zM82 623v103h111v-103h-111zM257 623v103h111v-103h-111z" />
    <glyph glyph-name="yacute" unicode="&#xfd;" horiz-adv-x="450" 
d="M137 -200q-40 3 -65 7v100q37 -1 111 -1q46 0 64.5 7.5t23 30t4.5 80.5v43h-7q-24 -66 -109 -66q-50 0 -74.5 20.5t-32.5 61t-8 115.5v312h129v-268q0 -64 3 -88t12.5 -30.5t34.5 -6.5q26 0 36 10t13 36.5t3 93.5v253h129v-450q0 -103 -11 -155.5t-51.5 -80t-128.5 -27.5
q-36 0 -76 3zM169 597v5l53 141h128v-5l-79 -141h-102z" />
    <glyph glyph-name="thorn" unicode="&#xfe;" horiz-adv-x="446" 
d="M46 743h129v-292h7q21 67 102 67q49 0 76.5 -22.5t39.5 -79t12 -160.5q0 -103 -11 -159t-38 -80.5t-77 -24.5q-80 0 -104 62h-7v-244h-129v933zM265.5 116q10.5 8 14 36.5t3.5 102.5t-3.5 102.5t-14 36.5t-37.5 8q-23 0 -33.5 -8.5t-14.5 -35.5q-5 -26 -5 -103
q0 -65 3 -94q4 -32 15 -42.5t35 -10.5q27 0 37.5 8z" />
    <glyph glyph-name="ydieresis" unicode="&#xff;" horiz-adv-x="450" 
d="M137 -200q-40 3 -65 7v100q37 -1 111 -1q46 0 64.5 7.5t23 30t4.5 80.5v43h-7q-24 -66 -109 -66q-50 0 -74.5 20.5t-32.5 61t-8 115.5v312h129v-268q0 -64 3 -88t12.5 -30.5t34.5 -6.5q26 0 36 10t13 36.5t3 93.5v253h129v-450q0 -103 -11 -155.5t-51.5 -80t-128.5 -27.5
q-36 0 -76 3zM82 623v103h111v-103h-111zM257 623v103h111v-103h-111z" />
    <glyph glyph-name="Amacron" unicode="&#x100;" horiz-adv-x="501" 
d="M353 0l-27 141h-154l-27 -141h-137l142 688h201l142 -688h-140zM252 558h-6l-54 -298h113zM150 772v116h202v-116h-202z" />
    <glyph glyph-name="amacron" unicode="&#x101;" horiz-adv-x="426" 
d="M52 29.5q-27 37.5 -27 117.5q0 59 12 92.5t40.5 49t79.5 15.5q36 0 96 -4v23q0 42 -6.5 59.5t-24 22.5t-60.5 5q-42 0 -112 -7v100q75 15 151 15q75 0 114 -20t53 -63t14 -123v-312h-123l-4 60h-7q-13 -37 -42 -52.5t-65 -15.5q-62 0 -89 37.5zM224.5 108q10.5 4 17.5 15
q11 17 11 69v25h-60q-26 0 -34.5 -11t-8.5 -48q0 -32 8.5 -43t38.5 -11q17 0 27.5 4zM112 627v116h202v-116h-202z" />
    <glyph glyph-name="Abreve" unicode="&#x102;" horiz-adv-x="501" 
d="M353 0l-27 141h-154l-27 -141h-137l142 688h201l142 -688h-140zM252 558h-6l-54 -298h113zM371.5 814q-9.5 -29 -38 -45.5t-84.5 -16.5q-55 0 -83 16.5t-37 45.5t-9 74h79q0 -23 2.5 -34.5t13 -19t34.5 -7.5q35 0 44 14.5t9 46.5h79q0 -45 -9.5 -74z" />
    <glyph glyph-name="abreve" unicode="&#x103;" horiz-adv-x="426" 
d="M52 29.5q-27 37.5 -27 117.5q0 59 12 92.5t40.5 49t79.5 15.5q36 0 96 -4v23q0 42 -6.5 59.5t-24 22.5t-60.5 5q-42 0 -112 -7v100q75 15 151 15q75 0 114 -20t53 -63t14 -123v-312h-123l-4 60h-7q-13 -37 -42 -52.5t-65 -15.5q-62 0 -89 37.5zM224.5 108q10.5 4 17.5 15
q11 17 11 69v25h-60q-26 0 -34.5 -11t-8.5 -48q0 -32 8.5 -43t38.5 -11q17 0 27.5 4zM333.5 669q-9.5 -29 -38 -45.5t-84.5 -16.5q-55 0 -83 16.5t-37 45.5t-9 74h79q0 -23 2.5 -34.5t13 -19t34.5 -7.5q35 0 44 14.5t9 46.5h79q0 -45 -9.5 -74z" />
    <glyph glyph-name="Aogonek" unicode="&#x104;" horiz-adv-x="501" 
d="M409.5 -114q8.5 -10 30.5 -10l13 1v-69q-23 -4 -53 -4q-54 0 -77 23.5t-23 62.5q0 28 14.5 57.5t38.5 54.5l-27 139h-154l-27 -141h-137l142 688h201l142 -688h-46q-17 -17 -31.5 -41t-14.5 -45q0 -18 8.5 -28zM192 260h113l-53 298h-6z" />
    <glyph glyph-name="aogonek" unicode="&#x105;" horiz-adv-x="426" 
d="M347 -39q-16 -25 -16 -50q0 -35 38 -35l13 1v-69q-21 -4 -51 -4q-54 0 -77.5 23.5t-23.5 59.5q0 58 55 113h-26l-4 60h-7q-13 -37 -42 -52.5t-65 -15.5q-62 0 -89 37.5t-27 117.5q0 59 12 92.5t40.5 49t79.5 15.5q36 0 96 -4v23q0 42 -6.5 59.5t-24 22.5t-60.5 5
q-42 0 -112 -7v100q75 15 151 15q75 0 114 -20t53 -63t14 -123v-312q-19 -14 -35 -39zM253 217h-60q-26 0 -34.5 -11t-8.5 -48q0 -32 8.5 -43t38.5 -11q17 0 27.5 4t17.5 15q11 17 11 69v25z" />
    <glyph glyph-name="Cacute" unicode="&#x106;" horiz-adv-x="396" 
d="M313.5 -3q-33.5 -5 -63.5 -5q-94 0 -138 31t-58.5 103t-14.5 218q0 145 15 217.5t59.5 103.5t136.5 31q33 0 65.5 -4.5t50.5 -11.5v-112q-58 7 -88 7q-51 0 -70.5 -13.5t-25 -57.5t-5.5 -160t5.5 -160t25 -57.5t70.5 -13.5q46 0 90 7v-111q-21 -7 -54.5 -12zM142 742v5
l53 141h128v-5l-79 -141h-102z" />
    <glyph glyph-name="cacute" unicode="&#x107;" horiz-adv-x="341" 
d="M203 -8q-74 0 -110 28t-47.5 82t-11.5 153t12.5 154t48.5 82t107 27q68 0 110 -14v-100q-46 6 -73 6q-36 0 -51 -10t-20 -41t-5 -104q0 -74 5.5 -105t20.5 -40.5t51 -9.5q25 0 75 6v-99q-51 -15 -112 -15zM114 597v5l53 141h128v-5l-79 -141h-102z" />
    <glyph glyph-name="Ccircumflex" unicode="&#x108;" horiz-adv-x="396" 
d="M313.5 -3q-33.5 -5 -63.5 -5q-94 0 -138 31t-58.5 103t-14.5 218q0 145 15 217.5t59.5 103.5t136.5 31q33 0 65.5 -4.5t50.5 -11.5v-112q-58 7 -88 7q-51 0 -70.5 -13.5t-25 -57.5t-5.5 -160t5.5 -160t25 -57.5t70.5 -13.5q46 0 90 7v-111q-21 -7 -54.5 -12zM58 757v8
l75 123h129l76 -123v-8h-89l-52 71l-51 -71h-88z" />
    <glyph glyph-name="ccircumflex" unicode="&#x109;" horiz-adv-x="341" 
d="M203 -8q-74 0 -110 28t-47.5 82t-11.5 153t12.5 154t48.5 82t107 27q68 0 110 -14v-100q-46 6 -73 6q-36 0 -51 -10t-20 -41t-5 -104q0 -74 5.5 -105t20.5 -40.5t51 -9.5q25 0 75 6v-99q-51 -15 -112 -15zM31 612v8l75 123h129l76 -123v-8h-89l-52 71l-51 -71h-88z" />
    <glyph glyph-name="Cdotaccent" unicode="&#x10a;" horiz-adv-x="396" 
d="M313.5 -3q-33.5 -5 -63.5 -5q-94 0 -138 31t-58.5 103t-14.5 218q0 145 15 217.5t59.5 103.5t136.5 31q33 0 65.5 -4.5t50.5 -11.5v-112q-58 7 -88 7q-51 0 -70.5 -13.5t-25 -57.5t-5.5 -160t5.5 -160t25 -57.5t70.5 -13.5q46 0 90 7v-111q-21 -7 -54.5 -12zM143 772v103
h111v-103h-111z" />
    <glyph glyph-name="cdotaccent" unicode="&#x10b;" horiz-adv-x="341" 
d="M203 -8q-74 0 -110 28t-47.5 82t-11.5 153t12.5 154t48.5 82t107 27q68 0 110 -14v-100q-46 6 -73 6q-36 0 -51 -10t-20 -41t-5 -104q0 -74 5.5 -105t20.5 -40.5t51 -9.5q25 0 75 6v-99q-51 -15 -112 -15zM116 627v103h111v-103h-111z" />
    <glyph glyph-name="Ccaron" unicode="&#x10c;" horiz-adv-x="396" 
d="M313.5 -3q-33.5 -5 -63.5 -5q-94 0 -138 31t-58.5 103t-14.5 218q0 145 15 217.5t59.5 103.5t136.5 31q33 0 65.5 -4.5t50.5 -11.5v-112q-58 7 -88 7q-51 0 -70.5 -13.5t-25 -57.5t-5.5 -160t5.5 -160t25 -57.5t70.5 -13.5q46 0 90 7v-111q-21 -7 -54.5 -12zM134 756
l-75 124v8h88l51 -71l52 71h88v-8l-76 -124h-128z" />
    <glyph glyph-name="ccaron" unicode="&#x10d;" horiz-adv-x="341" 
d="M203 -8q-74 0 -110 28t-47.5 82t-11.5 153t12.5 154t48.5 82t107 27q68 0 110 -14v-100q-46 6 -73 6q-36 0 -51 -10t-20 -41t-5 -104q0 -74 5.5 -105t20.5 -40.5t51 -9.5q25 0 75 6v-99q-51 -15 -112 -15zM107 611l-75 124v8h88l51 -71l52 71h88v-8l-76 -124h-128z" />
    <glyph glyph-name="Dcaron" unicode="&#x10e;" horiz-adv-x="496" 
d="M52 688h186q106 0 151.5 -29.5t56.5 -95t11 -219.5t-11 -219.5t-56.5 -95t-151.5 -29.5h-186v688zM236 121q44 0 59.5 10.5t20 52.5t4.5 160q0 117 -5 159.5t-20 53t-59 10.5h-47v-446h47zM184 756l-75 124v8h88l51 -71l52 71h88v-8l-76 -124h-128z" />
    <glyph glyph-name="dcaron" unicode="&#x10f;" horiz-adv-x="512" 
d="M85 14.5q-27 22.5 -39 78.5t-12 161q0 103 11 159t38 80.5t77 24.5q39 0 65 -15t39 -47h7v287h129v-743h-122l-4 60h-8q-21 -68 -104 -68q-50 0 -77 22.5zM249.5 115q10.5 7 15.5 27q6 29 6 113q0 81 -4 103q-4 26 -15 35t-34 9q-27 0 -37.5 -8t-14 -36.5t-3.5 -102.5
t3.5 -102.5t14 -36.5t37.5 -8q21 0 31.5 7zM430 428l16 206v54h121v-54l-44 -206h-93z" />
    <glyph glyph-name="Dcroat" unicode="&#x110;" horiz-adv-x="496" 
d="M52 289h-47v117h47v282h186q106 0 151.5 -29.5t56.5 -95t11 -219.5t-11 -219.5t-56.5 -95t-151.5 -29.5h-186v289zM295.5 131.5q15.5 10.5 20 52.5t4.5 160q0 117 -5 159.5t-20 53t-59 10.5h-47v-161h60v-117h-60v-168h47q44 0 59.5 10.5z" />
    <glyph glyph-name="dcroat" unicode="&#x111;" horiz-adv-x="446" 
d="M442 581h-42v-581h-122l-4 60h-8q-21 -68 -104 -68q-50 0 -77 22.5t-39 78.5t-12 161q0 103 11 159t38 80.5t77 24.5q39 0 65 -15t39 -47h7v125h-92v107h92v55h129v-55h42v-107zM271 255q0 81 -4 103q-4 26 -15 35t-34 9q-27 0 -37.5 -8t-14 -36.5t-3.5 -102.5
t3.5 -102.5t14 -36.5t37.5 -8q21 0 31.5 7t15.5 27q6 29 6 113z" />
    <glyph glyph-name="Emacron" unicode="&#x112;" horiz-adv-x="421" 
d="M52 0v688h334v-121h-196v-159h169v-121h-169v-166h196v-121h-334zM118 772v116h202v-116h-202z" />
    <glyph glyph-name="emacron" unicode="&#x113;" horiz-adv-x="425" 
d="M390 215h-227q0 -57 5 -79t23 -29t65 -7q38 0 122 6v-99q-27 -6 -70 -10.5t-82 -4.5q-89 0 -129.5 26.5t-51.5 78.5t-11 157q0 103 11 156t50 80.5t123 27.5q82 0 118.5 -25.5t45 -76.5t8.5 -162v-39zM181.5 404q-10.5 -7 -14.5 -29t-4 -73h106q0 51 -4 73.5t-14 29
t-34 6.5q-25 0 -35.5 -7zM111 627v116h202v-116h-202z" />
    <glyph glyph-name="Ebreve" unicode="&#x114;" horiz-adv-x="421" 
d="M52 0v688h334v-121h-196v-159h169v-121h-169v-166h196v-121h-334zM339.5 814q-9.5 -29 -38 -45.5t-84.5 -16.5q-55 0 -83 16.5t-37 45.5t-9 74h79q0 -23 2.5 -34.5t13 -19t34.5 -7.5q35 0 44 14.5t9 46.5h79q0 -45 -9.5 -74z" />
    <glyph glyph-name="ebreve" unicode="&#x115;" horiz-adv-x="425" 
d="M390 215h-227q0 -57 5 -79t23 -29t65 -7q38 0 122 6v-99q-27 -6 -70 -10.5t-82 -4.5q-89 0 -129.5 26.5t-51.5 78.5t-11 157q0 103 11 156t50 80.5t123 27.5q82 0 118.5 -25.5t45 -76.5t8.5 -162v-39zM181.5 404q-10.5 -7 -14.5 -29t-4 -73h106q0 51 -4 73.5t-14 29
t-34 6.5q-25 0 -35.5 -7zM332.5 669q-9.5 -29 -38 -45.5t-84.5 -16.5q-55 0 -83 16.5t-37 45.5t-9 74h79q0 -23 2.5 -34.5t13 -19t34.5 -7.5q35 0 44 14.5t9 46.5h79q0 -45 -9.5 -74z" />
    <glyph glyph-name="Edotaccent" unicode="&#x116;" horiz-adv-x="421" 
d="M52 0v688h334v-121h-196v-159h169v-121h-169v-166h196v-121h-334zM164 772v103h111v-103h-111z" />
    <glyph glyph-name="edotaccent" unicode="&#x117;" horiz-adv-x="425" 
d="M390 215h-227q0 -57 5 -79t23 -29t65 -7q38 0 122 6v-99q-27 -6 -70 -10.5t-82 -4.5q-89 0 -129.5 26.5t-51.5 78.5t-11 157q0 103 11 156t50 80.5t123 27.5q82 0 118.5 -25.5t45 -76.5t8.5 -162v-39zM181.5 404q-10.5 -7 -14.5 -29t-4 -73h106q0 51 -4 73.5t-14 29
t-34 6.5q-25 0 -35.5 -7zM157 627v103h111v-103h-111z" />
    <glyph glyph-name="Eogonek" unicode="&#x118;" horiz-adv-x="421" 
d="M249.5 -172.5q-23.5 23.5 -23.5 58.5q0 58 63 114h-237v688h333v-121h-196v-159h170v-121h-170v-166h196v-121q-22 -15 -40 -39.5t-18 -49.5q0 -15 9 -25t29 -10l14 1v-69q-30 -4 -51 -4q-55 0 -78.5 23.5z" />
    <glyph glyph-name="eogonek" unicode="&#x119;" horiz-adv-x="425" 
d="M390 215h-227q0 -57 5 -79t23 -29t65 -7q38 0 122 6v-99q-25 -17 -46 -43.5t-21 -52.5q0 -15 8.5 -25t29.5 -10l14 1v-69q-30 -4 -51 -4q-55 0 -78.5 23.5t-23.5 58.5q0 56 56 107q-14 -1 -40 -1q-89 0 -129.5 26.5t-51.5 78.5t-11 157q0 103 11 156t50 80.5t123 27.5
q82 0 118.5 -25.5t45 -76.5t8.5 -162v-39zM181.5 404q-10.5 -7 -14.5 -29t-4 -73h106q0 51 -4 73.5t-14 29t-34 6.5q-25 0 -35.5 -7z" />
    <glyph glyph-name="Ecaron" unicode="&#x11a;" horiz-adv-x="421" 
d="M52 0v688h334v-121h-196v-159h169v-121h-169v-166h196v-121h-334zM155 756l-75 124v8h88l51 -71l52 71h88v-8l-76 -124h-128z" />
    <glyph glyph-name="ecaron" unicode="&#x11b;" horiz-adv-x="425" 
d="M390 215h-227q0 -57 5 -79t23 -29t65 -7q38 0 122 6v-99q-27 -6 -70 -10.5t-82 -4.5q-89 0 -129.5 26.5t-51.5 78.5t-11 157q0 103 11 156t50 80.5t123 27.5q82 0 118.5 -25.5t45 -76.5t8.5 -162v-39zM181.5 404q-10.5 -7 -14.5 -29t-4 -73h106q0 51 -4 73.5t-14 29
t-34 6.5q-25 0 -35.5 -7zM148 611l-75 124v8h88l51 -71l52 71h88v-8l-76 -124h-128z" />
    <glyph glyph-name="Gcircumflex" unicode="&#x11c;" horiz-adv-x="487" 
d="M251 282v118h189v-387q-35 -9 -85 -15t-93 -6q-95 0 -141.5 28.5t-64 102t-17.5 221.5q0 147 18.5 220.5t67.5 102.5t147 29q40 0 87 -6t80 -14v-113q-86 12 -125 12q-68 0 -93.5 -11t-35 -56.5t-9.5 -163.5q0 -110 6 -156.5t23.5 -62.5t59.5 -16q9 0 48 3v170h-62z
M103 757v8l75 123h129l76 -123v-8h-89l-52 71l-51 -71h-88z" />
    <glyph glyph-name="gcircumflex" unicode="&#x11d;" horiz-adv-x="446" 
d="M131 -200q-40 3 -65 8v99q18 0 26 -1l85 -1q47 0 65.5 8t23.5 31t5 82v38h-8q-23 -62 -102 -62q-50 0 -77.5 23.5t-38.5 78t-11 155.5q0 103 12 158.5t39 78t77 22.5q35 0 63.5 -15.5t40.5 -52.5h8l4 60h122v-449q0 -104 -11 -156.5t-52 -80t-130 -27.5q-36 0 -76 3z
M249.5 124q10.5 7 15.5 27q6 24 6 108q0 75 -5 100q-4 25 -14.5 33.5t-34.5 8.5q-27 0 -37 -7.5t-13.5 -35t-3.5 -99.5t3.5 -99.5t13.5 -35t37 -7.5q22 0 32.5 7zM83 612v8l75 123h129l76 -123v-8h-89l-52 71l-51 -71h-88z" />
    <glyph glyph-name="Gbreve" unicode="&#x11e;" horiz-adv-x="487" 
d="M251 282v118h189v-387q-35 -9 -85 -15t-93 -6q-95 0 -141.5 28.5t-64 102t-17.5 221.5q0 147 18.5 220.5t67.5 102.5t147 29q40 0 87 -6t80 -14v-113q-86 12 -125 12q-68 0 -93.5 -11t-35 -56.5t-9.5 -163.5q0 -110 6 -156.5t23.5 -62.5t59.5 -16q9 0 48 3v170h-62z
M363.5 814q-9.5 -29 -38 -45.5t-84.5 -16.5q-55 0 -83 16.5t-37 45.5t-9 74h79q0 -23 2.5 -34.5t13 -19t34.5 -7.5q35 0 44 14.5t9 46.5h79q0 -45 -9.5 -74z" />
    <glyph glyph-name="gbreve" unicode="&#x11f;" horiz-adv-x="446" 
d="M131 -200q-40 3 -65 8v99q18 0 26 -1l85 -1q47 0 65.5 8t23.5 31t5 82v38h-8q-23 -62 -102 -62q-50 0 -77.5 23.5t-38.5 78t-11 155.5q0 103 12 158.5t39 78t77 22.5q35 0 63.5 -15.5t40.5 -52.5h8l4 60h122v-449q0 -104 -11 -156.5t-52 -80t-130 -27.5q-36 0 -76 3z
M249.5 124q10.5 7 15.5 27q6 24 6 108q0 75 -5 100q-4 25 -14.5 33.5t-34.5 8.5q-27 0 -37 -7.5t-13.5 -35t-3.5 -99.5t3.5 -99.5t13.5 -35t37 -7.5q22 0 32.5 7zM343.5 669q-9.5 -29 -38 -45.5t-84.5 -16.5q-55 0 -83 16.5t-37 45.5t-9 74h79q0 -23 2.5 -34.5t13 -19
t34.5 -7.5q35 0 44 14.5t9 46.5h79q0 -45 -9.5 -74z" />
    <glyph glyph-name="Gdotaccent" unicode="&#x120;" horiz-adv-x="487" 
d="M251 282v118h189v-387q-35 -9 -85 -15t-93 -6q-95 0 -141.5 28.5t-64 102t-17.5 221.5q0 147 18.5 220.5t67.5 102.5t147 29q40 0 87 -6t80 -14v-113q-86 12 -125 12q-68 0 -93.5 -11t-35 -56.5t-9.5 -163.5q0 -110 6 -156.5t23.5 -62.5t59.5 -16q9 0 48 3v170h-62z
M188 772v103h111v-103h-111z" />
    <glyph glyph-name="gdotaccent" unicode="&#x121;" horiz-adv-x="446" 
d="M131 -200q-40 3 -65 8v99q18 0 26 -1l85 -1q47 0 65.5 8t23.5 31t5 82v38h-8q-23 -62 -102 -62q-50 0 -77.5 23.5t-38.5 78t-11 155.5q0 103 12 158.5t39 78t77 22.5q35 0 63.5 -15.5t40.5 -52.5h8l4 60h122v-449q0 -104 -11 -156.5t-52 -80t-130 -27.5q-36 0 -76 3z
M249.5 124q10.5 7 15.5 27q6 24 6 108q0 75 -5 100q-4 25 -14.5 33.5t-34.5 8.5q-27 0 -37 -7.5t-13.5 -35t-3.5 -99.5t3.5 -99.5t13.5 -35t37 -7.5q22 0 32.5 7zM168 627v103h111v-103h-111z" />
    <glyph glyph-name="Gcommaaccent" unicode="&#x122;" horiz-adv-x="487" 
d="M251 282v118h189v-387q-35 -9 -85 -15t-93 -6q-95 0 -141.5 28.5t-64 102t-17.5 221.5q0 147 18.5 220.5t67.5 102.5t147 29q40 0 87 -6t80 -14v-113q-86 12 -125 12q-68 0 -93.5 -11t-35 -56.5t-9.5 -163.5q0 -110 6 -156.5t23.5 -62.5t59.5 -16q9 0 48 3v170h-62z
M218.5 -222.5q10.5 9.5 10.5 37.5v14h-50v109h133v-72q0 -66 -9 -97.5t-37.5 -44.5t-90.5 -13v57q33 0 43.5 9.5z" />
    <glyph glyph-name="gcommaaccent" unicode="&#x123;" horiz-adv-x="446" 
d="M131 -200q-40 3 -65 8v99q18 0 26 -1l85 -1q47 0 65.5 8t23.5 31t5 82v38h-8q-23 -62 -102 -62q-50 0 -77.5 23.5t-38.5 78t-11 155.5q0 103 12 158.5t39 78t77 22.5q35 0 63.5 -15.5t40.5 -52.5h8l4 60h122v-449q0 -104 -11 -156.5t-52 -80t-130 -27.5q-36 0 -76 3z
M249.5 124q10.5 7 15.5 27q6 24 6 108q0 75 -5 100q-4 25 -14.5 33.5t-34.5 8.5q-27 0 -37 -7.5t-13.5 -35t-3.5 -99.5t3.5 -99.5t13.5 -35t37 -7.5q22 0 32.5 7zM249.5 759.5q-10.5 -9.5 -10.5 -37.5v-15h50v-109h-133v73q0 66 9 97t37.5 44t90.5 13v-56q-33 0 -43.5 -9.5z
" />
    <glyph glyph-name="Hcircumflex" unicode="&#x124;" horiz-adv-x="519" 
d="M330 0v283h-141v-283h-137v688h137v-278h141v278h137v-688h-137zM120 757v8l75 123h129l76 -123v-8h-89l-52 71l-51 -71h-88z" />
    <glyph glyph-name="hcircumflex" unicode="&#x125;" horiz-adv-x="450" 
d="M277 276q0 64 -3 88t-12 30.5t-34 6.5q-26 0 -36.5 -10t-13.5 -37.5t-3 -92.5v-261h-129v743h129v-292h7q13 37 41.5 52t68.5 15q48 0 72.5 -19t33 -57t8.5 -105v-337h-129v276zM-29 790v8l75 123h129l76 -123v-8h-89l-52 71l-51 -71h-88z" />
    <glyph glyph-name="Hbar" unicode="&#x126;" horiz-adv-x="519" 
d="M330 688h137v-688h-137v243h-141v-243h-137v688h137v-98h141v98zM189 370h141v103h-141v-103z" />
    <glyph glyph-name="hbar" unicode="&#x127;" horiz-adv-x="450" 
d="M364.5 499q24.5 -19 33 -57t8.5 -105v-337h-129v276q0 64 -3 88t-12 30.5t-34 6.5q-26 0 -36.5 -10t-13.5 -37.5t-3 -92.5v-261h-129v581h-42v107h42v55h129v-55h93v-107h-93v-130h7q13 37 41.5 52t68.5 15q48 0 72.5 -19z" />
    <glyph glyph-name="Itilde" unicode="&#x128;" horiz-adv-x="243" 
d="M53 0v688h137v-688h-137zM273 812.5q-4 -25.5 -19.5 -40t-50.5 -14.5t-89 16q-6 2 -24.5 7t-29.5 5q-13 0 -16 -8t-3 -32h-74q0 50 4 76t20 40.5t51 14.5q33 0 88 -17q40 -11 55 -11q13 0 15.5 7.5t2.5 31.5h74q0 -50 -4 -75.5z" />
    <glyph glyph-name="itilde" unicode="&#x129;" horiz-adv-x="221" 
d="M46 0v510h129v-510h-129zM262 667.5q-4 -25.5 -19.5 -40t-50.5 -14.5t-89 16q-6 2 -24.5 7t-29.5 5q-13 0 -16 -8t-3 -32h-74q0 50 4 76t20 40.5t51 14.5q33 0 88 -17q40 -11 55 -11q13 0 15.5 7.5t2.5 31.5h74q0 -50 -4 -75.5z" />
    <glyph glyph-name="Imacron" unicode="&#x12a;" horiz-adv-x="243" 
d="M53 0v688h137v-688h-137zM21 772v116h202v-116h-202z" />
    <glyph glyph-name="imacron" unicode="&#x12b;" horiz-adv-x="221" 
d="M46 0v510h129v-510h-129zM10 627v116h202v-116h-202z" />
    <glyph glyph-name="Ibreve" unicode="&#x12c;" horiz-adv-x="243" 
d="M53 0v688h137v-688h-137zM242.5 814q-9.5 -29 -38 -45.5t-84.5 -16.5q-55 0 -83 16.5t-37 45.5t-9 74h79q0 -23 2.5 -34.5t13 -19t34.5 -7.5q35 0 44 14.5t9 46.5h79q0 -45 -9.5 -74z" />
    <glyph glyph-name="ibreve" unicode="&#x12d;" horiz-adv-x="221" 
d="M46 0v510h129v-510h-129zM231.5 669q-9.5 -29 -38 -45.5t-84.5 -16.5q-55 0 -83 16.5t-37 45.5t-9 74h79q0 -23 2.5 -34.5t13 -19t34.5 -7.5q35 0 44 14.5t9 46.5h79q0 -45 -9.5 -74z" />
    <glyph glyph-name="Iogonek" unicode="&#x12e;" horiz-adv-x="243" 
d="M61.5 -172q-23.5 24 -23.5 62q0 27 15.5 56.5t40.5 53.5h-41v688h137v-688q-18 -14 -34 -39t-16 -47q0 -18 8.5 -28t30.5 -10l12 1v-69q-28 -4 -52 -4q-54 0 -77.5 24z" />
    <glyph glyph-name="iogonek" unicode="&#x12f;" horiz-adv-x="221" 
d="M166 730v-103h-111v103h111zM176 -123v-69q-23 -4 -51 -4q-55 0 -78.5 23.5t-23.5 59.5q0 30 15 59t41 54h-33v510h129v-510q-19 -14 -35 -39t-16 -49q0 -36 38 -36z" />
    <glyph glyph-name="Idotaccent" unicode="&#x130;" horiz-adv-x="243" 
d="M53 0v688h137v-688h-137zM67 772v103h111v-103h-111z" />
    <glyph glyph-name="dotlessi" unicode="&#x131;" horiz-adv-x="221" 
d="M46 0v510h129v-510h-129z" />
    <glyph glyph-name="IJ" unicode="&#x132;" horiz-adv-x="539" 
d="M53 0v688h137v-688h-137zM324 122q19 7 24 31t5 91v444h138v-380q0 -159 -12.5 -216.5t-57 -74t-167.5 -17.5v114q51 1 70 8z" />
    <glyph glyph-name="ij" unicode="&#x133;" horiz-adv-x="442" 
d="M45 621v122h131v-122h-131zM46 0v510h129v-510h-129zM266 621v122h131v-122h-131zM207 -98q28 0 41 5t16 15t3 32v556h129v-503q0 -95 -15.5 -136.5t-53 -54t-120.5 -12.5v98z" />
    <glyph glyph-name="Jcircumflex" unicode="&#x134;" horiz-adv-x="296" 
d="M81 122q19 7 24 31t5 91v444h138v-380q0 -159 -12.5 -216.5t-57 -74t-167.5 -17.5v114q51 1 70 8zM39 757v8l75 123h129l76 -123v-8h-89l-52 71l-51 -71h-88z" />
    <glyph glyph-name="jcircumflex" unicode="&#x135;" horiz-adv-x="221" 
d="M-14 -98q28 0 41 5t16 15t3 32v556h129v-503q0 -95 -15.5 -136.5t-53 -54t-120.5 -12.5v98zM-29 612v8l75 123h129l76 -123v-8h-89l-52 71l-51 -71h-88z" />
    <glyph glyph-name="Kcommaaccent" unicode="&#x136;" horiz-adv-x="492" 
d="M336 0l-108 287h-38v-287h-138v688h138v-277h38l111 277h142l-143 -329l146 -359h-148zM221.5 -222.5q10.5 9.5 10.5 37.5v14h-50v109h133v-72q0 -66 -9 -97.5t-37.5 -44.5t-90.5 -13v57q33 0 43.5 9.5z" />
    <glyph glyph-name="kcommaaccent" unicode="&#x137;" horiz-adv-x="430" 
d="M284 0l-82 199h-27v-199h-129v743h129v-435h27l85 202h132l-110 -243l111 -267h-136zM190.5 -222.5q10.5 9.5 10.5 37.5v14h-50v109h133v-72q0 -66 -9 -97.5t-37.5 -44.5t-90.5 -13v57q33 0 43.5 9.5z" />
    <glyph glyph-name="kgreenlandic" unicode="&#x138;" horiz-adv-x="430" 
d="M284 0l-82 199h-27v-199h-129v510h129v-202h27l85 202h132l-110 -243l111 -267h-136z" />
    <glyph glyph-name="Lacute" unicode="&#x139;" horiz-adv-x="379" 
d="M52 0v688h138v-563h174v-125h-312zM71 742v5l53 141h128v-5l-79 -141h-102z" />
    <glyph glyph-name="lacute" unicode="&#x13a;" horiz-adv-x="221" 
d="M46 0v743h129v-743h-129zM54 775v5l53 141h128v-5l-79 -141h-102z" />
    <glyph glyph-name="Lcommaaccent" unicode="&#x13b;" horiz-adv-x="379" 
d="M52 0v688h138v-563h174v-125h-312zM173.5 -222.5q10.5 9.5 10.5 37.5v14h-50v109h133v-72q0 -66 -9 -97.5t-37.5 -44.5t-90.5 -13v57q33 0 43.5 9.5z" />
    <glyph glyph-name="lcommaaccent" unicode="&#x13c;" horiz-adv-x="221" 
d="M46 0v743h129v-743h-129zM86.5 -222.5q10.5 9.5 10.5 37.5v14h-50v109h133v-72q0 -66 -9 -97.5t-37.5 -44.5t-90.5 -13v57q33 0 43.5 9.5z" />
    <glyph glyph-name="Lcaron" unicode="&#x13d;" horiz-adv-x="379" 
d="M52 0v688h138v-563h174v-125h-312zM271 437l16 206v54h121v-54l-44 -206h-93z" />
    <glyph glyph-name="lcaron" unicode="&#x13e;" horiz-adv-x="296" 
d="M46 0v743h129v-743h-129zM205 428l16 206v54h121v-54l-44 -206h-93z" />
    <glyph glyph-name="Ldot" unicode="&#x13f;" horiz-adv-x="404" 
d="M52 0v688h138v-563h174v-125h-312zM259 300v131h141v-131h-141z" />
    <glyph glyph-name="ldot" unicode="&#x140;" horiz-adv-x="315" 
d="M46 0v743h129v-743h-129zM206 233v131h128v-131h-128z" />
    <glyph glyph-name="Lslash" unicode="&#x141;" horiz-adv-x="379" 
d="M190 125h174v-125h-312v258l-43 -16v111l43 16v319h138v-267l106 40v-111l-106 -40v-185z" />
    <glyph glyph-name="lslash" unicode="&#x142;" horiz-adv-x="229" 
d="M49 0v285l-39 -13v110l39 14v347h129v-301l42 15v-111l-42 -15v-331h-129z" />
    <glyph glyph-name="Nacute" unicode="&#x143;" horiz-adv-x="523" 
d="M347 0l-160 377h-4v-377h-131v688h133l149 -348h5v348h132v-688h-124zM206 742v5l53 141h128v-5l-79 -141h-102z" />
    <glyph glyph-name="nacute" unicode="&#x144;" horiz-adv-x="450" 
d="M277 276q0 64 -3 88t-12 30.5t-34 6.5q-26 0 -36.5 -10t-13.5 -37.5t-3 -92.5v-261h-129v510h122l4 -61h7q14 38 43 53.5t70 15.5q48 0 72.5 -19t33 -57.5t8.5 -106.5v-335h-129v276zM168 597v5l53 141h128v-5l-79 -141h-102z" />
    <glyph glyph-name="Ncommaaccent" unicode="&#x145;" horiz-adv-x="523" 
d="M347 0l-160 377h-4v-377h-131v688h133l149 -348h5v348h132v-688h-124zM237.5 -222.5q10.5 9.5 10.5 37.5v14h-50v109h133v-72q0 -66 -9 -97.5t-37.5 -44.5t-90.5 -13v57q33 0 43.5 9.5z" />
    <glyph glyph-name="ncommaaccent" unicode="&#x146;" horiz-adv-x="450" 
d="M277 276q0 64 -3 88t-12 30.5t-34 6.5q-26 0 -36.5 -10t-13.5 -37.5t-3 -92.5v-261h-129v510h122l4 -61h7q14 38 43 53.5t70 15.5q48 0 72.5 -19t33 -57.5t8.5 -106.5v-335h-129v276zM200.5 -222.5q10.5 9.5 10.5 37.5v14h-50v109h133v-72q0 -66 -9 -97.5t-37.5 -44.5
t-90.5 -13v57q33 0 43.5 9.5z" />
    <glyph glyph-name="Ncaron" unicode="&#x147;" horiz-adv-x="523" 
d="M347 0l-160 377h-4v-377h-131v688h133l149 -348h5v348h132v-688h-124zM198 756l-75 124v8h88l51 -71l52 71h88v-8l-76 -124h-128z" />
    <glyph glyph-name="ncaron" unicode="&#x148;" horiz-adv-x="450" 
d="M277 276q0 64 -3 88t-12 30.5t-34 6.5q-26 0 -36.5 -10t-13.5 -37.5t-3 -92.5v-261h-129v510h122l4 -61h7q14 38 43 53.5t70 15.5q48 0 72.5 -19t33 -57.5t8.5 -106.5v-335h-129v276zM161 611l-75 124v8h88l51 -71l52 71h88v-8l-76 -124h-128z" />
    <glyph glyph-name="napostrophe" unicode="&#x149;" horiz-adv-x="560" 
d="M58.5 574.5q10.5 14.5 10.5 56.5v15h-50v97h133v-61q0 -76 -9 -112t-37.5 -51t-89.5 -15v56q32 0 42.5 14.5zM387 276q0 64 -3 88t-12 30.5t-34 6.5q-26 0 -36.5 -10t-13.5 -37.5t-3 -92.5v-261h-129v510h122l4 -61h7q14 38 43 53.5t70 15.5q48 0 72.5 -19t33 -57.5
t8.5 -106.5v-335h-129v276z" />
    <glyph glyph-name="Eng" unicode="&#x14a;" horiz-adv-x="523" 
d="M471 688v-696q-1 -87 -17.5 -126t-54.5 -50.5t-120 -11.5v98q28 0 41 5t16.5 15.5t3.5 31.5v69l-153 354h-4v-377h-131v688h133l149 -348h5v348h132z" />
    <glyph glyph-name="eng" unicode="&#x14b;" horiz-adv-x="450" 
d="M364.5 499q24.5 -19 33 -57.5t8.5 -106.5v-328q0 -94 -15.5 -136t-53 -54.5t-120.5 -12.5v98q28 0 41 5t16 15t3 32v322q0 64 -3 88t-12 30.5t-34 6.5q-26 0 -36.5 -10t-13.5 -37.5t-3 -92.5v-261h-129v510h122l4 -61h7q14 38 43 53.5t70 15.5q48 0 72.5 -19z" />
    <glyph glyph-name="Omacron" unicode="&#x14c;" 
d="M105 22.5q-44 30.5 -55 98t-11 223.5q0 157 11 224t55 97.5t148 30.5t148 -30.5t55 -97.5t11 -224q0 -156 -11 -223.5t-55 -98t-148 -30.5t-148 30.5zM307 124q14 11 18 54t4 166t-4 166t-18 54t-54 11t-54 -11t-18 -54t-4 -166t4 -166t18 -54t54 -11t54 11zM152 772v116
h202v-116h-202z" />
    <glyph glyph-name="omacron" unicode="&#x14d;" horiz-adv-x="436" 
d="M94 14q-38 22 -49 74t-11 167t11 167t49 74t124 22t124 -22t49 -74t11 -167t-11 -167t-49 -74t-124 -22t-124 22zM257.5 109q10.5 9 13 37.5t2.5 108.5t-2.5 108.5t-13 37.5t-39.5 9t-39.5 -9t-13 -37.5t-2.5 -108.5t2.5 -108.5t13 -37.5t39.5 -9t39.5 9zM117 627v116
h202v-116h-202z" />
    <glyph glyph-name="Obreve" unicode="&#x14e;" 
d="M105 22.5q-44 30.5 -55 98t-11 223.5q0 157 11 224t55 97.5t148 30.5t148 -30.5t55 -97.5t11 -224q0 -156 -11 -223.5t-55 -98t-148 -30.5t-148 30.5zM307 124q14 11 18 54t4 166t-4 166t-18 54t-54 11t-54 -11t-18 -54t-4 -166t4 -166t18 -54t54 -11t54 11zM373.5 814
q-9.5 -29 -38 -45.5t-84.5 -16.5q-55 0 -83 16.5t-37 45.5t-9 74h79q0 -23 2.5 -34.5t13 -19t34.5 -7.5q35 0 44 14.5t9 46.5h79q0 -45 -9.5 -74z" />
    <glyph glyph-name="obreve" unicode="&#x14f;" horiz-adv-x="436" 
d="M94 14q-38 22 -49 74t-11 167t11 167t49 74t124 22t124 -22t49 -74t11 -167t-11 -167t-49 -74t-124 -22t-124 22zM257.5 109q10.5 9 13 37.5t2.5 108.5t-2.5 108.5t-13 37.5t-39.5 9t-39.5 -9t-13 -37.5t-2.5 -108.5t2.5 -108.5t13 -37.5t39.5 -9t39.5 9zM338.5 669
q-9.5 -29 -38 -45.5t-84.5 -16.5q-55 0 -83 16.5t-37 45.5t-9 74h79q0 -23 2.5 -34.5t13 -19t34.5 -7.5q35 0 44 14.5t9 46.5h79q0 -45 -9.5 -74z" />
    <glyph glyph-name="Ohungarumlaut" unicode="&#x150;" 
d="M105 22.5q-44 30.5 -55 98t-11 223.5q0 157 11 224t55 97.5t148 30.5t148 -30.5t55 -97.5t11 -224q0 -156 -11 -223.5t-55 -98t-148 -30.5t-148 30.5zM307 124q14 11 18 54t4 166t-4 166t-18 54t-54 11t-54 -11t-18 -54t-4 -166t4 -166t18 -54t54 -11t54 11zM140 755v4
l44 117h105v-4l-64 -117h-85zM286 755v4l45 117h105v-4l-65 -117h-85z" />
    <glyph glyph-name="ohungarumlaut" unicode="&#x151;" horiz-adv-x="436" 
d="M94 14q-38 22 -49 74t-11 167t11 167t49 74t124 22t124 -22t49 -74t11 -167t-11 -167t-49 -74t-124 -22t-124 22zM257.5 109q10.5 9 13 37.5t2.5 108.5t-2.5 108.5t-13 37.5t-39.5 9t-39.5 -9t-13 -37.5t-2.5 -108.5t2.5 -108.5t13 -37.5t39.5 -9t39.5 9zM108 610v4
l44 117h105v-4l-64 -117h-85zM254 610v4l45 117h105v-4l-65 -117h-85z" />
    <glyph glyph-name="OE" unicode="&#x152;" horiz-adv-x="715" 
d="M105 30q-44 30 -55 95.5t-11 218.5t11 218.5t55 95.5t148 30h426v-121h-177q-33 0 -56 5q18 -52 21 -164h186v-122h-186q-2 -117 -21 -171q28 6 56 6h177v-121h-426q-104 0 -148 30zM307 131.5q14 10.5 18 52t4 160.5q0 118 -4 159.5t-18 52.5t-54 11t-54 -10.5t-18 -52
t-4 -160.5t4 -160.5t18 -52t54 -10.5t54 10.5z" />
    <glyph glyph-name="oe" unicode="&#x153;" horiz-adv-x="665" 
d="M630 215h-227q0 -57 5 -79t22.5 -29t64.5 -7q49 0 123 6v-99q-27 -7 -69.5 -11t-82.5 -4q-84 0 -125 32q-20 -17 -49.5 -24.5t-73.5 -7.5q-86 0 -124 22t-49 74t-11 167t11 167t49 74t124 22q84 0 123 -33q39 33 118 33q82 0 118 -25.5t44.5 -76.5t8.5 -162v-39z
M421.5 404q-10.5 -7 -14.5 -29t-4 -73h105q0 51 -4 73t-14 29t-33 7q-25 0 -35.5 -7zM257.5 109q10.5 9 13 37.5t2.5 108.5t-2.5 108.5t-13 37t-39.5 8.5t-39.5 -8.5t-13 -37t-2.5 -108.5t2.5 -108.5t13 -37.5t39.5 -9t39.5 9z" />
    <glyph glyph-name="Racute" unicode="&#x154;" horiz-adv-x="494" 
d="M331 0l-67 240h-74v-240h-138v688h232q74 0 111.5 -25t50.5 -72t13 -126q0 -75 -13.5 -124t-54.5 -74l83 -267h-143zM298 366.5q14 7.5 18.5 28t4.5 69.5q0 48 -4.5 68t-18.5 27.5t-47 7.5h-61v-208h61q33 0 47 7.5zM191 742v5l53 141h128v-5l-79 -141h-102z" />
    <glyph glyph-name="racute" unicode="&#x155;" horiz-adv-x="312" 
d="M46 510h122l4 -84h8q15 52 43 72t75 20v-135q-45 0 -71.5 -13t-39 -46t-12.5 -92v-232h-129v510zM100 597v5l53 141h128v-5l-79 -141h-102z" />
    <glyph glyph-name="Rcommaaccent" unicode="&#x156;" horiz-adv-x="494" 
d="M331 0l-67 240h-74v-240h-138v688h232q74 0 111.5 -25t50.5 -72t13 -126q0 -75 -13.5 -124t-54.5 -74l83 -267h-143zM298 366.5q14 7.5 18.5 28t4.5 69.5q0 48 -4.5 68t-18.5 27.5t-47 7.5h-61v-208h61q33 0 47 7.5zM222.5 -222.5q10.5 9.5 10.5 37.5v14h-50v109h133v-72
q0 -66 -9 -97.5t-37.5 -44.5t-90.5 -13v57q33 0 43.5 9.5z" />
    <glyph glyph-name="rcommaaccent" unicode="&#x157;" horiz-adv-x="312" 
d="M46 510h122l4 -84h8q15 52 43 72t75 20v-135q-45 0 -71.5 -13t-39 -46t-12.5 -92v-232h-129v510zM86.5 -222.5q10.5 9.5 10.5 37.5v14h-50v109h133v-72q0 -66 -9 -97.5t-37.5 -44.5t-90.5 -13v57q33 0 43.5 9.5z" />
    <glyph glyph-name="Rcaron" unicode="&#x158;" horiz-adv-x="494" 
d="M331 0l-67 240h-74v-240h-138v688h232q74 0 111.5 -25t50.5 -72t13 -126q0 -75 -13.5 -124t-54.5 -74l83 -267h-143zM298 366.5q14 7.5 18.5 28t4.5 69.5q0 48 -4.5 68t-18.5 27.5t-47 7.5h-61v-208h61q33 0 47 7.5zM183 756l-75 124v8h88l51 -71l52 71h88v-8l-76 -124
h-128z" />
    <glyph glyph-name="rcaron" unicode="&#x159;" horiz-adv-x="312" 
d="M46 510h122l4 -84h8q15 52 43 72t75 20v-135q-45 0 -71.5 -13t-39 -46t-12.5 -92v-232h-129v510zM93 611l-75 124v8h88l51 -71l52 71h88v-8l-76 -124h-128z" />
    <glyph glyph-name="Sacute" unicode="&#x15a;" horiz-adv-x="443" 
d="M129.5 -3.5q-49.5 4.5 -87.5 12.5v112q102 -8 141 -8q35 0 53 4t27 14q8 8 10.5 22.5t2.5 41.5q0 37 -4 52.5t-16.5 23t-43.5 13.5l-94 17q-50 9 -69 55t-19 133q0 85 24.5 130t67.5 61t109 16q46 0 88.5 -6t69.5 -12v-112q-54 9 -121 9q-36 0 -55.5 -3t-28.5 -11
q-11 -8 -14 -23t-3 -44q0 -31 3.5 -45t12.5 -20t31 -10l88 -16q35 -5 59.5 -21.5t38.5 -54.5q14 -40 14 -113q0 -95 -23 -143t-63.5 -63.5t-106.5 -15.5q-42 0 -91.5 4.5zM166 742v5l53 141h128v-5l-79 -141h-102z" />
    <glyph glyph-name="sacute" unicode="&#x15b;" horiz-adv-x="371" 
d="M109.5 -3.5q-42.5 4.5 -72.5 11.5v99q66 -7 114 -7q30 0 44.5 3.5t20 13.5t5.5 31q0 23 -2.5 32.5t-10 13t-26.5 6.5l-84 14q-40 6 -56.5 39.5t-16.5 109.5q0 86 42 120.5t125 34.5q33 0 70 -4.5t60 -11.5v-100q-64 8 -106 8q-38 0 -50.5 -8.5t-12.5 -36.5q0 -22 2 -31
t8.5 -12.5t22.5 -5.5l73 -11q28 -5 46 -16.5t29.5 -42.5t11.5 -89q0 -94 -39 -129.5t-120 -35.5q-35 0 -77.5 4.5zM129 597v5l53 141h128v-5l-79 -141h-102z" />
    <glyph glyph-name="Scircumflex" unicode="&#x15c;" horiz-adv-x="443" 
d="M129.5 -3.5q-49.5 4.5 -87.5 12.5v112q102 -8 141 -8q35 0 53 4t27 14q8 8 10.5 22.5t2.5 41.5q0 37 -4 52.5t-16.5 23t-43.5 13.5l-94 17q-50 9 -69 55t-19 133q0 85 24.5 130t67.5 61t109 16q46 0 88.5 -6t69.5 -12v-112q-54 9 -121 9q-36 0 -55.5 -3t-28.5 -11
q-11 -8 -14 -23t-3 -44q0 -31 3.5 -45t12.5 -20t31 -10l88 -16q35 -5 59.5 -21.5t38.5 -54.5q14 -40 14 -113q0 -95 -23 -143t-63.5 -63.5t-106.5 -15.5q-42 0 -91.5 4.5zM82 757v8l75 123h129l76 -123v-8h-89l-52 71l-51 -71h-88z" />
    <glyph glyph-name="scircumflex" unicode="&#x15d;" horiz-adv-x="371" 
d="M109.5 -3.5q-42.5 4.5 -72.5 11.5v99q66 -7 114 -7q30 0 44.5 3.5t20 13.5t5.5 31q0 23 -2.5 32.5t-10 13t-26.5 6.5l-84 14q-40 6 -56.5 39.5t-16.5 109.5q0 86 42 120.5t125 34.5q33 0 70 -4.5t60 -11.5v-100q-64 8 -106 8q-38 0 -50.5 -8.5t-12.5 -36.5q0 -22 2 -31
t8.5 -12.5t22.5 -5.5l73 -11q28 -5 46 -16.5t29.5 -42.5t11.5 -89q0 -94 -39 -129.5t-120 -35.5q-35 0 -77.5 4.5zM46 612v8l75 123h129l76 -123v-8h-89l-52 71l-51 -71h-88z" />
    <glyph glyph-name="Scedilla" unicode="&#x15e;" horiz-adv-x="443" 
d="M396.5 84q-17.5 -47 -50 -66.5t-82.5 -23.5l-33 -183h-113v5l59 177q-85 5 -135 16v112q102 -8 141 -8q35 0 53 4t27 14q8 8 10.5 22.5t2.5 41.5q0 37 -4 52.5t-16.5 23t-43.5 13.5l-94 17q-50 9 -69 55t-19 133q0 85 24.5 130t67.5 61t109 16q46 0 88.5 -6t69.5 -12
v-112q-54 9 -121 9q-36 0 -55.5 -3t-28.5 -11q-11 -8 -14 -23t-3 -44q0 -31 3.5 -45t12.5 -20t31 -10l88 -16q35 -5 59.5 -21.5t38.5 -54.5q14 -40 14 -113q0 -83 -17.5 -130z" />
    <glyph glyph-name="scedilla" unicode="&#x15f;" horiz-adv-x="371" 
d="M316.5 39q-29.5 -37 -88.5 -45l-33 -183h-113v5l59 178q-52 3 -104 14v99q66 -7 114 -7q30 0 44.5 3.5t20 13.5t5.5 31q0 23 -2.5 32.5t-10 13t-26.5 6.5l-84 14q-40 6 -56.5 39.5t-16.5 109.5q0 86 42 120.5t125 34.5q33 0 70 -4.5t60 -11.5v-100q-64 8 -106 8
q-38 0 -50.5 -8.5t-12.5 -36.5q0 -22 2 -31t8.5 -12.5t22.5 -5.5l73 -11q28 -5 46 -16.5t29.5 -42.5t11.5 -89q0 -81 -29.5 -118z" />
    <glyph glyph-name="Scaron" unicode="&#x160;" horiz-adv-x="443" 
d="M129.5 -3.5q-49.5 4.5 -87.5 12.5v112q102 -8 141 -8q35 0 53 4t27 14q8 8 10.5 22.5t2.5 41.5q0 37 -4 52.5t-16.5 23t-43.5 13.5l-94 17q-50 9 -69 55t-19 133q0 85 24.5 130t67.5 61t109 16q46 0 88.5 -6t69.5 -12v-112q-54 9 -121 9q-36 0 -55.5 -3t-28.5 -11
q-11 -8 -14 -23t-3 -44q0 -31 3.5 -45t12.5 -20t31 -10l88 -16q35 -5 59.5 -21.5t38.5 -54.5q14 -40 14 -113q0 -95 -23 -143t-63.5 -63.5t-106.5 -15.5q-42 0 -91.5 4.5zM161 749l-75 124v8h88l51 -71l52 71h88v-8l-76 -124h-128z" />
    <glyph glyph-name="scaron" unicode="&#x161;" horiz-adv-x="371" 
d="M109.5 -3.5q-42.5 4.5 -72.5 11.5v99q66 -7 114 -7q30 0 44.5 3.5t20 13.5t5.5 31q0 23 -2.5 32.5t-10 13t-26.5 6.5l-84 14q-40 6 -56.5 39.5t-16.5 109.5q0 86 42 120.5t125 34.5q33 0 70 -4.5t60 -11.5v-100q-64 8 -106 8q-38 0 -50.5 -8.5t-12.5 -36.5q0 -22 2 -31
t8.5 -12.5t22.5 -5.5l73 -11q28 -5 46 -16.5t29.5 -42.5t11.5 -89q0 -94 -39 -129.5t-120 -35.5q-35 0 -77.5 4.5zM125 611l-75 124v8h88l51 -71l52 71h88v-8l-76 -124h-128z" />
    <glyph glyph-name="uni0162" unicode="&#x162;" horiz-adv-x="418" 
d="M10 688h398v-125h-130v-563h-26l-34 -189h-113v5l61 184h-26v563h-130v125z" />
    <glyph glyph-name="uni0163" unicode="&#x163;" horiz-adv-x="302" 
d="M207 510h81v-108h-81v-402h-22l-34 -189h-113v5l61 184h-21v402h-63v108h63v148h129v-148z" />
    <glyph glyph-name="Tcaron" unicode="&#x164;" horiz-adv-x="418" 
d="M140 0v563h-130v125h398v-125h-130v-563h-138zM145 756l-75 124v8h88l51 -71l52 71h88v-8l-76 -124h-128z" />
    <glyph glyph-name="tcaron" unicode="&#x165;" horiz-adv-x="404" 
d="M78 0v402h-63v108h63v148h129v-148h81v-108h-81v-402h-129zM317 428l16 206v54h121v-54l-44 -206h-93z" />
    <glyph glyph-name="Tbar" unicode="&#x166;" horiz-adv-x="418" 
d="M408 563h-130v-164h109v-108h-109v-291h-138v291h-109v108h109v164h-130v125h398v-125z" />
    <glyph glyph-name="tbar" unicode="&#x167;" horiz-adv-x="302" 
d="M288 402h-81v-94h80v-107h-80v-201h-129v201h-62v107h62v94h-63v108h63v148h129v-148h81v-108z" />
    <glyph glyph-name="Utilde" unicode="&#x168;" 
d="M458 688v-383q0 -136 -11.5 -197.5t-54 -88.5t-139.5 -27t-139.5 27t-54 88.5t-11.5 197.5v383h137v-429q0 -73 3.5 -100.5t17 -36.5t47.5 -9t47 9t16.5 36t3.5 101v429h138zM404 812.5q-4 -25.5 -19.5 -40t-50.5 -14.5t-89 16q-6 2 -24.5 7t-29.5 5q-13 0 -16 -8t-3 -32
h-74q0 50 4 76t20 40.5t51 14.5q33 0 88 -17q40 -11 55 -11q13 0 15.5 7.5t2.5 31.5h74q0 -50 -4 -75.5z" />
    <glyph glyph-name="utilde" unicode="&#x169;" horiz-adv-x="450" 
d="M279 61h-8q-24 -69 -112 -69q-49 0 -73.5 19t-33 57.5t-8.5 106.5v335h129v-276q0 -64 3 -88t12.5 -30.5t34.5 -6.5t35.5 10t13.5 37.5t3 92.5v261h129v-510h-121zM376 667.5q-4 -25.5 -19.5 -40t-50.5 -14.5t-89 16q-6 2 -24.5 7t-29.5 5q-13 0 -16 -8t-3 -32h-74
q0 50 4 76t20 40.5t51 14.5q33 0 88 -17q40 -11 55 -11q13 0 15.5 7.5t2.5 31.5h74q0 -50 -4 -75.5z" />
    <glyph glyph-name="Umacron" unicode="&#x16a;" 
d="M458 688v-383q0 -136 -11.5 -197.5t-54 -88.5t-139.5 -27t-139.5 27t-54 88.5t-11.5 197.5v383h137v-429q0 -73 3.5 -100.5t17 -36.5t47.5 -9t47 9t16.5 36t3.5 101v429h138zM152 772v116h202v-116h-202z" />
    <glyph glyph-name="umacron" unicode="&#x16b;" horiz-adv-x="450" 
d="M279 61h-8q-24 -69 -112 -69q-49 0 -73.5 19t-33 57.5t-8.5 106.5v335h129v-276q0 -64 3 -88t12.5 -30.5t34.5 -6.5t35.5 10t13.5 37.5t3 92.5v261h129v-510h-121zM124 627v116h202v-116h-202z" />
    <glyph glyph-name="Ubreve" unicode="&#x16c;" 
d="M458 688v-383q0 -136 -11.5 -197.5t-54 -88.5t-139.5 -27t-139.5 27t-54 88.5t-11.5 197.5v383h137v-429q0 -73 3.5 -100.5t17 -36.5t47.5 -9t47 9t16.5 36t3.5 101v429h138zM373.5 814q-9.5 -29 -38 -45.5t-84.5 -16.5q-55 0 -83 16.5t-37 45.5t-9 74h79
q0 -23 2.5 -34.5t13 -19t34.5 -7.5q35 0 44 14.5t9 46.5h79q0 -45 -9.5 -74z" />
    <glyph glyph-name="ubreve" unicode="&#x16d;" horiz-adv-x="450" 
d="M279 61h-8q-24 -69 -112 -69q-49 0 -73.5 19t-33 57.5t-8.5 106.5v335h129v-276q0 -64 3 -88t12.5 -30.5t34.5 -6.5t35.5 10t13.5 37.5t3 92.5v261h129v-510h-121zM345.5 669q-9.5 -29 -38 -45.5t-84.5 -16.5q-55 0 -83 16.5t-37 45.5t-9 74h79q0 -23 2.5 -34.5t13 -19
t34.5 -7.5q35 0 44 14.5t9 46.5h79q0 -45 -9.5 -74z" />
    <glyph glyph-name="Uring" unicode="&#x16e;" 
d="M458 688v-383q0 -136 -11.5 -197.5t-54 -88.5t-139.5 -27t-139.5 27t-54 88.5t-11.5 197.5v383h137v-429q0 -73 3.5 -100.5t17 -36.5t47.5 -9t47 9t16.5 36t3.5 101v429h138zM166.5 733.5q-26.5 11.5 -33.5 33t-7 64.5q0 44 7 65.5t33.5 33t85.5 11.5q60 0 86.5 -11.5
t33.5 -33t7 -65.5t-7 -65t-33.5 -32.5t-86.5 -11.5q-59 0 -85.5 11.5zM284.5 789.5q9.5 3.5 12 12t2.5 29.5t-2.5 30t-12 13t-32.5 4q-22 0 -31 -4t-11.5 -13t-2.5 -30t2.5 -29.5t11.5 -12t31 -3.5q23 0 32.5 3.5z" />
    <glyph glyph-name="uring" unicode="&#x16f;" horiz-adv-x="450" 
d="M279 61h-8q-24 -69 -112 -69q-49 0 -73.5 19t-33 57.5t-8.5 106.5v335h129v-276q0 -64 3 -88t12.5 -30.5t34.5 -6.5t35.5 10t13.5 37.5t3 92.5v261h129v-510h-121zM138.5 618.5q-26.5 11.5 -33.5 33t-7 64.5q0 44 7 65.5t33.5 33t85.5 11.5q60 0 86.5 -11.5t33.5 -33
t7 -65.5t-7 -65t-33.5 -32.5t-86.5 -11.5q-59 0 -85.5 11.5zM256.5 674.5q9.5 3.5 12 12t2.5 29.5t-2.5 30t-12 13t-32.5 4q-22 0 -31 -4t-11.5 -13t-2.5 -30t2.5 -29.5t11.5 -12t31 -3.5q23 0 32.5 3.5z" />
    <glyph glyph-name="Uhungarumlaut" unicode="&#x170;" 
d="M458 688v-383q0 -136 -11.5 -197.5t-54 -88.5t-139.5 -27t-139.5 27t-54 88.5t-11.5 197.5v383h137v-429q0 -73 3.5 -100.5t17 -36.5t47.5 -9t47 9t16.5 36t3.5 101v429h138zM140 755v4l44 117h105v-4l-64 -117h-85zM286 755v4l45 117h105v-4l-65 -117h-85z" />
    <glyph glyph-name="uhungarumlaut" unicode="&#x171;" horiz-adv-x="450" 
d="M279 61h-8q-24 -69 -112 -69q-49 0 -73.5 19t-33 57.5t-8.5 106.5v335h129v-276q0 -64 3 -88t12.5 -30.5t34.5 -6.5t35.5 10t13.5 37.5t3 92.5v261h129v-510h-121zM115 610v4l44 117h105v-4l-64 -117h-85zM261 610v4l45 117h105v-4l-65 -117h-85z" />
    <glyph glyph-name="Uogonek" unicode="&#x172;" 
d="M458 688v-383q0 -91 -3.5 -142t-17 -86.5t-41.5 -54.5q-33 -23 -51 -49t-18 -59q0 -18 8.5 -28t30.5 -10l12 1v-69q-21 -4 -52 -4q-54 0 -77.5 24t-23.5 62q0 49 46 102h-18q-97 0 -139.5 27t-54 88.5t-11.5 197.5v383h137v-429q0 -73 3.5 -100.5t17 -36.5t47.5 -9t47 9
t16.5 36t3.5 101v429h138z" />
    <glyph glyph-name="uogonek" unicode="&#x173;" horiz-adv-x="450" 
d="M366.5 -39.5q-17.5 -24.5 -17.5 -49.5q0 -35 39 -35l13 1v-69q-21 -4 -51 -4q-54 0 -78 23.5t-24 59.5q0 58 60 113h-25l-4 61h-8q-24 -69 -112 -69q-49 0 -73.5 19t-33 57.5t-8.5 106.5v335h129v-276q0 -64 3 -88t12.5 -30.5t34.5 -6.5t35.5 10t13.5 37.5t3 92.5v261
h129v-510q-20 -15 -37.5 -39.5z" />
    <glyph glyph-name="Wcircumflex" unicode="&#x174;" horiz-adv-x="756" 
d="M452 0l-71 479h-6l-70 -479h-189l-99 688h139l59 -539h7l78 539h162l79 -539h7l56 539h136l-100 -688h-188zM238 757v8l75 123h129l76 -123v-8h-89l-52 71l-51 -71h-88z" />
    <glyph glyph-name="wcircumflex" unicode="&#x175;" horiz-adv-x="644" 
d="M379 0l-52 280h-9l-51 -280h-161l-94 510h128l49 -353h8l65 353h125l66 -353h8l48 353h122l-93 -510h-159zM183 612v8l75 123h129l76 -123v-8h-89l-52 71l-51 -71h-88z" />
    <glyph glyph-name="Ycircumflex" unicode="&#x176;" horiz-adv-x="463" 
d="M163 0v238l-163 450h141l90 -297h9l87 297h136l-163 -450v-238h-137zM92 757v8l75 123h129l76 -123v-8h-89l-52 71l-51 -71h-88z" />
    <glyph glyph-name="ycircumflex" unicode="&#x177;" horiz-adv-x="450" 
d="M137 -200q-40 3 -65 7v100q37 -1 111 -1q46 0 64.5 7.5t23 30t4.5 80.5v43h-7q-24 -66 -109 -66q-50 0 -74.5 20.5t-32.5 61t-8 115.5v312h129v-268q0 -64 3 -88t12.5 -30.5t34.5 -6.5q26 0 36 10t13 36.5t3 93.5v253h129v-450q0 -103 -11 -155.5t-51.5 -80t-128.5 -27.5
q-36 0 -76 3zM85 612v8l75 123h129l76 -123v-8h-89l-52 71l-51 -71h-88z" />
    <glyph glyph-name="Ydieresis" unicode="&#x178;" horiz-adv-x="463" 
d="M163 0v238l-163 450h141l90 -297h9l87 297h136l-163 -450v-238h-137zM93 779v103h111v-103h-111zM268 779v103h111v-103h-111z" />
    <glyph glyph-name="Zacute" unicode="&#x179;" horiz-adv-x="439" 
d="M31 0v114l221 453h-214v121h368v-113l-222 -454h224v-121h-377zM164 742v5l53 141h128v-5l-79 -141h-102z" />
    <glyph glyph-name="zacute" unicode="&#x17a;" horiz-adv-x="394" 
d="M32 0v101l178 301h-171v108h321v-101l-177 -301h179v-108h-330zM141 597v5l53 141h128v-5l-79 -141h-102z" />
    <glyph glyph-name="Zdotaccent" unicode="&#x17b;" horiz-adv-x="439" 
d="M31 0v114l221 453h-214v121h368v-113l-222 -454h224v-121h-377zM165 772v103h111v-103h-111z" />
    <glyph glyph-name="zdotaccent" unicode="&#x17c;" horiz-adv-x="394" 
d="M32 0v101l178 301h-171v108h321v-101l-177 -301h179v-108h-330zM143 627v103h111v-103h-111z" />
    <glyph glyph-name="Zcaron" unicode="&#x17d;" horiz-adv-x="438" 
d="M31 0v114l221 453h-214v121h368v-113l-222 -454h224v-121h-377zM163 750l-75 124v8h88l51 -71l52 71h88v-8l-76 -124h-128z" />
    <glyph glyph-name="zcaron" unicode="&#x17e;" horiz-adv-x="394" 
d="M32 0v101l178 301h-171v108h321v-101l-177 -301h179v-108h-330zM139 611l-75 124v8h88l51 -71l52 71h88v-8l-76 -124h-128z" />
    <glyph glyph-name="longs" unicode="&#x17f;" horiz-adv-x="296" 
d="M78 402h-63v108h63v30q0 97 16.5 138.5t57.5 53t139 11.5v-96q-40 0 -56.5 -4.5t-22 -20t-5.5 -53.5v-569h-129v402z" />
    <glyph glyph-name="uni018F" unicode="&#x18f;" horiz-adv-x="503" 
d="M384.5 664.5q48.5 -31.5 64 -103.5t15.5 -217q0 -157 -11 -224t-55 -97.5t-147 -30.5t-146.5 30.5t-54.5 97.5t-11 224v64h287q-1 79 -10 112.5t-33 44t-80 10.5t-110 -7v111q26 8 64.5 12.5t76.5 4.5q102 0 150.5 -31.5zM304.5 121.5q14.5 8.5 20 43t6.5 122.5h-159
q1 -88 6 -122.5t19.5 -43t53.5 -8.5t53.5 8.5z" />
    <glyph glyph-name="florin" unicode="&#x192;" horiz-adv-x="413" 
d="M326.5 639q-17.5 -7 -27 -32t-24.5 -96v-1h85l-23 -109h-85l-87 -407q-19 -90 -41.5 -128t-66.5 -49.5t-144 -11.5l21 96q40 0 57 4.5t25.5 18.5t15.5 48l92 429h-63l23 109h62v1q23 111 47 157t69 60t147 14l-20 -96q-45 0 -62.5 -7z" />
    <glyph glyph-name="uni019D" unicode="&#x19d;" horiz-adv-x="523" 
d="M471 688v-688h-124l-160 377h-4v-370q0 -95 -15.5 -136.5t-53.5 -54t-122 -12.5v98q28 0 40.5 5t16 15.5t3.5 31.5v734h133l149 -348h5v348h132z" />
    <glyph glyph-name="Ohorn" unicode="&#x1a0;" 
d="M524 781v-27q0 -44 -6.5 -67.5t-26 -36t-60.5 -16.5q24 -36 30 -98t6 -192q0 -156 -11 -223.5t-55 -98t-148 -30.5t-148 30.5t-55 98t-11 223.5q0 157 11 224t55 97.5t148 30.5q59 0 92 -8h33q38 0 50 9.5t12 37.5v46h84zM307 124q14 11 18 54t4 166t-4 166t-18 54
t-54 11t-54 -11t-18 -54t-4 -166t4 -166t18 -54t54 -11t54 11z" />
    <glyph glyph-name="ohorn" unicode="&#x1a1;" horiz-adv-x="436" 
d="M462 603v-27q0 -42 -6 -65.5t-23.5 -36.5t-53.5 -17q14 -28 18.5 -74t4.5 -128q0 -115 -11 -167t-49 -74t-124 -22t-124 22t-49 74t-11 167t11 167t49 74t124 22q57 0 88 -8h10q38 0 50 9.5t12 37.5v46h84zM257.5 109q10.5 9 13 37.5t2.5 108.5t-2.5 108.5t-13 37.5
t-39.5 9t-39.5 -9t-13 -37.5t-2.5 -108.5t2.5 -108.5t13 -37.5t39.5 -9t39.5 9z" />
    <glyph glyph-name="Uhorn" unicode="&#x1af;" 
d="M532 781v-27q0 -59 -14 -84.5t-60 -32.5v-332q0 -136 -11.5 -197.5t-54 -88.5t-139.5 -27t-139.5 27t-54 88.5t-11.5 197.5v383h137v-429q0 -73 3.5 -100.5t17 -36.5t47.5 -9t47 9t16.5 36t3.5 101v429h66q38 0 50 9.5t12 37.5v46h84z" />
    <glyph glyph-name="uhorn" unicode="&#x1b0;" horiz-adv-x="450" 
d="M476 603v-27q0 -40 -5 -62.5t-20.5 -36t-46.5 -18.5v-459h-121l-4 61h-8q-24 -69 -112 -69q-49 0 -73.5 19t-33 57.5t-8.5 106.5v335h129v-276q0 -64 3 -88t12.5 -30.5t34.5 -6.5t35.5 10t13.5 37.5t3 92.5v261h55q38 0 50 9.5t12 37.5v46h84z" />
    <glyph glyph-name="uni01C4" unicode="&#x1c4;" horiz-adv-x="935" 
d="M52 688h186q106 0 151.5 -29.5t56.5 -95t11 -219.5t-11 -219.5t-56.5 -95t-151.5 -29.5h-186v688zM236 121q44 0 59.5 10.5t20 52.5t4.5 160q0 117 -5 159.5t-20 53t-59 10.5h-47v-446h47zM527 0v114l221 453h-214v121h368v-113l-222 -454h224v-121h-377zM650 756
l-75 124v8h88l51 -71l52 71h88v-8l-76 -124h-128z" />
    <glyph glyph-name="uni01C5" unicode="&#x1c5;" horiz-adv-x="890" 
d="M52 688h186q106 0 151.5 -29.5t56.5 -95t11 -219.5t-11 -219.5t-56.5 -95t-151.5 -29.5h-186v688zM236 121q44 0 59.5 10.5t20 52.5t4.5 160q0 117 -5 159.5t-20 53t-59 10.5h-47v-446h47zM528 0v101l178 301h-171v108h321v-101l-177 -301h179v-108h-330zM632 611
l-75 124v8h88l51 -71l52 71h88v-8l-76 -124h-128z" />
    <glyph glyph-name="uni01C6" unicode="&#x1c6;" horiz-adv-x="840" 
d="M85 14.5q-27 22.5 -39 78.5t-12 161q0 103 11 159t38 80.5t77 24.5q39 0 65 -15t39 -47h7v287h129v-743h-122l-4 60h-8q-21 -68 -104 -68q-50 0 -77 22.5zM249.5 115q10.5 7 15.5 27q6 29 6 113q0 81 -4 103q-4 26 -15 35t-34 9q-27 0 -37.5 -8t-14 -36.5t-3.5 -102.5
t3.5 -102.5t14 -36.5t37.5 -8q21 0 31.5 7zM478 0v101l178 301h-171v108h321v-101l-177 -301h179v-108h-330zM575 611l-75 124v8h88l51 -71l52 71h88v-8l-76 -124h-128z" />
    <glyph glyph-name="uni01C7" unicode="&#x1c7;" horiz-adv-x="675" 
d="M52 0v688h138v-563h174v-125h-312zM460 122q19 7 24 31t5 91v444h138v-380q0 -159 -12.5 -216.5t-57 -74t-167.5 -17.5v114q51 1 70 8z" />
    <glyph glyph-name="uni01C8" unicode="&#x1c8;" horiz-adv-x="600" 
d="M52 0v688h138v-563h174v-125h-312zM424 621v122h131v-122h-131zM365 -98q28 0 41 5t16 15t3 32v556h129v-503q0 -95 -15.5 -136.5t-53 -54t-120.5 -12.5v98z" />
    <glyph glyph-name="uni01C9" unicode="&#x1c9;" horiz-adv-x="442" 
d="M46 0v743h129v-743h-129zM266 621v122h131v-122h-131zM207 -98q28 0 41 5t16 15t3 32v556h129v-503q0 -95 -15.5 -136.5t-53 -54t-120.5 -12.5v98z" />
    <glyph glyph-name="uni01CA" unicode="&#x1ca;" horiz-adv-x="819" 
d="M347 0l-160 377h-4v-377h-131v688h133l149 -348h5v348h132v-688h-124zM604 122q19 7 24 31t5 91v444h138v-380q0 -159 -12.5 -216.5t-57 -74t-167.5 -17.5v114q51 1 70 8z" />
    <glyph glyph-name="uni01CB" unicode="&#x1cb;" horiz-adv-x="744" 
d="M347 0l-160 377h-4v-377h-131v688h133l149 -348h5v348h132v-688h-124zM568 621v122h131v-122h-131zM509 -98q28 0 41 5t16 15t3 32v556h129v-503q0 -95 -15.5 -136.5t-53 -54t-120.5 -12.5v98z" />
    <glyph glyph-name="uni01CC" unicode="&#x1cc;" horiz-adv-x="671" 
d="M277 276q0 64 -3 88t-12 30.5t-34 6.5q-26 0 -36.5 -10t-13.5 -37.5t-3 -92.5v-261h-129v510h122l4 -61h7q14 38 43 53.5t70 15.5q48 0 72.5 -19t33 -57.5t8.5 -106.5v-335h-129v276zM495 621v122h131v-122h-131zM436 -98q28 0 41 5t16 15t3 32v556h129v-503
q0 -95 -15.5 -136.5t-53 -54t-120.5 -12.5v98z" />
    <glyph glyph-name="uni01CD" unicode="&#x1cd;" horiz-adv-x="501" 
d="M353 0l-27 141h-154l-27 -141h-137l142 688h201l142 -688h-140zM252 558h-6l-54 -298h113zM187 756l-75 124v8h88l51 -71l52 71h88v-8l-76 -124h-128z" />
    <glyph glyph-name="uni01CE" unicode="&#x1ce;" horiz-adv-x="426" 
d="M52 29.5q-27 37.5 -27 117.5q0 59 12 92.5t40.5 49t79.5 15.5q36 0 96 -4v23q0 42 -6.5 59.5t-24 22.5t-60.5 5q-42 0 -112 -7v100q75 15 151 15q75 0 114 -20t53 -63t14 -123v-312h-123l-4 60h-7q-13 -37 -42 -52.5t-65 -15.5q-62 0 -89 37.5zM224.5 108q10.5 4 17.5 15
q11 17 11 69v25h-60q-26 0 -34.5 -11t-8.5 -48q0 -32 8.5 -43t38.5 -11q17 0 27.5 4zM149 611l-75 124v8h88l51 -71l52 71h88v-8l-76 -124h-128z" />
    <glyph glyph-name="uni01CF" unicode="&#x1cf;" horiz-adv-x="243" 
d="M53 0v688h137v-688h-137zM58 756l-75 124v8h88l51 -71l52 71h88v-8l-76 -124h-128z" />
    <glyph glyph-name="uni01D0" unicode="&#x1d0;" horiz-adv-x="221" 
d="M46 0v510h129v-510h-129zM47 611l-75 124v8h88l51 -71l52 71h88v-8l-76 -124h-128z" />
    <glyph glyph-name="uni01D1" unicode="&#x1d1;" 
d="M105 22.5q-44 30.5 -55 98t-11 223.5q0 157 11 224t55 97.5t148 30.5t148 -30.5t55 -97.5t11 -224q0 -156 -11 -223.5t-55 -98t-148 -30.5t-148 30.5zM307 124q14 11 18 54t4 166t-4 166t-18 54t-54 11t-54 -11t-18 -54t-4 -166t4 -166t18 -54t54 -11t54 11zM189 756
l-75 124v8h88l51 -71l52 71h88v-8l-76 -124h-128z" />
    <glyph glyph-name="uni01D2" unicode="&#x1d2;" horiz-adv-x="436" 
d="M94 14q-38 22 -49 74t-11 167t11 167t49 74t124 22t124 -22t49 -74t11 -167t-11 -167t-49 -74t-124 -22t-124 22zM257.5 109q10.5 9 13 37.5t2.5 108.5t-2.5 108.5t-13 37.5t-39.5 9t-39.5 -9t-13 -37.5t-2.5 -108.5t2.5 -108.5t13 -37.5t39.5 -9t39.5 9zM154 611
l-75 124v8h88l51 -71l52 71h88v-8l-76 -124h-128z" />
    <glyph glyph-name="uni01D3" unicode="&#x1d3;" 
d="M458 688v-383q0 -136 -11.5 -197.5t-54 -88.5t-139.5 -27t-139.5 27t-54 88.5t-11.5 197.5v383h137v-429q0 -73 3.5 -100.5t17 -36.5t47.5 -9t47 9t16.5 36t3.5 101v429h138zM189 756l-75 124v8h88l51 -71l52 71h88v-8l-76 -124h-128z" />
    <glyph glyph-name="uni01D4" unicode="&#x1d4;" horiz-adv-x="450" 
d="M279 61h-8q-24 -69 -112 -69q-49 0 -73.5 19t-33 57.5t-8.5 106.5v335h129v-276q0 -64 3 -88t12.5 -30.5t34.5 -6.5t35.5 10t13.5 37.5t3 92.5v261h129v-510h-121zM161 611l-75 124v8h88l51 -71l52 71h88v-8l-76 -124h-128z" />
    <glyph glyph-name="uni01D5" unicode="&#x1d5;" 
d="M154 890v105h202v-105h-202zM110 772v103h111v-103h-111zM285 772v103h111v-103h-111zM458 688v-383q0 -136 -11.5 -197.5t-54 -88.5t-139.5 -27t-139.5 27t-54 88.5t-11.5 197.5v383h137v-429q0 -73 3.5 -100.5t17 -36.5t47.5 -9t47 9t16.5 36t3.5 101v429h138z" />
    <glyph glyph-name="uni01D6" unicode="&#x1d6;" horiz-adv-x="450" 
d="M279 61h-8q-24 -69 -112 -69q-49 0 -73.5 19t-33 57.5t-8.5 106.5v335h129v-276q0 -64 3 -88t12.5 -30.5t34.5 -6.5t35.5 10t13.5 37.5t3 92.5v261h129v-510h-121zM82 627v103h111v-103h-111zM257 627v103h111v-103h-111zM126 787v116h202v-116h-202z" />
    <glyph glyph-name="uni01D7" unicode="&#x1d7;" 
d="M221 869v-97h-111v103h89l53 140h128v-5l-76 -135h92v-103h-111v97h-64zM458 688v-383q0 -136 -11.5 -197.5t-54 -88.5t-139.5 -27t-139.5 27t-54 88.5t-11.5 197.5v383h137v-429q0 -73 3.5 -100.5t17 -36.5t47.5 -9t47 9t16.5 36t3.5 101v429h138z" />
    <glyph glyph-name="uni01D8" unicode="&#x1d8;" horiz-adv-x="450" 
d="M279 61h-8q-24 -69 -112 -69q-49 0 -73.5 19t-33 57.5t-8.5 106.5v335h129v-276q0 -64 3 -88t12.5 -30.5t34.5 -6.5t35.5 10t13.5 37.5t3 92.5v261h129v-510h-121zM82 627v103h111v-103h-111zM257 627v103h111v-103h-111zM170 757v5l53 141h128v-5l-79 -141h-102z" />
    <glyph glyph-name="uni01D9" unicode="&#x1d9;" 
d="M458 688v-383q0 -136 -11.5 -197.5t-54 -88.5t-139.5 -27t-139.5 27t-54 88.5t-11.5 197.5v383h137v-429q0 -73 3.5 -100.5t17 -36.5t47.5 -9t47 9t16.5 36t3.5 101v429h138zM110 772v103h111v-103h-111zM285 772v103h111v-103h-111zM191 883l-75 124v8h88l51 -71l52 71
h88v-8l-76 -124h-128z" />
    <glyph glyph-name="uni01DA" unicode="&#x1da;" horiz-adv-x="450" 
d="M279 61h-8q-24 -69 -112 -69q-49 0 -73.5 19t-33 57.5t-8.5 106.5v335h129v-276q0 -64 3 -88t12.5 -30.5t34.5 -6.5t35.5 10t13.5 37.5t3 92.5v261h129v-510h-121zM82 627v103h111v-103h-111zM257 627v103h111v-103h-111zM163 771l-75 124v8h88l51 -71l52 71h88v-8
l-76 -124h-128z" />
    <glyph glyph-name="uni01DB" unicode="&#x1db;" 
d="M221 869v-97h-111v103h95l-75 135v5h128l53 -140h85v-103h-111v97h-64zM458 688v-383q0 -136 -11.5 -197.5t-54 -88.5t-139.5 -27t-139.5 27t-54 88.5t-11.5 197.5v383h137v-429q0 -73 3.5 -100.5t17 -36.5t47.5 -9t47 9t16.5 36t3.5 101v429h138z" />
    <glyph glyph-name="uni01DC" unicode="&#x1dc;" horiz-adv-x="450" 
d="M279 61h-8q-24 -69 -112 -69q-49 0 -73.5 19t-33 57.5t-8.5 106.5v335h129v-276q0 -64 3 -88t12.5 -30.5t34.5 -6.5t35.5 10t13.5 37.5t3 92.5v261h129v-510h-121zM82 627v103h111v-103h-111zM257 627v103h111v-103h-111zM175 757l-78 141v5h128l53 -141v-5h-103z" />
    <glyph glyph-name="Gcaron" unicode="&#x1e6;" horiz-adv-x="487" 
d="M251 282v118h189v-387q-35 -9 -85 -15t-93 -6q-95 0 -141.5 28.5t-64 102t-17.5 221.5q0 147 18.5 220.5t67.5 102.5t147 29q40 0 87 -6t80 -14v-113q-86 12 -125 12q-68 0 -93.5 -11t-35 -56.5t-9.5 -163.5q0 -110 6 -156.5t23.5 -62.5t59.5 -16q9 0 48 3v170h-62z
M179 756l-75 124v8h88l51 -71l52 71h88v-8l-76 -124h-128z" />
    <glyph glyph-name="gcaron" unicode="&#x1e7;" horiz-adv-x="446" 
d="M131 -200q-40 3 -65 8v99q18 0 26 -1l85 -1q47 0 65.5 8t23.5 31t5 82v38h-8q-23 -62 -102 -62q-50 0 -77.5 23.5t-38.5 78t-11 155.5q0 103 12 158.5t39 78t77 22.5q35 0 63.5 -15.5t40.5 -52.5h8l4 60h122v-449q0 -104 -11 -156.5t-52 -80t-130 -27.5q-36 0 -76 3z
M249.5 124q10.5 7 15.5 27q6 24 6 108q0 75 -5 100q-4 25 -14.5 33.5t-34.5 8.5q-27 0 -37 -7.5t-13.5 -35t-3.5 -99.5t3.5 -99.5t13.5 -35t37 -7.5q22 0 32.5 7zM159 611l-75 124v8h88l51 -71l52 71h88v-8l-76 -124h-128z" />
    <glyph glyph-name="uni01EA" unicode="&#x1ea;" 
d="M261 -172.5q-24 23.5 -24 60.5q0 51 41 105q-8 -1 -25 -1q-104 0 -148 30.5t-55 97.5t-11 224t11 224t55 97.5t148 30.5q103 0 147.5 -30.5t55.5 -98t11 -223.5q0 -104 -3.5 -160.5t-17 -96t-42.5 -61.5q-29 -21 -47.5 -51t-18.5 -63q0 -36 38 -36l14 1v-69
q-23 -4 -51 -4q-54 0 -78 23.5zM307 124q14 11 18 54.5t4 165.5t-4 165.5t-18 54.5t-54 11t-54 -11t-18 -54t-4 -166t4 -166t18 -54t54 -11t54 11z" />
    <glyph glyph-name="uni01EB" unicode="&#x1eb;" horiz-adv-x="436" 
d="M342 496q38 -22 49 -74t11 -167q0 -108 -9 -159t-41 -75q-26 -20 -42 -49t-16 -59q0 -37 38 -37l14 1v-69q-30 -4 -51 -4q-55 0 -78.5 23.5t-23.5 60.5q0 51 38 104h-13q-86 0 -124 22t-49 74t-11 167t11 167t49 74t124 22t124 -22zM165.5 146.5q2.5 -28.5 13 -37.5
t39.5 -9t39.5 9t13 37.5t2.5 108.5t-2.5 108.5t-13 37.5t-39.5 9t-39.5 -9t-13 -37.5t-2.5 -108.5t2.5 -108.5z" />
    <glyph glyph-name="uni01F1" unicode="&#x1f1;" horiz-adv-x="935" 
d="M52 688h186q106 0 151.5 -29.5t56.5 -95t11 -219.5t-11 -219.5t-56.5 -95t-151.5 -29.5h-186v688zM236 121q44 0 59.5 10.5t20 52.5t4.5 160q0 117 -5 159.5t-20 53t-59 10.5h-47v-446h47zM527 0v114l221 453h-214v121h368v-113l-222 -454h224v-121h-377z" />
    <glyph glyph-name="uni01F2" unicode="&#x1f2;" horiz-adv-x="890" 
d="M52 688h186q106 0 151.5 -29.5t56.5 -95t11 -219.5t-11 -219.5t-56.5 -95t-151.5 -29.5h-186v688zM236 121q44 0 59.5 10.5t20 52.5t4.5 160q0 117 -5 159.5t-20 53t-59 10.5h-47v-446h47zM528 0v101l178 301h-171v108h321v-101l-177 -301h179v-108h-330z" />
    <glyph glyph-name="uni01F3" unicode="&#x1f3;" horiz-adv-x="840" 
d="M85 14.5q-27 22.5 -39 78.5t-12 161q0 103 11 159t38 80.5t77 24.5q39 0 65 -15t39 -47h7v287h129v-743h-122l-4 60h-8q-21 -68 -104 -68q-50 0 -77 22.5zM249.5 115q10.5 7 15.5 27q6 29 6 113q0 81 -4 103q-4 26 -15 35t-34 9q-27 0 -37.5 -8t-14 -36.5t-3.5 -102.5
t3.5 -102.5t14 -36.5t37.5 -8q21 0 31.5 7zM478 0v101l178 301h-171v108h321v-101l-177 -301h179v-108h-330z" />
    <glyph glyph-name="uni01F4" unicode="&#x1f4;" horiz-adv-x="487" 
d="M251 282v118h189v-387q-35 -9 -85 -15t-93 -6q-95 0 -141.5 28.5t-64 102t-17.5 221.5q0 147 18.5 220.5t67.5 102.5t147 29q40 0 87 -6t80 -14v-113q-86 12 -125 12q-68 0 -93.5 -11t-35 -56.5t-9.5 -163.5q0 -110 6 -156.5t23.5 -62.5t59.5 -16q9 0 48 3v170h-62z
M187 742v5l53 141h128v-5l-79 -141h-102z" />
    <glyph glyph-name="uni01F5" unicode="&#x1f5;" horiz-adv-x="446" 
d="M131 -200q-40 3 -65 8v99q18 0 26 -1l85 -1q47 0 65.5 8t23.5 31t5 82v38h-8q-23 -62 -102 -62q-50 0 -77.5 23.5t-38.5 78t-11 155.5q0 103 12 158.5t39 78t77 22.5q35 0 63.5 -15.5t40.5 -52.5h8l4 60h122v-449q0 -104 -11 -156.5t-52 -80t-130 -27.5q-36 0 -76 3z
M249.5 124q10.5 7 15.5 27q6 24 6 108q0 75 -5 100q-4 25 -14.5 33.5t-34.5 8.5q-27 0 -37 -7.5t-13.5 -35t-3.5 -99.5t3.5 -99.5t13.5 -35t37 -7.5q22 0 32.5 7zM166 597v5l53 141h128v-5l-79 -141h-102z" />
    <glyph glyph-name="Aringacute" unicode="&#x1fa;" horiz-adv-x="501" 
d="M493 0h-140l-27 141h-154l-27 -141h-137l142 686q-18 12 -22.5 31.5t-4.5 57.5q0 44 7 66t34 33.5t86 11.5q60 0 87 -11.5t34 -33.5t7 -66q0 -37 -5 -57t-22 -31zM218.5 817q-9.5 -4 -11.5 -12.5t-2 -29.5t2 -29.5t11.5 -12.5t31.5 -4q23 0 32.5 4t12 12.5t2.5 29.5
t-2.5 29.5t-12 12.5t-32.5 4q-22 0 -31.5 -4zM192 260h113l-53 298h-6zM194 940v5l53 141h128v-5l-79 -141h-102z" />
    <glyph glyph-name="aringacute" unicode="&#x1fb;" horiz-adv-x="426" 
d="M52 29.5q-27 37.5 -27 117.5q0 59 12 92.5t40.5 49t79.5 15.5q36 0 96 -4v23q0 42 -6.5 59.5t-24 22.5t-60.5 5q-42 0 -112 -7v100q75 15 151 15q75 0 114 -20t53 -63t14 -123v-312h-123l-4 60h-7q-13 -37 -42 -52.5t-65 -15.5q-62 0 -89 37.5zM224.5 108q10.5 4 17.5 15
q11 17 11 69v25h-60q-26 0 -34.5 -11t-8.5 -48q0 -32 8.5 -43t38.5 -11q17 0 27.5 4zM126.5 618.5q-26.5 11.5 -33.5 33t-7 64.5q0 44 7 65.5t33.5 33t85.5 11.5q60 0 86.5 -11.5t33.5 -33t7 -65.5t-7 -65t-33.5 -32.5t-86.5 -11.5q-59 0 -85.5 11.5zM244.5 674.5
q9.5 3.5 12 12t2.5 29.5t-2.5 30t-12 13t-32.5 4q-22 0 -31 -4t-11.5 -13t-2.5 -30t2.5 -29.5t11.5 -12t31 -3.5q23 0 32.5 3.5zM158 853v5l53 141h128v-5l-79 -141h-102z" />
    <glyph glyph-name="AEacute" unicode="&#x1fc;" horiz-adv-x="677" 
d="M333 0l-17 141h-156l-37 -141h-136l190 688h465v-121h-244l21 -159h196v-122h-181l23 -165h185v-121h-309zM268 559h-6l-74 -299h115zM283 742v5l53 141h128v-5l-79 -141h-102z" />
    <glyph glyph-name="aeacute" unicode="&#x1fd;" horiz-adv-x="643" 
d="M608 215h-227q0 -57 5 -79t23 -29t65 -7q42 0 122 6v-99q-27 -7 -69.5 -11t-81.5 -4q-52 0 -84.5 10t-52.5 33q-47 -43 -140 -43q-79 0 -111 37t-32 117q0 59 12 93t40.5 49.5t79.5 15.5t95 -4v22q0 43 -6 60.5t-24 22.5t-61 5q-46 0 -112 -7v100q86 15 151 15
q81 0 119 -34q40 34 119 34q82 0 117.5 -26t44 -76t8.5 -162v-39zM399.5 404q-10.5 -7 -14 -29t-4.5 -73h106q0 51 -4 73.5t-14 29t-34 6.5q-25 0 -35.5 -7zM252 216h-60q-27 0 -35 -11t-8 -47q0 -35 8.5 -47t38.5 -12q21 0 32.5 6.5t17.5 23.5q6 21 6 60v27zM265 597v5
l53 141h128v-5l-79 -141h-102z" />
    <glyph glyph-name="Oslashacute" unicode="&#x1fe;" 
d="M426 642q27 -36 34 -100t7 -198q0 -156 -11 -223.5t-55 -98t-148 -30.5q-46 0 -80 6l-20 -53h-114l40 102q-26 36 -33 100t-7 197q0 157 11 224t55 97.5t148 30.5q41 0 79 -5l20 52h115zM307 124q14 11 18 54t4 166t-4 166t-18 54t-54 11t-54 -11t-18 -54t-4 -166t4 -166
t18 -54t54 -11t54 11zM180 742v5l53 141h128v-5l-79 -141h-102z" />
    <glyph glyph-name="oslashacute" unicode="&#x1ff;" horiz-adv-x="436" 
d="M70 34q-22 27 -29 76t-7 145q0 115 11 167t49 74t124 22q29 0 51 -3l21 50h112l-36 -89q22 -27 29 -76t7 -145q0 -115 -11 -167t-49 -74t-124 -22q-30 0 -51 3l-20 -50h-113zM257.5 109q10.5 9 13 37.5t2.5 108.5t-2.5 108.5t-13 37.5t-39.5 9t-39.5 -9t-13 -37.5
t-2.5 -108.5t2.5 -108.5t13 -37.5t39.5 -9t39.5 9zM161 597v5l53 141h128v-5l-79 -141h-102z" />
    <glyph glyph-name="uni0200" unicode="&#x200;" horiz-adv-x="501" 
d="M353 0l-27 141h-154l-27 -141h-137l142 688h201l142 -688h-140zM252 558h-6l-54 -298h113zM224 755h-85l-65 117v4h105l45 -117v-4zM370 755h-85l-64 117v4h105l44 -117v-4z" />
    <glyph glyph-name="uni0201" unicode="&#x201;" horiz-adv-x="426" 
d="M52 29.5q-27 37.5 -27 117.5q0 59 12 92.5t40.5 49t79.5 15.5q36 0 96 -4v23q0 42 -6.5 59.5t-24 22.5t-60.5 5q-42 0 -112 -7v100q75 15 151 15q75 0 114 -20t53 -63t14 -123v-312h-123l-4 60h-7q-13 -37 -42 -52.5t-65 -15.5q-62 0 -89 37.5zM224.5 108q10.5 4 17.5 15
q11 17 11 69v25h-60q-26 0 -34.5 -11t-8.5 -48q0 -32 8.5 -43t38.5 -11q17 0 27.5 4zM186 610h-85l-65 117v4h105l45 -117v-4zM332 610h-85l-64 117v4h105l44 -117v-4z" />
    <glyph glyph-name="uni0202" unicode="&#x202;" horiz-adv-x="501" 
d="M353 0l-27 141h-154l-27 -141h-137l142 688h201l142 -688h-140zM252 558h-6l-54 -298h113zM129.5 832q9.5 29 38 45.5t84.5 16.5q55 0 83 -16.5t37 -45.5t9 -74h-79q0 23 -2.5 34.5t-13 19t-34.5 7.5q-35 0 -44 -14.5t-9 -46.5h-79q0 45 9.5 74z" />
    <glyph glyph-name="uni0203" unicode="&#x203;" horiz-adv-x="426" 
d="M52 29.5q-27 37.5 -27 117.5q0 59 12 92.5t40.5 49t79.5 15.5q36 0 96 -4v23q0 42 -6.5 59.5t-24 22.5t-60.5 5q-42 0 -112 -7v100q75 15 151 15q75 0 114 -20t53 -63t14 -123v-312h-123l-4 60h-7q-13 -37 -42 -52.5t-65 -15.5q-62 0 -89 37.5zM224.5 108q10.5 4 17.5 15
q11 17 11 69v25h-60q-26 0 -34.5 -11t-8.5 -48q0 -32 8.5 -43t38.5 -11q17 0 27.5 4zM91.5 687q9.5 29 38 45.5t84.5 16.5q55 0 83 -16.5t37 -45.5t9 -74h-79q0 23 -2.5 34.5t-13 19t-34.5 7.5q-35 0 -44 -14.5t-9 -46.5h-79q0 45 9.5 74z" />
    <glyph glyph-name="uni0204" unicode="&#x204;" horiz-adv-x="421" 
d="M52 0v688h334v-121h-196v-159h169v-121h-169v-166h196v-121h-334zM192 755h-85l-65 117v4h105l45 -117v-4zM338 755h-85l-64 117v4h105l44 -117v-4z" />
    <glyph glyph-name="uni0205" unicode="&#x205;" horiz-adv-x="425" 
d="M390 215h-227q0 -57 5 -79t23 -29t65 -7q38 0 122 6v-99q-27 -6 -70 -10.5t-82 -4.5q-89 0 -129.5 26.5t-51.5 78.5t-11 157q0 103 11 156t50 80.5t123 27.5q82 0 118.5 -25.5t45 -76.5t8.5 -162v-39zM181.5 404q-10.5 -7 -14.5 -29t-4 -73h106q0 51 -4 73.5t-14 29
t-34 6.5q-25 0 -35.5 -7zM185 610h-85l-65 117v4h105l45 -117v-4zM331 610h-85l-64 117v4h105l44 -117v-4z" />
    <glyph glyph-name="uni0206" unicode="&#x206;" horiz-adv-x="421" 
d="M52 0v688h334v-121h-196v-159h169v-121h-169v-166h196v-121h-334zM97.5 832q9.5 29 38 45.5t84.5 16.5q55 0 83 -16.5t37 -45.5t9 -74h-79q0 23 -2.5 34.5t-13 19t-34.5 7.5q-35 0 -44 -14.5t-9 -46.5h-79q0 45 9.5 74z" />
    <glyph glyph-name="uni0207" unicode="&#x207;" horiz-adv-x="425" 
d="M390 215h-227q0 -57 5 -79t23 -29t65 -7q38 0 122 6v-99q-27 -6 -70 -10.5t-82 -4.5q-89 0 -129.5 26.5t-51.5 78.5t-11 157q0 103 11 156t50 80.5t123 27.5q82 0 118.5 -25.5t45 -76.5t8.5 -162v-39zM181.5 404q-10.5 -7 -14.5 -29t-4 -73h106q0 51 -4 73.5t-14 29
t-34 6.5q-25 0 -35.5 -7zM90.5 687q9.5 29 38 45.5t84.5 16.5q55 0 83 -16.5t37 -45.5t9 -74h-79q0 23 -2.5 34.5t-13 19t-34.5 7.5q-35 0 -44 -14.5t-9 -46.5h-79q0 45 9.5 74z" />
    <glyph glyph-name="uni0208" unicode="&#x208;" horiz-adv-x="243" 
d="M53 0v688h137v-688h-137zM95 755h-85l-65 117v4h105l45 -117v-4zM241 755h-85l-64 117v4h105l44 -117v-4z" />
    <glyph glyph-name="uni0209" unicode="&#x209;" horiz-adv-x="221" 
d="M46 0v510h129v-510h-129zM84 610h-85l-65 117v4h105l45 -117v-4zM230 610h-85l-64 117v4h105l44 -117v-4z" />
    <glyph glyph-name="uni020A" unicode="&#x20a;" horiz-adv-x="243" 
d="M53 0v688h137v-688h-137zM0.5 832q9.5 29 38 45.5t84.5 16.5q55 0 83 -16.5t37 -45.5t9 -74h-79q0 23 -2.5 34.5t-13 19t-34.5 7.5q-35 0 -44 -14.5t-9 -46.5h-79q0 45 9.5 74z" />
    <glyph glyph-name="uni020B" unicode="&#x20b;" horiz-adv-x="221" 
d="M46 0v510h129v-510h-129zM-10.5 687q9.5 29 38 45.5t84.5 16.5q55 0 83 -16.5t37 -45.5t9 -74h-79q0 23 -2.5 34.5t-13 19t-34.5 7.5q-35 0 -44 -14.5t-9 -46.5h-79q0 45 9.5 74z" />
    <glyph glyph-name="uni020C" unicode="&#x20c;" 
d="M105 22.5q-44 30.5 -55 98t-11 223.5q0 157 11 224t55 97.5t148 30.5t148 -30.5t55 -97.5t11 -224q0 -156 -11 -223.5t-55 -98t-148 -30.5t-148 30.5zM307 124q14 11 18 54t4 166t-4 166t-18 54t-54 11t-54 -11t-18 -54t-4 -166t4 -166t18 -54t54 -11t54 11zM226 755h-85
l-65 117v4h105l45 -117v-4zM372 755h-85l-64 117v4h105l44 -117v-4z" />
    <glyph glyph-name="uni020D" unicode="&#x20d;" horiz-adv-x="436" 
d="M94 14q-38 22 -49 74t-11 167t11 167t49 74t124 22t124 -22t49 -74t11 -167t-11 -167t-49 -74t-124 -22t-124 22zM257.5 109q10.5 9 13 37.5t2.5 108.5t-2.5 108.5t-13 37.5t-39.5 9t-39.5 -9t-13 -37.5t-2.5 -108.5t2.5 -108.5t13 -37.5t39.5 -9t39.5 9zM191 610h-85
l-65 117v4h105l45 -117v-4zM337 610h-85l-64 117v4h105l44 -117v-4z" />
    <glyph glyph-name="uni020E" unicode="&#x20e;" 
d="M105 22.5q-44 30.5 -55 98t-11 223.5q0 157 11 224t55 97.5t148 30.5t148 -30.5t55 -97.5t11 -224q0 -156 -11 -223.5t-55 -98t-148 -30.5t-148 30.5zM307 124q14 11 18 54t4 166t-4 166t-18 54t-54 11t-54 -11t-18 -54t-4 -166t4 -166t18 -54t54 -11t54 11zM131.5 832
q9.5 29 38 45.5t84.5 16.5q55 0 83 -16.5t37 -45.5t9 -74h-79q0 23 -2.5 34.5t-13 19t-34.5 7.5q-35 0 -44 -14.5t-9 -46.5h-79q0 45 9.5 74z" />
    <glyph glyph-name="uni020F" unicode="&#x20f;" horiz-adv-x="436" 
d="M94 14q-38 22 -49 74t-11 167t11 167t49 74t124 22t124 -22t49 -74t11 -167t-11 -167t-49 -74t-124 -22t-124 22zM257.5 109q10.5 9 13 37.5t2.5 108.5t-2.5 108.5t-13 37.5t-39.5 9t-39.5 -9t-13 -37.5t-2.5 -108.5t2.5 -108.5t13 -37.5t39.5 -9t39.5 9zM96.5 687
q9.5 29 38 45.5t84.5 16.5q55 0 83 -16.5t37 -45.5t9 -74h-79q0 23 -2.5 34.5t-13 19t-34.5 7.5q-35 0 -44 -14.5t-9 -46.5h-79q0 45 9.5 74z" />
    <glyph glyph-name="uni0210" unicode="&#x210;" horiz-adv-x="494" 
d="M331 0l-67 240h-74v-240h-138v688h232q74 0 111.5 -25t50.5 -72t13 -126q0 -75 -13.5 -124t-54.5 -74l83 -267h-143zM298 366.5q14 7.5 18.5 28t4.5 69.5q0 48 -4.5 68t-18.5 27.5t-47 7.5h-61v-208h61q33 0 47 7.5zM220 755h-85l-65 117v4h105l45 -117v-4zM366 755h-85
l-64 117v4h105l44 -117v-4z" />
    <glyph glyph-name="uni0211" unicode="&#x211;" horiz-adv-x="312" 
d="M46 510h122l4 -84h8q15 52 43 72t75 20v-135q-45 0 -71.5 -13t-39 -46t-12.5 -92v-232h-129v510zM130 610h-85l-65 117v4h105l45 -117v-4zM276 610h-85l-64 117v4h105l44 -117v-4z" />
    <glyph glyph-name="uni0212" unicode="&#x212;" horiz-adv-x="494" 
d="M331 0l-67 240h-74v-240h-138v688h232q74 0 111.5 -25t50.5 -72t13 -126q0 -75 -13.5 -124t-54.5 -74l83 -267h-143zM298 366.5q14 7.5 18.5 28t4.5 69.5q0 48 -4.5 68t-18.5 27.5t-47 7.5h-61v-208h61q33 0 47 7.5zM125.5 832q9.5 29 38 45.5t84.5 16.5q55 0 83 -16.5
t37 -45.5t9 -74h-79q0 23 -2.5 34.5t-13 19t-34.5 7.5q-35 0 -44 -14.5t-9 -46.5h-79q0 45 9.5 74z" />
    <glyph glyph-name="uni0213" unicode="&#x213;" horiz-adv-x="312" 
d="M46 510h122l4 -84h8q15 52 43 72t75 20v-135q-45 0 -71.5 -13t-39 -46t-12.5 -92v-232h-129v510zM35.5 687q9.5 29 38 45.5t84.5 16.5q55 0 83 -16.5t37 -45.5t9 -74h-79q0 23 -2.5 34.5t-13 19t-34.5 7.5q-35 0 -44 -14.5t-9 -46.5h-79q0 45 9.5 74z" />
    <glyph glyph-name="uni0214" unicode="&#x214;" 
d="M458 688v-383q0 -136 -11.5 -197.5t-54 -88.5t-139.5 -27t-139.5 27t-54 88.5t-11.5 197.5v383h137v-429q0 -73 3.5 -100.5t17 -36.5t47.5 -9t47 9t16.5 36t3.5 101v429h138zM226 755h-85l-65 117v4h105l45 -117v-4zM372 755h-85l-64 117v4h105l44 -117v-4z" />
    <glyph glyph-name="uni0215" unicode="&#x215;" horiz-adv-x="450" 
d="M279 61h-8q-24 -69 -112 -69q-49 0 -73.5 19t-33 57.5t-8.5 106.5v335h129v-276q0 -64 3 -88t12.5 -30.5t34.5 -6.5t35.5 10t13.5 37.5t3 92.5v261h129v-510h-121zM198 610h-85l-65 117v4h105l45 -117v-4zM344 610h-85l-64 117v4h105l44 -117v-4z" />
    <glyph glyph-name="uni0216" unicode="&#x216;" 
d="M458 688v-383q0 -136 -11.5 -197.5t-54 -88.5t-139.5 -27t-139.5 27t-54 88.5t-11.5 197.5v383h137v-429q0 -73 3.5 -100.5t17 -36.5t47.5 -9t47 9t16.5 36t3.5 101v429h138zM131.5 832q9.5 29 38 45.5t84.5 16.5q55 0 83 -16.5t37 -45.5t9 -74h-79q0 23 -2.5 34.5
t-13 19t-34.5 7.5q-35 0 -44 -14.5t-9 -46.5h-79q0 45 9.5 74z" />
    <glyph glyph-name="uni0217" unicode="&#x217;" horiz-adv-x="450" 
d="M279 61h-8q-24 -69 -112 -69q-49 0 -73.5 19t-33 57.5t-8.5 106.5v335h129v-276q0 -64 3 -88t12.5 -30.5t34.5 -6.5t35.5 10t13.5 37.5t3 92.5v261h129v-510h-121zM103.5 687q9.5 29 38 45.5t84.5 16.5q55 0 83 -16.5t37 -45.5t9 -74h-79q0 23 -2.5 34.5t-13 19
t-34.5 7.5q-35 0 -44 -14.5t-9 -46.5h-79q0 45 9.5 74z" />
    <glyph glyph-name="Scommaaccent" unicode="&#x218;" horiz-adv-x="443" 
d="M129.5 -3.5q-49.5 4.5 -87.5 12.5v112q102 -8 141 -8q35 0 53 4t27 14q8 8 10.5 22.5t2.5 41.5q0 37 -4 52.5t-16.5 23t-43.5 13.5l-94 17q-50 9 -69 55t-19 133q0 85 24.5 130t67.5 61t109 16q46 0 88.5 -6t69.5 -12v-112q-54 9 -121 9q-36 0 -55.5 -3t-28.5 -11
q-11 -8 -14 -23t-3 -44q0 -31 3.5 -45t12.5 -20t31 -10l88 -16q35 -5 59.5 -21.5t38.5 -54.5q14 -40 14 -113q0 -95 -23 -143t-63.5 -63.5t-106.5 -15.5q-42 0 -91.5 4.5zM197.5 -222.5q10.5 9.5 10.5 37.5v14h-50v109h133v-72q0 -66 -9 -97.5t-37.5 -44.5t-90.5 -13v57
q33 0 43.5 9.5z" />
    <glyph glyph-name="scommaaccent" unicode="&#x219;" horiz-adv-x="371" 
d="M109.5 -3.5q-42.5 4.5 -72.5 11.5v99q66 -7 114 -7q30 0 44.5 3.5t20 13.5t5.5 31q0 23 -2.5 32.5t-10 13t-26.5 6.5l-84 14q-40 6 -56.5 39.5t-16.5 109.5q0 86 42 120.5t125 34.5q33 0 70 -4.5t60 -11.5v-100q-64 8 -106 8q-38 0 -50.5 -8.5t-12.5 -36.5q0 -22 2 -31
t8.5 -12.5t22.5 -5.5l73 -11q28 -5 46 -16.5t29.5 -42.5t11.5 -89q0 -94 -39 -129.5t-120 -35.5q-35 0 -77.5 4.5zM161.5 -222.5q10.5 9.5 10.5 37.5v14h-50v109h133v-72q0 -66 -9 -97.5t-37.5 -44.5t-90.5 -13v57q33 0 43.5 9.5z" />
    <glyph glyph-name="uni021A" unicode="&#x21a;" horiz-adv-x="418" 
d="M140 0v563h-130v125h398v-125h-130v-563h-138zM184.5 -222.5q10.5 9.5 10.5 37.5v14h-50v109h133v-72q0 -66 -9 -97.5t-37.5 -44.5t-90.5 -13v57q33 0 43.5 9.5z" />
    <glyph glyph-name="uni021B" unicode="&#x21b;" horiz-adv-x="302" 
d="M78 0v402h-63v108h63v148h129v-148h81v-108h-81v-402h-129zM117.5 -222.5q10.5 9.5 10.5 37.5v14h-50v109h133v-72q0 -66 -9 -97.5t-37.5 -44.5t-90.5 -13v57q33 0 43.5 9.5z" />
    <glyph glyph-name="uni0232" unicode="&#x232;" horiz-adv-x="463" 
d="M163 0v238l-163 450h141l90 -297h9l87 297h136l-163 -450v-238h-137zM131 772v116h202v-116h-202z" />
    <glyph glyph-name="uni0233" unicode="&#x233;" horiz-adv-x="450" 
d="M137 -200q-40 3 -65 7v100q37 -1 111 -1q46 0 64.5 7.5t23 30t4.5 80.5v43h-7q-24 -66 -109 -66q-50 0 -74.5 20.5t-32.5 61t-8 115.5v312h129v-268q0 -64 3 -88t12.5 -30.5t34.5 -6.5q26 0 36 10t13 36.5t3 93.5v253h129v-450q0 -103 -11 -155.5t-51.5 -80t-128.5 -27.5
q-36 0 -76 3zM124 627v116h202v-116h-202z" />
    <glyph glyph-name="uni0237" unicode="&#x237;" horiz-adv-x="221" 
d="M-14 -98q28 0 41 5t16 15t3 32v556h129v-503q0 -95 -15.5 -136.5t-53 -54t-120.5 -12.5v98z" />
    <glyph glyph-name="uni0259" unicode="&#x259;" horiz-adv-x="425" 
d="M328.5 491.5q40.5 -26.5 51.5 -78.5t11 -157q0 -103 -11 -156t-50 -80.5t-123 -27.5q-82 0 -118.5 25.5t-45 76.5t-8.5 162v39h227q0 57 -5 79t-23 29t-65 7q-38 0 -122 -6v99q27 6 70 10.5t82 4.5q89 0 129.5 -26.5zM243.5 106q10.5 7 14.5 29t4 73h-106q0 -51 4 -73.5
t14 -29t34 -6.5q25 0 35.5 7z" />
    <glyph glyph-name="uni0272" unicode="&#x272;" horiz-adv-x="450" 
d="M-14 -98q28 0 41 5t16 15t3 32v556h122l4 -61h7q14 38 43 53.5t70 15.5q48 0 72.5 -19t33 -57.5t8.5 -106.5v-335h-129v276q0 64 -3 88t-12 30.5t-34 6.5q-26 0 -36.5 -10t-13.5 -37t-3 -92v-255q0 -94 -15.5 -136t-53 -54.5t-120.5 -12.5v98z" />
    <glyph glyph-name="uni02BC" unicode="&#x2bc;" horiz-adv-x="168" 
d="M58.5 574.5q10.5 14.5 10.5 56.5v15h-50v97h133v-61q0 -76 -9 -112t-37.5 -51t-89.5 -15v56q32 0 42.5 14.5z" />
    <glyph glyph-name="circumflex" unicode="&#x2c6;" horiz-adv-x="291" 
d="M6 612v8l75 123h129l76 -123v-8h-89l-52 71l-51 -71h-88z" />
    <glyph glyph-name="caron" unicode="&#x2c7;" horiz-adv-x="291" 
d="M81 611l-75 124v8h88l51 -71l52 71h88v-8l-76 -124h-128z" />
    <glyph glyph-name="uni02C9" unicode="&#x2c9;" horiz-adv-x="298" 
d="M48 627v116h202v-116h-202z" />
    <glyph glyph-name="breve" unicode="&#x2d8;" horiz-adv-x="273" 
d="M257.5 669q-9.5 -29 -38 -45.5t-84.5 -16.5q-55 0 -83 16.5t-37 45.5t-9 74h79q0 -23 2.5 -34.5t13 -19t34.5 -7.5q35 0 44 14.5t9 46.5h79q0 -45 -9.5 -74z" />
    <glyph glyph-name="dotaccent" unicode="&#x2d9;" horiz-adv-x="124" 
d="M7 627v103h111v-103h-111z" />
    <glyph glyph-name="ring" unicode="&#x2da;" horiz-adv-x="265" 
d="M46.5 618.5q-26.5 11.5 -33.5 33t-7 64.5q0 44 7 65.5t33.5 33t85.5 11.5q60 0 86.5 -11.5t33.5 -33t7 -65.5t-7 -65t-33.5 -32.5t-86.5 -11.5q-59 0 -85.5 11.5zM164.5 674.5q9.5 3.5 12 12t2.5 29.5t-2.5 30t-12 13t-32.5 4q-22 0 -31 -4t-11.5 -13t-2.5 -30t2.5 -29.5
t11.5 -12t31 -3.5q23 0 32.5 3.5z" />
    <glyph glyph-name="ogonek" unicode="&#x2db;" horiz-adv-x="153" 
d="M100 -196q-54 0 -77 23.5t-23 62.5q0 28 15 58.5t40 55.5h97q-18 -15 -34.5 -41t-16.5 -49q0 -18 8.5 -28t30.5 -10l13 2v-70q-21 -4 -53 -4z" />
    <glyph glyph-name="tilde" unicode="&#x2dc;" horiz-adv-x="323" 
d="M312 667.5q-4 -25.5 -19.5 -40t-50.5 -14.5t-89 16q-6 2 -24.5 7t-29.5 5q-13 0 -16 -8t-3 -32h-74q0 50 4 76t20 40.5t51 14.5q33 0 88 -17q40 -11 55 -11q13 0 15.5 7.5t2.5 31.5h74q0 -50 -4 -75.5z" />
    <glyph glyph-name="hungarumlaut" unicode="&#x2dd;" horiz-adv-x="310" 
d="M7 610v4l44 117h105v-4l-64 -117h-85zM153 610v4l45 117h105v-4l-65 -117h-85z" />
    <glyph glyph-name="gravecomb" unicode="&#x300;" horiz-adv-x="0" 
d="M-109 597l-78 141v5h128l53 -141v-5h-103z" />
    <glyph glyph-name="acutecomb" unicode="&#x301;" horiz-adv-x="0" 
d="M-187 597v5l53 141h128v-5l-79 -141h-102z" />
    <glyph glyph-name="uni0302" unicode="&#x302;" horiz-adv-x="0" 
d="M-285 612v8l75 123h129l76 -123v-8h-89l-52 71l-51 -71h-88z" />
    <glyph glyph-name="tildecomb" unicode="&#x303;" horiz-adv-x="0" 
d="M-11 667.5q-4 -25.5 -19.5 -40t-50.5 -14.5t-89 16q-6 2 -24.5 7t-29.5 5q-13 0 -16 -8t-3 -32h-74q0 50 4 76t20 40.5t51 14.5q33 0 88 -17q40 -11 55 -11q13 0 15.5 7.5t2.5 31.5h74q0 -50 -4 -75.5z" />
    <glyph glyph-name="uni0304" unicode="&#x304;" horiz-adv-x="0" 
d="M-250 627v116h202v-116h-202z" />
    <glyph glyph-name="uni0306" unicode="&#x306;" horiz-adv-x="0" 
d="M-15.5 669q-9.5 -29 -38 -45.5t-84.5 -16.5q-55 0 -83 16.5t-37 45.5t-9 74h79q0 -23 2.5 -34.5t13 -19t34.5 -7.5q35 0 44 14.5t9 46.5h79q0 -45 -9.5 -74z" />
    <glyph glyph-name="uni0307" unicode="&#x307;" horiz-adv-x="0" 
d="M-117 627v103h111v-103h-111z" />
    <glyph glyph-name="uni0308" unicode="&#x308;" horiz-adv-x="0" 
d="M-293 627v103h111v-103h-111zM-118 627v103h111v-103h-111z" />
    <glyph glyph-name="hookabovecomb" unicode="&#x309;" horiz-adv-x="0" 
d="M-208 632q0 26 8.5 37t31.5 20l13 5q23 9 31 15t8 16q0 11 -8.5 14t-32.5 3q-52 0 -100 -3v74q67 13 110 13q60 0 91.5 -18.5t31.5 -68.5q0 -34 -10 -51.5t-40 -31.5l-16 -7q-26 -11 -31.5 -16.5t-5.5 -20.5h-81v20z" />
    <glyph glyph-name="uni030A" unicode="&#x30a;" horiz-adv-x="0" 
d="M-218.5 618.5q-26.5 11.5 -33.5 33t-7 64.5q0 44 7 65.5t33.5 33t85.5 11.5q60 0 86.5 -11.5t33.5 -33t7 -65.5t-7 -65t-33.5 -32.5t-86.5 -11.5q-59 0 -85.5 11.5zM-100.5 674.5q9.5 3.5 12 12t2.5 29.5t-2.5 30t-12 13t-32.5 4q-22 0 -31 -4t-11.5 -13t-2.5 -30
t2.5 -29.5t11.5 -12t31 -3.5q23 0 32.5 3.5z" />
    <glyph glyph-name="uni030B" unicode="&#x30b;" horiz-adv-x="0" 
d="M-303 610v4l44 117h105v-4l-64 -117h-85zM-157 610v4l45 117h105v-4l-65 -117h-85z" />
    <glyph glyph-name="uni030C" unicode="&#x30c;" horiz-adv-x="0" 
d="M-210 611l-75 124v8h88l51 -71l52 71h88v-8l-76 -124h-128z" />
    <glyph glyph-name="uni030F" unicode="&#x30f;" horiz-adv-x="0" 
d="M-153 610h-85l-65 117v4h105l45 -117v-4zM-7 610h-85l-64 117v4h105l44 -117v-4z" />
    <glyph glyph-name="uni0311" unicode="&#x311;" horiz-adv-x="0" 
d="M-257.5 687q9.5 29 38 45.5t84.5 16.5q55 0 83 -16.5t37 -45.5t9 -74h-79q0 23 -2.5 34.5t-13 19t-34.5 7.5q-35 0 -44 -14.5t-9 -46.5h-79q0 45 9.5 74z" />
    <glyph glyph-name="uni0312" unicode="&#x312;" horiz-adv-x="0" 
d="M-341.5 759.5q-10.5 -9.5 -10.5 -37.5v-15h50v-109h-133v73q0 66 9 97t37.5 44t90.5 13v-56q-33 0 -43.5 -9.5z" />
    <glyph glyph-name="uni031B" unicode="&#x31b;" horiz-adv-x="0" 
d="M-161 519.5q12 9.5 12 37.5v46h84v-27q0 -52 -10 -76.5t-40 -35t-96 -10.5h-51v56h51q38 0 50 9.5z" />
    <glyph glyph-name="dotbelowcomb" unicode="&#x323;" horiz-adv-x="0" 
d="M-191 -193v131h141v-131h-141z" />
    <glyph glyph-name="uni0326" unicode="&#x326;" horiz-adv-x="0" 
d="M-144.5 -222.5q10.5 9.5 10.5 37.5v14h-50v109h133v-72q0 -66 -9 -97.5t-37.5 -44.5t-90.5 -13v57q33 0 43.5 9.5z" />
    <glyph glyph-name="uni0327" unicode="&#x327;" horiz-adv-x="0" 
d="M-155 -189v5l64 192h84v-5l-35 -192h-113z" />
    <glyph glyph-name="uni0328" unicode="&#x328;" horiz-adv-x="0" 
d="M-53 -196q-54 0 -77 23.5t-23 62.5q0 28 15 58.5t40 55.5h97q-18 -15 -34.5 -41t-16.5 -49q0 -18 8.5 -28t30.5 -10l13 2v-70q-21 -4 -53 -4z" />
    <glyph glyph-name="uni0335" unicode="&#x335;" horiz-adv-x="0" 
d="M-248 289v117h243v-117h-243z" />
    <glyph glyph-name="uni0336" unicode="&#x336;" horiz-adv-x="0" 
d="M-52 473h-415v117h415v-117z" />
    <glyph glyph-name="uni0394" unicode="&#x394;" horiz-adv-x="502" 
d="M8 0l142 688h201l142 -688h-485zM252 561h-6l-83 -446h171z" />
    <glyph glyph-name="uni03A9" unicode="&#x3a9;" horiz-adv-x="516" 
d="M44 115h6q27 -6 56 -17l30 -10v7q-48 29 -70.5 99t-22.5 185q0 126 13 189.5t58.5 95.5t142.5 32q98 0 143 -31.5t58 -95t13 -190.5q0 -115 -22 -185t-70 -99v-7q14 4 32 11q40 13 55 16h6v-115h-184v115q21 6 30.5 27t12.5 69t3 151q0 104 -4.5 144.5t-19.5 54.5t-53 14
t-53 -13.5t-19 -54.5t-4 -145q0 -102 3.5 -150.5t12.5 -69.5t30 -27v-115h-183v115z" />
    <glyph glyph-name="uni03BC" unicode="&#x3bc;" horiz-adv-x="452" 
d="M406 510v-510h-122l-4 61h-7q-13 -33 -36.5 -48.5t-61.5 -16.5v-185h-129v699h129v-276q0 -64 3 -88t12 -30.5t34 -6.5q26 0 36.5 10t13.5 37.5t3 92.5v261h129z" />
    <glyph glyph-name="pi" unicode="&#x3c0;" horiz-adv-x="449" 
d="M274 0v405h-99v-405h-129v510h357v-510h-129z" />
    <glyph glyph-name="uni1E0C" unicode="&#x1e0c;" horiz-adv-x="496" 
d="M52 688h186q106 0 151.5 -29.5t56.5 -95t11 -219.5t-11 -219.5t-56.5 -95t-151.5 -29.5h-186v688zM236 121q44 0 59.5 10.5t20 52.5t4.5 160q0 117 -5 159.5t-20 53t-59 10.5h-47v-446h47zM177 -193v131h141v-131h-141z" />
    <glyph glyph-name="uni1E0D" unicode="&#x1e0d;" horiz-adv-x="446" 
d="M85 14.5q-27 22.5 -39 78.5t-12 161q0 103 11 159t38 80.5t77 24.5q39 0 65 -15t39 -47h7v287h129v-743h-122l-4 60h-8q-21 -68 -104 -68q-50 0 -77 22.5zM249.5 115q10.5 7 15.5 27q6 29 6 113q0 81 -4 103q-4 26 -15 35t-34 9q-27 0 -37.5 -8t-14 -36.5t-3.5 -102.5
t3.5 -102.5t14 -36.5t37.5 -8q21 0 31.5 7zM152 -193v131h141v-131h-141z" />
    <glyph glyph-name="uni1E24" unicode="&#x1e24;" horiz-adv-x="519" 
d="M330 0v283h-141v-283h-137v688h137v-278h141v278h137v-688h-137zM189 -193v131h141v-131h-141z" />
    <glyph glyph-name="uni1E25" unicode="&#x1e25;" horiz-adv-x="450" 
d="M277 276q0 64 -3 88t-12 30.5t-34 6.5q-26 0 -36.5 -10t-13.5 -37.5t-3 -92.5v-261h-129v743h129v-292h7q13 37 41.5 52t68.5 15q48 0 72.5 -19t33 -57t8.5 -105v-337h-129v276zM154 -193v131h141v-131h-141z" />
    <glyph glyph-name="uni1E44" unicode="&#x1e44;" horiz-adv-x="523" 
d="M347 0l-160 377h-4v-377h-131v688h133l149 -348h5v348h132v-688h-124zM207 772v103h111v-103h-111z" />
    <glyph glyph-name="uni1E45" unicode="&#x1e45;" horiz-adv-x="450" 
d="M277 276q0 64 -3 88t-12 30.5t-34 6.5q-26 0 -36.5 -10t-13.5 -37.5t-3 -92.5v-261h-129v510h122l4 -61h7q14 38 43 53.5t70 15.5q48 0 72.5 -19t33 -57.5t8.5 -106.5v-335h-129v276zM170 627v103h111v-103h-111z" />
    <glyph glyph-name="uni1E5A" unicode="&#x1e5a;" horiz-adv-x="494" 
d="M331 0l-67 240h-74v-240h-138v688h232q74 0 111.5 -25t50.5 -72t13 -126q0 -75 -13.5 -124t-54.5 -74l83 -267h-143zM298 366.5q14 7.5 18.5 28t4.5 69.5q0 48 -4.5 68t-18.5 27.5t-47 7.5h-61v-208h61q33 0 47 7.5zM176 -193v131h141v-131h-141z" />
    <glyph glyph-name="uni1E5B" unicode="&#x1e5b;" horiz-adv-x="312" 
d="M46 510h122l4 -84h8q15 52 43 72t75 20v-135q-45 0 -71.5 -13t-39 -46t-12.5 -92v-232h-129v510zM40 -193v131h141v-131h-141z" />
    <glyph glyph-name="uni1E62" unicode="&#x1e62;" horiz-adv-x="443" 
d="M129.5 -3.5q-49.5 4.5 -87.5 12.5v112q102 -8 141 -8q35 0 53 4t27 14q8 8 10.5 22.5t2.5 41.5q0 37 -4 52.5t-16.5 23t-43.5 13.5l-94 17q-50 9 -69 55t-19 133q0 85 24.5 130t67.5 61t109 16q46 0 88.5 -6t69.5 -12v-112q-54 9 -121 9q-36 0 -55.5 -3t-28.5 -11
q-11 -8 -14 -23t-3 -44q0 -31 3.5 -45t12.5 -20t31 -10l88 -16q35 -5 59.5 -21.5t38.5 -54.5q14 -40 14 -113q0 -95 -23 -143t-63.5 -63.5t-106.5 -15.5q-42 0 -91.5 4.5zM151 -193v131h141v-131h-141z" />
    <glyph glyph-name="uni1E63" unicode="&#x1e63;" horiz-adv-x="371" 
d="M109.5 -3.5q-42.5 4.5 -72.5 11.5v99q66 -7 114 -7q30 0 44.5 3.5t20 13.5t5.5 31q0 23 -2.5 32.5t-10 13t-26.5 6.5l-84 14q-40 6 -56.5 39.5t-16.5 109.5q0 86 42 120.5t125 34.5q33 0 70 -4.5t60 -11.5v-100q-64 8 -106 8q-38 0 -50.5 -8.5t-12.5 -36.5q0 -22 2 -31
t8.5 -12.5t22.5 -5.5l73 -11q28 -5 46 -16.5t29.5 -42.5t11.5 -89q0 -94 -39 -129.5t-120 -35.5q-35 0 -77.5 4.5zM115 -193v131h141v-131h-141z" />
    <glyph glyph-name="uni1E6C" unicode="&#x1e6c;" horiz-adv-x="418" 
d="M140 0v563h-130v125h398v-125h-130v-563h-138zM138 -193v131h141v-131h-141z" />
    <glyph glyph-name="uni1E6D" unicode="&#x1e6d;" horiz-adv-x="302" 
d="M78 0v402h-63v108h63v148h129v-148h81v-108h-81v-402h-129zM71 -193v131h141v-131h-141z" />
    <glyph glyph-name="Wgrave" unicode="&#x1e80;" horiz-adv-x="756" 
d="M452 0l-71 479h-6l-70 -479h-189l-99 688h139l59 -539h7l78 539h162l79 -539h7l56 539h136l-100 -688h-188zM331 742l-78 141v5h128l53 -141v-5h-103z" />
    <glyph glyph-name="wgrave" unicode="&#x1e81;" horiz-adv-x="644" 
d="M379 0l-52 280h-9l-51 -280h-161l-94 510h128l49 -353h8l65 353h125l66 -353h8l48 353h122l-93 -510h-159zM271 597l-78 141v5h128l53 -141v-5h-103z" />
    <glyph glyph-name="Wacute" unicode="&#x1e82;" horiz-adv-x="756" 
d="M452 0l-71 479h-6l-70 -479h-189l-99 688h139l59 -539h7l78 539h162l79 -539h7l56 539h136l-100 -688h-188zM322 742v5l53 141h128v-5l-79 -141h-102z" />
    <glyph glyph-name="wacute" unicode="&#x1e83;" horiz-adv-x="644" 
d="M379 0l-52 280h-9l-51 -280h-161l-94 510h128l49 -353h8l65 353h125l66 -353h8l48 353h122l-93 -510h-159zM266 597v5l53 141h128v-5l-79 -141h-102z" />
    <glyph glyph-name="Wdieresis" unicode="&#x1e84;" horiz-adv-x="756" 
d="M452 0l-71 479h-6l-70 -479h-189l-99 688h139l59 -539h7l78 539h162l79 -539h7l56 539h136l-100 -688h-188zM235 772v103h111v-103h-111zM410 772v103h111v-103h-111z" />
    <glyph glyph-name="wdieresis" unicode="&#x1e85;" horiz-adv-x="644" 
d="M379 0l-52 280h-9l-51 -280h-161l-94 510h128l49 -353h8l65 353h125l66 -353h8l48 353h122l-93 -510h-159zM180 627v103h111v-103h-111zM355 627v103h111v-103h-111z" />
    <glyph glyph-name="uni1E92" unicode="&#x1e92;" horiz-adv-x="439" 
d="M31 0v114l221 453h-214v121h368v-113l-222 -454h224v-121h-377zM149 -193v131h141v-131h-141z" />
    <glyph glyph-name="uni1E93" unicode="&#x1e93;" horiz-adv-x="394" 
d="M32 0v101l178 301h-171v108h321v-101l-177 -301h179v-108h-330zM127 -193v131h141v-131h-141z" />
    <glyph glyph-name="uni1E9E" unicode="&#x1e9e;" horiz-adv-x="572" 
d="M504.5 330.5q35.5 -45.5 35.5 -149.5q0 -69 -18.5 -110t-60.5 -60t-114 -19q-25 0 -57.5 5t-56.5 13v111q42 -8 78 -8q39 0 57 5t26 22.5t8 56.5t-7 58.5t-23 26t-48 6.5h-70v100l107 183q-32 4 -69 4q-53 0 -74 -14t-27 -56.5t-6 -152.5v-352h-137v352q0 145 16.5 215
t65.5 99.5t152 29.5q102 0 225 -22v-101l-110 -188q72 -9 107.5 -54.5z" />
    <glyph glyph-name="uni1EA0" unicode="&#x1ea0;" horiz-adv-x="501" 
d="M353 0l-27 141h-154l-27 -141h-137l142 688h201l142 -688h-140zM252 558h-6l-54 -298h113zM180 -193v131h141v-131h-141z" />
    <glyph glyph-name="uni1EA1" unicode="&#x1ea1;" horiz-adv-x="426" 
d="M52 29.5q-27 37.5 -27 117.5q0 59 12 92.5t40.5 49t79.5 15.5q36 0 96 -4v23q0 42 -6.5 59.5t-24 22.5t-60.5 5q-42 0 -112 -7v100q75 15 151 15q75 0 114 -20t53 -63t14 -123v-312h-123l-4 60h-7q-13 -37 -42 -52.5t-65 -15.5q-62 0 -89 37.5zM224.5 108q10.5 4 17.5 15
q11 17 11 69v25h-60q-26 0 -34.5 -11t-8.5 -48q0 -32 8.5 -43t38.5 -11q17 0 27.5 4zM142 -193v131h141v-131h-141z" />
    <glyph glyph-name="uni1EA2" unicode="&#x1ea2;" horiz-adv-x="501" 
d="M353 0l-27 141h-154l-27 -141h-137l142 688h201l142 -688h-140zM252 558h-6l-54 -298h113zM183 746q0 26 8.5 37t31.5 20l13 5q24 10 31.5 15.5t7.5 15.5q0 11 -8.5 14t-32.5 3q-57 0 -100 -4v75q62 12 110 12q60 0 91.5 -18t31.5 -68q0 -34 -10 -51.5t-40 -31.5l-16 -7
q-26 -11 -31.5 -16.5t-5.5 -21.5h-81v21z" />
    <glyph glyph-name="uni1EA3" unicode="&#x1ea3;" horiz-adv-x="426" 
d="M52 29.5q-27 37.5 -27 117.5q0 59 12 92.5t40.5 49t79.5 15.5q36 0 96 -4v23q0 42 -6.5 59.5t-24 22.5t-60.5 5q-42 0 -112 -7v100q75 15 151 15q75 0 114 -20t53 -63t14 -123v-312h-123l-4 60h-7q-13 -37 -42 -52.5t-65 -15.5q-62 0 -89 37.5zM224.5 108q10.5 4 17.5 15
q11 17 11 69v25h-60q-26 0 -34.5 -11t-8.5 -48q0 -32 8.5 -43t38.5 -11q17 0 27.5 4zM145 632q0 26 8.5 37t31.5 20l13 5q23 9 31 15t8 16q0 11 -8.5 14t-32.5 3q-52 0 -100 -3v74q67 13 110 13q60 0 91.5 -18.5t31.5 -68.5q0 -34 -10 -51.5t-40 -31.5l-16 -7
q-26 -11 -31.5 -16.5t-5.5 -20.5h-81v20z" />
    <glyph glyph-name="uni1EA4" unicode="&#x1ea4;" horiz-adv-x="501" 
d="M353 0l-27 141h-154l-27 -141h-137l142 688h201l142 -688h-140zM252 558h-6l-54 -298h113zM112 734v8l75 123h129l76 -123v-8h-89l-52 71l-51 -71h-88zM273 892v5l53 141h128v-5l-79 -141h-102z" />
    <glyph glyph-name="uni1EA5" unicode="&#x1ea5;" horiz-adv-x="426" 
d="M52 29.5q-27 37.5 -27 117.5q0 59 12 92.5t40.5 49t79.5 15.5q36 0 96 -4v23q0 42 -6.5 59.5t-24 22.5t-60.5 5q-42 0 -112 -7v100q75 15 151 15q75 0 114 -20t53 -63t14 -123v-312h-123l-4 60h-7q-13 -37 -42 -52.5t-65 -15.5q-62 0 -89 37.5zM224.5 108q10.5 4 17.5 15
q11 17 11 69v25h-60q-26 0 -34.5 -11t-8.5 -48q0 -32 8.5 -43t38.5 -11q17 0 27.5 4zM74 612v8l75 123h129l76 -123v-8h-89l-52 71l-51 -71h-88zM235 770v5l53 141h128v-5l-79 -141h-102z" />
    <glyph glyph-name="uni1EA6" unicode="&#x1ea6;" horiz-adv-x="501" 
d="M353 0l-27 141h-154l-27 -141h-137l142 688h201l142 -688h-140zM252 558h-6l-54 -298h113zM104 726v8l75 123h129l76 -123v-8h-89l-52 71l-51 -71h-88zM295 884l-78 141v5h128l53 -141v-5h-103z" />
    <glyph glyph-name="uni1EA7" unicode="&#x1ea7;" horiz-adv-x="426" 
d="M52 29.5q-27 37.5 -27 117.5q0 59 12 92.5t40.5 49t79.5 15.5q36 0 96 -4v23q0 42 -6.5 59.5t-24 22.5t-60.5 5q-42 0 -112 -7v100q75 15 151 15q75 0 114 -20t53 -63t14 -123v-312h-123l-4 60h-7q-13 -37 -42 -52.5t-65 -15.5q-62 0 -89 37.5zM224.5 108q10.5 4 17.5 15
q11 17 11 69v25h-60q-26 0 -34.5 -11t-8.5 -48q0 -32 8.5 -43t38.5 -11q17 0 27.5 4zM66 612v8l75 123h129l76 -123v-8h-89l-52 71l-51 -71h-88zM257 770l-78 141v5h128l53 -141v-5h-103z" />
    <glyph glyph-name="uni1EA8" unicode="&#x1ea8;" horiz-adv-x="501" 
d="M353 0l-27 141h-154l-27 -141h-137l142 688h201l142 -688h-140zM252 558h-6l-54 -298h113zM111 727v8l75 123h129l76 -123v-8h-89l-52 71l-51 -71h-88zM292 898q0 26 8.5 37t31.5 20l13 5q23 9 31 15t8 16q0 11 -8.5 14t-32.5 3q-52 0 -100 -3v74q67 13 110 13
q60 0 91.5 -18.5t31.5 -68.5q0 -34 -10 -51.5t-40 -31.5l-16 -7q-26 -11 -31.5 -16.5t-5.5 -20.5h-81v20z" />
    <glyph glyph-name="uni1EA9" unicode="&#x1ea9;" horiz-adv-x="426" 
d="M52 29.5q-27 37.5 -27 117.5q0 59 12 92.5t40.5 49t79.5 15.5q36 0 96 -4v23q0 42 -6.5 59.5t-24 22.5t-60.5 5q-42 0 -112 -7v100q75 15 151 15q75 0 114 -20t53 -63t14 -123v-312h-123l-4 60h-7q-13 -37 -42 -52.5t-65 -15.5q-62 0 -89 37.5zM224.5 108q10.5 4 17.5 15
q11 17 11 69v25h-60q-26 0 -34.5 -11t-8.5 -48q0 -32 8.5 -43t38.5 -11q17 0 27.5 4zM73 612v8l75 123h129l76 -123v-8h-89l-52 71l-51 -71h-88zM254 783q0 26 8.5 37t31.5 20l13 5q23 9 31 15t8 16q0 11 -8.5 14t-32.5 3q-52 0 -100 -3v74q67 13 110 13q60 0 91.5 -18.5
t31.5 -68.5q0 -34 -10 -51.5t-40 -31.5l-16 -7q-26 -11 -31.5 -16.5t-5.5 -20.5h-81v20z" />
    <glyph glyph-name="uni1EAA" unicode="&#x1eaa;" horiz-adv-x="501" 
d="M353 0l-27 141h-154l-27 -141h-137l142 688h201l142 -688h-140zM252 558h-6l-54 -298h113zM109 727v8l75 123h129l76 -123v-8h-89l-52 71l-51 -71h-88zM402 955.5q-4 -25.5 -19.5 -40t-50.5 -14.5t-89 16q-6 2 -24.5 7t-29.5 5q-13 0 -16 -8t-3 -32h-74q0 50 4 76
t20 40.5t51 14.5q33 0 88 -17q40 -11 55 -11q13 0 15.5 7.5t2.5 31.5h74q0 -50 -4 -75.5z" />
    <glyph glyph-name="uni1EAB" unicode="&#x1eab;" horiz-adv-x="426" 
d="M52 29.5q-27 37.5 -27 117.5q0 59 12 92.5t40.5 49t79.5 15.5q36 0 96 -4v23q0 42 -6.5 59.5t-24 22.5t-60.5 5q-42 0 -112 -7v100q75 15 151 15q75 0 114 -20t53 -63t14 -123v-312h-123l-4 60h-7q-13 -37 -42 -52.5t-65 -15.5q-62 0 -89 37.5zM224.5 108q10.5 4 17.5 15
q11 17 11 69v25h-60q-26 0 -34.5 -11t-8.5 -48q0 -32 8.5 -43t38.5 -11q17 0 27.5 4zM71 612v8l75 123h129l76 -123v-8h-89l-52 71l-51 -71h-88zM364 840.5q-4 -25.5 -19.5 -40t-50.5 -14.5t-89 16q-6 2 -24.5 7t-29.5 5q-13 0 -16 -8t-3 -32h-74q0 50 4 76t20 40.5t51 14.5
q33 0 88 -17q40 -11 55 -11q13 0 15.5 7.5t2.5 31.5h74q0 -50 -4 -75.5z" />
    <glyph glyph-name="uni1EAC" unicode="&#x1eac;" horiz-adv-x="501" 
d="M353 0l-27 141h-154l-27 -141h-137l142 688h201l142 -688h-140zM252 558h-6l-54 -298h113zM180 -193v131h141v-131h-141zM111 757v8l75 123h129l76 -123v-8h-89l-52 71l-51 -71h-88z" />
    <glyph glyph-name="uni1EAD" unicode="&#x1ead;" horiz-adv-x="426" 
d="M52 29.5q-27 37.5 -27 117.5q0 59 12 92.5t40.5 49t79.5 15.5q36 0 96 -4v23q0 42 -6.5 59.5t-24 22.5t-60.5 5q-42 0 -112 -7v100q75 15 151 15q75 0 114 -20t53 -63t14 -123v-312h-123l-4 60h-7q-13 -37 -42 -52.5t-65 -15.5q-62 0 -89 37.5zM224.5 108q10.5 4 17.5 15
q11 17 11 69v25h-60q-26 0 -34.5 -11t-8.5 -48q0 -32 8.5 -43t38.5 -11q17 0 27.5 4zM142 -193v131h141v-131h-141zM73 612v8l75 123h129l76 -123v-8h-89l-52 71l-51 -71h-88z" />
    <glyph glyph-name="uni1EAE" unicode="&#x1eae;" horiz-adv-x="501" 
d="M353 0l-27 141h-154l-27 -141h-137l142 688h201l142 -688h-140zM252 558h-6l-54 -298h113zM371.5 814q-9.5 -29 -38 -45.5t-84.5 -16.5q-55 0 -83 16.5t-37 45.5t-9 74h79q0 -23 2.5 -34.5t13 -19t34.5 -7.5q35 0 44 14.5t9 46.5h79q0 -45 -9.5 -74zM194 915v5l53 141
h128v-5l-79 -141h-102z" />
    <glyph glyph-name="uni1EAF" unicode="&#x1eaf;" horiz-adv-x="426" 
d="M52 29.5q-27 37.5 -27 117.5q0 59 12 92.5t40.5 49t79.5 15.5q36 0 96 -4v23q0 42 -6.5 59.5t-24 22.5t-60.5 5q-42 0 -112 -7v100q75 15 151 15q75 0 114 -20t53 -63t14 -123v-312h-123l-4 60h-7q-13 -37 -42 -52.5t-65 -15.5q-62 0 -89 37.5zM224.5 108q10.5 4 17.5 15
q11 17 11 69v25h-60q-26 0 -34.5 -11t-8.5 -48q0 -32 8.5 -43t38.5 -11q17 0 27.5 4zM331.5 669q-9.5 -29 -38 -45.5t-84.5 -16.5q-55 0 -83 16.5t-37 45.5t-9 74h79q0 -23 2.5 -34.5t13 -19t34.5 -7.5q35 0 44 14.5t9 46.5h79q0 -45 -9.5 -74zM154 770v5l53 141h128v-5
l-79 -141h-102z" />
    <glyph glyph-name="uni1EB0" unicode="&#x1eb0;" horiz-adv-x="501" 
d="M353 0l-27 141h-154l-27 -141h-137l142 688h201l142 -688h-140zM252 558h-6l-54 -298h113zM372.5 814q-9.5 -29 -38 -45.5t-84.5 -16.5q-55 0 -83 16.5t-37 45.5t-9 74h79q0 -23 2.5 -34.5t13 -19t34.5 -7.5q35 0 44 14.5t9 46.5h79q0 -45 -9.5 -74zM202 915l-78 141v5
h128l53 -141v-5h-103z" />
    <glyph glyph-name="uni1EB1" unicode="&#x1eb1;" horiz-adv-x="426" 
d="M52 29.5q-27 37.5 -27 117.5q0 59 12 92.5t40.5 49t79.5 15.5q36 0 96 -4v23q0 42 -6.5 59.5t-24 22.5t-60.5 5q-42 0 -112 -7v100q75 15 151 15q75 0 114 -20t53 -63t14 -123v-312h-123l-4 60h-7q-13 -37 -42 -52.5t-65 -15.5q-62 0 -89 37.5zM224.5 108q10.5 4 17.5 15
q11 17 11 69v25h-60q-26 0 -34.5 -11t-8.5 -48q0 -32 8.5 -43t38.5 -11q17 0 27.5 4zM335.5 669q-9.5 -29 -38 -45.5t-84.5 -16.5q-55 0 -83 16.5t-37 45.5t-9 74h79q0 -23 2.5 -34.5t13 -19t34.5 -7.5q35 0 44 14.5t9 46.5h79q0 -45 -9.5 -74zM165 770l-78 141v5h128
l53 -141v-5h-103z" />
    <glyph glyph-name="uni1EB2" unicode="&#x1eb2;" horiz-adv-x="501" 
d="M353 0l-27 141h-154l-27 -141h-137l142 688h201l142 -688h-140zM252 558h-6l-54 -298h113zM366.5 814q-9.5 -29 -38 -45.5t-84.5 -16.5q-55 0 -83 16.5t-37 45.5t-9 74h79q0 -23 2.5 -34.5t13 -19t34.5 -7.5q35 0 44 14.5t9 46.5h79q0 -45 -9.5 -74zM201 912q0 26 8.5 37
t31.5 20l13 5q23 9 31 15t8 16q0 11 -8.5 14t-32.5 3q-52 0 -100 -3v74q67 13 110 13q60 0 91.5 -18.5t31.5 -68.5q0 -34 -10 -51.5t-40 -31.5l-16 -7q-26 -11 -31.5 -16.5t-5.5 -20.5h-81v20z" />
    <glyph glyph-name="uni1EB3" unicode="&#x1eb3;" horiz-adv-x="426" 
d="M52 29.5q-27 37.5 -27 117.5q0 59 12 92.5t40.5 49t79.5 15.5q36 0 96 -4v23q0 42 -6.5 59.5t-24 22.5t-60.5 5q-42 0 -112 -7v100q75 15 151 15q75 0 114 -20t53 -63t14 -123v-312h-123l-4 60h-7q-13 -37 -42 -52.5t-65 -15.5q-62 0 -89 37.5zM224.5 108q10.5 4 17.5 15
q11 17 11 69v25h-60q-26 0 -34.5 -11t-8.5 -48q0 -32 8.5 -43t38.5 -11q17 0 27.5 4zM328.5 669q-9.5 -29 -38 -45.5t-84.5 -16.5q-55 0 -83 16.5t-37 45.5t-9 74h79q0 -23 2.5 -34.5t13 -19t34.5 -7.5q35 0 44 14.5t9 46.5h79q0 -45 -9.5 -74zM163 767q0 26 8.5 37t31.5 20
l13 5q23 9 31 15t8 16q0 11 -8.5 14t-32.5 3q-52 0 -100 -3v74q67 13 110 13q60 0 91.5 -18.5t31.5 -68.5q0 -34 -10 -51.5t-40 -31.5l-16 -7q-26 -11 -31.5 -16.5t-5.5 -20.5h-81v20z" />
    <glyph glyph-name="uni1EB4" unicode="&#x1eb4;" horiz-adv-x="501" 
d="M353 0l-27 141h-154l-27 -141h-137l142 688h201l142 -688h-140zM252 558h-6l-54 -298h113zM369.5 814q-9.5 -29 -38 -45.5t-84.5 -16.5q-55 0 -83 16.5t-37 45.5t-9 74h79q0 -23 2.5 -34.5t13 -19t34.5 -7.5q35 0 44 14.5t9 46.5h79q0 -45 -9.5 -74zM402 990.5
q-4 -25.5 -19.5 -40t-50.5 -14.5t-89 16q-6 2 -24.5 7t-29.5 5q-13 0 -16 -8t-3 -32h-74q0 50 4 76t20 40.5t51 14.5q33 0 88 -17q40 -11 55 -11q13 0 15.5 7.5t2.5 31.5h74q0 -50 -4 -75.5z" />
    <glyph glyph-name="uni1EB5" unicode="&#x1eb5;" horiz-adv-x="426" 
d="M52 29.5q-27 37.5 -27 117.5q0 59 12 92.5t40.5 49t79.5 15.5q36 0 96 -4v23q0 42 -6.5 59.5t-24 22.5t-60.5 5q-42 0 -112 -7v100q75 15 151 15q75 0 114 -20t53 -63t14 -123v-312h-123l-4 60h-7q-13 -37 -42 -52.5t-65 -15.5q-62 0 -89 37.5zM224.5 108q10.5 4 17.5 15
q11 17 11 69v25h-60q-26 0 -34.5 -11t-8.5 -48q0 -32 8.5 -43t38.5 -11q17 0 27.5 4zM331.5 669q-9.5 -29 -38 -45.5t-84.5 -16.5q-55 0 -83 16.5t-37 45.5t-9 74h79q0 -23 2.5 -34.5t13 -19t34.5 -7.5q35 0 44 14.5t9 46.5h79q0 -45 -9.5 -74zM364 845.5
q-4 -25.5 -19.5 -40t-50.5 -14.5t-89 16q-6 2 -24.5 7t-29.5 5q-13 0 -16 -8t-3 -32h-74q0 50 4 76t20 40.5t51 14.5q33 0 88 -17q40 -11 55 -11q13 0 15.5 7.5t2.5 31.5h74q0 -50 -4 -75.5z" />
    <glyph glyph-name="uni1EB6" unicode="&#x1eb6;" horiz-adv-x="501" 
d="M353 0l-27 141h-154l-27 -141h-137l142 688h201l142 -688h-140zM252 558h-6l-54 -298h113zM180 -193v131h141v-131h-141zM371.5 814q-9.5 -29 -38 -45.5t-84.5 -16.5q-55 0 -83 16.5t-37 45.5t-9 74h79q0 -23 2.5 -34.5t13 -19t34.5 -7.5q35 0 44 14.5t9 46.5h79
q0 -45 -9.5 -74z" />
    <glyph glyph-name="uni1EB7" unicode="&#x1eb7;" horiz-adv-x="426" 
d="M52 29.5q-27 37.5 -27 117.5q0 59 12 92.5t40.5 49t79.5 15.5q36 0 96 -4v23q0 42 -6.5 59.5t-24 22.5t-60.5 5q-42 0 -112 -7v100q75 15 151 15q75 0 114 -20t53 -63t14 -123v-312h-123l-4 60h-7q-13 -37 -42 -52.5t-65 -15.5q-62 0 -89 37.5zM224.5 108q10.5 4 17.5 15
q11 17 11 69v25h-60q-26 0 -34.5 -11t-8.5 -48q0 -32 8.5 -43t38.5 -11q17 0 27.5 4zM142 -193v131h141v-131h-141zM333.5 669q-9.5 -29 -38 -45.5t-84.5 -16.5q-55 0 -83 16.5t-37 45.5t-9 74h79q0 -23 2.5 -34.5t13 -19t34.5 -7.5q35 0 44 14.5t9 46.5h79q0 -45 -9.5 -74z
" />
    <glyph glyph-name="uni1EB8" unicode="&#x1eb8;" horiz-adv-x="421" 
d="M52 0v688h334v-121h-196v-159h169v-121h-169v-166h196v-121h-334zM148 -193v131h141v-131h-141z" />
    <glyph glyph-name="uni1EB9" unicode="&#x1eb9;" horiz-adv-x="425" 
d="M390 215h-227q0 -57 5 -79t23 -29t65 -7q38 0 122 6v-99q-27 -6 -70 -10.5t-82 -4.5q-89 0 -129.5 26.5t-51.5 78.5t-11 157q0 103 11 156t50 80.5t123 27.5q82 0 118.5 -25.5t45 -76.5t8.5 -162v-39zM181.5 404q-10.5 -7 -14.5 -29t-4 -73h106q0 51 -4 73.5t-14 29
t-34 6.5q-25 0 -35.5 -7zM141 -193v131h141v-131h-141z" />
    <glyph glyph-name="uni1EBA" unicode="&#x1eba;" horiz-adv-x="421" 
d="M52 0v688h334v-121h-196v-159h169v-121h-169v-166h196v-121h-334zM151 746q0 26 8.5 37t31.5 20l13 5q24 10 31.5 15.5t7.5 15.5q0 11 -8.5 14t-32.5 3q-57 0 -100 -4v75q62 12 110 12q60 0 91.5 -18t31.5 -68q0 -34 -10 -51.5t-40 -31.5l-16 -7q-26 -11 -31.5 -16.5
t-5.5 -21.5h-81v21z" />
    <glyph glyph-name="uni1EBB" unicode="&#x1ebb;" horiz-adv-x="425" 
d="M390 215h-227q0 -57 5 -79t23 -29t65 -7q38 0 122 6v-99q-27 -6 -70 -10.5t-82 -4.5q-89 0 -129.5 26.5t-51.5 78.5t-11 157q0 103 11 156t50 80.5t123 27.5q82 0 118.5 -25.5t45 -76.5t8.5 -162v-39zM181.5 404q-10.5 -7 -14.5 -29t-4 -73h106q0 51 -4 73.5t-14 29
t-34 6.5q-25 0 -35.5 -7zM144 632q0 26 8.5 37t31.5 20l13 5q23 9 31 15t8 16q0 11 -8.5 14t-32.5 3q-52 0 -100 -3v74q67 13 110 13q60 0 91.5 -18.5t31.5 -68.5q0 -34 -10 -51.5t-40 -31.5l-16 -7q-26 -11 -31.5 -16.5t-5.5 -20.5h-81v20z" />
    <glyph glyph-name="uni1EBC" unicode="&#x1ebc;" horiz-adv-x="421" 
d="M52 0v688h334v-121h-196v-159h169v-121h-169v-166h196v-121h-334zM370 812.5q-4 -25.5 -19.5 -40t-50.5 -14.5t-89 16q-6 2 -24.5 7t-29.5 5q-13 0 -16 -8t-3 -32h-74q0 50 4 76t20 40.5t51 14.5q33 0 88 -17q40 -11 55 -11q13 0 15.5 7.5t2.5 31.5h74q0 -50 -4 -75.5z
" />
    <glyph glyph-name="uni1EBD" unicode="&#x1ebd;" horiz-adv-x="425" 
d="M390 215h-227q0 -57 5 -79t23 -29t65 -7q38 0 122 6v-99q-27 -6 -70 -10.5t-82 -4.5q-89 0 -129.5 26.5t-51.5 78.5t-11 157q0 103 11 156t50 80.5t123 27.5q82 0 118.5 -25.5t45 -76.5t8.5 -162v-39zM181.5 404q-10.5 -7 -14.5 -29t-4 -73h106q0 51 -4 73.5t-14 29
t-34 6.5q-25 0 -35.5 -7zM363 667.5q-4 -25.5 -19.5 -40t-50.5 -14.5t-89 16q-6 2 -24.5 7t-29.5 5q-13 0 -16 -8t-3 -32h-74q0 50 4 76t20 40.5t51 14.5q33 0 88 -17q40 -11 55 -11q13 0 15.5 7.5t2.5 31.5h74q0 -50 -4 -75.5z" />
    <glyph glyph-name="uni1EBE" unicode="&#x1ebe;" horiz-adv-x="421" 
d="M52 0v688h334v-121h-196v-159h169v-121h-169v-166h196v-121h-334zM80 734v8l75 123h129l76 -123v-8h-89l-52 71l-51 -71h-88zM241 892v5l53 141h128v-5l-79 -141h-102z" />
    <glyph glyph-name="uni1EBF" unicode="&#x1ebf;" horiz-adv-x="425" 
d="M390 215h-227q0 -57 5 -79t23 -29t65 -7q38 0 122 6v-99q-27 -6 -70 -10.5t-82 -4.5q-89 0 -129.5 26.5t-51.5 78.5t-11 157q0 103 11 156t50 80.5t123 27.5q82 0 118.5 -25.5t45 -76.5t8.5 -162v-39zM181.5 404q-10.5 -7 -14.5 -29t-4 -73h106q0 51 -4 73.5t-14 29
t-34 6.5q-25 0 -35.5 -7zM73 612v8l75 123h129l76 -123v-8h-89l-52 71l-51 -71h-88zM234 770v5l53 141h128v-5l-79 -141h-102z" />
    <glyph glyph-name="uni1EC0" unicode="&#x1ec0;" horiz-adv-x="421" 
d="M52 0v688h334v-121h-196v-159h169v-121h-169v-166h196v-121h-334zM72 726v8l75 123h129l76 -123v-8h-89l-52 71l-51 -71h-88zM263 884l-78 141v5h128l53 -141v-5h-103z" />
    <glyph glyph-name="uni1EC1" unicode="&#x1ec1;" horiz-adv-x="425" 
d="M390 215h-227q0 -57 5 -79t23 -29t65 -7q38 0 122 6v-99q-27 -6 -70 -10.5t-82 -4.5q-89 0 -129.5 26.5t-51.5 78.5t-11 157q0 103 11 156t50 80.5t123 27.5q82 0 118.5 -25.5t45 -76.5t8.5 -162v-39zM181.5 404q-10.5 -7 -14.5 -29t-4 -73h106q0 51 -4 73.5t-14 29
t-34 6.5q-25 0 -35.5 -7zM65 612v8l75 123h129l76 -123v-8h-89l-52 71l-51 -71h-88zM256 770l-78 141v5h128l53 -141v-5h-103z" />
    <glyph glyph-name="uni1EC2" unicode="&#x1ec2;" horiz-adv-x="421" 
d="M52 0v688h334v-121h-196v-159h169v-121h-169v-166h196v-121h-334zM79 727v8l75 123h129l76 -123v-8h-89l-52 71l-51 -71h-88zM260 898q0 26 8.5 37t31.5 20l13 5q23 9 31 15t8 16q0 11 -8.5 14t-32.5 3q-52 0 -100 -3v74q67 13 110 13q60 0 91.5 -18.5t31.5 -68.5
q0 -34 -10 -51.5t-40 -31.5l-16 -7q-26 -11 -31.5 -16.5t-5.5 -20.5h-81v20z" />
    <glyph glyph-name="uni1EC3" unicode="&#x1ec3;" horiz-adv-x="425" 
d="M390 215h-227q0 -57 5 -79t23 -29t65 -7q38 0 122 6v-99q-27 -6 -70 -10.5t-82 -4.5q-89 0 -129.5 26.5t-51.5 78.5t-11 157q0 103 11 156t50 80.5t123 27.5q82 0 118.5 -25.5t45 -76.5t8.5 -162v-39zM181.5 404q-10.5 -7 -14.5 -29t-4 -73h106q0 51 -4 73.5t-14 29
t-34 6.5q-25 0 -35.5 -7zM72 612v8l75 123h129l76 -123v-8h-89l-52 71l-51 -71h-88zM253 783q0 26 8.5 37t31.5 20l13 5q23 9 31 15t8 16q0 11 -8.5 14t-32.5 3q-52 0 -100 -3v74q67 13 110 13q60 0 91.5 -18.5t31.5 -68.5q0 -34 -10 -51.5t-40 -31.5l-16 -7
q-26 -11 -31.5 -16.5t-5.5 -20.5h-81v20z" />
    <glyph glyph-name="uni1EC4" unicode="&#x1ec4;" horiz-adv-x="421" 
d="M52 0v688h334v-121h-196v-159h169v-121h-169v-166h196v-121h-334zM77 727v8l75 123h129l76 -123v-8h-89l-52 71l-51 -71h-88zM370 955.5q-4 -25.5 -19.5 -40t-50.5 -14.5t-89 16q-6 2 -24.5 7t-29.5 5q-13 0 -16 -8t-3 -32h-74q0 50 4 76t20 40.5t51 14.5q33 0 88 -17
q40 -11 55 -11q13 0 15.5 7.5t2.5 31.5h74q0 -50 -4 -75.5z" />
    <glyph glyph-name="uni1EC5" unicode="&#x1ec5;" horiz-adv-x="425" 
d="M390 215h-227q0 -57 5 -79t23 -29t65 -7q38 0 122 6v-99q-27 -6 -70 -10.5t-82 -4.5q-89 0 -129.5 26.5t-51.5 78.5t-11 157q0 103 11 156t50 80.5t123 27.5q82 0 118.5 -25.5t45 -76.5t8.5 -162v-39zM181.5 404q-10.5 -7 -14.5 -29t-4 -73h106q0 51 -4 73.5t-14 29
t-34 6.5q-25 0 -35.5 -7zM70 612v8l75 123h129l76 -123v-8h-89l-52 71l-51 -71h-88zM363 840.5q-4 -25.5 -19.5 -40t-50.5 -14.5t-89 16q-6 2 -24.5 7t-29.5 5q-13 0 -16 -8t-3 -32h-74q0 50 4 76t20 40.5t51 14.5q33 0 88 -17q40 -11 55 -11q13 0 15.5 7.5t2.5 31.5h74
q0 -50 -4 -75.5z" />
    <glyph glyph-name="uni1EC6" unicode="&#x1ec6;" horiz-adv-x="421" 
d="M52 0v688h334v-121h-196v-159h169v-121h-169v-166h196v-121h-334zM148 -193v131h141v-131h-141zM79 757v8l75 123h129l76 -123v-8h-89l-52 71l-51 -71h-88z" />
    <glyph glyph-name="uni1EC7" unicode="&#x1ec7;" horiz-adv-x="425" 
d="M390 215h-227q0 -57 5 -79t23 -29t65 -7q38 0 122 6v-99q-27 -6 -70 -10.5t-82 -4.5q-89 0 -129.5 26.5t-51.5 78.5t-11 157q0 103 11 156t50 80.5t123 27.5q82 0 118.5 -25.5t45 -76.5t8.5 -162v-39zM181.5 404q-10.5 -7 -14.5 -29t-4 -73h106q0 51 -4 73.5t-14 29
t-34 6.5q-25 0 -35.5 -7zM141 -193v131h141v-131h-141zM72 612v8l75 123h129l76 -123v-8h-89l-52 71l-51 -71h-88z" />
    <glyph glyph-name="uni1EC8" unicode="&#x1ec8;" horiz-adv-x="243" 
d="M53 0v688h137v-688h-137zM54 746q0 26 8.5 37t31.5 20l13 5q24 10 31.5 15.5t7.5 15.5q0 11 -8.5 14t-32.5 3q-57 0 -100 -4v75q62 12 110 12q60 0 91.5 -18t31.5 -68q0 -34 -10 -51.5t-40 -31.5l-16 -7q-26 -11 -31.5 -16.5t-5.5 -21.5h-81v21z" />
    <glyph glyph-name="uni1EC9" unicode="&#x1ec9;" horiz-adv-x="221" 
d="M46 0v510h129v-510h-129zM43 632q0 26 8.5 37t31.5 20l13 5q23 9 31 15t8 16q0 11 -8.5 14t-32.5 3q-52 0 -100 -3v74q67 13 110 13q60 0 91.5 -18.5t31.5 -68.5q0 -34 -10 -51.5t-40 -31.5l-16 -7q-26 -11 -31.5 -16.5t-5.5 -20.5h-81v20z" />
    <glyph glyph-name="uni1ECA" unicode="&#x1eca;" horiz-adv-x="243" 
d="M53 0v688h137v-688h-137zM51 -193v131h141v-131h-141z" />
    <glyph glyph-name="uni1ECB" unicode="&#x1ecb;" horiz-adv-x="221" 
d="M45 621v122h131v-122h-131zM46 0v510h129v-510h-129zM51 -193v131h141v-131h-141z" />
    <glyph glyph-name="uni1ECC" unicode="&#x1ecc;" 
d="M105 22.5q-44 30.5 -55 98t-11 223.5q0 157 11 224t55 97.5t148 30.5t148 -30.5t55 -97.5t11 -224q0 -156 -11 -223.5t-55 -98t-148 -30.5t-148 30.5zM307 124q14 11 18 54t4 166t-4 166t-18 54t-54 11t-54 -11t-18 -54t-4 -166t4 -166t18 -54t54 -11t54 11zM182 -193
v131h141v-131h-141z" />
    <glyph glyph-name="uni1ECD" unicode="&#x1ecd;" horiz-adv-x="436" 
d="M94 14q-38 22 -49 74t-11 167t11 167t49 74t124 22t124 -22t49 -74t11 -167t-11 -167t-49 -74t-124 -22t-124 22zM257.5 109q10.5 9 13 37.5t2.5 108.5t-2.5 108.5t-13 37.5t-39.5 9t-39.5 -9t-13 -37.5t-2.5 -108.5t2.5 -108.5t13 -37.5t39.5 -9t39.5 9zM147 -193v131
h141v-131h-141z" />
    <glyph glyph-name="uni1ECE" unicode="&#x1ece;" 
d="M105 22.5q-44 30.5 -55 98t-11 223.5q0 157 11 224t55 97.5t148 30.5t148 -30.5t55 -97.5t11 -224q0 -156 -11 -223.5t-55 -98t-148 -30.5t-148 30.5zM307 124q14 11 18 54t4 166t-4 166t-18 54t-54 11t-54 -11t-18 -54t-4 -166t4 -166t18 -54t54 -11t54 11zM185 746
q0 26 8.5 37t31.5 20l13 5q24 10 31.5 15.5t7.5 15.5q0 11 -8.5 14t-32.5 3q-57 0 -100 -4v75q62 12 110 12q60 0 91.5 -18t31.5 -68q0 -34 -10 -51.5t-40 -31.5l-16 -7q-26 -11 -31.5 -16.5t-5.5 -21.5h-81v21z" />
    <glyph glyph-name="uni1ECF" unicode="&#x1ecf;" horiz-adv-x="436" 
d="M94 14q-38 22 -49 74t-11 167t11 167t49 74t124 22t124 -22t49 -74t11 -167t-11 -167t-49 -74t-124 -22t-124 22zM257.5 109q10.5 9 13 37.5t2.5 108.5t-2.5 108.5t-13 37.5t-39.5 9t-39.5 -9t-13 -37.5t-2.5 -108.5t2.5 -108.5t13 -37.5t39.5 -9t39.5 9zM150 632
q0 26 8.5 37t31.5 20l13 5q23 9 31 15t8 16q0 11 -8.5 14t-32.5 3q-52 0 -100 -3v74q67 13 110 13q60 0 91.5 -18.5t31.5 -68.5q0 -34 -10 -51.5t-40 -31.5l-16 -7q-26 -11 -31.5 -16.5t-5.5 -20.5h-81v20z" />
    <glyph glyph-name="uni1ED0" unicode="&#x1ed0;" 
d="M105 22.5q-44 30.5 -55 98t-11 223.5q0 157 11 224t55 97.5t148 30.5t148 -30.5t55 -97.5t11 -224q0 -156 -11 -223.5t-55 -98t-148 -30.5t-148 30.5zM307 124q14 11 18 54t4 166t-4 166t-18 54t-54 11t-54 -11t-18 -54t-4 -166t4 -166t18 -54t54 -11t54 11zM114 734v8
l75 123h129l76 -123v-8h-89l-52 71l-51 -71h-88zM275 892v5l53 141h128v-5l-79 -141h-102z" />
    <glyph glyph-name="uni1ED1" unicode="&#x1ed1;" horiz-adv-x="436" 
d="M94 14q-38 22 -49 74t-11 167t11 167t49 74t124 22t124 -22t49 -74t11 -167t-11 -167t-49 -74t-124 -22t-124 22zM257.5 109q10.5 9 13 37.5t2.5 108.5t-2.5 108.5t-13 37.5t-39.5 9t-39.5 -9t-13 -37.5t-2.5 -108.5t2.5 -108.5t13 -37.5t39.5 -9t39.5 9zM79 612v8
l75 123h129l76 -123v-8h-89l-52 71l-51 -71h-88zM240 770v5l53 141h128v-5l-79 -141h-102z" />
    <glyph glyph-name="uni1ED2" unicode="&#x1ed2;" 
d="M105 22.5q-44 30.5 -55 98t-11 223.5q0 157 11 224t55 97.5t148 30.5t148 -30.5t55 -97.5t11 -224q0 -156 -11 -223.5t-55 -98t-148 -30.5t-148 30.5zM307 124q14 11 18 54t4 166t-4 166t-18 54t-54 11t-54 -11t-18 -54t-4 -166t4 -166t18 -54t54 -11t54 11zM106 726v8
l75 123h129l76 -123v-8h-89l-52 71l-51 -71h-88zM297 884l-78 141v5h128l53 -141v-5h-103z" />
    <glyph glyph-name="uni1ED3" unicode="&#x1ed3;" horiz-adv-x="436" 
d="M94 14q-38 22 -49 74t-11 167t11 167t49 74t124 22t124 -22t49 -74t11 -167t-11 -167t-49 -74t-124 -22t-124 22zM257.5 109q10.5 9 13 37.5t2.5 108.5t-2.5 108.5t-13 37.5t-39.5 9t-39.5 -9t-13 -37.5t-2.5 -108.5t2.5 -108.5t13 -37.5t39.5 -9t39.5 9zM71 612v8
l75 123h129l76 -123v-8h-89l-52 71l-51 -71h-88zM262 770l-78 141v5h128l53 -141v-5h-103z" />
    <glyph glyph-name="uni1ED4" unicode="&#x1ed4;" 
d="M105 22.5q-44 30.5 -55 98t-11 223.5q0 157 11 224t55 97.5t148 30.5t148 -30.5t55 -97.5t11 -224q0 -156 -11 -223.5t-55 -98t-148 -30.5t-148 30.5zM307 124q14 11 18 54t4 166t-4 166t-18 54t-54 11t-54 -11t-18 -54t-4 -166t4 -166t18 -54t54 -11t54 11zM113 727v8
l75 123h129l76 -123v-8h-89l-52 71l-51 -71h-88zM294 898q0 26 8.5 37t31.5 20l13 5q23 9 31 15t8 16q0 11 -8.5 14t-32.5 3q-52 0 -100 -3v74q67 13 110 13q60 0 91.5 -18.5t31.5 -68.5q0 -34 -10 -51.5t-40 -31.5l-16 -7q-26 -11 -31.5 -16.5t-5.5 -20.5h-81v20z" />
    <glyph glyph-name="uni1ED5" unicode="&#x1ed5;" horiz-adv-x="436" 
d="M94 14q-38 22 -49 74t-11 167t11 167t49 74t124 22t124 -22t49 -74t11 -167t-11 -167t-49 -74t-124 -22t-124 22zM257.5 109q10.5 9 13 37.5t2.5 108.5t-2.5 108.5t-13 37.5t-39.5 9t-39.5 -9t-13 -37.5t-2.5 -108.5t2.5 -108.5t13 -37.5t39.5 -9t39.5 9zM78 612v8
l75 123h129l76 -123v-8h-89l-52 71l-51 -71h-88zM259 783q0 26 8.5 37t31.5 20l13 5q23 9 31 15t8 16q0 11 -8.5 14t-32.5 3q-52 0 -100 -3v74q67 13 110 13q60 0 91.5 -18.5t31.5 -68.5q0 -34 -10 -51.5t-40 -31.5l-16 -7q-26 -11 -31.5 -16.5t-5.5 -20.5h-81v20z" />
    <glyph glyph-name="uni1ED6" unicode="&#x1ed6;" 
d="M105 22.5q-44 30.5 -55 98t-11 223.5q0 157 11 224t55 97.5t148 30.5t148 -30.5t55 -97.5t11 -224q0 -156 -11 -223.5t-55 -98t-148 -30.5t-148 30.5zM307 124q14 11 18 54t4 166t-4 166t-18 54t-54 11t-54 -11t-18 -54t-4 -166t4 -166t18 -54t54 -11t54 11zM111 727v8
l75 123h129l76 -123v-8h-89l-52 71l-51 -71h-88zM404 955.5q-4 -25.5 -19.5 -40t-50.5 -14.5t-89 16q-6 2 -24.5 7t-29.5 5q-13 0 -16 -8t-3 -32h-74q0 50 4 76t20 40.5t51 14.5q33 0 88 -17q40 -11 55 -11q13 0 15.5 7.5t2.5 31.5h74q0 -50 -4 -75.5z" />
    <glyph glyph-name="uni1ED7" unicode="&#x1ed7;" horiz-adv-x="436" 
d="M94 14q-38 22 -49 74t-11 167t11 167t49 74t124 22t124 -22t49 -74t11 -167t-11 -167t-49 -74t-124 -22t-124 22zM257.5 109q10.5 9 13 37.5t2.5 108.5t-2.5 108.5t-13 37.5t-39.5 9t-39.5 -9t-13 -37.5t-2.5 -108.5t2.5 -108.5t13 -37.5t39.5 -9t39.5 9zM76 612v8
l75 123h129l76 -123v-8h-89l-52 71l-51 -71h-88zM369 840.5q-4 -25.5 -19.5 -40t-50.5 -14.5t-89 16q-6 2 -24.5 7t-29.5 5q-13 0 -16 -8t-3 -32h-74q0 50 4 76t20 40.5t51 14.5q33 0 88 -17q40 -11 55 -11q13 0 15.5 7.5t2.5 31.5h74q0 -50 -4 -75.5z" />
    <glyph glyph-name="uni1ED8" unicode="&#x1ed8;" 
d="M105 22.5q-44 30.5 -55 98t-11 223.5q0 157 11 224t55 97.5t148 30.5t148 -30.5t55 -97.5t11 -224q0 -156 -11 -223.5t-55 -98t-148 -30.5t-148 30.5zM307 124q14 11 18 54t4 166t-4 166t-18 54t-54 11t-54 -11t-18 -54t-4 -166t4 -166t18 -54t54 -11t54 11zM182 -193
v131h141v-131h-141zM113 757v8l75 123h129l76 -123v-8h-89l-52 71l-51 -71h-88z" />
    <glyph glyph-name="uni1ED9" unicode="&#x1ed9;" horiz-adv-x="436" 
d="M94 14q-38 22 -49 74t-11 167t11 167t49 74t124 22t124 -22t49 -74t11 -167t-11 -167t-49 -74t-124 -22t-124 22zM257.5 109q10.5 9 13 37.5t2.5 108.5t-2.5 108.5t-13 37.5t-39.5 9t-39.5 -9t-13 -37.5t-2.5 -108.5t2.5 -108.5t13 -37.5t39.5 -9t39.5 9zM147 -193v131
h141v-131h-141zM78 612v8l75 123h129l76 -123v-8h-89l-52 71l-51 -71h-88z" />
    <glyph glyph-name="uni1EDA" unicode="&#x1eda;" 
d="M524 781v-27q0 -44 -6.5 -67.5t-26 -36t-60.5 -16.5q24 -36 30 -98t6 -192q0 -156 -11 -223.5t-55 -98t-148 -30.5t-148 30.5t-55 98t-11 223.5q0 157 11 224t55 97.5t148 30.5q59 0 92 -8h33q38 0 50 9.5t12 37.5v46h84zM307 124q14 11 18 54t4 166t-4 166t-18 54
t-54 11t-54 -11t-18 -54t-4 -166t4 -166t18 -54t54 -11t54 11zM197 742v5l53 141h128v-5l-79 -141h-102z" />
    <glyph glyph-name="uni1EDB" unicode="&#x1edb;" horiz-adv-x="436" 
d="M462 603v-27q0 -42 -6 -65.5t-23.5 -36.5t-53.5 -17q14 -28 18.5 -74t4.5 -128q0 -115 -11 -167t-49 -74t-124 -22t-124 22t-49 74t-11 167t11 167t49 74t124 22q57 0 88 -8h10q38 0 50 9.5t12 37.5v46h84zM257.5 109q10.5 9 13 37.5t2.5 108.5t-2.5 108.5t-13 37.5
t-39.5 9t-39.5 -9t-13 -37.5t-2.5 -108.5t2.5 -108.5t13 -37.5t39.5 -9t39.5 9zM161 597v5l53 141h128v-5l-79 -141h-102z" />
    <glyph glyph-name="uni1EDC" unicode="&#x1edc;" 
d="M524 781v-27q0 -44 -6.5 -67.5t-26 -36t-60.5 -16.5q24 -36 30 -98t6 -192q0 -156 -11 -223.5t-55 -98t-148 -30.5t-148 30.5t-55 98t-11 223.5q0 157 11 224t55 97.5t148 30.5q59 0 92 -8h33q38 0 50 9.5t12 37.5v46h84zM307 124q14 11 18 54t4 166t-4 166t-18 54
t-54 11t-54 -11t-18 -54t-4 -166t4 -166t18 -54t54 -11t54 11zM206 742l-78 141v5h128l53 -141v-5h-103z" />
    <glyph glyph-name="uni1EDD" unicode="&#x1edd;" horiz-adv-x="436" 
d="M462 603v-27q0 -42 -6 -65.5t-23.5 -36.5t-53.5 -17q14 -28 18.5 -74t4.5 -128q0 -115 -11 -167t-49 -74t-124 -22t-124 22t-49 74t-11 167t11 167t49 74t124 22q57 0 88 -8h10q38 0 50 9.5t12 37.5v46h84zM257.5 109q10.5 9 13 37.5t2.5 108.5t-2.5 108.5t-13 37.5
t-39.5 9t-39.5 -9t-13 -37.5t-2.5 -108.5t2.5 -108.5t13 -37.5t39.5 -9t39.5 9zM166 597l-78 141v5h128l53 -141v-5h-103z" />
    <glyph glyph-name="uni1EDE" unicode="&#x1ede;" 
d="M524 781v-27q0 -44 -6.5 -67.5t-26 -36t-60.5 -16.5q24 -36 30 -98t6 -192q0 -156 -11 -223.5t-55 -98t-148 -30.5t-148 30.5t-55 98t-11 223.5q0 157 11 224t55 97.5t148 30.5q59 0 92 -8h33q38 0 50 9.5t12 37.5v46h84zM307 124q14 11 18 54t4 166t-4 166t-18 54
t-54 11t-54 -11t-18 -54t-4 -166t4 -166t18 -54t54 -11t54 11zM185 746q0 26 8.5 37t31.5 20l13 5q24 10 31.5 15.5t7.5 15.5q0 11 -8.5 14t-32.5 3q-57 0 -100 -4v75q62 12 110 12q60 0 91.5 -18t31.5 -68q0 -34 -10 -51.5t-40 -31.5l-16 -7q-26 -11 -31.5 -16.5
t-5.5 -21.5h-81v21z" />
    <glyph glyph-name="uni1EDF" unicode="&#x1edf;" horiz-adv-x="436" 
d="M462 603v-27q0 -42 -6 -65.5t-23.5 -36.5t-53.5 -17q14 -28 18.5 -74t4.5 -128q0 -115 -11 -167t-49 -74t-124 -22t-124 22t-49 74t-11 167t11 167t49 74t124 22q57 0 88 -8h10q38 0 50 9.5t12 37.5v46h84zM257.5 109q10.5 9 13 37.5t2.5 108.5t-2.5 108.5t-13 37.5
t-39.5 9t-39.5 -9t-13 -37.5t-2.5 -108.5t2.5 -108.5t13 -37.5t39.5 -9t39.5 9zM150 632q0 26 8.5 37t31.5 20l13 5q23 9 31 15t8 16q0 11 -8.5 14t-32.5 3q-52 0 -100 -3v74q67 13 110 13q60 0 91.5 -18.5t31.5 -68.5q0 -34 -10 -51.5t-40 -31.5l-16 -7
q-26 -11 -31.5 -16.5t-5.5 -20.5h-81v20z" />
    <glyph glyph-name="uni1EE0" unicode="&#x1ee0;" 
d="M524 781v-27q0 -44 -6.5 -67.5t-26 -36t-60.5 -16.5q24 -36 30 -98t6 -192q0 -156 -11 -223.5t-55 -98t-148 -30.5t-148 30.5t-55 98t-11 223.5q0 157 11 224t55 97.5t148 30.5q59 0 92 -8h33q38 0 50 9.5t12 37.5v46h84zM307 124q14 11 18 54t4 166t-4 166t-18 54
t-54 11t-54 -11t-18 -54t-4 -166t4 -166t18 -54t54 -11t54 11zM404 812.5q-4 -25.5 -19.5 -40t-50.5 -14.5t-89 16q-6 2 -24.5 7t-29.5 5q-13 0 -16 -8t-3 -32h-74q0 50 4 76t20 40.5t51 14.5q33 0 88 -17q40 -11 55 -11q13 0 15.5 7.5t2.5 31.5h74q0 -50 -4 -75.5z" />
    <glyph glyph-name="uni1EE1" unicode="&#x1ee1;" horiz-adv-x="436" 
d="M462 603v-27q0 -42 -6 -65.5t-23.5 -36.5t-53.5 -17q14 -28 18.5 -74t4.5 -128q0 -115 -11 -167t-49 -74t-124 -22t-124 22t-49 74t-11 167t11 167t49 74t124 22q57 0 88 -8h10q38 0 50 9.5t12 37.5v46h84zM257.5 109q10.5 9 13 37.5t2.5 108.5t-2.5 108.5t-13 37.5
t-39.5 9t-39.5 -9t-13 -37.5t-2.5 -108.5t2.5 -108.5t13 -37.5t39.5 -9t39.5 9zM369 667.5q-4 -25.5 -19.5 -40t-50.5 -14.5t-89 16q-6 2 -24.5 7t-29.5 5q-13 0 -16 -8t-3 -32h-74q0 50 4 76t20 40.5t51 14.5q33 0 88 -17q40 -11 55 -11q13 0 15.5 7.5t2.5 31.5h74
q0 -50 -4 -75.5z" />
    <glyph glyph-name="uni1EE2" unicode="&#x1ee2;" 
d="M524 781v-27q0 -44 -6.5 -67.5t-26 -36t-60.5 -16.5q24 -36 30 -98t6 -192q0 -156 -11 -223.5t-55 -98t-148 -30.5t-148 30.5t-55 98t-11 223.5q0 157 11 224t55 97.5t148 30.5q59 0 92 -8h33q38 0 50 9.5t12 37.5v46h84zM307 124q14 11 18 54t4 166t-4 166t-18 54
t-54 11t-54 -11t-18 -54t-4 -166t4 -166t18 -54t54 -11t54 11zM182 -193v131h141v-131h-141z" />
    <glyph glyph-name="uni1EE3" unicode="&#x1ee3;" horiz-adv-x="436" 
d="M462 603v-27q0 -42 -6 -65.5t-23.5 -36.5t-53.5 -17q14 -28 18.5 -74t4.5 -128q0 -115 -11 -167t-49 -74t-124 -22t-124 22t-49 74t-11 167t11 167t49 74t124 22q57 0 88 -8h10q38 0 50 9.5t12 37.5v46h84zM257.5 109q10.5 9 13 37.5t2.5 108.5t-2.5 108.5t-13 37.5
t-39.5 9t-39.5 -9t-13 -37.5t-2.5 -108.5t2.5 -108.5t13 -37.5t39.5 -9t39.5 9zM147 -193v131h141v-131h-141z" />
    <glyph glyph-name="uni1EE4" unicode="&#x1ee4;" 
d="M458 688v-383q0 -136 -11.5 -197.5t-54 -88.5t-139.5 -27t-139.5 27t-54 88.5t-11.5 197.5v383h137v-429q0 -73 3.5 -100.5t17 -36.5t47.5 -9t47 9t16.5 36t3.5 101v429h138zM182 -193v131h141v-131h-141z" />
    <glyph glyph-name="uni1EE5" unicode="&#x1ee5;" horiz-adv-x="450" 
d="M279 61h-8q-24 -69 -112 -69q-49 0 -73.5 19t-33 57.5t-8.5 106.5v335h129v-276q0 -64 3 -88t12.5 -30.5t34.5 -6.5t35.5 10t13.5 37.5t3 92.5v261h129v-510h-121zM147 -193v131h141v-131h-141z" />
    <glyph glyph-name="uni1EE6" unicode="&#x1ee6;" 
d="M458 688v-383q0 -136 -11.5 -197.5t-54 -88.5t-139.5 -27t-139.5 27t-54 88.5t-11.5 197.5v383h137v-429q0 -73 3.5 -100.5t17 -36.5t47.5 -9t47 9t16.5 36t3.5 101v429h138zM185 746q0 26 8.5 37t31.5 20l13 5q24 10 31.5 15.5t7.5 15.5q0 11 -8.5 14t-32.5 3
q-57 0 -100 -4v75q62 12 110 12q60 0 91.5 -18t31.5 -68q0 -34 -10 -51.5t-40 -31.5l-16 -7q-26 -11 -31.5 -16.5t-5.5 -21.5h-81v21z" />
    <glyph glyph-name="uni1EE7" unicode="&#x1ee7;" horiz-adv-x="450" 
d="M279 61h-8q-24 -69 -112 -69q-49 0 -73.5 19t-33 57.5t-8.5 106.5v335h129v-276q0 -64 3 -88t12.5 -30.5t34.5 -6.5t35.5 10t13.5 37.5t3 92.5v261h129v-510h-121zM157 632q0 26 8.5 37t31.5 20l13 5q23 9 31 15t8 16q0 11 -8.5 14t-32.5 3q-52 0 -100 -3v74
q67 13 110 13q60 0 91.5 -18.5t31.5 -68.5q0 -34 -10 -51.5t-40 -31.5l-16 -7q-26 -11 -31.5 -16.5t-5.5 -20.5h-81v20z" />
    <glyph glyph-name="uni1EE8" unicode="&#x1ee8;" 
d="M532 781v-27q0 -59 -14 -84.5t-60 -32.5v-332q0 -136 -11.5 -197.5t-54 -88.5t-139.5 -27t-139.5 27t-54 88.5t-11.5 197.5v383h137v-429q0 -73 3.5 -100.5t17 -36.5t47.5 -9t47 9t16.5 36t3.5 101v429h66q38 0 50 9.5t12 37.5v46h84zM197 742v5l53 141h128v-5l-79 -141
h-102z" />
    <glyph glyph-name="uni1EE9" unicode="&#x1ee9;" horiz-adv-x="450" 
d="M476 603v-27q0 -40 -5 -62.5t-20.5 -36t-46.5 -18.5v-459h-121l-4 61h-8q-24 -69 -112 -69q-49 0 -73.5 19t-33 57.5t-8.5 106.5v335h129v-276q0 -64 3 -88t12.5 -30.5t34.5 -6.5t35.5 10t13.5 37.5t3 92.5v261h55q38 0 50 9.5t12 37.5v46h84zM168 597v5l53 141h128v-5
l-79 -141h-102z" />
    <glyph glyph-name="uni1EEA" unicode="&#x1eea;" 
d="M532 781v-27q0 -59 -14 -84.5t-60 -32.5v-332q0 -136 -11.5 -197.5t-54 -88.5t-139.5 -27t-139.5 27t-54 88.5t-11.5 197.5v383h137v-429q0 -73 3.5 -100.5t17 -36.5t47.5 -9t47 9t16.5 36t3.5 101v429h66q38 0 50 9.5t12 37.5v46h84zM206 742l-78 141v5h128l53 -141v-5
h-103z" />
    <glyph glyph-name="uni1EEB" unicode="&#x1eeb;" horiz-adv-x="450" 
d="M476 603v-27q0 -40 -5 -62.5t-20.5 -36t-46.5 -18.5v-459h-121l-4 61h-8q-24 -69 -112 -69q-49 0 -73.5 19t-33 57.5t-8.5 106.5v335h129v-276q0 -64 3 -88t12.5 -30.5t34.5 -6.5t35.5 10t13.5 37.5t3 92.5v261h55q38 0 50 9.5t12 37.5v46h84zM173 597l-78 141v5h128
l53 -141v-5h-103z" />
    <glyph glyph-name="uni1EEC" unicode="&#x1eec;" 
d="M532 781v-27q0 -59 -14 -84.5t-60 -32.5v-332q0 -136 -11.5 -197.5t-54 -88.5t-139.5 -27t-139.5 27t-54 88.5t-11.5 197.5v383h137v-429q0 -73 3.5 -100.5t17 -36.5t47.5 -9t47 9t16.5 36t3.5 101v429h66q38 0 50 9.5t12 37.5v46h84zM185 746q0 26 8.5 37t31.5 20l13 5
q24 10 31.5 15.5t7.5 15.5q0 11 -8.5 14t-32.5 3q-57 0 -100 -4v75q62 12 110 12q60 0 91.5 -18t31.5 -68q0 -34 -10 -51.5t-40 -31.5l-16 -7q-26 -11 -31.5 -16.5t-5.5 -21.5h-81v21z" />
    <glyph glyph-name="uni1EED" unicode="&#x1eed;" horiz-adv-x="450" 
d="M476 603v-27q0 -40 -5 -62.5t-20.5 -36t-46.5 -18.5v-459h-121l-4 61h-8q-24 -69 -112 -69q-49 0 -73.5 19t-33 57.5t-8.5 106.5v335h129v-276q0 -64 3 -88t12.5 -30.5t34.5 -6.5t35.5 10t13.5 37.5t3 92.5v261h55q38 0 50 9.5t12 37.5v46h84zM157 632q0 26 8.5 37
t31.5 20l13 5q23 9 31 15t8 16q0 11 -8.5 14t-32.5 3q-52 0 -100 -3v74q67 13 110 13q60 0 91.5 -18.5t31.5 -68.5q0 -34 -10 -51.5t-40 -31.5l-16 -7q-26 -11 -31.5 -16.5t-5.5 -20.5h-81v20z" />
    <glyph glyph-name="uni1EEE" unicode="&#x1eee;" 
d="M532 781v-27q0 -59 -14 -84.5t-60 -32.5v-332q0 -136 -11.5 -197.5t-54 -88.5t-139.5 -27t-139.5 27t-54 88.5t-11.5 197.5v383h137v-429q0 -73 3.5 -100.5t17 -36.5t47.5 -9t47 9t16.5 36t3.5 101v429h66q38 0 50 9.5t12 37.5v46h84zM404 812.5q-4 -25.5 -19.5 -40
t-50.5 -14.5t-89 16q-6 2 -24.5 7t-29.5 5q-13 0 -16 -8t-3 -32h-74q0 50 4 76t20 40.5t51 14.5q33 0 88 -17q40 -11 55 -11q13 0 15.5 7.5t2.5 31.5h74q0 -50 -4 -75.5z" />
    <glyph glyph-name="uni1EEF" unicode="&#x1eef;" horiz-adv-x="450" 
d="M476 603v-27q0 -40 -5 -62.5t-20.5 -36t-46.5 -18.5v-459h-121l-4 61h-8q-24 -69 -112 -69q-49 0 -73.5 19t-33 57.5t-8.5 106.5v335h129v-276q0 -64 3 -88t12.5 -30.5t34.5 -6.5t35.5 10t13.5 37.5t3 92.5v261h55q38 0 50 9.5t12 37.5v46h84zM376 667.5
q-4 -25.5 -19.5 -40t-50.5 -14.5t-89 16q-6 2 -24.5 7t-29.5 5q-13 0 -16 -8t-3 -32h-74q0 50 4 76t20 40.5t51 14.5q33 0 88 -17q40 -11 55 -11q13 0 15.5 7.5t2.5 31.5h74q0 -50 -4 -75.5z" />
    <glyph glyph-name="uni1EF0" unicode="&#x1ef0;" 
d="M532 781v-27q0 -59 -14 -84.5t-60 -32.5v-332q0 -136 -11.5 -197.5t-54 -88.5t-139.5 -27t-139.5 27t-54 88.5t-11.5 197.5v383h137v-429q0 -73 3.5 -100.5t17 -36.5t47.5 -9t47 9t16.5 36t3.5 101v429h66q38 0 50 9.5t12 37.5v46h84zM182 -193v131h141v-131h-141z" />
    <glyph glyph-name="uni1EF1" unicode="&#x1ef1;" horiz-adv-x="450" 
d="M476 603v-27q0 -40 -5 -62.5t-20.5 -36t-46.5 -18.5v-459h-121l-4 61h-8q-24 -69 -112 -69q-49 0 -73.5 19t-33 57.5t-8.5 106.5v335h129v-276q0 -64 3 -88t12.5 -30.5t34.5 -6.5t35.5 10t13.5 37.5t3 92.5v261h55q38 0 50 9.5t12 37.5v46h84zM147 -193v131h141v-131
h-141z" />
    <glyph glyph-name="Ygrave" unicode="&#x1ef2;" horiz-adv-x="463" 
d="M163 0v238l-163 450h141l90 -297h9l87 297h136l-163 -450v-238h-137zM185 742l-78 141v5h128l53 -141v-5h-103z" />
    <glyph glyph-name="ygrave" unicode="&#x1ef3;" horiz-adv-x="450" 
d="M137 -200q-40 3 -65 7v100q37 -1 111 -1q46 0 64.5 7.5t23 30t4.5 80.5v43h-7q-24 -66 -109 -66q-50 0 -74.5 20.5t-32.5 61t-8 115.5v312h129v-268q0 -64 3 -88t12.5 -30.5t34.5 -6.5q26 0 36 10t13 36.5t3 93.5v253h129v-450q0 -103 -11 -155.5t-51.5 -80t-128.5 -27.5
q-36 0 -76 3zM173 597l-78 141v5h128l53 -141v-5h-103z" />
    <glyph glyph-name="uni1EF4" unicode="&#x1ef4;" horiz-adv-x="463" 
d="M163 0v238l-163 450h141l90 -297h9l87 297h136l-163 -450v-238h-137zM161 -193v131h141v-131h-141z" />
    <glyph glyph-name="uni1EF5" unicode="&#x1ef5;" horiz-adv-x="450" 
d="M137 -200q-40 3 -65 7v100q37 -1 111 -1q46 0 64.5 7.5t23 30t4.5 80.5v43h-7q-24 -66 -109 -66q-50 0 -74.5 20.5t-32.5 61t-8 115.5v312h129v-268q0 -64 3 -88t12.5 -30.5t34.5 -6.5q26 0 36 10t13 36.5t3 93.5v253h129v-450q0 -103 -11 -155.5t-51.5 -80t-128.5 -27.5
q-36 0 -76 3zM142 -396v131h141v-131h-141z" />
    <glyph glyph-name="uni1EF6" unicode="&#x1ef6;" horiz-adv-x="463" 
d="M163 0v238l-163 450h141l90 -297h9l87 297h136l-163 -450v-238h-137zM164 746q0 26 8.5 37t31.5 20l13 5q24 10 31.5 15.5t7.5 15.5q0 11 -8.5 14t-32.5 3q-57 0 -100 -4v75q62 12 110 12q60 0 91.5 -18t31.5 -68q0 -34 -10 -51.5t-40 -31.5l-16 -7q-26 -11 -31.5 -16.5
t-5.5 -21.5h-81v21z" />
    <glyph glyph-name="uni1EF7" unicode="&#x1ef7;" horiz-adv-x="450" 
d="M137 -200q-40 3 -65 7v100q37 -1 111 -1q46 0 64.5 7.5t23 30t4.5 80.5v43h-7q-24 -66 -109 -66q-50 0 -74.5 20.5t-32.5 61t-8 115.5v312h129v-268q0 -64 3 -88t12.5 -30.5t34.5 -6.5q26 0 36 10t13 36.5t3 93.5v253h129v-450q0 -103 -11 -155.5t-51.5 -80t-128.5 -27.5
q-36 0 -76 3zM157 632q0 26 8.5 37t31.5 20l13 5q23 9 31 15t8 16q0 11 -8.5 14t-32.5 3q-52 0 -100 -3v74q67 13 110 13q60 0 91.5 -18.5t31.5 -68.5q0 -34 -10 -51.5t-40 -31.5l-16 -7q-26 -11 -31.5 -16.5t-5.5 -20.5h-81v20z" />
    <glyph glyph-name="uni1EF8" unicode="&#x1ef8;" horiz-adv-x="463" 
d="M163 0v238l-163 450h141l90 -297h9l87 297h136l-163 -450v-238h-137zM383 812.5q-4 -25.5 -19.5 -40t-50.5 -14.5t-89 16q-6 2 -24.5 7t-29.5 5q-13 0 -16 -8t-3 -32h-74q0 50 4 76t20 40.5t51 14.5q33 0 88 -17q40 -11 55 -11q13 0 15.5 7.5t2.5 31.5h74q0 -50 -4 -75.5
z" />
    <glyph glyph-name="uni1EF9" unicode="&#x1ef9;" horiz-adv-x="450" 
d="M137 -200q-40 3 -65 7v100q37 -1 111 -1q46 0 64.5 7.5t23 30t4.5 80.5v43h-7q-24 -66 -109 -66q-50 0 -74.5 20.5t-32.5 61t-8 115.5v312h129v-268q0 -64 3 -88t12.5 -30.5t34.5 -6.5q26 0 36 10t13 36.5t3 93.5v253h129v-450q0 -103 -11 -155.5t-51.5 -80t-128.5 -27.5
q-36 0 -76 3zM376 667.5q-4 -25.5 -19.5 -40t-50.5 -14.5t-89 16q-6 2 -24.5 7t-29.5 5q-13 0 -16 -8t-3 -32h-74q0 50 4 76t20 40.5t51 14.5q33 0 88 -17q40 -11 55 -11q13 0 15.5 7.5t2.5 31.5h74q0 -50 -4 -75.5z" />
    <glyph glyph-name="uni2002" unicode="&#x2002;" horiz-adv-x="300" 
 />
    <glyph glyph-name="endash" unicode="&#x2013;" horiz-adv-x="446" 
d="M43 250v109h361v-109h-361z" />
    <glyph glyph-name="emdash" unicode="&#x2014;" horiz-adv-x="817" 
d="M43 250v109h731v-109h-731z" />
    <glyph glyph-name="underscoredbl" unicode="&#x2017;" horiz-adv-x="361" 
d="M0 -159v97h361v-97h-361zM0 -290v97h361v-97h-361z" />
    <glyph glyph-name="quoteleft" unicode="&#x2018;" horiz-adv-x="235" 
d="M51 510q0 75 9 111t37.5 51.5t89.5 15.5v-57q-33 0 -43.5 -14.5t-10.5 -55.5v-15h51v-124h-133v88z" />
    <glyph glyph-name="quoteright" unicode="&#x2019;" horiz-adv-x="235" 
d="M90.5 493.5q10.5 14.5 10.5 55.5v15h-50v124h133v-88q0 -75 -9 -111t-37.5 -51.5t-90.5 -15.5v57q33 0 43.5 14.5z" />
    <glyph glyph-name="quotesinglbase" unicode="&#x201a;" horiz-adv-x="235" 
d="M90.5 -70.5q10.5 14.5 10.5 55.5v15h-50v124h133v-88q0 -75 -9 -111t-37.5 -51.5t-90.5 -15.5v57q33 0 43.5 14.5z" />
    <glyph glyph-name="quotedblleft" unicode="&#x201c;" horiz-adv-x="420" 
d="M51 510q0 75 9 111t37.5 51.5t89.5 15.5v-57q-33 0 -43.5 -14.5t-10.5 -55.5v-15h51v-124h-133v88zM237 510q0 75 9 111t37.5 51.5t89.5 15.5v-57q-32 0 -42.5 -14.5t-10.5 -55.5v-15h50v-124h-133v88z" />
    <glyph glyph-name="quotedblright" unicode="&#x201d;" horiz-adv-x="420" 
d="M90.5 493.5q10.5 14.5 10.5 55.5v15h-50v124h133v-88q0 -75 -9 -111t-37.5 -51.5t-90.5 -15.5v57q33 0 43.5 14.5zM276.5 493.5q10.5 14.5 10.5 55.5v15h-50v124h133v-88q0 -75 -9 -111t-38 -51.5t-90 -15.5v57q33 0 43.5 14.5z" />
    <glyph glyph-name="quotedblbase" unicode="&#x201e;" horiz-adv-x="421" 
d="M90.5 -70.5q10.5 14.5 10.5 55.5v15h-50v124h133v-88q0 -75 -9 -111t-37.5 -51.5t-90.5 -15.5v57q33 0 43.5 14.5zM277.5 -70.5q10.5 14.5 10.5 55.5v15h-51v124h133v-88q0 -75 -9 -111t-37.5 -51.5t-89.5 -15.5v57q33 0 43.5 14.5z" />
    <glyph glyph-name="dagger" unicode="&#x2020;" horiz-adv-x="385" 
d="M147 0l-9 422l-97 10v89l97 10l9 157h91l9 -157l98 -10v-89l-98 -10l-9 -422h-91z" />
    <glyph glyph-name="daggerdbl" unicode="&#x2021;" horiz-adv-x="385" 
d="M147 0l-9 157l-97 10v89l97 10v156l-97 10v89l97 10l9 157h91l9 -157l98 -10v-89l-98 -10v-156l98 -10v-89l-98 -10l-9 -157h-91z" />
    <glyph glyph-name="bullet" unicode="&#x2022;" horiz-adv-x="291" 
d="M240.5 275q-5.5 -19 -26 -26t-70.5 -7q-49 0 -69 7t-25.5 26t-5.5 67q0 49 5.5 69t25.5 27t69 7q51 0 71 -7t25.5 -27t5.5 -69q0 -48 -5.5 -67z" />
    <glyph glyph-name="ellipsis" unicode="&#x2026;" horiz-adv-x="727" 
d="M51 0v132h141v-132h-141zM293 0v132h141v-132h-141zM536 0v132h141v-132h-141z" />
    <glyph glyph-name="perthousand" unicode="&#x2030;" horiz-adv-x="884" 
d="M82 373.5q-24 14.5 -31 48.5t-7 105t7 105t31 49t76 15t76 -15t31.5 -49t7.5 -105t-7.5 -105t-31 -48.5t-76.5 -14.5q-52 0 -76 14.5zM87 0l367 688h80l-367 -688h-80zM182 427q6 5 8 25t2 75t-2 75t-8 25.5t-24 5.5t-24 -5.5t-7.5 -25t-1.5 -75.5t1.5 -75.5t7.5 -24.5
t24 -5t24 5zM388 7q-24 15 -31 48.5t-7 104.5t7 105t31 49t76 15t76 -15t31 -49t7 -105t-7 -104.5t-31 -48.5t-76 -15t-76 15zM650 7q-24 15 -31.5 49t-7.5 104q0 71 7.5 105t31.5 49t76 15t76 -15t31 -49t7 -105t-7 -104.5t-31 -48.5t-76 -15t-76 15zM488 60.5
q6 5.5 7.5 24.5t1.5 75q0 57 -1.5 76.5t-7.5 24.5t-24 5t-24 -5t-8 -25t-2 -76q0 -55 2 -74.5t8 -25t24 -5.5t24 5.5zM750 60.5q6 5.5 7.5 24.5t1.5 75t-1.5 75.5t-7.5 25t-24 5.5t-24 -5.5t-8 -25.5t-2 -75t2 -74.5t8 -25t24 -5.5t24 5.5z" />
    <glyph glyph-name="minute" unicode="&#x2032;" horiz-adv-x="216" 
d="M36 368l19 320h121l-8 -114l-39 -206h-93z" />
    <glyph glyph-name="second" unicode="&#x2033;" horiz-adv-x="373" 
d="M193 368l19 320h121l-8 -114l-39 -206h-93zM36 368l19 320h121l-8 -114l-39 -206h-93z" />
    <glyph glyph-name="guilsinglleft" unicode="&#x2039;" horiz-adv-x="254" 
d="M120 121l-87 194l87 195h91l-67 -195l67 -194h-91z" />
    <glyph glyph-name="guilsinglright" unicode="&#x203a;" horiz-adv-x="254" 
d="M42 121l67 194l-67 195h91l87 -195l-87 -194h-91z" />
    <glyph glyph-name="exclamdbl" unicode="&#x203c;" horiz-adv-x="464" 
d="M271 442.5q-13 152.5 -13 195.5v50h157v-50q0 -41 -13 -192t-23 -228h-85q-10 72 -23 224.5zM266 0v132h141v-132h-141zM66 442.5q-13 152.5 -13 195.5v50h157v-50q0 -41 -13 -192t-23 -228h-85q-10 72 -23 224.5zM61 0v132h141v-132h-141z" />
    <glyph glyph-name="fraction" unicode="&#x2044;" horiz-adv-x="120" 
d="M-155 0l348 688h82l-348 -688h-82z" />
    <glyph glyph-name="Euro" unicode="&#x20ac;" horiz-adv-x="443" 
d="M167 14q-43 22 -61.5 73t-23.5 146h-60v72h58v80h-58v73h61q5 92 24 142.5t62 73t121 22.5q34 0 67 -5t48 -11v-112q-46 7 -87 7t-60 -7.5t-27.5 -31.5t-10.5 -78h151v-73h-153v-80h153v-72h-152q3 -55 11.5 -80t27.5 -32.5t60 -7.5q52 0 90 7v-111q-20 -7 -53.5 -12
t-64.5 -5q-80 0 -123 22z" />
    <glyph glyph-name="uni20B2" unicode="&#x20b2;" horiz-adv-x="476" 
d="M437 395v-100q0 -84 -9 -127t-38.5 -66t-91.5 -28v-82h-96v81q-66 5 -101 31t-48.5 81.5t-13.5 158.5q0 101 13.5 155.5t48 81t101.5 33.5v82h96v-81q70 -5 123 -19v-112q-79 12 -127 12q-59 0 -81.5 -8t-29.5 -37.5t-7 -106.5q0 -73 5 -103.5t17 -39t40 -8.5
q31 0 43.5 5t17 21t4.5 54v15h-60v107h194z" />
    <glyph glyph-name="uni2113" unicode="&#x2113;" horiz-adv-x="415" 
d="M209 135q14 -20 42 -20q34 0 101 28v-128q-64 -21 -119 -21q-76 0 -116 43t-54 139q-19 -1 -58 -1v116l26 -1l24 1v33q0 133 19 214.5t59 119t105 37.5q75 0 109 -47.5t34 -128.5q0 -106 -51 -188t-139 -123q4 -53 18 -73zM209 555.5q-10 -18.5 -15.5 -68.5t-5.5 -144
q36 31 54 78.5t18 106.5q0 23 -5.5 34.5t-18.5 11.5q-17 0 -27 -18.5z" />
    <glyph glyph-name="uni2116" unicode="&#x2116;" horiz-adv-x="812" 
d="M565.5 411q-25.5 14 -32 43t-6.5 92t6.5 92t32 43.5t84.5 14.5t85 -14.5t32.5 -43.5t6.5 -92t-6.5 -92t-32.5 -43t-85 -14t-84.5 14zM347 0l-160 377h-4v-377h-131v688h133l149 -348h5v348h132v-688h-124zM678.5 469q8.5 6 10.5 21.5t2 55.5t-2 55.5t-10 21.5t-29 6
t-28.5 -5.5t-9.5 -21t-2 -56.5t2 -56t10 -21t28 -6t28.5 6zM537 198v109h224v-109h-224z" />
    <glyph glyph-name="trademark" unicode="&#x2122;" horiz-adv-x="573" 
d="M97 387v243h-59v58h181v-58h-59v-243h-63zM253 387v301h95l39 -206h5l37 206h93v-301h-60v220h-4l-41 -220h-59l-42 220h-4v-220h-59z" />
    <glyph glyph-name="uni2126" unicode="&#x2126;" horiz-adv-x="516" 
d="M44 115h6q27 -6 56 -17l30 -10v7q-48 29 -70.5 99t-22.5 185q0 126 13 189.5t58.5 95.5t142.5 32q98 0 143 -31.5t58 -95t13 -190.5q0 -115 -22 -185t-70 -99v-7q14 4 32 11q40 13 55 16h6v-115h-184v115q21 6 30.5 27t12.5 69t3 151q0 104 -4.5 144.5t-19.5 54.5t-53 14
t-53 -13.5t-19 -54.5t-4 -145q0 -102 3.5 -150.5t12.5 -69.5t30 -27v-115h-183v115z" />
    <glyph glyph-name="estimated" unicode="&#x212e;" 
d="M182 111q5 -56 21.5 -70.5t63.5 -14.5q60 0 88.5 9t44.5 45.5t20 119.5h36q-4 -84 -21.5 -127.5t-59 -62t-122.5 -18.5q-104 0 -148 30.5t-55 97.5t-11 224t11 224t55 97.5t148 30.5q103 0 147.5 -30.5t55.5 -98t11 -223.5v-21h-290q0 -156 5 -212zM199 647
q-14 -15 -18 -72t-4 -218h152q0 159 -4.5 217t-18.5 73t-53 15q-40 0 -54 -15z" />
    <glyph glyph-name="uni2153" unicode="&#x2153;" horiz-adv-x="655" 
d="M92 315v273l-54 -23v81l78 42h62v-373h-86zM77 0l348 688h82l-348 -688h-82zM479 69q28 0 36.5 6.5t8.5 32.5q0 28 -6.5 36t-25.5 8h-58v73h58q18 0 24 7.5t6 34.5q0 25 -8.5 31.5t-38.5 6.5q-34 0 -76 -6v72q51 11 96 11q61 0 87.5 -22.5t26.5 -78.5q0 -37 -11.5 -58
t-34.5 -31v-4q24 -9 36.5 -29.5t12.5 -59.5q0 -58 -26 -82.5t-91 -24.5q-42 0 -97 10v72q52 -5 81 -5z" />
    <glyph glyph-name="uni2154" unicode="&#x2154;" horiz-adv-x="699" 
d="M256 315h-215v57q0 66 6 91.5t30 38.5l65 37q17 9 22.5 17t5.5 27q0 24 -9 30t-38 6q-21 0 -79 -5v72q50 10 102 10q36 0 58.5 -6.5t37 -30t14.5 -71.5q0 -47 -11.5 -69.5t-36.5 -36.5l-63 -34q-13 -7 -16.5 -14t-3.5 -28v-15h131v-76zM474 688h81l-347 -688h-82z
M643.5 158.5q12.5 -20.5 12.5 -59.5q0 -58 -26 -82.5t-91 -24.5q-42 0 -97 10v72q52 -5 81 -5q28 0 36.5 6.5t8.5 32.5q0 28 -6.5 36t-25.5 8h-57v73h57q18 0 24 7.5t6 34.5q0 25 -8.5 31.5t-38.5 6.5q-34 0 -76 -6v72q51 11 96 11q61 0 87.5 -22.5t26.5 -78.5
q0 -37 -11.5 -58t-34.5 -31v-4q24 -9 36.5 -29.5z" />
    <glyph glyph-name="oneeighth" unicode="&#x215b;" horiz-adv-x="670" 
d="M92 315v273l-54 -23v81l78 42h62v-373h-86zM77 0l348 688h82l-348 -688h-82zM406 19.5q-27 23.5 -27 80.5q0 46 13.5 66t43.5 27v2q-28 7 -41.5 28.5t-13.5 62.5q0 55 28 76.5t93 21.5q64 0 92.5 -21.5t28.5 -76.5q0 -41 -13.5 -62.5t-41.5 -28.5v-2q31 -7 45 -27t14 -66
q0 -57 -28 -80.5t-97 -23.5t-96 23.5zM527.5 228q7.5 3 10.5 12t3 30q0 22 -3 31t-10.5 11.5t-25.5 2.5t-25.5 -2.5t-11 -12t-3.5 -30.5q0 -30 7.5 -37.5t32.5 -7.5q18 0 25.5 3zM528 68q8 3 11.5 12.5t3.5 31.5q0 31 -7.5 39t-33.5 8t-33.5 -8t-7.5 -39t8 -39t33 -8
q18 0 26 3z" />
    <glyph glyph-name="threeeighths" unicode="&#x215c;" horiz-adv-x="675" 
d="M18 314v66q37 -4 80 -4q33 0 43.5 7t10.5 35q0 30 -8 38t-33 8h-54v71h54q23 0 30 8t7 36q0 20 -4 28t-14.5 10.5t-34.5 2.5q-43 0 -76 -4v67q50 9 98 9q62 0 89 -21.5t27 -76.5q0 -41 -13 -62.5t-40 -28.5v-3q29 -6 42.5 -26.5t13.5 -65.5q0 -57 -26.5 -80.5
t-92.5 -23.5q-52 0 -99 10zM109 0l348 688h82l-348 -688h-82zM433 19.5q-27 23.5 -27 80.5q0 46 13.5 66t43.5 27v2q-28 7 -41.5 28.5t-13.5 62.5q0 55 28 76.5t93 21.5q64 0 92.5 -21.5t28.5 -76.5q0 -41 -13.5 -62.5t-41.5 -28.5v-2q31 -7 45 -27t14 -66q0 -57 -28 -80.5
t-97 -23.5t-96 23.5zM554.5 228q7.5 3 10.5 12t3 30q0 22 -3 31t-10.5 11.5t-25.5 2.5t-25.5 -2.5t-11 -12t-3.5 -30.5q0 -30 7.5 -37.5t32.5 -7.5q18 0 25.5 3zM555 68q8 3 11.5 12.5t3.5 31.5q0 31 -7.5 39t-33.5 8t-33.5 -8t-7.5 -39t8 -39t33 -8q18 0 26 3z" />
    <glyph glyph-name="fiveeighths" unicode="&#x215d;" horiz-adv-x="690" 
d="M114 376q27 0 38 3.5t15 13.5t4 34t-4 34.5t-15.5 14t-38.5 3.5q-28 0 -72 -4v213h198v-73h-121v-68q20 4 43 4q54 0 74 -29t20 -87q0 -50 -9.5 -77.5t-35 -40.5t-73.5 -13q-51 0 -98 10v66q33 -4 75 -4zM124 0l348 688h82l-348 -688h-82zM448 19.5q-27 23.5 -27 80.5
q0 46 13.5 66t43.5 27v2q-28 7 -41.5 28.5t-13.5 62.5q0 55 28 76.5t93 21.5q64 0 92.5 -21.5t28.5 -76.5q0 -41 -13.5 -62.5t-41.5 -28.5v-2q31 -7 45 -27t14 -66q0 -57 -28 -80.5t-97 -23.5t-96 23.5zM569.5 228q7.5 3 10.5 12t3 30q0 22 -3 31t-10.5 11.5t-25.5 2.5
t-25.5 -2.5t-11 -12t-3.5 -30.5q0 -30 7.5 -37.5t32.5 -7.5q18 0 25.5 3zM570 68q8 3 11.5 12.5t3.5 31.5q0 31 -7.5 39t-33.5 8t-33.5 -8t-7.5 -39t8 -39t33 -8q18 0 26 3z" />
    <glyph glyph-name="seveneighths" unicode="&#x215e;" horiz-adv-x="630" 
d="M40 308l110 307h-133v73h220v-64l-108 -316h-89zM64 0l348 688h82l-348 -688h-82zM388 19.5q-27 23.5 -27 80.5q0 46 13.5 66t43.5 27v2q-28 7 -41.5 28.5t-13.5 62.5q0 55 28 76.5t93 21.5q64 0 92.5 -21.5t28.5 -76.5q0 -41 -13.5 -62.5t-41.5 -28.5v-2q31 -7 45 -27
t14 -66q0 -57 -28 -80.5t-97 -23.5t-96 23.5zM509.5 228q7.5 3 10.5 12t3 30q0 22 -3 31t-10.5 11.5t-25.5 2.5t-25.5 -2.5t-11 -12t-3.5 -30.5q0 -30 7.5 -37.5t32.5 -7.5q18 0 25.5 3zM510 68q8 3 11.5 12.5t3.5 31.5q0 31 -7.5 39t-33.5 8t-33.5 -8t-7.5 -39t8 -39t33 -8
q18 0 26 3z" />
    <glyph glyph-name="arrowleft" unicode="&#x2190;" horiz-adv-x="883" 
d="M309 251l31 -89l-285 142l285 143l-30 -90h518v-106h-519z" />
    <glyph glyph-name="arrowup" unicode="&#x2191;" horiz-adv-x="395" 
d="M145 -82v518l-90 -30l143 285l142 -285l-89 30v-518h-106z" />
    <glyph glyph-name="arrowright" unicode="&#x2192;" horiz-adv-x="883" 
d="M543 162l30 89h-518v106h518l-30 90l285 -143z" />
    <glyph glyph-name="arrowdown" unicode="&#x2193;" horiz-adv-x="395" 
d="M198 -85l-143 285l90 -31v519h106v-518l89 30z" />
    <glyph glyph-name="arrowboth" unicode="&#x2194;" horiz-adv-x="883" 
d="M340 162l-285 142l285 143l-30 -90h263l-30 90l285 -143l-285 -142l30 89h-264z" />
    <glyph glyph-name="arrowupdn" unicode="&#x2195;" horiz-adv-x="395" 
d="M198 -85l-143 285l90 -31v272l-90 -30l143 285l142 -285l-89 30v-271l89 30z" />
    <glyph glyph-name="arrowupdnbse" unicode="&#x21a8;" horiz-adv-x="395" 
d="M198 -85l-143 285l90 -31v272l-90 -30l143 285l142 -285l-89 30v-271l89 30zM55 -209v90h285v-90h-285z" />
    <glyph glyph-name="partialdiff" unicode="&#x2202;" horiz-adv-x="437" 
d="M94.5 15q-38.5 23 -49.5 74.5t-11 164.5q0 99 9 153t39 82t92 28q42 0 72 -12l3 3q-17 70 -46.5 125.5t-69.5 105.5v4h131q89 -103 118 -258q20 -108 20 -228q0 -115 -10.5 -167t-48.5 -75t-124 -23t-124.5 23zM257.5 109q10.5 9 13 37t2.5 109q0 78 -2.5 106.5
t-13.5 38.5t-39 10q-29 0 -39.5 -9t-13 -36.5t-2.5 -109.5q0 -81 2.5 -109t13 -37t39.5 -9t39.5 9z" />
    <glyph glyph-name="uni2206" unicode="&#x2206;" horiz-adv-x="502" 
d="M8 0l142 688h201l142 -688h-485zM252 561h-6l-83 -446h171z" />
    <glyph glyph-name="product" unicode="&#x220f;" horiz-adv-x="521" 
d="M331 -189v756h-141v-756h-138v877h417v-877h-138z" />
    <glyph glyph-name="summation" unicode="&#x2211;" horiz-adv-x="516" 
d="M51 -189v117l192 321l-192 323v116h414v-121h-258l191 -318l-191 -317h258v-121h-414z" />
    <glyph glyph-name="minus" unicode="&#x2212;" horiz-adv-x="472" 
d="M57 198v109h359v-109h-359z" />
    <glyph glyph-name="radical" unicode="&#x221a;" horiz-adv-x="563" 
d="M195 -106l-103 320l-51 -19l-25 79l173 71l93 -314l122 739h129l-154 -876h-184z" />
    <glyph glyph-name="infinity" unicode="&#x221e;" horiz-adv-x="781" 
d="M85 91q-39 54 -39 165t39 165.5t137 54.5q65 0 104.5 -28.5t63.5 -79.5q25 51 64.5 79.5t105.5 28.5q97 0 136 -54.5t39 -165.5t-38.5 -165t-136.5 -54q-66 0 -105.5 28t-64.5 81q-24 -52 -63 -80.5t-105 -28.5q-98 0 -137 54zM337 256q-22 123 -105 123
q-46 0 -61.5 -30.5t-15.5 -92.5q0 -63 15.5 -92.5t61.5 -29.5q82 0 105 122zM610 163q15 29 15 93q0 63 -15 93t-60 30q-44 0 -70 -33t-36 -90q10 -56 36.5 -89t69.5 -33q45 0 60 29z" />
    <glyph glyph-name="integral" unicode="&#x222b;" horiz-adv-x="314" 
d="M25 -91q33 0 47.5 2.5t20.5 12t6 30.5l-3 85l-23 461l-2 47q0 71 19.5 102t59.5 39t129 8v-98q-35 0 -49 -3t-19 -14.5t-5 -39.5q0 -17 2 -49l22 -452l3 -75q0 -74 -20 -106.5t-60 -40.5t-128 -8v99z" />
    <glyph glyph-name="approxequal" unicode="&#x2248;" horiz-adv-x="460" 
d="M56.5 342q4.5 26 23 40.5t57.5 14.5q41 0 107 -16q5 -1 28 -6.5t38 -5.5t18.5 7.5t3.5 31.5h75q0 -50 -4.5 -75.5t-22.5 -40t-58 -14.5q-42 0 -106 16q-10 2 -31.5 6.5t-34.5 4.5q-15 0 -18.5 -7t-3.5 -31h-76q0 49 4.5 75zM56.5 174q4.5 26 23 40.5t57.5 14.5
q37 0 107 -17q10 -2 31.5 -6.5t34.5 -4.5q15 0 18.5 7.5t3.5 30.5h75q0 -50 -4.5 -75.5t-22.5 -40t-58 -14.5q-41 0 -107 16q-18 5 -36 8.5t-29 3.5q-15 0 -18.5 -7.5t-3.5 -31.5h-76q0 50 4.5 76z" />
    <glyph glyph-name="notequal" unicode="&#x2260;" horiz-adv-x="472" 
d="M210 108l-38 -83h-93l39 83h-61v109h112l34 72h-146v109h197l40 87h93l-41 -87h70v-109h-121l-34 -72h155v-109h-206z" />
    <glyph glyph-name="lessequal" unicode="&#x2264;" horiz-adv-x="473" 
d="M416 187l-359 131v111l359 132v-110l-228 -77l228 -77v-110zM57 30v109h359v-109h-359z" />
    <glyph glyph-name="greaterequal" unicode="&#x2265;" horiz-adv-x="478" 
d="M61 187v110l228 77l-228 77v110l359 -132v-111zM61 30v109h359v-109h-359z" />
    <glyph glyph-name="house" unicode="&#x2302;" horiz-adv-x="551" 
d="M28 0v373l189 327h117l188 -327v-373h-494zM148 100h254v260l-127 220l-127 -220v-260z" />
    <glyph glyph-name="lozenge" unicode="&#x25ca;" horiz-adv-x="453" 
d="M167 0l-146 344l146 344h118l146 -344l-146 -344h-118zM226 101l94 243l-94 243l-94 -243z" />
    <glyph glyph-name="uniA78B" unicode="&#xa78b;" horiz-adv-x="169" 
d="M24 268v420h121v-167l-28 -253h-93z" />
    <glyph glyph-name="uniA78C" unicode="&#xa78c;" horiz-adv-x="169" 
d="M24 268v475h121v-222l-28 -253h-93z" />
    <glyph glyph-name="uniF8FF" unicode="&#xf8ff;" horiz-adv-x="841" 
d="M72 0v698h697v-698h-697zM594.5 473.5q-23.5 41.5 -68 65.5t-104.5 24q-61 0 -105.5 -24t-68.5 -65.5t-24 -91.5v-66q0 -50 24 -91.5t68.5 -65.5t105.5 -24q60 0 104.5 24t68 65.5t23.5 91.5v66q0 50 -23.5 91.5zM465 247.5q-18 -17.5 -43 -17.5q-26 0 -44 17.5t-18 42.5
v118q0 25 18 42.5t44 17.5q25 0 43 -17.5t18 -42.5v-118q0 -25 -18 -42.5z" />
    <glyph glyph-name="Iacute_J.loclNLD" horiz-adv-x="539" 
d="M53 0v688h137v-688h-137zM66 742v5l53 141h128v-5l-79 -141h-102zM324 122q19 7 24 31t5 91v444h138v-380q0 -159 -12.5 -216.5t-57 -74t-167.5 -17.5v114q51 1 70 8zM366 742v5l53 141h128v-5l-79 -141h-102z" />
    <glyph glyph-name="G_tilde.loclGUA" horiz-adv-x="487" 
d="M251 282v118h189v-387q-35 -9 -85 -15t-93 -6q-95 0 -141.5 28.5t-64 102t-17.5 221.5q0 147 18.5 220.5t67.5 102.5t147 29q40 0 87 -6t80 -14v-113q-86 12 -125 12q-68 0 -93.5 -11t-35 -56.5t-9.5 -163.5q0 -110 6 -156.5t23.5 -62.5t59.5 -16q9 0 48 3v170h-62z
M394 812.5q-4 -25.5 -19.5 -40t-50.5 -14.5t-89 16q-6 2 -24.5 7t-29.5 5q-13 0 -16 -8t-3 -32h-74q0 50 4 76t20 40.5t51 14.5q33 0 88 -17q40 -11 55 -11q13 0 15.5 7.5t2.5 31.5h74q0 -50 -4 -75.5z" />
    <glyph glyph-name="Y.loclGUA" horiz-adv-x="467" 
d="M439 688v-183q0 -119 -8 -177.5t-37 -90.5t-93 -41v-196h-138v196q-62 9 -90.5 41.5t-36.5 91t-8 176.5v183h138v-229q0 -73 3.5 -100.5t17 -36.5t47.5 -9t47 9t16.5 36t3.5 101v229h138z" />
    <glyph glyph-name="Yacute.loclGUA" horiz-adv-x="467" 
d="M439 688v-183q0 -119 -8 -177.5t-37 -90.5t-93 -41v-196h-138v196q-62 9 -90.5 41.5t-36.5 91t-8 176.5v183h138v-229q0 -73 3.5 -100.5t17 -36.5t47.5 -9t47 9t16.5 36t3.5 101v229h138zM177 742v5l53 141h128v-5l-79 -141h-102z" />
    <glyph glyph-name="Ycircumflex.loclGUA" horiz-adv-x="467" 
d="M439 688v-183q0 -119 -8 -177.5t-37 -90.5t-93 -41v-196h-138v196q-62 9 -90.5 41.5t-36.5 91t-8 176.5v183h138v-229q0 -73 3.5 -100.5t17 -36.5t47.5 -9t47 9t16.5 36t3.5 101v229h138zM93 757v8l75 123h129l76 -123v-8h-89l-52 71l-51 -71h-88z" />
    <glyph glyph-name="Ydieresis.loclGUA" horiz-adv-x="467" 
d="M439 688v-183q0 -119 -8 -177.5t-37 -90.5t-93 -41v-196h-138v196q-62 9 -90.5 41.5t-36.5 91t-8 176.5v183h138v-229q0 -73 3.5 -100.5t17 -36.5t47.5 -9t47 9t16.5 36t3.5 101v229h138zM90 772v103h111v-103h-111zM265 772v103h111v-103h-111z" />
    <glyph glyph-name="uni1EF4.loclGUA" horiz-adv-x="467" 
d="M439 688v-183q0 -119 -8 -177.5t-37 -90.5t-93 -41v-196h-138v196q-62 9 -90.5 41.5t-36.5 91t-8 176.5v183h138v-229q0 -73 3.5 -100.5t17 -36.5t47.5 -9t47 9t16.5 36t3.5 101v229h138zM162 -193v131h141v-131h-141z" />
    <glyph glyph-name="Ygrave.loclGUA" horiz-adv-x="467" 
d="M439 688v-183q0 -119 -8 -177.5t-37 -90.5t-93 -41v-196h-138v196q-62 9 -90.5 41.5t-36.5 91t-8 176.5v183h138v-229q0 -73 3.5 -100.5t17 -36.5t47.5 -9t47 9t16.5 36t3.5 101v229h138zM186 742l-78 141v5h128l53 -141v-5h-103z" />
    <glyph glyph-name="uni1EF6.loclGUA" horiz-adv-x="467" 
d="M439 688v-183q0 -119 -8 -177.5t-37 -90.5t-93 -41v-196h-138v196q-62 9 -90.5 41.5t-36.5 91t-8 176.5v183h138v-229q0 -73 3.5 -100.5t17 -36.5t47.5 -9t47 9t16.5 36t3.5 101v229h138zM165 746q0 26 8.5 37t31.5 20l13 5q24 10 31.5 15.5t7.5 15.5q0 11 -8.5 14
t-32.5 3q-57 0 -100 -4v75q62 12 110 12q60 0 91.5 -18t31.5 -68q0 -34 -10 -51.5t-40 -31.5l-16 -7q-26 -11 -31.5 -16.5t-5.5 -21.5h-81v21z" />
    <glyph glyph-name="uni0232.loclGUA" horiz-adv-x="467" 
d="M439 688v-183q0 -119 -8 -177.5t-37 -90.5t-93 -41v-196h-138v196q-62 9 -90.5 41.5t-36.5 91t-8 176.5v183h138v-229q0 -73 3.5 -100.5t17 -36.5t47.5 -9t47 9t16.5 36t3.5 101v229h138zM132 772v116h202v-116h-202z" />
    <glyph glyph-name="uni1EF8.loclGUA" horiz-adv-x="467" 
d="M439 688v-183q0 -119 -8 -177.5t-37 -90.5t-93 -41v-196h-138v196q-62 9 -90.5 41.5t-36.5 91t-8 176.5v183h138v-229q0 -73 3.5 -100.5t17 -36.5t47.5 -9t47 9t16.5 36t3.5 101v229h138zM384 812.5q-4 -25.5 -19.5 -40t-50.5 -14.5t-89 16q-6 2 -24.5 7t-29.5 5
q-13 0 -16 -8t-3 -32h-74q0 50 4 76t20 40.5t51 14.5q33 0 88 -17q40 -11 55 -11q13 0 15.5 7.5t2.5 31.5h74q0 -50 -4 -75.5z" />
    <glyph glyph-name="Cacute.loclPLK" horiz-adv-x="396" 
d="M313.5 -3q-33.5 -5 -63.5 -5q-94 0 -138 31t-58.5 103t-14.5 218q0 145 15 217.5t59.5 103.5t136.5 31q33 0 65.5 -4.5t50.5 -11.5v-112q-58 7 -88 7q-51 0 -70.5 -13.5t-25 -57.5t-5.5 -160t5.5 -160t25 -57.5t70.5 -13.5q46 0 90 7v-111q-21 -7 -54.5 -12zM142 742v5
l25 141h127v-5l-50 -141h-102z" />
    <glyph glyph-name="Nacute.loclPLK" horiz-adv-x="523" 
d="M347 0l-160 377h-4v-377h-131v688h133l149 -348h5v348h132v-688h-124zM206 742v5l25 141h127v-5l-50 -141h-102z" />
    <glyph glyph-name="Oacute.loclPLK" 
d="M105 22.5q-44 30.5 -55 98t-11 223.5q0 157 11 224t55 97.5t148 30.5t148 -30.5t55 -97.5t11 -224q0 -156 -11 -223.5t-55 -98t-148 -30.5t-148 30.5zM307 124q14 11 18 54t4 166t-4 166t-18 54t-54 11t-54 -11t-18 -54t-4 -166t4 -166t18 -54t54 -11t54 11zM197 742v5
l25 141h127v-5l-50 -141h-102z" />
    <glyph glyph-name="Sacute.loclPLK" horiz-adv-x="443" 
d="M129.5 -3.5q-49.5 4.5 -87.5 12.5v112q102 -8 141 -8q35 0 53 4t27 14q8 8 10.5 22.5t2.5 41.5q0 37 -4 52.5t-16.5 23t-43.5 13.5l-94 17q-50 9 -69 55t-19 133q0 85 24.5 130t67.5 61t109 16q46 0 88.5 -6t69.5 -12v-112q-54 9 -121 9q-36 0 -55.5 -3t-28.5 -11
q-11 -8 -14 -23t-3 -44q0 -31 3.5 -45t12.5 -20t31 -10l88 -16q35 -5 59.5 -21.5t38.5 -54.5q14 -40 14 -113q0 -95 -23 -143t-63.5 -63.5t-106.5 -15.5q-42 0 -91.5 4.5zM166 742v5l25 141h127v-5l-50 -141h-102z" />
    <glyph glyph-name="Zacute.loclPLK" horiz-adv-x="439" 
d="M31 0v114l221 453h-214v121h368v-113l-222 -454h224v-121h-377zM164 742v5l25 141h127v-5l-50 -141h-102z" />
    <glyph glyph-name="A.ss01" 
d="M320 194h-135v-194h-137v383q0 136 11.5 197t54 88.5t139.5 27.5t139.5 -27.5t54 -88.5t11.5 -197v-383h-138v194zM316.5 530q-3.5 27 -16.5 36t-47 9t-47.5 -9t-17 -36.5t-3.5 -100.5v-112h135v112q0 74 -3.5 101z" />
    <glyph glyph-name="Aacute.ss01" 
d="M320 194h-135v-194h-137v383q0 136 11.5 197t54 88.5t139.5 27.5t139.5 -27.5t54 -88.5t11.5 -197v-383h-138v194zM316.5 530q-3.5 27 -16.5 36t-47 9t-47.5 -9t-17 -36.5t-3.5 -100.5v-112h135v112q0 74 -3.5 101zM201 749v5l53 141h128v-5l-79 -141h-102z" />
    <glyph glyph-name="Abreve.ss01" 
d="M320 194h-135v-194h-137v383q0 136 11.5 197t54 88.5t139.5 27.5t139.5 -27.5t54 -88.5t11.5 -197v-383h-138v194zM316.5 530q-3.5 27 -16.5 36t-47 9t-47.5 -9t-17 -36.5t-3.5 -100.5v-112h135v112q0 74 -3.5 101zM373.5 814q-9.5 -29 -38 -45.5t-84.5 -16.5
q-55 0 -83 16.5t-37 45.5t-9 74h79q0 -23 2.5 -34.5t13 -19t34.5 -7.5q35 0 44 14.5t9 46.5h79q0 -45 -9.5 -74z" />
    <glyph glyph-name="uni1EAE.ss01" 
d="M320 194h-135v-194h-137v383q0 136 11.5 197t54 88.5t139.5 27.5t139.5 -27.5t54 -88.5t11.5 -197v-383h-138v194zM316.5 530q-3.5 27 -16.5 36t-47 9t-47.5 -9t-17 -36.5t-3.5 -100.5v-112h135v112q0 74 -3.5 101zM373.5 814q-9.5 -29 -38 -45.5t-84.5 -16.5
q-55 0 -83 16.5t-37 45.5t-9 74h79q0 -23 2.5 -34.5t13 -19t34.5 -7.5q35 0 44 14.5t9 46.5h79q0 -45 -9.5 -74zM196 915v5l53 141h128v-5l-79 -141h-102z" />
    <glyph glyph-name="uni1EB6.ss01" 
d="M320 194h-135v-194h-137v383q0 136 11.5 197t54 88.5t139.5 27.5t139.5 -27.5t54 -88.5t11.5 -197v-383h-138v194zM316.5 530q-3.5 27 -16.5 36t-47 9t-47.5 -9t-17 -36.5t-3.5 -100.5v-112h135v112q0 74 -3.5 101zM373.5 814q-9.5 -29 -38 -45.5t-84.5 -16.5
q-55 0 -83 16.5t-37 45.5t-9 74h79q0 -23 2.5 -34.5t13 -19t34.5 -7.5q35 0 44 14.5t9 46.5h79q0 -45 -9.5 -74zM182 -193v131h141v-131h-141z" />
    <glyph glyph-name="uni1EB0.ss01" 
d="M320 194h-135v-194h-137v383q0 136 11.5 197t54 88.5t139.5 27.5t139.5 -27.5t54 -88.5t11.5 -197v-383h-138v194zM316.5 530q-3.5 27 -16.5 36t-47 9t-47.5 -9t-17 -36.5t-3.5 -100.5v-112h135v112q0 74 -3.5 101zM374.5 814q-9.5 -29 -38 -45.5t-84.5 -16.5
q-55 0 -83 16.5t-37 45.5t-9 74h79q0 -23 2.5 -34.5t13 -19t34.5 -7.5q35 0 44 14.5t9 46.5h79q0 -45 -9.5 -74zM204 915l-78 141v5h128l53 -141v-5h-103z" />
    <glyph glyph-name="uni1EB2.ss01" 
d="M271.5 963.5q7.5 5.5 7.5 15.5q0 11 -8.5 14t-32.5 3q-57 0 -100 -4v75q62 12 110 12q60 0 91.5 -18t31.5 -68q0 -34 -10 -51.5t-40 -31.5l-16 -7q-26 -11 -31.5 -16.5t-5.5 -21.5h-66q2 -19 12 -28.5t37 -9.5q35 0 44 14.5t9 46.5h79q0 -45 -9.5 -74t-38 -45.5
t-84.5 -16.5q-55 0 -83 16.5t-37 45.5t-9 74h65q0 24 9 35t31 20l13 5q24 10 31.5 15.5zM392.5 668.5q42.5 -27.5 54 -88.5t11.5 -197v-383h-138v194h-135v-194h-137v383q0 136 11.5 197t54 88.5t139.5 27.5t139.5 -27.5zM320 429q0 74 -3.5 101t-16.5 36t-47 9t-47.5 -9
t-17 -36.5t-3.5 -100.5v-112h135v112z" />
    <glyph glyph-name="uni1EB4.ss01" 
d="M320 194h-135v-194h-137v383q0 136 11.5 197t54 88.5t139.5 27.5t139.5 -27.5t54 -88.5t11.5 -197v-383h-138v194zM316.5 530q-3.5 27 -16.5 36t-47 9t-47.5 -9t-17 -36.5t-3.5 -100.5v-112h135v112q0 74 -3.5 101zM371.5 814q-9.5 -29 -38 -45.5t-84.5 -16.5
q-55 0 -83 16.5t-37 45.5t-9 74h79q0 -23 2.5 -34.5t13 -19t34.5 -7.5q35 0 44 14.5t9 46.5h79q0 -45 -9.5 -74zM404 990.5q-4 -25.5 -19.5 -40t-50.5 -14.5t-89 16q-6 2 -24.5 7t-29.5 5q-13 0 -16 -8t-3 -32h-74q0 50 4 76t20 40.5t51 14.5q33 0 88 -17q40 -11 55 -11
q13 0 15.5 7.5t2.5 31.5h74q0 -50 -4 -75.5z" />
    <glyph glyph-name="uni01CD.ss01" 
d="M320 194h-135v-194h-137v383q0 136 11.5 197t54 88.5t139.5 27.5t139.5 -27.5t54 -88.5t11.5 -197v-383h-138v194zM316.5 530q-3.5 27 -16.5 36t-47 9t-47.5 -9t-17 -36.5t-3.5 -100.5v-112h135v112q0 74 -3.5 101zM189 756l-75 124v8h88l51 -71l52 71h88v-8l-76 -124
h-128z" />
    <glyph glyph-name="Acircumflex.ss01" 
d="M320 194h-135v-194h-137v383q0 136 11.5 197t54 88.5t139.5 27.5t139.5 -27.5t54 -88.5t11.5 -197v-383h-138v194zM316.5 530q-3.5 27 -16.5 36t-47 9t-47.5 -9t-17 -36.5t-3.5 -100.5v-112h135v112q0 74 -3.5 101zM117 750v8l75 123h129l76 -123v-8h-89l-52 71l-51 -71
h-88z" />
    <glyph glyph-name="uni1EA4.ss01" 
d="M320 194h-135v-194h-137v383q0 136 11.5 197t54 88.5t139.5 27.5t139.5 -27.5t54 -88.5t11.5 -197v-383h-138v194zM316.5 530q-3.5 27 -16.5 36t-47 9t-47.5 -9t-17 -36.5t-3.5 -100.5v-112h135v112q0 74 -3.5 101zM114 734v8l75 123h129l76 -123v-8h-89l-52 71l-51 -71
h-88zM275 892v5l53 141h128v-5l-79 -141h-102z" />
    <glyph glyph-name="uni1EAC.ss01" 
d="M320 194h-135v-194h-137v383q0 136 11.5 197t54 88.5t139.5 27.5t139.5 -27.5t54 -88.5t11.5 -197v-383h-138v194zM316.5 530q-3.5 27 -16.5 36t-47 9t-47.5 -9t-17 -36.5t-3.5 -100.5v-112h135v112q0 74 -3.5 101zM113 757v8l75 123h129l76 -123v-8h-89l-52 71l-51 -71
h-88zM182 -193v131h141v-131h-141z" />
    <glyph glyph-name="uni1EA6.ss01" 
d="M320 194h-135v-194h-137v383q0 136 11.5 197t54 88.5t139.5 27.5t139.5 -27.5t54 -88.5t11.5 -197v-383h-138v194zM316.5 530q-3.5 27 -16.5 36t-47 9t-47.5 -9t-17 -36.5t-3.5 -100.5v-112h135v112q0 74 -3.5 101zM106 726v8l75 123h129l76 -123v-8h-89l-52 71l-51 -71
h-88zM297 884l-78 141v5h128l53 -141v-5h-103z" />
    <glyph glyph-name="uni1EA8.ss01" 
d="M320 194h-135v-194h-137v383q0 136 11.5 197t54 88.5t139.5 27.5t139.5 -27.5t54 -88.5t11.5 -197v-383h-138v194zM316.5 530q-3.5 27 -16.5 36t-47 9t-47.5 -9t-17 -36.5t-3.5 -100.5v-112h135v112q0 74 -3.5 101zM113 727v8l75 123h129l76 -123v-8h-89l-52 71l-51 -71
h-88zM294 898q0 26 8.5 37t31.5 20l13 5q23 9 31 15t8 16q0 11 -8.5 14t-32.5 3q-52 0 -100 -3v74q67 13 110 13q60 0 91.5 -18.5t31.5 -68.5q0 -34 -10 -51.5t-40 -31.5l-16 -7q-26 -11 -31.5 -16.5t-5.5 -20.5h-81v20z" />
    <glyph glyph-name="uni1EAA.ss01" 
d="M320 194h-135v-194h-137v383q0 136 11.5 197t54 88.5t139.5 27.5t139.5 -27.5t54 -88.5t11.5 -197v-383h-138v194zM316.5 530q-3.5 27 -16.5 36t-47 9t-47.5 -9t-17 -36.5t-3.5 -100.5v-112h135v112q0 74 -3.5 101zM111 727v8l75 123h129l76 -123v-8h-89l-52 71l-51 -71
h-88zM404 955.5q-4 -25.5 -19.5 -40t-50.5 -14.5t-89 16q-6 2 -24.5 7t-29.5 5q-13 0 -16 -8t-3 -32h-74q0 50 4 76t20 40.5t51 14.5q33 0 88 -17q40 -11 55 -11q13 0 15.5 7.5t2.5 31.5h74q0 -50 -4 -75.5z" />
    <glyph glyph-name="uni0200.ss01" 
d="M320 194h-135v-194h-137v383q0 136 11.5 197t54 88.5t139.5 27.5t139.5 -27.5t54 -88.5t11.5 -197v-383h-138v194zM316.5 530q-3.5 27 -16.5 36t-47 9t-47.5 -9t-17 -36.5t-3.5 -100.5v-112h135v112q0 74 -3.5 101zM226 755h-85l-65 117v4h105l45 -117v-4zM372 755h-85
l-64 117v4h105l44 -117v-4z" />
    <glyph glyph-name="Adieresis.ss01" 
d="M320 194h-135v-194h-137v383q0 136 11.5 197t54 88.5t139.5 27.5t139.5 -27.5t54 -88.5t11.5 -197v-383h-138v194zM316.5 530q-3.5 27 -16.5 36t-47 9t-47.5 -9t-17 -36.5t-3.5 -100.5v-112h135v112q0 74 -3.5 101zM114 776v103h111v-103h-111zM289 776v103h111v-103
h-111z" />
    <glyph glyph-name="uni1EA0.ss01" 
d="M320 194h-135v-194h-137v383q0 136 11.5 197t54 88.5t139.5 27.5t139.5 -27.5t54 -88.5t11.5 -197v-383h-138v194zM316.5 530q-3.5 27 -16.5 36t-47 9t-47.5 -9t-17 -36.5t-3.5 -100.5v-112h135v112q0 74 -3.5 101zM182 -193v131h141v-131h-141z" />
    <glyph glyph-name="Agrave.ss01" 
d="M320 194h-135v-194h-137v383q0 136 11.5 197t54 88.5t139.5 27.5t139.5 -27.5t54 -88.5t11.5 -197v-383h-138v194zM316.5 530q-3.5 27 -16.5 36t-47 9t-47.5 -9t-17 -36.5t-3.5 -100.5v-112h135v112q0 74 -3.5 101zM210 749l-78 141v5h128l53 -141v-5h-103z" />
    <glyph glyph-name="uni1EA2.ss01" 
d="M320 194h-135v-194h-137v383q0 136 11.5 197t54 88.5t139.5 27.5t139.5 -27.5t54 -88.5t11.5 -197v-383h-138v194zM316.5 530q-3.5 27 -16.5 36t-47 9t-47.5 -9t-17 -36.5t-3.5 -100.5v-112h135v112q0 74 -3.5 101zM185 746q0 26 8.5 37t31.5 20l13 5q24 10 31.5 15.5
t7.5 15.5q0 11 -8.5 14t-32.5 3q-57 0 -100 -4v75q62 12 110 12q60 0 91.5 -18t31.5 -68q0 -34 -10 -51.5t-40 -31.5l-16 -7q-26 -11 -31.5 -16.5t-5.5 -21.5h-81v21z" />
    <glyph glyph-name="uni0202.ss01" 
d="M320 194h-135v-194h-137v383q0 136 11.5 197t54 88.5t139.5 27.5t139.5 -27.5t54 -88.5t11.5 -197v-383h-138v194zM316.5 530q-3.5 27 -16.5 36t-47 9t-47.5 -9t-17 -36.5t-3.5 -100.5v-112h135v112q0 74 -3.5 101zM131.5 832q9.5 29 38 45.5t84.5 16.5q55 0 83 -16.5
t37 -45.5t9 -74h-79q0 23 -2.5 34.5t-13 19t-34.5 7.5q-35 0 -44 -14.5t-9 -46.5h-79q0 45 9.5 74z" />
    <glyph glyph-name="Amacron.ss01" 
d="M320 194h-135v-194h-137v383q0 136 11.5 197t54 88.5t139.5 27.5t139.5 -27.5t54 -88.5t11.5 -197v-383h-138v194zM316.5 530q-3.5 27 -16.5 36t-47 9t-47.5 -9t-17 -36.5t-3.5 -100.5v-112h135v112q0 74 -3.5 101zM152 772v116h202v-116h-202z" />
    <glyph glyph-name="Aogonek.ss01" 
d="M382 -41q-14 -24 -14 -45q0 -18 8.5 -28t30.5 -10l13 2v-70q-21 -4 -53 -4q-54 0 -77 23.5t-23 62.5q0 28 14.5 57.5t38.5 54.5v192h-135v-194h-137v383q0 136 11.5 197t54 88.5t139.5 27.5t139.5 -27.5t54 -88.5t11.5 -197v-383h-44q-18 -17 -32 -41zM320 317v112
q0 74 -3.5 101t-16.5 36t-47 9t-47.5 -9t-17 -36.5t-3.5 -100.5v-112h135z" />
    <glyph glyph-name="Aring.ss01" 
d="M320 194h-135v-194h-137v383q0 136 11.5 197t54 88.5t139.5 27.5t139.5 -27.5t54 -88.5t11.5 -197v-383h-138v194zM316.5 530q-3.5 27 -16.5 36t-47 9t-47.5 -9t-17 -36.5t-3.5 -100.5v-112h135v112q0 74 -3.5 101zM170.5 740.5q-26.5 11.5 -33.5 33t-7 64.5q0 44 7 65.5
t33.5 33t85.5 11.5q60 0 86.5 -11.5t33.5 -33t7 -65.5t-7 -65t-33.5 -32.5t-86.5 -11.5q-59 0 -85.5 11.5zM288.5 796.5q9.5 3.5 12 12t2.5 29.5t-2.5 30t-12 13t-32.5 4q-22 0 -31 -4t-11.5 -13t-2.5 -30t2.5 -29.5t11.5 -12t31 -3.5q23 0 32.5 3.5z" />
    <glyph glyph-name="Aringacute.ss01" 
d="M320 194h-135v-194h-137v383q0 136 11.5 197t54 88.5t139.5 27.5t139.5 -27.5t54 -88.5t11.5 -197v-383h-138v194zM316.5 530q-3.5 27 -16.5 36t-47 9t-47.5 -9t-17 -36.5t-3.5 -100.5v-112h135v112q0 74 -3.5 101zM166.5 733.5q-26.5 11.5 -33.5 33t-7 64.5q0 44 7 65.5
t33.5 33t85.5 11.5q60 0 86.5 -11.5t33.5 -33t7 -65.5t-7 -65t-33.5 -32.5t-86.5 -11.5q-59 0 -85.5 11.5zM284.5 789.5q9.5 3.5 12 12t2.5 29.5t-2.5 30t-12 13t-32.5 4q-22 0 -31 -4t-11.5 -13t-2.5 -30t2.5 -29.5t11.5 -12t31 -3.5q23 0 32.5 3.5zM199 965v5l53 141h128
v-5l-79 -141h-102z" />
    <glyph glyph-name="Atilde.ss01" 
d="M320 194h-135v-194h-137v383q0 136 11.5 197t54 88.5t139.5 27.5t139.5 -27.5t54 -88.5t11.5 -197v-383h-138v194zM316.5 530q-3.5 27 -16.5 36t-47 9t-47.5 -9t-17 -36.5t-3.5 -100.5v-112h135v112q0 74 -3.5 101zM407 816.5q-4 -25.5 -19.5 -40t-50.5 -14.5t-89 16
q-6 2 -24.5 7t-29.5 5q-13 0 -16 -8t-3 -32h-74q0 50 4 76t20 40.5t51 14.5q33 0 88 -17q40 -11 55 -11q13 0 15.5 7.5t2.5 31.5h74q0 -50 -4 -75.5z" />
    <glyph glyph-name="G.ss01" horiz-adv-x="495" 
d="M116 21q-46 29 -61.5 100.5t-15.5 222.5q0 147 19 220.5t68.5 102.5t150.5 29q37 0 83 -6t81 -14v-113q-34 5 -70.5 8.5t-56.5 3.5q-69 0 -95 -12.5t-34.5 -57.5t-8.5 -161q0 -114 5.5 -160t20.5 -58.5t52 -12.5q36 0 49 7t16.5 32.5t3.5 94.5v40h-64v118h198v-136
q0 -118 -9.5 -171t-50.5 -79.5t-136 -26.5q-99 0 -145 29z" />
    <glyph glyph-name="uni01F4.ss01" horiz-adv-x="495" 
d="M116 21q-46 29 -61.5 100.5t-15.5 222.5q0 147 19 220.5t68.5 102.5t150.5 29q37 0 83 -6t81 -14v-113q-34 5 -70.5 8.5t-56.5 3.5q-69 0 -95 -12.5t-34.5 -57.5t-8.5 -161q0 -114 5.5 -160t20.5 -58.5t52 -12.5q36 0 49 7t16.5 32.5t3.5 94.5v40h-64v118h198v-136
q0 -118 -9.5 -171t-50.5 -79.5t-136 -26.5q-99 0 -145 29zM192 742v5l53 141h128v-5l-79 -141h-102z" />
    </font>
</defs>
</svg>
